<svg width="100" height="100" version="1.1" viewBox="0 0 26.458 26.458" xmlns="http://www.w3.org/2000/svg">
<g transform="translate(0 -270.54)" stroke="#00f000">
<path d="m0.4009 285.44 9.3544 11.292 16.571-25.725-16.237 21.047z" fill="none" stroke-width=".26458px"/>
<g fill="#00f000" stroke-width=".75761">
<path transform="matrix(.26458 0 0 .26458 0 270.54)" d="m21.091 79.058c-8.5662-10.339-15.575-18.875-15.575-18.967 0-0.09265 0.15316-0.10968 0.34035-0.03785 0.18719 0.07183 7.5286 5.0418 16.314 11.044l15.974 10.914 0.56899-0.60004c0.31294-0.33002 11.29-14.512 24.394-31.516 13.104-17.004 24.077-31.209 24.385-31.567 0.30822-0.35809 0.63239-0.57929 0.72036-0.49155 0.16151 0.16106-51.131 80.009-51.402 80.017-0.08005 0.0023-7.1543-8.4553-15.72-18.795z" style="paint-order:normal"/>
<path transform="matrix(.26458 0 0 .26458 0 270.54)" d="m36.281 98.932c-0.35626-0.38288-8.3996-10.058-17.874-21.5-14.233-17.189-17.168-20.861-16.889-21.13 0.2774-0.26835 2.5886 1.2138 13.09 8.3946 7.0142 4.7963 15.158 10.355 18.097 12.354l5.3443 3.6332 30.493-39.529c16.771-21.741 30.617-39.485 30.769-39.431 0.15184 0.053988 0.26431 0.26066 0.24994 0.45928-0.02121 0.29295-61.878 96.609-62.46 97.255-0.09463 0.10509-0.46354-0.1222-0.8198-0.50508zm-31.15-39.623c-0.56923-0.41623-0.81006-0.23891-0.37974 0.27959 0.17443 0.21017 0.43512 0.30921 0.57932 0.2201 0.16062-0.09927 0.0833-0.29284-0.19958-0.49969zm85.338-44.348c1.0547-1.632 1.8681-2.9673 1.8076-2.9673-0.33857 0-4.0556 5.2372-4.0654 5.7281-0.0151 0.75233-0.0029 0.7374 2.2578-2.7608z" style="paint-order:normal"/>
</g>
</g>
</svg>
