<?xml version="1.0" encoding="UTF-8" standalone="no"?>
<svg
   xmlns:dc="http://purl.org/dc/elements/1.1/"
   xmlns:cc="http://creativecommons.org/ns#"
   xmlns:rdf="http://www.w3.org/1999/02/22-rdf-syntax-ns#"
   xmlns:svg="http://www.w3.org/2000/svg"
   xmlns="http://www.w3.org/2000/svg"
   xmlns:sodipodi="http://sodipodi.sourceforge.net/DTD/sodipodi-0.dtd"
   xmlns:inkscape="http://www.inkscape.org/namespaces/inkscape"
   width="50"
   height="50"
   viewBox="0 0 50 50"
   version="1.1"
   id="svg847"
   sodipodi:docname="envelope.svg"
   inkscape:version="0.92.2 (5c3e80d, 2017-08-06)">
  <metadata
     id="metadata853">
    <rdf:RDF>
      <cc:Work
         rdf:about="">
        <dc:format>image/svg+xml</dc:format>
        <dc:type
           rdf:resource="http://purl.org/dc/dcmitype/StillImage" />
        <dc:title></dc:title>
      </cc:Work>
    </rdf:RDF>
  </metadata>
  <defs
     id="defs851" />
  <sodipodi:namedview
     pagecolor="#ffffff"
     bordercolor="#666666"
     borderopacity="1"
     objecttolerance="10"
     gridtolerance="10"
     guidetolerance="10"
     inkscape:pageopacity="0"
     inkscape:pageshadow="2"
     inkscape:window-width="1920"
     inkscape:window-height="1017"
     id="namedview849"
     showgrid="false"
     inkscape:pagecheckerboard="true"
     inkscape:zoom="10.365854"
     inkscape:cx="20"
     inkscape:cy="23.958829"
     inkscape:window-x="-8"
     inkscape:window-y="-8"
     inkscape:window-maximized="1"
     inkscape:current-layer="g845" />
  <g
     id="g845"
     style="fill:none;fill-rule:evenodd"
     transform="translate(0,9)">
    <path
       d="M 0.38588235,27.300217 V 9.7746942 L 20.760347,-7.3086645 c 2.019713,-1.8671823 5.691917,-2.0539005 7.895241,-0.1867183 l 20.895,17.270077 v 6.3770118 l -5.933671,3.52936 -5.855148,6.331993 z"
       id="path835"
       inkscape:connector-curvature="0"
       style="fill:#9966cc;stroke-width:1.2313453;fill-opacity:1" />
    <path
       d="m 8.989706,-2.561075 c 0,-1.3037505 1.106206,-2.4671539 2.282647,-2.4671539 h 27.391764 c 1.182057,0 2.282647,1.1574966 2.282647,2.4671539 0,10.178538 0,17.58 0,22.204385 0,3.821061 -2.282647,6.288215 -6.847941,7.401462 -0.278356,7.401461 -1.039239,11.102192 -2.282646,11.102192 -4.765613,0 -11.613553,0 -20.543824,0 -1.182058,0 -2.282647,-1.157496 -2.282647,-2.467154 z"
       id="path837"
       inkscape:connector-curvature="0"
       style="fill:#f6f9fc;fill-rule:nonzero;stroke-width:1.2313453" />
    <path
       d="M 49.550588,9.7746942 V 33.357783 c 0,4.457462 -2.863963,7.256335 -7.230104,7.256335 H 7.6159862 c -4.3661403,0 -7.23010385,-2.798873 -7.23010385,-7.256335 V 9.7746942 L 23.531104,26.513379 c 0.858279,0.620709 2.015983,0.620709 2.874262,0 z"
       id="path839"
       inkscape:connector-curvature="0"
       style="fill:#663399;stroke-width:1.2313453;fill-opacity:1" />
  </g>
</svg>
