<svg width="411.78" height="99.015" version="1.1" viewBox="0 0 108.95 26.198" xmlns="http://www.w3.org/2000/svg">
<g transform="translate(-17.51 -270.46)">
<g transform="matrix(.92527 0 0 1.0808 .52917 0)" fill="none" stroke="#f0f0f0" stroke-width="3.7042" aria-label="Good Call">
<path d="m36.09 256.1q0 0.27633-0.02909 0.49448-0.02909 0.20361-0.08726 0.34905-0.05818 0.13089-0.14544 0.18907-0.08726 0.0582-0.18907 0.0582-0.17452 0-0.58174-0.27633t-1.0908-0.61083q-0.68355-0.33451-1.6434-0.61084-0.94534-0.27632-2.2543-0.27632-1.5562 0-2.7924 0.5672-1.2362 0.5672-2.0943 1.5707t-1.3235 2.3852q-0.45085 1.3816-0.45085 2.996 0 1.8034 0.49448 3.1996 0.50903 1.3962 1.3962 2.3561t2.1088 1.4544q1.2362 0.49449 2.7051 0.49449 0.87262 0 1.7598-0.20361 0.90171-0.21816 1.6725-0.63992v-5.483h-4.3631q-0.24724 0-0.37813-0.24724-0.11635-0.24724-0.11635-0.77081 0-0.27633 0.02909-0.4654 0.02909-0.20361 0.08726-0.31996 0.07272-0.13089 0.15998-0.18907 0.08726-0.0582 0.21815-0.0582h5.9774q0.15998 0 0.31996 0.0582t0.29087 0.17453q0.13089 0.11635 0.20361 0.31996 0.07272 0.20361 0.07272 0.46539v7.17q0 0.37813-0.13089 0.65446-0.13089 0.27633-0.55266 0.49449-0.42177 0.20361-1.0908 0.45085-0.66901 0.24724-1.3816 0.42177-0.71264 0.17452-1.4398 0.26178-0.72718 0.0873-1.4398 0.0873-2.1815 0-3.8977-0.669-1.7162-0.68356-2.9087-1.9343-1.178-1.2508-1.8034-2.996-0.62538-1.7452-0.62538-3.8977 0-2.2397 0.66901-4.0577 0.68355-1.818 1.9052-3.0978 1.2362-1.2798 2.9524-1.9779 1.7307-0.71264 3.825-0.71264 1.0762 0 2.0216 0.18907 0.94534 0.18906 1.6725 0.45085 0.74173 0.24724 1.2362 0.55266 0.50903 0.29087 0.69809 0.47994 0.18907 0.18907 0.26179 0.43631 0.07272 0.24724 0.07272 0.71264z"/>
<path d="m52.641 265.31q0 1.5998-0.42177 2.9524-0.42177 1.338-1.2653 2.3124-0.82899 0.97442-2.0943 1.5271-1.2508 0.53812-2.9087 0.53812-1.6143 0-2.8215-0.47994-1.1926-0.47994-1.9925-1.3962-0.7999-0.91625-1.1926-2.2252-0.39268-1.3089-0.39268-2.9669 0-1.5998 0.40722-2.9378 0.42177-1.3526 1.2508-2.327 0.84353-0.97443 2.0943-1.5125t2.9233-0.53811q1.6143 0 2.8069 0.47994 1.2071 0.47994 2.007 1.3962 0.7999 0.91624 1.1926 2.2252 0.40722 1.3089 0.40722 2.9524zm-2.5306 0.15998q0-1.0617-0.20361-2.007-0.18907-0.94534-0.63992-1.658-0.45085-0.71263-1.2217-1.1199-0.77081-0.42176-1.9198-0.42176-1.0617 0-1.8325 0.37813-0.75627 0.37814-1.2508 1.0762-0.49448 0.68355-0.74172 1.6289-0.2327 0.94534-0.2327 2.0652 0 1.0762 0.18907 2.0216 0.20361 0.94534 0.65446 1.658 0.4654 0.69809 1.2362 1.1199 0.77081 0.40722 1.9198 0.40722 1.0471 0 1.818-0.37813 0.77081-0.37814 1.2653-1.0617t0.72718-1.6289q0.2327-0.94533 0.2327-2.0797z"/>
<path d="m68.348 265.31q0 1.5998-0.42177 2.9524-0.42176 1.338-1.2653 2.3124-0.82899 0.97442-2.0943 1.5271-1.2508 0.53812-2.9087 0.53812-1.6143 0-2.8215-0.47994-1.1926-0.47994-1.9925-1.3962-0.7999-0.91625-1.1926-2.2252t-0.39268-2.9669q0-1.5998 0.40722-2.9378 0.42176-1.3526 1.2508-2.327 0.84353-0.97443 2.0943-1.5125t2.9233-0.53811q1.6143 0 2.8069 0.47994 1.2071 0.47994 2.007 1.3962 0.7999 0.91624 1.1926 2.2252 0.40722 1.3089 0.40722 2.9524zm-2.5306 0.15998q0-1.0617-0.20361-2.007-0.18907-0.94534-0.63992-1.658-0.45085-0.71263-1.2217-1.1199-0.77081-0.42176-1.9198-0.42176-1.0617 0-1.8325 0.37813-0.75627 0.37814-1.2508 1.0762-0.49448 0.68355-0.74173 1.6289-0.2327 0.94534-0.2327 2.0652 0 1.0762 0.18907 2.0216 0.20361 0.94534 0.65446 1.658 0.4654 0.69809 1.2362 1.1199 0.77081 0.40722 1.9198 0.40722 1.0471 0 1.818-0.37813 0.77081-0.37814 1.2653-1.0617t0.72718-1.6289q0.2327-0.94533 0.2327-2.0797z"/>
<path d="m83.095 272q0 0.11635-0.05818 0.20361-0.04363 0.0873-0.17452 0.14543-0.11635 0.0436-0.31996 0.0727-0.20361 0.0291-0.49448 0.0291-0.30542 0-0.50903-0.0291t-0.3345-0.0727q-0.13089-0.0582-0.18907-0.14543-0.05817-0.0873-0.05817-0.20361v-1.7307q-1.0326 1.1199-2.1525 1.7452-1.1053 0.62538-2.4288 0.62538-1.4398 0-2.4579-0.55266-1.0181-0.5672-1.658-1.5125-0.62538-0.95988-0.91625-2.2397-0.29087-1.2944-0.29087-2.7197 0-1.6871 0.36359-3.0396 0.36359-1.3671 1.0762-2.327 0.71264-0.95988 1.7598-1.4689 1.0617-0.52357 2.4433-0.52357 1.1489 0 2.0943 0.50902 0.95988 0.49449 1.8907 1.4689v-7.6063q0-0.10181 0.04363-0.18907 0.05818-0.10181 0.20361-0.14544 0.14544-0.0582 0.36359-0.0873 0.2327-0.0436 0.58175-0.0436 0.36359 0 0.59629 0.0436 0.2327 0.0291 0.36359 0.0873 0.13089 0.0436 0.18907 0.14544 0.07272 0.0873 0.07272 0.18907zm-2.4142-9.2061q-0.97442-1.2071-1.8907-1.8325-0.90171-0.63992-1.8907-0.63992-0.91625 0-1.5562 0.43631t-1.0471 1.149q-0.39268 0.71264-0.58175 1.6143-0.17452 0.90171-0.17452 1.8325 0 0.98897 0.14544 1.9343 0.15998 0.94533 0.53812 1.6871 0.37813 0.72718 1.0035 1.178 0.62538 0.43631 1.5707 0.43631 0.47994 0 0.91625-0.13089 0.45085-0.13089 0.91625-0.43631t0.97442-0.78536q0.50903-0.49448 1.0762-1.2071z"/>
<path d="m107.12 269.7q0 0.2327-0.0145 0.40722-0.0145 0.17453-0.0582 0.30542-0.0291 0.13089-0.0873 0.2327-0.0582 0.1018-0.20361 0.24724-0.14544 0.14544-0.61083 0.45085-0.4654 0.29088-1.1635 0.58175-0.68356 0.27633-1.5853 0.46539-0.88716 0.20362-1.9488 0.20362-1.8325 0-3.3159-0.61084-1.4689-0.61083-2.516-1.8034-1.0326-1.1926-1.5998-2.9378-0.55266-1.7598-0.55266-4.0431 0-2.3415 0.59629-4.174 0.61083-1.8325 1.7016-3.0978 1.0908-1.2798 2.6033-1.9488 1.5271-0.669 3.3741-0.669 0.81445 0 1.5853 0.15998 0.77081 0.14543 1.4253 0.37813 0.65446 0.2327 1.1635 0.53812 0.50903 0.30541 0.69809 0.50902 0.20361 0.18907 0.26179 0.29088 0.0582 0.1018 0.0873 0.24724 0.0436 0.13089 0.0582 0.31996 0.0291 0.18907 0.0291 0.45085 0 0.29087-0.0291 0.49449-0.0291 0.20361-0.0873 0.34904-0.0582 0.1309-0.14543 0.20361-0.0727 0.0582-0.18907 0.0582-0.20361 0-0.5672-0.27633-0.36359-0.29087-0.94534-0.62538-0.5672-0.34904-1.3962-0.62537-0.81444-0.29088-1.9634-0.29088-1.2508 0-2.2834 0.50903-1.0181 0.49448-1.7452 1.4689-0.72718 0.97442-1.1344 2.3852-0.39268 1.3962-0.39268 3.1996 0 1.7889 0.37814 3.1705 0.39268 1.3671 1.1053 2.2979 0.72718 0.91625 1.7743 1.3962 1.0471 0.46539 2.3706 0.46539 1.1199 0 1.9488-0.27633 0.84353-0.27633 1.4253-0.61083 0.59629-0.34905 0.97443-0.62538 0.37813-0.27633 0.59629-0.27633 0.1018 0 0.17452 0.0436 0.0727 0.0436 0.11635 0.17452 0.0436 0.11635 0.0582 0.3345 0.0291 0.21816 0.0291 0.55266z"/>
<path d="m120.02 272.01q0 0.17452-0.11635 0.26179-0.11635 0.0873-0.31996 0.13089-0.20361 0.0436-0.59629 0.0436-0.37814 0-0.61083-0.0436-0.21816-0.0436-0.31996-0.13089-0.10181-0.0873-0.10181-0.26179v-1.3089q-0.85807 0.91625-1.9198 1.4253-1.0471 0.50903-2.2252 0.50903-1.0326 0-1.8761-0.27633-0.82898-0.26179-1.4253-0.77082-0.58175-0.50902-0.91625-1.2508-0.31996-0.74172-0.31996-1.6871 0-1.1053 0.45085-1.9198 0.45085-0.81445 1.2944-1.3526t2.0652-0.7999q1.2217-0.27633 2.7488-0.27633h1.8034v-1.018q0-0.75627-0.15998-1.338t-0.52357-0.95988q-0.34905-0.39268-0.91625-0.58175-0.5672-0.20361-1.3962-0.20361-0.88716 0-1.5998 0.21816-0.6981 0.20361-1.2362 0.46539-0.52357 0.24725-0.88716 0.4654-0.34905 0.20361-0.52357 0.20361-0.11635 0-0.20361-0.0582-0.0873-0.0582-0.15998-0.17453-0.0582-0.11635-0.0873-0.29087-0.0291-0.18907-0.0291-0.40722 0-0.36359 0.0436-0.5672 0.0582-0.21816 0.24724-0.40722 0.20361-0.18907 0.68355-0.43631 0.47994-0.26179 1.1053-0.4654 0.62537-0.21816 1.3671-0.34905 0.74173-0.14543 1.498-0.14543 1.4107 0 2.3997 0.31996 0.98896 0.31996 1.5998 0.94533 0.61083 0.61084 0.88716 1.5271 0.27633 0.91625 0.27633 2.1379zm-2.3852-5.9774h-2.0506q-0.98897 0-1.7162 0.17453-0.72719 0.15998-1.2071 0.49448-0.47994 0.31996-0.71263 0.78536-0.21816 0.45085-0.21816 1.0471 0 1.018 0.63992 1.6289 0.65447 0.59629 1.818 0.59629 0.94533 0 1.7452-0.47994 0.81445-0.47994 1.7016-1.4689z"/>
<path d="m126.81 272q0 0.11635-0.0582 0.20361-0.0582 0.0727-0.18906 0.13089-0.1309 0.0582-0.36359 0.0873-0.2327 0.0291-0.59629 0.0291-0.34905 0-0.58175-0.0291t-0.37813-0.0873q-0.1309-0.0582-0.18907-0.13089-0.0436-0.0873-0.0436-0.20361v-19.43q0-0.11635 0.0436-0.20361 0.0582-0.0873 0.18907-0.14544 0.14543-0.0582 0.37813-0.0873t0.58175-0.0291q0.36359 0 0.59629 0.0291 0.23269 0.0291 0.36359 0.0873 0.13089 0.0582 0.18906 0.14544 0.0582 0.0873 0.0582 0.20361z"/>
<path d="m133.68 272q0 0.11635-0.0582 0.20361-0.0582 0.0727-0.18907 0.13089-0.13089 0.0582-0.36359 0.0873t-0.59629 0.0291q-0.34905 0-0.58175-0.0291t-0.37813-0.0873q-0.1309-0.0582-0.18907-0.13089-0.0436-0.0873-0.0436-0.20361v-19.43q0-0.11635 0.0436-0.20361 0.0582-0.0873 0.18907-0.14544 0.14543-0.0582 0.37813-0.0873t0.58175-0.0291q0.36359 0 0.59629 0.0291t0.36359 0.0873 0.18907 0.14544q0.0582 0.0873 0.0582 0.20361z"/>
</g>
<g transform="matrix(.92527 0 0 1.0808 .52917 0)" fill="#00f000" aria-label="Good Call">
<path d="m36.09 256.1q0 0.27633-0.02909 0.49448-0.02909 0.20361-0.08726 0.34905-0.05818 0.13089-0.14544 0.18907-0.08726 0.0582-0.18907 0.0582-0.17452 0-0.58174-0.27633t-1.0908-0.61083q-0.68355-0.33451-1.6434-0.61084-0.94534-0.27632-2.2543-0.27632-1.5562 0-2.7924 0.5672-1.2362 0.5672-2.0943 1.5707t-1.3235 2.3852q-0.45085 1.3816-0.45085 2.996 0 1.8034 0.49448 3.1996 0.50903 1.3962 1.3962 2.3561t2.1088 1.4544q1.2362 0.49449 2.7051 0.49449 0.87262 0 1.7598-0.20361 0.90171-0.21816 1.6725-0.63992v-5.483h-4.3631q-0.24724 0-0.37813-0.24724-0.11635-0.24724-0.11635-0.77081 0-0.27633 0.02909-0.4654 0.02909-0.20361 0.08726-0.31996 0.07272-0.13089 0.15998-0.18907 0.08726-0.0582 0.21815-0.0582h5.9774q0.15998 0 0.31996 0.0582t0.29087 0.17453q0.13089 0.11635 0.20361 0.31996 0.07272 0.20361 0.07272 0.46539v7.17q0 0.37813-0.13089 0.65446-0.13089 0.27633-0.55266 0.49449-0.42177 0.20361-1.0908 0.45085-0.66901 0.24724-1.3816 0.42177-0.71264 0.17452-1.4398 0.26178-0.72718 0.0873-1.4398 0.0873-2.1815 0-3.8977-0.669-1.7162-0.68356-2.9087-1.9343-1.178-1.2508-1.8034-2.996-0.62538-1.7452-0.62538-3.8977 0-2.2397 0.66901-4.0577 0.68355-1.818 1.9052-3.0978 1.2362-1.2798 2.9524-1.9779 1.7307-0.71264 3.825-0.71264 1.0762 0 2.0216 0.18907 0.94534 0.18906 1.6725 0.45085 0.74173 0.24724 1.2362 0.55266 0.50903 0.29087 0.69809 0.47994 0.18907 0.18907 0.26179 0.43631 0.07272 0.24724 0.07272 0.71264z"/>
<path d="m52.641 265.31q0 1.5998-0.42177 2.9524-0.42177 1.338-1.2653 2.3124-0.82899 0.97442-2.0943 1.5271-1.2508 0.53812-2.9087 0.53812-1.6143 0-2.8215-0.47994-1.1926-0.47994-1.9925-1.3962-0.7999-0.91625-1.1926-2.2252-0.39268-1.3089-0.39268-2.9669 0-1.5998 0.40722-2.9378 0.42177-1.3526 1.2508-2.327 0.84353-0.97443 2.0943-1.5125t2.9233-0.53811q1.6143 0 2.8069 0.47994 1.2071 0.47994 2.007 1.3962 0.7999 0.91624 1.1926 2.2252 0.40722 1.3089 0.40722 2.9524zm-2.5306 0.15998q0-1.0617-0.20361-2.007-0.18907-0.94534-0.63992-1.658-0.45085-0.71263-1.2217-1.1199-0.77081-0.42176-1.9198-0.42176-1.0617 0-1.8325 0.37813-0.75627 0.37814-1.2508 1.0762-0.49448 0.68355-0.74172 1.6289-0.2327 0.94534-0.2327 2.0652 0 1.0762 0.18907 2.0216 0.20361 0.94534 0.65446 1.658 0.4654 0.69809 1.2362 1.1199 0.77081 0.40722 1.9198 0.40722 1.0471 0 1.818-0.37813 0.77081-0.37814 1.2653-1.0617t0.72718-1.6289q0.2327-0.94533 0.2327-2.0797z"/>
<path d="m68.348 265.31q0 1.5998-0.42177 2.9524-0.42176 1.338-1.2653 2.3124-0.82899 0.97442-2.0943 1.5271-1.2508 0.53812-2.9087 0.53812-1.6143 0-2.8215-0.47994-1.1926-0.47994-1.9925-1.3962-0.7999-0.91625-1.1926-2.2252t-0.39268-2.9669q0-1.5998 0.40722-2.9378 0.42176-1.3526 1.2508-2.327 0.84353-0.97443 2.0943-1.5125t2.9233-0.53811q1.6143 0 2.8069 0.47994 1.2071 0.47994 2.007 1.3962 0.7999 0.91624 1.1926 2.2252 0.40722 1.3089 0.40722 2.9524zm-2.5306 0.15998q0-1.0617-0.20361-2.007-0.18907-0.94534-0.63992-1.658-0.45085-0.71263-1.2217-1.1199-0.77081-0.42176-1.9198-0.42176-1.0617 0-1.8325 0.37813-0.75627 0.37814-1.2508 1.0762-0.49448 0.68355-0.74173 1.6289-0.2327 0.94534-0.2327 2.0652 0 1.0762 0.18907 2.0216 0.20361 0.94534 0.65446 1.658 0.4654 0.69809 1.2362 1.1199 0.77081 0.40722 1.9198 0.40722 1.0471 0 1.818-0.37813 0.77081-0.37814 1.2653-1.0617t0.72718-1.6289q0.2327-0.94533 0.2327-2.0797z"/>
<path d="m83.095 272q0 0.11635-0.05818 0.20361-0.04363 0.0873-0.17452 0.14543-0.11635 0.0436-0.31996 0.0727-0.20361 0.0291-0.49448 0.0291-0.30542 0-0.50903-0.0291t-0.3345-0.0727q-0.13089-0.0582-0.18907-0.14543-0.05817-0.0873-0.05817-0.20361v-1.7307q-1.0326 1.1199-2.1525 1.7452-1.1053 0.62538-2.4288 0.62538-1.4398 0-2.4579-0.55266-1.0181-0.5672-1.658-1.5125-0.62538-0.95988-0.91625-2.2397-0.29087-1.2944-0.29087-2.7197 0-1.6871 0.36359-3.0396 0.36359-1.3671 1.0762-2.327 0.71264-0.95988 1.7598-1.4689 1.0617-0.52357 2.4433-0.52357 1.1489 0 2.0943 0.50902 0.95988 0.49449 1.8907 1.4689v-7.6063q0-0.10181 0.04363-0.18907 0.05818-0.10181 0.20361-0.14544 0.14544-0.0582 0.36359-0.0873 0.2327-0.0436 0.58175-0.0436 0.36359 0 0.59629 0.0436 0.2327 0.0291 0.36359 0.0873 0.13089 0.0436 0.18907 0.14544 0.07272 0.0873 0.07272 0.18907zm-2.4142-9.2061q-0.97442-1.2071-1.8907-1.8325-0.90171-0.63992-1.8907-0.63992-0.91625 0-1.5562 0.43631t-1.0471 1.149q-0.39268 0.71264-0.58175 1.6143-0.17452 0.90171-0.17452 1.8325 0 0.98897 0.14544 1.9343 0.15998 0.94533 0.53812 1.6871 0.37813 0.72718 1.0035 1.178 0.62538 0.43631 1.5707 0.43631 0.47994 0 0.91625-0.13089 0.45085-0.13089 0.91625-0.43631t0.97442-0.78536q0.50903-0.49448 1.0762-1.2071z"/>
<path d="m107.12 269.7q0 0.2327-0.0145 0.40722-0.0145 0.17453-0.0582 0.30542-0.0291 0.13089-0.0873 0.2327-0.0582 0.1018-0.20361 0.24724-0.14544 0.14544-0.61083 0.45085-0.4654 0.29088-1.1635 0.58175-0.68356 0.27633-1.5853 0.46539-0.88716 0.20362-1.9488 0.20362-1.8325 0-3.3159-0.61084-1.4689-0.61083-2.516-1.8034-1.0326-1.1926-1.5998-2.9378-0.55266-1.7598-0.55266-4.0431 0-2.3415 0.59629-4.174 0.61083-1.8325 1.7016-3.0978 1.0908-1.2798 2.6033-1.9488 1.5271-0.669 3.3741-0.669 0.81445 0 1.5853 0.15998 0.77081 0.14543 1.4253 0.37813 0.65446 0.2327 1.1635 0.53812 0.50903 0.30541 0.69809 0.50902 0.20361 0.18907 0.26179 0.29088 0.0582 0.1018 0.0873 0.24724 0.0436 0.13089 0.0582 0.31996 0.0291 0.18907 0.0291 0.45085 0 0.29087-0.0291 0.49449-0.0291 0.20361-0.0873 0.34904-0.0582 0.1309-0.14543 0.20361-0.0727 0.0582-0.18907 0.0582-0.20361 0-0.5672-0.27633-0.36359-0.29087-0.94534-0.62538-0.5672-0.34904-1.3962-0.62537-0.81444-0.29088-1.9634-0.29088-1.2508 0-2.2834 0.50903-1.0181 0.49448-1.7452 1.4689-0.72718 0.97442-1.1344 2.3852-0.39268 1.3962-0.39268 3.1996 0 1.7889 0.37814 3.1705 0.39268 1.3671 1.1053 2.2979 0.72718 0.91625 1.7743 1.3962 1.0471 0.46539 2.3706 0.46539 1.1199 0 1.9488-0.27633 0.84353-0.27633 1.4253-0.61083 0.59629-0.34905 0.97443-0.62538 0.37813-0.27633 0.59629-0.27633 0.1018 0 0.17452 0.0436 0.0727 0.0436 0.11635 0.17452 0.0436 0.11635 0.0582 0.3345 0.0291 0.21816 0.0291 0.55266z"/>
<path d="m120.02 272.01q0 0.17452-0.11635 0.26179-0.11635 0.0873-0.31996 0.13089-0.20361 0.0436-0.59629 0.0436-0.37814 0-0.61083-0.0436-0.21816-0.0436-0.31996-0.13089-0.10181-0.0873-0.10181-0.26179v-1.3089q-0.85807 0.91625-1.9198 1.4253-1.0471 0.50903-2.2252 0.50903-1.0326 0-1.8761-0.27633-0.82898-0.26179-1.4253-0.77082-0.58175-0.50902-0.91625-1.2508-0.31996-0.74172-0.31996-1.6871 0-1.1053 0.45085-1.9198 0.45085-0.81445 1.2944-1.3526t2.0652-0.7999q1.2217-0.27633 2.7488-0.27633h1.8034v-1.018q0-0.75627-0.15998-1.338t-0.52357-0.95988q-0.34905-0.39268-0.91625-0.58175-0.5672-0.20361-1.3962-0.20361-0.88716 0-1.5998 0.21816-0.6981 0.20361-1.2362 0.46539-0.52357 0.24725-0.88716 0.4654-0.34905 0.20361-0.52357 0.20361-0.11635 0-0.20361-0.0582-0.0873-0.0582-0.15998-0.17453-0.0582-0.11635-0.0873-0.29087-0.0291-0.18907-0.0291-0.40722 0-0.36359 0.0436-0.5672 0.0582-0.21816 0.24724-0.40722 0.20361-0.18907 0.68355-0.43631 0.47994-0.26179 1.1053-0.4654 0.62537-0.21816 1.3671-0.34905 0.74173-0.14543 1.498-0.14543 1.4107 0 2.3997 0.31996 0.98896 0.31996 1.5998 0.94533 0.61083 0.61084 0.88716 1.5271 0.27633 0.91625 0.27633 2.1379zm-2.3852-5.9774h-2.0506q-0.98897 0-1.7162 0.17453-0.72719 0.15998-1.2071 0.49448-0.47994 0.31996-0.71263 0.78536-0.21816 0.45085-0.21816 1.0471 0 1.018 0.63992 1.6289 0.65447 0.59629 1.818 0.59629 0.94533 0 1.7452-0.47994 0.81445-0.47994 1.7016-1.4689z"/>
<path d="m126.81 272q0 0.11635-0.0582 0.20361-0.0582 0.0727-0.18906 0.13089-0.1309 0.0582-0.36359 0.0873-0.2327 0.0291-0.59629 0.0291-0.34905 0-0.58175-0.0291t-0.37813-0.0873q-0.1309-0.0582-0.18907-0.13089-0.0436-0.0873-0.0436-0.20361v-19.43q0-0.11635 0.0436-0.20361 0.0582-0.0873 0.18907-0.14544 0.14543-0.0582 0.37813-0.0873t0.58175-0.0291q0.36359 0 0.59629 0.0291 0.23269 0.0291 0.36359 0.0873 0.13089 0.0582 0.18906 0.14544 0.0582 0.0873 0.0582 0.20361z"/>
<path d="m133.68 272q0 0.11635-0.0582 0.20361-0.0582 0.0727-0.18907 0.13089-0.13089 0.0582-0.36359 0.0873t-0.59629 0.0291q-0.34905 0-0.58175-0.0291t-0.37813-0.0873q-0.1309-0.0582-0.18907-0.13089-0.0436-0.0873-0.0436-0.20361v-19.43q0-0.11635 0.0436-0.20361 0.0582-0.0873 0.18907-0.14544 0.14543-0.0582 0.37813-0.0873t0.58175-0.0291q0.36359 0 0.59629 0.0291t0.36359 0.0873 0.18907 0.14544q0.0582 0.0873 0.0582 0.20361z"/>
</g>
</g>
</svg>
