<svg width="490" height="37" version="1.1" viewBox="0 0 129.65 9.7896" xmlns="http://www.w3.org/2000/svg">
<g transform="translate(-1.4449 -278.23)">
<g fill="#00f000" stroke="#f0f0f0" stroke-width=".66146" aria-label="Good Job! That's Correct">
<path d="m8.8231 280.58q0 0.17983-0.018604 0.31006-0.012402 0.13022-0.043408 0.21084-0.024805 0.0744-0.068213 0.10542-0.037207 0.031-0.093018 0.031-0.080615 0-0.26045-0.11162-0.17983-0.11162-0.47749-0.24185-0.29766-0.13022-0.71313-0.24184-0.40928-0.11162-0.95498-0.11162-0.58291 0-1.0542 0.20464-0.47129 0.19843-0.80615 0.5705-0.33486 0.36587-0.5147 0.88677-0.17983 0.5147-0.17983 1.141 0 0.68833 0.17983 1.2154 0.18604 0.5209 0.5147 0.87436 0.32866 0.35347 0.78755 0.5333 0.46509 0.17984 1.0232 0.17984 0.27285 0 0.5395-0.062t0.49609-0.18604v-1.8604h-1.5193q-0.11162 0-0.17363-0.13643-0.062012-0.14262-0.062012-0.47749 0-0.17363 0.012402-0.29145 0.018604-0.11782 0.049609-0.18604 0.031006-0.0744 0.074414-0.10542 0.043408-0.0372 0.099219-0.0372h2.7099q0.099219 0 0.17363 0.0372 0.080615 0.031 0.13643 0.0992 0.062012 0.0682 0.093018 0.16743 0.031006 0.093 0.031006 0.21704v3.1936q0 0.18603-0.068213 0.32866-0.062012 0.13642-0.26665 0.21704-0.19844 0.0806-0.49609 0.16743-0.29766 0.0868-0.62012 0.14883-0.31626 0.062-0.64492 0.093-0.32246 0.031-0.65112 0.031-0.96118 0-1.7239-0.27285-0.75654-0.27905-1.2836-0.79995-0.5271-0.5271-0.80615-1.2774-0.27905-0.75654-0.27905-1.7115 0-0.98599 0.29766-1.7673 0.29766-0.78755 0.84336-1.3332 0.5457-0.5519 1.3146-0.84336 0.77515-0.29145 1.7239-0.29145 0.5209 0 0.94878 0.0744 0.42788 0.0682 0.74414 0.17363 0.32246 0.0992 0.5333 0.21704 0.21084 0.11783 0.29146 0.20464 0.086816 0.0868 0.12402 0.24805 0.037207 0.15503 0.037207 0.46509z"/>
<path d="m15.973 284.33q0 0.70694-0.18604 1.2898-0.18604 0.58291-0.56431 1.0046t-0.94878 0.65112-1.3333 0.22944q-0.73794 0-1.2836-0.20463-0.5457-0.20464-0.90537-0.59532-0.35967-0.39067-0.5333-0.96118-0.17363-0.57051-0.17363-1.3022 0-0.70694 0.18604-1.2898 0.19224-0.58911 0.57051-1.0046 0.37827-0.42168 0.94258-0.65112 0.57051-0.22944 1.3333-0.22944 0.74414 0 1.2898 0.20463 0.5457 0.19844 0.89917 0.58912 0.35967 0.39067 0.5333 0.96118t0.17363 1.3084zm-1.6061 0.062q0-0.40928-0.06821-0.75035-0.06201-0.34726-0.21704-0.60151-0.15503-0.25425-0.41548-0.39687-0.25425-0.14263-0.64492-0.14263-0.34727 0-0.60772 0.13022-0.26045 0.12403-0.42788 0.37207-0.16743 0.24185-0.25425 0.58912-0.08061 0.34106-0.08061 0.78134 0 0.40928 0.06821 0.75655 0.06821 0.34106 0.21704 0.59531 0.15503 0.25425 0.41548 0.39687 0.26045 0.13643 0.64492 0.13643 0.35347 0 0.61392-0.12402 0.26045-0.13023 0.42788-0.37207 0.16743-0.24185 0.24805-0.58291 0.08061-0.34727 0.08061-0.78755z"/>
<path d="m22.794 284.33q0 0.70694-0.18604 1.2898t-0.56431 1.0046q-0.37827 0.42168-0.94878 0.65112t-1.3333 0.22944q-0.73794 0-1.2836-0.20463-0.5457-0.20464-0.90537-0.59532-0.35967-0.39067-0.5333-0.96118-0.17363-0.57051-0.17363-1.3022 0-0.70694 0.18604-1.2898 0.19224-0.58911 0.57051-1.0046 0.37827-0.42168 0.94258-0.65112 0.57051-0.22944 1.3333-0.22944 0.74414 0 1.2898 0.20463 0.5457 0.19844 0.89917 0.58912 0.35967 0.39067 0.5333 0.96118t0.17363 1.3084zm-1.6061 0.062q0-0.40928-0.06821-0.75035-0.06201-0.34726-0.21704-0.60151-0.15503-0.25425-0.41548-0.39687-0.25425-0.14263-0.64492-0.14263-0.34727 0-0.60772 0.13022-0.26045 0.12403-0.42788 0.37207-0.16743 0.24185-0.25425 0.58912-0.08061 0.34106-0.08061 0.78134 0 0.40928 0.06821 0.75655 0.06821 0.34106 0.21704 0.59531 0.15503 0.25425 0.41548 0.39687 0.26045 0.13643 0.64492 0.13643 0.35347 0 0.61392-0.12402 0.26045-0.13023 0.42788-0.37207 0.16743-0.24185 0.24805-0.58291 0.08062-0.34727 0.08062-0.78755z"/>
<path d="m29.268 287.15q0 0.0682-0.03101 0.11782-0.03101 0.0434-0.10542 0.0744-0.07441 0.031-0.20464 0.0434-0.12402 0.0124-0.31006 0.0124-0.19844 0-0.32246-0.0124-0.12402-0.0124-0.20464-0.0434-0.07441-0.031-0.11162-0.0744-0.03101-0.0496-0.03101-0.11782v-0.61392q-0.42788 0.45889-0.89917 0.71314-0.46509 0.25424-1.0356 0.25424-0.63252 0-1.0728-0.24184-0.43408-0.24805-0.71313-0.66353-0.27285-0.41548-0.39688-0.96738-0.12402-0.5581-0.12402-1.172 0-0.73794 0.15503-1.327 0.16123-0.58911 0.46509-1.0046 0.30386-0.41548 0.75654-0.63872 0.45269-0.22324 1.0418-0.22324 0.46509 0 0.84336 0.19223 0.37827 0.18604 0.75034 0.55191v-2.9952q0-0.062 0.03101-0.11162 0.03721-0.0496 0.12402-0.0806 0.09302-0.0372 0.24184-0.0558 0.14883-0.0186 0.37827-0.0186 0.22944 0 0.37827 0.0186t0.23564 0.0558q0.08682 0.031 0.12402 0.0806 0.03721 0.0496 0.03721 0.11162zm-1.5503-3.6959q-0.33486-0.42168-0.64492-0.64492-0.30386-0.22324-0.63872-0.22324-0.30386 0-0.5271 0.15502-0.21704 0.14883-0.35347 0.40308-0.13022 0.25425-0.19844 0.57051-0.06201 0.31006-0.06201 0.63872 0 0.34726 0.05581 0.67593 0.05581 0.32866 0.17983 0.58911 0.13022 0.25425 0.34106 0.40928 0.21084 0.15502 0.5333 0.15502 0.16123 0 0.31006-0.0434 0.15503-0.0496 0.31006-0.15503 0.16123-0.10542 0.32866-0.27285 0.16743-0.17364 0.36587-0.42168z"/>
<path d="m36.282 285.13q0 0.5457-0.10542 0.98598-0.09922 0.43408-0.34726 0.74414-0.24185 0.30386-0.63872 0.46509t-0.97978 0.16123q-0.18604 0-0.37207-0.031-0.17983-0.0248-0.33486-0.0682-0.14883-0.0434-0.26045-0.093t-0.14883-0.0868q-0.03721-0.0434-0.06201-0.0868-0.02481-0.0434-0.04341-0.11162-0.0186-0.0744-0.02481-0.17983-0.0062-0.10542-0.0062-0.26665 0-0.21084 0.0062-0.35347 0.0124-0.14883 0.03101-0.22944 0.0248-0.0868 0.06201-0.11783 0.04341-0.0372 0.10542-0.0372 0.05581 0 0.13022 0.0434 0.07441 0.0372 0.16743 0.0806 0.09302 0.0434 0.21704 0.0868 0.12402 0.0372 0.29146 0.0372t0.29146-0.0434q0.13022-0.0496 0.21084-0.16123 0.08682-0.11783 0.13022-0.31006 0.04341-0.19224 0.04341-0.4961v-5.5128q0-0.062 0.03721-0.10542 0.04341-0.0496 0.13022-0.0806 0.09302-0.031 0.25425-0.0434 0.16123-0.0186 0.39688-0.0186 0.23564 0 0.39067 0.0186 0.15503 0.0124 0.24805 0.0434 0.09922 0.031 0.13643 0.0806 0.04341 0.0434 0.04341 0.10542z"/>
<path d="m43.531 284.33q0 0.70694-0.18604 1.2898t-0.56431 1.0046q-0.37827 0.42168-0.94878 0.65112t-1.3333 0.22944q-0.73794 0-1.2836-0.20463-0.5457-0.20464-0.90537-0.59532-0.35967-0.39067-0.5333-0.96118-0.17363-0.57051-0.17363-1.3022 0-0.70694 0.18604-1.2898 0.19224-0.58911 0.57051-1.0046 0.37827-0.42168 0.94258-0.65112 0.57051-0.22944 1.3333-0.22944 0.74414 0 1.2898 0.20463 0.5457 0.19844 0.89917 0.58912 0.35967 0.39067 0.5333 0.96118t0.17363 1.3084zm-1.6061 0.062q0-0.40928-0.06821-0.75035-0.06201-0.34726-0.21704-0.60151-0.15503-0.25425-0.41548-0.39687-0.25425-0.14263-0.64492-0.14263-0.34726 0-0.60772 0.13022-0.26045 0.12403-0.42788 0.37207-0.16743 0.24185-0.25425 0.58912-0.08062 0.34106-0.08062 0.78134 0 0.40928 0.06821 0.75655 0.06821 0.34106 0.21704 0.59531 0.15503 0.25425 0.41548 0.39687 0.26045 0.13643 0.64492 0.13643 0.35347 0 0.61392-0.12402 0.26045-0.13023 0.42788-0.37207 0.16743-0.24185 0.24805-0.58291 0.08062-0.34727 0.08062-0.78755z"/>
<path d="m50.328 284.31q0 0.73794-0.16123 1.327-0.16123 0.58911-0.46509 1.0046t-0.75034 0.63872q-0.44028 0.22324-1.0046 0.22324-0.27905 0-0.5209-0.0558-0.24185-0.0496-0.46509-0.16743-0.21704-0.11782-0.43408-0.29765-0.21084-0.17984-0.43408-0.43409v0.60152q0 0.0682-0.03721 0.11782-0.03101 0.0434-0.11162 0.0744-0.07441 0.031-0.20464 0.0434-0.13022 0.0124-0.31626 0.0124-0.19224 0-0.32246-0.0124-0.12402-0.0124-0.20464-0.0434-0.07441-0.031-0.10542-0.0744-0.03101-0.0496-0.03101-0.11782v-8.1545q0-0.062 0.03721-0.11162 0.03721-0.0496 0.12402-0.0806 0.09302-0.0372 0.24184-0.0558 0.14883-0.0186 0.37827-0.0186 0.22944 0 0.37827 0.0186t0.23564 0.0558q0.09302 0.031 0.13022 0.0806 0.03721 0.0496 0.03721 0.11162v3.0572q0.21084-0.21084 0.42168-0.35966 0.21084-0.14883 0.42168-0.24185 0.21084-0.0992 0.43408-0.14263 0.22324-0.0434 0.47129-0.0434 0.61392 0 1.0418 0.24804 0.42788 0.24185 0.69453 0.65733 0.27285 0.41548 0.39688 0.97358 0.12402 0.55191 0.12402 1.1658zm-1.6185 0.11162q0-0.35346-0.05581-0.68213-0.04961-0.32866-0.17983-0.58291-0.13022-0.25424-0.34106-0.40307-0.20464-0.15503-0.5209-0.15503-0.15503 0-0.30386 0.0434t-0.31006 0.14882q-0.15503 0.10542-0.32246 0.27286-0.16743 0.16743-0.35347 0.41547v1.8356q0.32866 0.42168 0.62632 0.64492 0.30386 0.21704 0.63252 0.21704 0.30386 0 0.5147-0.15503 0.21084-0.15502 0.34727-0.40307 0.14263-0.24805 0.20464-0.56431 0.06201-0.31626 0.06201-0.63252z"/>
<path d="m53.782 284.73q-0.0062 0.062-0.03721 0.11162-0.03101 0.0496-0.11162 0.0868-0.07441 0.031-0.21084 0.0496-0.13022 0.0186-0.32246 0.0186-0.19844 0-0.32866-0.0186t-0.21084-0.0496q-0.07441-0.0372-0.10542-0.0868t-0.03721-0.11162l-0.16123-5.6307q0-0.0806 0.03721-0.14263 0.03721-0.062 0.13022-0.0992 0.09922-0.0434 0.26045-0.062 0.16743-0.0186 0.41548-0.0186t0.40928 0.0248q0.16123 0.0186 0.25425 0.062 0.09922 0.0372 0.13642 0.0992 0.04341 0.0558 0.04341 0.13643zm0.19224 1.8169q0 0.25425-0.04341 0.42788-0.03721 0.17364-0.14263 0.27906-0.09922 0.10542-0.26665 0.14883-0.16743 0.0496-0.42168 0.0496t-0.42788-0.0496q-0.16743-0.0434-0.26665-0.14883-0.09922-0.10542-0.14263-0.27906-0.03721-0.17363-0.03721-0.42788 0-0.26045 0.03721-0.43408 0.04341-0.17983 0.14263-0.28525 0.09922-0.11162 0.26665-0.15503 0.17363-0.0496 0.42788-0.0496t0.42168 0.0496q0.16743 0.0434 0.26665 0.15503 0.10542 0.10542 0.14263 0.28525 0.04341 0.17363 0.04341 0.43408z"/>
<path d="m64.032 280.01q0 0.17983-0.0186 0.31006-0.0124 0.12402-0.04341 0.20464-0.03101 0.0744-0.08062 0.11162-0.04341 0.0372-0.09922 0.0372h-2.0092v6.4678q0 0.062-0.04341 0.11162-0.03721 0.0496-0.13022 0.0806-0.09302 0.031-0.25425 0.0496-0.15503 0.0186-0.39067 0.0186-0.23564 0-0.39688-0.0186-0.15503-0.0186-0.24805-0.0496-0.09302-0.031-0.13642-0.0806-0.03721-0.0496-0.03721-0.11162v-6.4678h-2.0092q-0.06201 0-0.10542-0.0372t-0.07441-0.11162q-0.03101-0.0806-0.04961-0.20464-0.0124-0.13023-0.0124-0.31006 0-0.18604 0.0124-0.31626 0.0186-0.13023 0.04961-0.20464 0.03101-0.0806 0.07441-0.11162 0.04341-0.0372 0.10542-0.0372h5.6555q0.05581 0 0.09922 0.0372 0.04961 0.031 0.08062 0.11162 0.03101 0.0744 0.04341 0.20464 0.0186 0.13022 0.0186 0.31626z"/>
<path d="m70.184 287.15q0 0.062-0.03721 0.11162-0.03721 0.0434-0.12402 0.0744-0.08682 0.031-0.24185 0.0434-0.14883 0.0186-0.37207 0.0186-0.22944 0-0.38447-0.0186-0.14883-0.0124-0.23564-0.0434-0.08682-0.031-0.12402-0.0744-0.03721-0.0496-0.03721-0.11162v-3.1564q0-0.40307-0.06201-0.63252-0.05581-0.22944-0.16743-0.39067-0.11162-0.16743-0.29146-0.25425-0.17363-0.093-0.40928-0.093-0.29766 0-0.60151 0.21704t-0.63252 0.63252v3.6773q0 0.062-0.03721 0.11162-0.03721 0.0434-0.13022 0.0744-0.08682 0.031-0.23564 0.0434-0.14883 0.0186-0.37827 0.0186t-0.37827-0.0186q-0.14883-0.0124-0.24184-0.0434-0.08682-0.031-0.12402-0.0744-0.03721-0.0496-0.03721-0.11162v-8.1545q0-0.062 0.03721-0.11162 0.03721-0.0496 0.12402-0.0806 0.09302-0.0372 0.24184-0.0558 0.14883-0.0186 0.37827-0.0186t0.37827 0.0186 0.23564 0.0558q0.09302 0.031 0.13022 0.0806 0.03721 0.0496 0.03721 0.11162v3.0572q0.40308-0.39687 0.81855-0.58911 0.42168-0.19843 0.87436-0.19843 0.56431 0 0.94878 0.18603 0.39067 0.18604 0.62632 0.5085 0.24185 0.32246 0.34727 0.75654 0.10542 0.42788 0.10542 1.0418z"/>
<path d="m76.434 287.17q0 0.0868-0.06201 0.13643-0.06201 0.0496-0.19844 0.0682-0.13022 0.0248-0.39067 0.0248-0.27905 0-0.40928-0.0248-0.12402-0.0186-0.17983-0.0682-0.04961-0.0496-0.04961-0.13643v-0.44028q-0.34106 0.36587-0.78135 0.57051-0.43408 0.20463-0.96738 0.20463-0.44028 0-0.81235-0.11782-0.36587-0.11162-0.63872-0.33486-0.26665-0.22944-0.41548-0.56431-0.14883-0.33486-0.14883-0.78135 0-0.48369 0.18604-0.83715 0.19224-0.35967 0.56431-0.58911 0.37827-0.23565 0.93638-0.34727 0.55811-0.11162 1.296-0.11162h0.5395v-0.33486q0-0.26045-0.05581-0.45269-0.04961-0.19844-0.17363-0.32866-0.11782-0.13023-0.32246-0.19224-0.19844-0.062-0.49609-0.062-0.39067 0-0.70073 0.0868-0.30386 0.0868-0.5395 0.19223-0.23564 0.10542-0.39688 0.19224-0.15503 0.0868-0.25425 0.0868-0.06821 0-0.12402-0.0434-0.04961-0.0434-0.08682-0.12403-0.03101-0.0806-0.04961-0.19843t-0.0186-0.26045q0-0.19224 0.03101-0.30386t0.11782-0.19844q0.08682-0.093 0.30386-0.19844 0.21704-0.11162 0.5085-0.20463 0.29146-0.093 0.63252-0.14883 0.34727-0.062 0.71314-0.062 0.65112 0 1.11 0.13022 0.46509 0.12402 0.76274 0.39067 0.29766 0.26045 0.43408 0.67593t0.13643 0.98599zm-1.5317-2.3688h-0.59531q-0.37827 0-0.64492 0.0558-0.26665 0.0558-0.43408 0.16744-0.16743 0.11162-0.24805 0.27285-0.07441 0.15503-0.07441 0.35967 0 0.34726 0.21704 0.5457 0.22324 0.19844 0.61392 0.19844 0.32866 0 0.60151-0.16744 0.27905-0.16743 0.56431-0.48989z"/>
<path d="m81.147 286.61q0 0.27286-0.03721 0.42168-0.03101 0.14263-0.08682 0.20464-0.05581 0.0558-0.16743 0.10542-0.10542 0.0434-0.25425 0.0744-0.14263 0.0372-0.31626 0.0558-0.16743 0.0186-0.34106 0.0186-0.46509 0-0.80615-0.11782-0.34106-0.11782-0.56431-0.35967-0.22324-0.24805-0.32866-0.62012t-0.10542-0.88056v-2.8339h-0.66352q-0.11782 0-0.17983-0.14263-0.06201-0.14882-0.06201-0.48989 0-0.17983 0.0124-0.30386 0.0186-0.12402 0.04961-0.19223 0.03101-0.0744 0.07441-0.10542 0.04961-0.031 0.11162-0.031h0.65732v-1.234q0-0.062 0.03101-0.11162 0.03721-0.0496 0.12402-0.0806 0.09302-0.0372 0.24184-0.0496 0.15503-0.0186 0.37827-0.0186 0.22944 0 0.37827 0.0186 0.15503 0.0124 0.24185 0.0496 0.08682 0.031 0.12402 0.0806 0.03721 0.0496 0.03721 0.11162v1.234h1.203q0.06201 0 0.10542 0.031 0.04961 0.031 0.08061 0.10542 0.03101 0.0682 0.04341 0.19223 0.0186 0.12403 0.0186 0.30386 0 0.34107-0.06201 0.48989-0.06201 0.14263-0.17983 0.14263h-1.2092v2.5983q0 0.45269 0.14263 0.68213 0.14263 0.22324 0.5085 0.22324 0.12402 0 0.22324-0.0186 0.09922-0.0248 0.17363-0.0496 0.08061-0.031 0.13022-0.0496 0.05581-0.0248 0.09922-0.0248 0.03721 0 0.06821 0.0248 0.03721 0.0186 0.05581 0.0868 0.0186 0.062 0.03101 0.17363 0.0186 0.11162 0.0186 0.28525z"/>
<path d="m83.566 281.72q0 0.0682-0.03101 0.11782-0.03101 0.0496-0.09922 0.0806t-0.17983 0.0496q-0.10542 0.0124-0.26665 0.0124-0.16743 0-0.27905-0.0186-0.10542-0.0186-0.17363-0.0496-0.06821-0.031-0.09922-0.0806-0.02481-0.0496-0.03101-0.11162l-0.14263-2.7719q-0.0062-0.062 0.03101-0.11162 0.04341-0.0496 0.13022-0.0806 0.08682-0.0372 0.22324-0.0496 0.14263-0.0186 0.34106-0.0186 0.20464 0 0.34106 0.0186 0.13643 0.0124 0.22324 0.0434 0.08682 0.031 0.12402 0.0806 0.03721 0.0496 0.03101 0.11782z"/>
<path d="m89.159 285.59q0 0.47129-0.17983 0.83096-0.17363 0.35967-0.49609 0.60151-0.32246 0.24185-0.76274 0.35967-0.44028 0.12402-0.95498 0.12402-0.31006 0-0.59531-0.0496-0.27905-0.0434-0.5023-0.11163-0.22324-0.0744-0.37207-0.14882-0.14883-0.0744-0.21704-0.13643-0.06821-0.0682-0.10542-0.20464-0.03721-0.14263-0.03721-0.41548 0-0.17983 0.0124-0.28525 0.0124-0.11162 0.03721-0.17363 0.02481-0.0682 0.06201-0.0868 0.03721-0.0248 0.09302-0.0248 0.06821 0 0.19844 0.0806 0.13643 0.0744 0.33486 0.16743 0.19844 0.093 0.45889 0.17363 0.26665 0.0806 0.60151 0.0806 0.21084 0 0.37207-0.0434 0.16743-0.0434 0.28525-0.12402 0.12402-0.0806 0.18604-0.20464 0.06201-0.12402 0.06201-0.28525 0-0.18604-0.11782-0.31626-0.11162-0.13643-0.30386-0.23565-0.18604-0.0992-0.42788-0.18603-0.23564-0.0868-0.48989-0.19224-0.24805-0.10542-0.48989-0.24185-0.23564-0.13642-0.42788-0.33486-0.18604-0.19844-0.30386-0.47749-0.11162-0.27905-0.11162-0.66973 0-0.39687 0.15503-0.72553 0.15503-0.33487 0.44648-0.57051 0.29146-0.23565 0.70693-0.36587 0.42168-0.13022 0.94258-0.13022 0.26045 0 0.5023 0.0372 0.24805 0.0372 0.44648 0.093 0.19844 0.0558 0.33486 0.12402 0.13642 0.062 0.19224 0.11162 0.06201 0.0434 0.08682 0.093 0.0248 0.0434 0.03721 0.11162 0.0124 0.062 0.0186 0.16123 0.0124 0.093 0.0124 0.23565 0 0.16743-0.0124 0.27285-0.0062 0.10542-0.03101 0.16743-0.0186 0.062-0.05581 0.0868-0.03721 0.0186-0.08682 0.0186-0.05581 0-0.17363-0.062-0.11782-0.0682-0.29766-0.14263-0.17363-0.0744-0.40928-0.13642-0.22944-0.0682-0.5271-0.0682-0.21084 0-0.36587 0.0434t-0.25425 0.12403q-0.09922 0.0806-0.14883 0.19223-0.04961 0.10542-0.04961 0.22945 0 0.19223 0.11782 0.32246 0.11782 0.13022 0.31006 0.22944 0.19224 0.0992 0.43408 0.18604 0.24805 0.0868 0.49609 0.19223 0.25425 0.0992 0.49609 0.23565 0.24805 0.13642 0.44028 0.33486t0.31006 0.47749q0.11782 0.27285 0.11782 0.65112z"/>
<path d="m98.845 286.15q0 0.15503-0.0124 0.26665-0.0062 0.10542-0.02481 0.18603-0.0186 0.0744-0.04961 0.13023-0.03101 0.0558-0.09922 0.13022-0.06821 0.0682-0.26665 0.17984-0.19224 0.11162-0.47749 0.21704-0.27905 0.0992-0.64492 0.16743-0.35967 0.0682-0.78135 0.0682-0.82476 0-1.4883-0.25425-0.66353-0.25424-1.1286-0.75654-0.46509-0.50849-0.71314-1.265-0.24805-0.75654-0.24805-1.7611 0-1.0232 0.27285-1.8169 0.27285-0.79375 0.76274-1.3333 0.48989-0.5395 1.172-0.81855 0.68833-0.27905 1.5131-0.27905 0.33486 0 0.64492 0.0558 0.31006 0.0558 0.57051 0.14883 0.26665 0.0868 0.47749 0.20463t0.29146 0.20464q0.08682 0.0806 0.11782 0.13643 0.03101 0.0558 0.04961 0.14263 0.0186 0.0868 0.0248 0.20463 0.0124 0.11783 0.0124 0.29146 0 0.18603-0.0124 0.31626-0.0124 0.13022-0.04341 0.21084-0.03101 0.0806-0.07441 0.11782-0.04341 0.0372-0.09922 0.0372-0.09302 0-0.23564-0.10542-0.14263-0.11162-0.37207-0.24185-0.22324-0.13642-0.5395-0.24184-0.31006-0.11162-0.74414-0.11162-0.47749 0-0.85576 0.19843-0.37207 0.19224-0.63872 0.55811-0.26045 0.35967-0.39688 0.87436-0.13642 0.5147-0.13642 1.1596 0 0.70694 0.14263 1.2278 0.14883 0.51469 0.41548 0.84956 0.27285 0.33486 0.65112 0.50229 0.38447 0.16123 0.86196 0.16123 0.43408 0 0.75034-0.0992 0.31626-0.10542 0.5395-0.22944 0.22944-0.12402 0.37207-0.22324 0.14883-0.0992 0.22944-0.0992 0.06201 0 0.09922 0.0248t0.06201 0.0992q0.02481 0.0744 0.03721 0.21084 0.0124 0.13023 0.0124 0.35347z"/>
<path d="m105.52 284.33q0 0.70694-0.18604 1.2898-0.18603 0.58291-0.5643 1.0046t-0.94878 0.65112-1.3332 0.22944q-0.73794 0-1.2836-0.20463-0.5457-0.20464-0.90537-0.59532-0.35967-0.39067-0.5333-0.96118t-0.17363-1.3022q0-0.70694 0.18604-1.2898 0.19224-0.58911 0.57051-1.0046 0.37827-0.42168 0.94258-0.65112 0.57051-0.22944 1.3332-0.22944 0.74414 0 1.2898 0.20463 0.5457 0.19844 0.89917 0.58912 0.35966 0.39067 0.5333 0.96118 0.17363 0.57051 0.17363 1.3084zm-1.6061 0.062q0-0.40928-0.0682-0.75035-0.062-0.34726-0.21704-0.60151-0.15503-0.25425-0.41548-0.39687-0.25424-0.14263-0.64492-0.14263-0.34726 0-0.60771 0.13022-0.26045 0.12403-0.42788 0.37207-0.16744 0.24185-0.25425 0.58912-0.0806 0.34106-0.0806 0.78134 0 0.40928 0.0682 0.75655 0.0682 0.34106 0.21704 0.59531 0.15503 0.25425 0.41548 0.39687 0.26044 0.13643 0.64492 0.13643 0.35346 0 0.61391-0.12402 0.26045-0.13023 0.42788-0.37207 0.16744-0.24185 0.24805-0.58291 0.0806-0.34727 0.0806-0.78755z"/>
<path d="m110.3 282.13q0 0.22324-0.0124 0.36587t-0.0372 0.22324q-0.0248 0.0806-0.0682 0.11162-0.0372 0.031-0.0992 0.031-0.0496 0-0.11162-0.0186-0.062-0.0248-0.14263-0.0496-0.0744-0.0248-0.16743-0.0434-0.093-0.0248-0.20464-0.0248-0.13022 0-0.26045 0.0558-0.13022 0.0496-0.27285 0.16123-0.13642 0.11162-0.29145 0.29766-0.14883 0.18603-0.32246 0.45889v3.4478q0 0.062-0.0372 0.11162-0.0372 0.0434-0.13022 0.0744-0.0868 0.031-0.23565 0.0434-0.14883 0.0186-0.37827 0.0186t-0.37827-0.0186q-0.14883-0.0124-0.24185-0.0434-0.0868-0.031-0.12402-0.0744-0.0372-0.0496-0.0372-0.11162v-5.5314q0-0.062 0.031-0.10542 0.031-0.0496 0.11162-0.0806 0.0806-0.031 0.20464-0.0434 0.13022-0.0186 0.32246-0.0186 0.19844 0 0.32866 0.0186 0.13023 0.0124 0.19844 0.0434 0.0744 0.031 0.10542 0.0806 0.031 0.0434 0.031 0.10542v0.68833q0.21704-0.31006 0.40928-0.50849 0.19224-0.20464 0.36587-0.32246 0.17363-0.11783 0.34727-0.16123 0.17363-0.0496 0.34726-0.0496 0.0806 0 0.17363 0.0124 0.093 6e-3 0.19224 0.031 0.0992 0.0186 0.17363 0.0496 0.0744 0.0248 0.10542 0.0558 0.0372 0.031 0.0496 0.0682 0.0186 0.0372 0.031 0.10542 0.0124 0.062 0.0186 0.19223 6e-3 0.13023 6e-3 0.35347z"/>
<path d="m114.81 282.13q0 0.22324-0.0124 0.36587t-0.0372 0.22324q-0.0248 0.0806-0.0682 0.11162-0.0372 0.031-0.0992 0.031-0.0496 0-0.11162-0.0186-0.062-0.0248-0.14263-0.0496-0.0744-0.0248-0.16743-0.0434-0.093-0.0248-0.20464-0.0248-0.13022 0-0.26045 0.0558-0.13022 0.0496-0.27285 0.16123-0.13642 0.11162-0.29145 0.29766-0.14883 0.18603-0.32246 0.45889v3.4478q0 0.062-0.0372 0.11162-0.0372 0.0434-0.13022 0.0744-0.0868 0.031-0.23565 0.0434-0.14883 0.0186-0.37827 0.0186t-0.37827-0.0186q-0.14883-0.0124-0.24185-0.0434-0.0868-0.031-0.12402-0.0744-0.0372-0.0496-0.0372-0.11162v-5.5314q0-0.062 0.031-0.10542 0.031-0.0496 0.11162-0.0806 0.0806-0.031 0.20464-0.0434 0.13022-0.0186 0.32246-0.0186 0.19844 0 0.32866 0.0186 0.13023 0.0124 0.19844 0.0434 0.0744 0.031 0.10542 0.0806 0.031 0.0434 0.031 0.10542v0.68833q0.21704-0.31006 0.40928-0.50849 0.19224-0.20464 0.36587-0.32246 0.17363-0.11783 0.34727-0.16123 0.17363-0.0496 0.34726-0.0496 0.0806 0 0.17363 0.0124 0.093 6e-3 0.19224 0.031 0.0992 0.0186 0.17363 0.0496 0.0744 0.0248 0.10542 0.0558 0.0372 0.031 0.0496 0.0682 0.0186 0.0372 0.031 0.10542 0.0124 0.062 0.0186 0.19223 6e-3 0.13023 6e-3 0.35347z"/>
<path d="m120.74 284.22q0 0.28526-0.13023 0.42168-0.12402 0.13643-0.34726 0.13643h-3.3672q0 0.35347 0.0806 0.64492 0.0868 0.28526 0.26665 0.48989 0.18603 0.19844 0.47129 0.30386 0.29145 0.10542 0.69453 0.10542 0.40928 0 0.71933-0.0558 0.31006-0.062 0.5333-0.13022 0.22945-0.0744 0.37828-0.13023 0.14882-0.062 0.24184-0.062 0.0558 0 0.093 0.0248 0.0372 0.0186 0.062 0.0744t0.031 0.16123q0.0124 0.0992 0.0124 0.25425 0 0.13642-6e-3 0.23564-6e-3 0.093-0.0186 0.16123-0.0124 0.0682-0.0372 0.11782-0.0248 0.0434-0.0682 0.0868-0.0372 0.0434-0.21704 0.11782-0.17983 0.0744-0.45888 0.14883-0.27906 0.0682-0.63872 0.11782-0.35967 0.0558-0.76895 0.0558-0.73794 0-1.296-0.18603-0.55191-0.18604-0.92398-0.56431t-0.5581-0.95498q-0.17984-0.57671-0.17984-1.3518 0-0.73794 0.19224-1.327 0.19223-0.59532 0.5581-1.0046 0.36587-0.41548 0.88677-0.63252 0.5271-0.21704 1.1844-0.21704 0.69453 0 1.1844 0.20463 0.49609 0.20464 0.81235 0.57051 0.31626 0.35967 0.46509 0.85576 0.14883 0.4961 0.14883 1.079zm-1.5131-0.44648q0.0186-0.65732-0.26665-1.0294-0.27905-0.37828-0.86816-0.37828-0.29766 0-0.5209 0.11163-0.21704 0.11162-0.36587 0.30385-0.14263 0.18604-0.22324 0.44649-0.0744 0.25425-0.0868 0.5457z"/>
<path d="m126.21 286.27q0 0.16123-0.0124 0.27285-6e-3 0.10542-0.0248 0.17984-0.0124 0.0744-0.0372 0.12402-0.0186 0.0434-0.093 0.11782-0.0744 0.0682-0.25425 0.17364-0.17983 0.0992-0.40928 0.17983-0.22944 0.0806-0.50229 0.13022-0.26665 0.0496-0.55191 0.0496-0.63872 0-1.1348-0.19843-0.48989-0.19844-0.82476-0.58291-0.33486-0.39068-0.50849-0.94878-0.16744-0.55811-0.16744-1.2774 0-0.83096 0.20464-1.4325 0.21084-0.60771 0.58291-1.0046 0.37207-0.39687 0.88057-0.58911 0.5085-0.19223 1.1162-0.19223 0.24805 0 0.48369 0.0434 0.24185 0.0434 0.44649 0.11782 0.21084 0.0744 0.37207 0.16743 0.16743 0.093 0.23564 0.16123 0.0682 0.0682 0.093 0.11782 0.031 0.0434 0.0434 0.11782 0.0186 0.0744 0.0248 0.18604 0.0124 0.10542 0.0124 0.26045 0 0.35967-0.062 0.50849-0.062 0.14263-0.16123 0.14263-0.10542 0-0.22324-0.0868t-0.27905-0.19224q-0.16123-0.10542-0.38448-0.19224-0.22324-0.0868-0.5333-0.0868-0.60771 0-0.93017 0.47129-0.32246 0.46508-0.32246 1.3704 0 0.44649 0.0806 0.78755 0.0806 0.34107 0.23565 0.57051 0.16123 0.22944 0.39687 0.34727 0.24185 0.11162 0.55811 0.11162 0.32246 0 0.5519-0.093 0.23565-0.0992 0.40928-0.21704 0.17363-0.11782 0.29145-0.21084 0.11783-0.0992 0.19844-0.0992 0.0558 0 0.093 0.031t0.0558 0.11782q0.0248 0.0806 0.0372 0.21084 0.0124 0.13022 0.0124 0.33486z"/>
<path d="m130.61 286.61q0 0.27286-0.0372 0.42168-0.031 0.14263-0.0868 0.20464-0.0558 0.0558-0.16743 0.10542-0.10542 0.0434-0.25425 0.0744-0.14263 0.0372-0.31626 0.0558-0.16743 0.0186-0.34107 0.0186-0.46508 0-0.80615-0.11782-0.34106-0.11782-0.56431-0.35967-0.22324-0.24805-0.32866-0.62012t-0.10542-0.88056v-2.8339h-0.66352q-0.11782 0-0.17984-0.14263-0.062-0.14882-0.062-0.48989 0-0.17983 0.0124-0.30386 0.0186-0.12402 0.0496-0.19223 0.031-0.0744 0.0744-0.10542 0.0496-0.031 0.11162-0.031h0.65732v-1.234q0-0.062 0.031-0.11162 0.0372-0.0496 0.12402-0.0806 0.093-0.0372 0.24185-0.0496 0.15503-0.0186 0.37827-0.0186 0.22944 0 0.37827 0.0186 0.15503 0.0124 0.24185 0.0496 0.0868 0.031 0.12402 0.0806 0.0372 0.0496 0.0372 0.11162v1.234h1.203q0.062 0 0.10542 0.031 0.0496 0.031 0.0806 0.10542 0.031 0.0682 0.0434 0.19223 0.0186 0.12403 0.0186 0.30386 0 0.34107-0.062 0.48989-0.062 0.14263-0.17983 0.14263h-1.2092v2.5983q0 0.45269 0.14262 0.68213 0.14263 0.22324 0.5085 0.22324 0.12402 0 0.22324-0.0186 0.0992-0.0248 0.17363-0.0496 0.0806-0.031 0.13023-0.0496 0.0558-0.0248 0.0992-0.0248 0.0372 0 0.0682 0.0248 0.0372 0.0186 0.0558 0.0868 0.0186 0.062 0.031 0.17363 0.0186 0.11162 0.0186 0.28525z"/>
</g>
</g>
</svg>
