<?xml version="1.0" encoding="UTF-8" standalone="no"?>
<!-- Created with Inkscape (http://www.inkscape.org/) -->

<svg
   xmlns:dc="http://purl.org/dc/elements/1.1/"
   xmlns:cc="http://creativecommons.org/ns#"
   xmlns:rdf="http://www.w3.org/1999/02/22-rdf-syntax-ns#"
   xmlns:svg="http://www.w3.org/2000/svg"
   xmlns="http://www.w3.org/2000/svg"
   xmlns:sodipodi="http://sodipodi.sourceforge.net/DTD/sodipodi-0.dtd"
   xmlns:inkscape="http://www.inkscape.org/namespaces/inkscape"
   width="550"
   height="100"
   viewBox="0 0 145.52023 26.458334"
   version="1.1"
   id="svg8"
   inkscape:version="0.92.2 (5c3e80d, 2017-08-06)"
   sodipodi:docname="goodcall.svg">
  <defs
     id="defs2" />
  <sodipodi:namedview
     id="base"
     pagecolor="#ffffff"
     bordercolor="#666666"
     borderopacity="1.0"
     inkscape:pageopacity="0.0"
     inkscape:pageshadow="2"
     inkscape:zoom="1.4"
     inkscape:cx="159.71082"
     inkscape:cy="115.53288"
     inkscape:document-units="mm"
     inkscape:current-layer="layer1"
     showgrid="false"
     inkscape:pagecheckerboard="true"
     units="px"
     inkscape:window-width="1920"
     inkscape:window-height="1017"
     inkscape:window-x="-8"
     inkscape:window-y="-8"
     inkscape:window-maximized="1" />
  <metadata
     id="metadata5">
    <rdf:RDF>
      <cc:Work
         rdf:about="">
        <dc:format>image/svg+xml</dc:format>
        <dc:type
           rdf:resource="http://purl.org/dc/dcmitype/StillImage" />
        <dc:title></dc:title>
      </cc:Work>
    </rdf:RDF>
  </metadata>
  <g
     inkscape:label="Layer 1"
     inkscape:groupmode="layer"
     id="layer1"
     transform="translate(0,-270.54165)">
    <g
       id="g846"
       style="font-style:normal;font-variant:normal;font-weight:normal;font-stretch:normal;font-size:29.7853775px;line-height:1.25;font-family:Calibri;-inkscape-font-specification:Calibri;letter-spacing:0px;word-spacing:0px;fill:none;fill-opacity:1;stroke:#f0f0f0;stroke-width:3.70416672;stroke-miterlimit:4;stroke-dasharray:none;stroke-opacity:1"
       transform="scale(0.92527003,1.0807656)"
       aria-label="Good Call">
      <path
         id="path830"
         style="font-size:29.7853775px;fill:none;fill-opacity:1;stroke:#f0f0f0;stroke-width:3.70416672;stroke-miterlimit:4;stroke-dasharray:none;stroke-opacity:1"
         d="m 36.090034,256.10328 q 0,0.27633 -0.02909,0.49448 -0.02909,0.20361 -0.08726,0.34905 -0.05818,0.13089 -0.145436,0.18907 -0.08726,0.0582 -0.189068,0.0582 -0.174523,0 -0.581745,-0.27633 -0.407222,-0.27633 -1.090774,-0.61083 -0.683551,-0.33451 -1.643431,-0.61084 -0.945337,-0.27632 -2.254264,-0.27632 -1.55617,0 -2.79238,0.5672 -1.236209,0.5672 -2.094284,1.57071 -0.858075,1.00351 -1.323471,2.38516 -0.450853,1.38164 -0.450853,2.99599 0,1.80341 0.494484,3.1996 0.509027,1.39619 1.396189,2.35607 0.887162,0.95988 2.108828,1.45436 1.23621,0.49449 2.705117,0.49449 0.872619,0 1.759781,-0.20361 0.901706,-0.21816 1.672519,-0.63992 v -5.48296 h -4.363093 q -0.247241,0 -0.378134,-0.24724 -0.116349,-0.24724 -0.116349,-0.77081 0,-0.27633 0.02909,-0.4654 0.02909,-0.20361 0.08726,-0.31996 0.07272,-0.13089 0.15998,-0.18907 0.08726,-0.0582 0.218154,-0.0582 h 5.977437 q 0.15998,0 0.31996,0.0582 0.15998,0.0582 0.290873,0.17453 0.130893,0.11635 0.203611,0.31996 0.07272,0.20361 0.07272,0.46539 v 7.17002 q 0,0.37813 -0.130893,0.65446 -0.130892,0.27633 -0.552658,0.49449 -0.421766,0.20361 -1.090773,0.45085 -0.669008,0.24724 -1.381646,0.42177 -0.712638,0.17452 -1.43982,0.26178 -0.727183,0.0873 -1.439821,0.0873 -2.181546,0 -3.897696,-0.669 -1.71615,-0.68356 -2.908728,-1.93431 -1.178035,-1.25075 -1.803412,-2.99599 -0.625376,-1.74524 -0.625376,-3.89769 0,-2.23973 0.669007,-4.05768 0.683551,-1.81796 1.905217,-3.0978 1.23621,-1.27984 2.952359,-1.97793 1.730694,-0.71264 3.824978,-0.71264 1.07623,0 2.021566,0.18907 0.945337,0.18906 1.672519,0.45085 0.741726,0.24724 1.23621,0.55266 0.509027,0.29087 0.698094,0.47994 0.189068,0.18907 0.261786,0.43631 0.07272,0.24724 0.07272,0.71264 z" />
      <path
         id="path832"
         style="font-size:29.7853775px;fill:none;fill-opacity:1;stroke:#f0f0f0;stroke-width:3.70416672;stroke-miterlimit:4;stroke-dasharray:none;stroke-opacity:1"
         d="m 52.640698,265.3094 q 0,1.5998 -0.421766,2.95236 -0.421766,1.33802 -1.265297,2.31244 -0.828987,0.97442 -2.094284,1.52708 -1.250753,0.53812 -2.908728,0.53812 -1.614345,0 -2.821467,-0.47994 -1.192578,-0.47994 -1.992479,-1.39619 -0.7999,-0.91625 -1.192578,-2.22518 -0.392679,-1.30893 -0.392679,-2.9669 0,-1.5998 0.407222,-2.93782 0.421766,-1.35256 1.250754,-2.32698 0.843531,-0.97443 2.094284,-1.51254 1.250753,-0.53811 2.923272,-0.53811 1.614344,0 2.806923,0.47994 1.207122,0.47994 2.007022,1.39619 0.7999,0.91624 1.192579,2.22517 0.407222,1.30893 0.407222,2.95236 z m -2.530594,0.15998 q 0,-1.06168 -0.203611,-2.00702 -0.189067,-0.94534 -0.63992,-1.65798 -0.450853,-0.71263 -1.221666,-1.11986 -0.770813,-0.42176 -1.919761,-0.42176 -1.061686,0 -1.832499,0.37813 -0.756269,0.37814 -1.250753,1.07623 -0.494483,0.68355 -0.741725,1.62889 -0.232699,0.94534 -0.232699,2.0652 0,1.07623 0.189068,2.02156 0.203611,0.94534 0.654464,1.65798 0.465396,0.69809 1.236209,1.11986 0.770813,0.40722 1.919761,0.40722 1.047142,0 1.817955,-0.37813 0.770813,-0.37814 1.265297,-1.06169 0.494484,-0.68355 0.727182,-1.62889 0.232698,-0.94533 0.232698,-2.07974 z" />
      <path
         id="path834"
         style="font-size:29.7853775px;fill:none;fill-opacity:1;stroke:#f0f0f0;stroke-width:3.70416672;stroke-miterlimit:4;stroke-dasharray:none;stroke-opacity:1"
         d="m 68.34783,265.3094 q 0,1.5998 -0.421766,2.95236 -0.421765,1.33802 -1.265296,2.31244 -0.828988,0.97442 -2.094285,1.52708 -1.250753,0.53812 -2.908728,0.53812 -1.614344,0 -2.821466,-0.47994 -1.192579,-0.47994 -1.992479,-1.39619 -0.799901,-0.91625 -1.192579,-2.22518 -0.392678,-1.30893 -0.392678,-2.9669 0,-1.5998 0.407222,-2.93782 0.421765,-1.35256 1.250753,-2.32698 0.843531,-0.97443 2.094284,-1.51254 1.250753,-0.53811 2.923272,-0.53811 1.614344,0 2.806923,0.47994 1.207122,0.47994 2.007022,1.39619 0.799901,0.91624 1.192579,2.22517 0.407222,1.30893 0.407222,2.95236 z m -2.530594,0.15998 q 0,-1.06168 -0.203611,-2.00702 -0.189067,-0.94534 -0.63992,-1.65798 -0.450853,-0.71263 -1.221666,-1.11986 -0.770813,-0.42176 -1.91976,-0.42176 -1.061686,0 -1.832499,0.37813 -0.75627,0.37814 -1.250753,1.07623 -0.494484,0.68355 -0.741726,1.62889 -0.232698,0.94534 -0.232698,2.0652 0,1.07623 0.189067,2.02156 0.203611,0.94534 0.654464,1.65798 0.465396,0.69809 1.236209,1.11986 0.770813,0.40722 1.919761,0.40722 1.047142,0 1.817955,-0.37813 0.770813,-0.37814 1.265297,-1.06169 0.494484,-0.68355 0.727182,-1.62889 0.232698,-0.94533 0.232698,-2.07974 z" />
      <path
         id="path836"
         style="font-size:29.7853775px;fill:none;fill-opacity:1;stroke:#f0f0f0;stroke-width:3.70416672;stroke-miterlimit:4;stroke-dasharray:none;stroke-opacity:1"
         d="m 83.095084,271.99948 q 0,0.11635 -0.05818,0.20361 -0.04363,0.0873 -0.174523,0.14543 -0.11635,0.0436 -0.31996,0.0727 -0.203611,0.0291 -0.494484,0.0291 -0.305417,0 -0.509028,-0.0291 -0.203611,-0.0291 -0.334503,-0.0727 -0.130893,-0.0582 -0.189068,-0.14543 -0.05817,-0.0873 -0.05817,-0.20361 v -1.7307 q -1.032599,1.11986 -2.152459,1.74524 -1.105317,0.62538 -2.428788,0.62538 -1.439821,0 -2.457876,-0.55266 -1.018055,-0.5672 -1.657975,-1.51254 -0.625377,-0.95988 -0.916249,-2.23972 -0.290873,-1.29439 -0.290873,-2.71966 0,-1.68706 0.363591,-3.03962 0.363591,-1.36711 1.076229,-2.32699 0.712639,-0.95988 1.759781,-1.4689 1.061686,-0.52357 2.443332,-0.52357 1.148947,0 2.094284,0.50902 0.95988,0.49449 1.890673,1.46891 v -7.60632 q 0,-0.10181 0.04363,-0.18907 0.05818,-0.10181 0.203611,-0.14544 0.145437,-0.0582 0.363591,-0.0873 0.232699,-0.0436 0.581746,-0.0436 0.363591,0 0.596289,0.0436 0.232699,0.0291 0.363591,0.0873 0.130893,0.0436 0.189068,0.14544 0.07272,0.0873 0.07272,0.18907 z m -2.414245,-9.20613 q -0.974424,-1.20712 -1.890673,-1.8325 -0.901706,-0.63992 -1.890673,-0.63992 -0.91625,0 -1.55617,0.43631 -0.63992,0.43631 -1.047142,1.14895 -0.392678,0.71264 -0.581746,1.61434 -0.174523,0.90171 -0.174523,1.8325 0,0.98897 0.145436,1.93431 0.15998,0.94533 0.538115,1.68706 0.378134,0.72718 1.003511,1.17803 0.625376,0.43631 1.570713,0.43631 0.47994,0 0.91625,-0.13089 0.450852,-0.13089 0.916249,-0.43631 0.465397,-0.30542 0.974424,-0.78536 0.509027,-0.49448 1.076229,-1.20712 z" />
      <path
         id="path838"
         style="font-size:29.7853775px;fill:none;fill-opacity:1;stroke:#f0f0f0;stroke-width:3.70416672;stroke-miterlimit:4;stroke-dasharray:none;stroke-opacity:1"
         d="m 107.12118,269.70158 q 0,0.2327 -0.0145,0.40722 -0.0145,0.17453 -0.0582,0.30542 -0.0291,0.13089 -0.0873,0.2327 -0.0582,0.1018 -0.20361,0.24724 -0.14544,0.14544 -0.61083,0.45085 -0.4654,0.29088 -1.16349,0.58175 -0.68356,0.27633 -1.58526,0.46539 -0.88716,0.20362 -1.94885,0.20362 -1.832498,0 -3.315949,-0.61084 -1.468908,-0.61083 -2.51605,-1.80341 -1.032599,-1.19258 -1.599801,-2.93781 -0.552658,-1.75978 -0.552658,-4.04314 0,-2.34152 0.596289,-4.17402 0.610833,-1.8325 1.701606,-3.0978 1.090773,-1.27984 2.603312,-1.94885 1.527082,-0.669 3.374121,-0.669 0.81445,0 1.58526,0.15998 0.77081,0.14543 1.42528,0.37813 0.65446,0.2327 1.16349,0.53812 0.50903,0.30541 0.69809,0.50902 0.20361,0.18907 0.26179,0.29088 0.0582,0.1018 0.0873,0.24724 0.0436,0.13089 0.0582,0.31996 0.0291,0.18907 0.0291,0.45085 0,0.29087 -0.0291,0.49449 -0.0291,0.20361 -0.0873,0.34904 -0.0582,0.1309 -0.14543,0.20361 -0.0727,0.0582 -0.18907,0.0582 -0.20361,0 -0.5672,-0.27633 -0.36359,-0.29087 -0.94534,-0.62538 -0.5672,-0.34904 -1.39619,-0.62537 -0.81444,-0.29088 -1.96339,-0.29088 -1.25075,0 -2.283352,0.50903 -1.018055,0.49448 -1.745237,1.46891 -0.727182,0.97442 -1.134404,2.38516 -0.392678,1.39619 -0.392678,3.1996 0,1.78887 0.378135,3.17051 0.392678,1.3671 1.105316,2.2979 0.727182,0.91625 1.774325,1.39619 1.047145,0.46539 2.370615,0.46539 1.11986,0 1.94885,-0.27633 0.84353,-0.27633 1.42527,-0.61083 0.59629,-0.34905 0.97443,-0.62538 0.37813,-0.27633 0.59629,-0.27633 0.1018,0 0.17452,0.0436 0.0727,0.0436 0.11635,0.17452 0.0436,0.11635 0.0582,0.3345 0.0291,0.21816 0.0291,0.55266 z" />
      <path
         id="path840"
         style="font-size:29.7853775px;fill:none;fill-opacity:1;stroke:#f0f0f0;stroke-width:3.70416672;stroke-miterlimit:4;stroke-dasharray:none;stroke-opacity:1"
         d="m 120.02139,272.01402 q 0,0.17452 -0.11635,0.26179 -0.11635,0.0873 -0.31996,0.13089 -0.20361,0.0436 -0.59629,0.0436 -0.37814,0 -0.61083,-0.0436 -0.21816,-0.0436 -0.31996,-0.13089 -0.10181,-0.0873 -0.10181,-0.26179 v -1.30893 q -0.85807,0.91625 -1.91976,1.42528 -1.04714,0.50903 -2.22518,0.50903 -1.0326,0 -1.87613,-0.27633 -0.82898,-0.26179 -1.42527,-0.77082 -0.58175,-0.50902 -0.91625,-1.25075 -0.31996,-0.74172 -0.31996,-1.68706 0,-1.10532 0.45085,-1.91976 0.45085,-0.81445 1.29438,-1.35256 0.84353,-0.53811 2.0652,-0.7999 1.22167,-0.27633 2.74875,-0.27633 h 1.80341 v -1.01805 q 0,-0.75627 -0.15998,-1.33802 -0.15998,-0.58175 -0.52357,-0.95988 -0.34905,-0.39268 -0.91625,-0.58175 -0.5672,-0.20361 -1.39619,-0.20361 -0.88716,0 -1.5998,0.21816 -0.6981,0.20361 -1.23621,0.46539 -0.52357,0.24725 -0.88716,0.4654 -0.34905,0.20361 -0.52357,0.20361 -0.11635,0 -0.20361,-0.0582 -0.0873,-0.0582 -0.15998,-0.17453 -0.0582,-0.11635 -0.0873,-0.29087 -0.0291,-0.18907 -0.0291,-0.40722 0,-0.36359 0.0436,-0.5672 0.0582,-0.21816 0.24724,-0.40722 0.20361,-0.18907 0.68355,-0.43631 0.47994,-0.26179 1.10532,-0.4654 0.62537,-0.21816 1.3671,-0.34905 0.74173,-0.14543 1.49799,-0.14543 1.41074,0 2.39971,0.31996 0.98896,0.31996 1.5998,0.94533 0.61083,0.61084 0.88716,1.52708 0.27633,0.91625 0.27633,2.13792 z m -2.38516,-5.97744 h -2.05065 q -0.98897,0 -1.71615,0.17453 -0.72719,0.15998 -1.20713,0.49448 -0.47994,0.31996 -0.71263,0.78536 -0.21816,0.45085 -0.21816,1.04714 0,1.01805 0.63992,1.62889 0.65447,0.59629 1.81796,0.59629 0.94533,0 1.74523,-0.47994 0.81445,-0.47994 1.70161,-1.46891 z" />
      <path
         id="path842"
         style="font-size:29.7853775px;fill:none;fill-opacity:1;stroke:#f0f0f0;stroke-width:3.70416672;stroke-miterlimit:4;stroke-dasharray:none;stroke-opacity:1"
         d="m 126.81327,271.99948 q 0,0.11635 -0.0582,0.20361 -0.0582,0.0727 -0.18906,0.13089 -0.1309,0.0582 -0.36359,0.0873 -0.2327,0.0291 -0.59629,0.0291 -0.34905,0 -0.58175,-0.0291 -0.2327,-0.0291 -0.37813,-0.0873 -0.1309,-0.0582 -0.18907,-0.13089 -0.0436,-0.0873 -0.0436,-0.20361 v -19.43031 q 0,-0.11635 0.0436,-0.20361 0.0582,-0.0873 0.18907,-0.14544 0.14543,-0.0582 0.37813,-0.0873 0.2327,-0.0291 0.58175,-0.0291 0.36359,0 0.59629,0.0291 0.23269,0.0291 0.36359,0.0873 0.13089,0.0582 0.18906,0.14544 0.0582,0.0873 0.0582,0.20361 z" />
      <path
         id="path844"
         style="font-size:29.7853775px;fill:none;fill-opacity:1;stroke:#f0f0f0;stroke-width:3.70416672;stroke-miterlimit:4;stroke-dasharray:none;stroke-opacity:1"
         d="m 133.67787,271.99948 q 0,0.11635 -0.0582,0.20361 -0.0582,0.0727 -0.18907,0.13089 -0.13089,0.0582 -0.36359,0.0873 -0.2327,0.0291 -0.59629,0.0291 -0.34905,0 -0.58175,-0.0291 -0.2327,-0.0291 -0.37813,-0.0873 -0.1309,-0.0582 -0.18907,-0.13089 -0.0436,-0.0873 -0.0436,-0.20361 v -19.43031 q 0,-0.11635 0.0436,-0.20361 0.0582,-0.0873 0.18907,-0.14544 0.14543,-0.0582 0.37813,-0.0873 0.2327,-0.0291 0.58175,-0.0291 0.36359,0 0.59629,0.0291 0.2327,0.0291 0.36359,0.0873 0.13089,0.0582 0.18907,0.14544 0.0582,0.0873 0.0582,0.20361 z" />
    </g>
    <g
       aria-label="Good Call"
       transform="scale(0.92527003,1.0807656)"
       style="font-style:normal;font-variant:normal;font-weight:normal;font-stretch:normal;font-size:29.7853775px;line-height:1.25;font-family:Calibri;-inkscape-font-specification:Calibri;letter-spacing:0px;word-spacing:0px;fill:#00f000;fill-opacity:1;stroke:none;stroke-width:1.11699998;stroke-miterlimit:4;stroke-dasharray:none;stroke-opacity:1"
       id="text817">
      <path
         d="m 36.090034,256.10328 q 0,0.27633 -0.02909,0.49448 -0.02909,0.20361 -0.08726,0.34905 -0.05818,0.13089 -0.145436,0.18907 -0.08726,0.0582 -0.189068,0.0582 -0.174523,0 -0.581745,-0.27633 -0.407222,-0.27633 -1.090774,-0.61083 -0.683551,-0.33451 -1.643431,-0.61084 -0.945337,-0.27632 -2.254264,-0.27632 -1.55617,0 -2.79238,0.5672 -1.236209,0.5672 -2.094284,1.57071 -0.858075,1.00351 -1.323471,2.38516 -0.450853,1.38164 -0.450853,2.99599 0,1.80341 0.494484,3.1996 0.509027,1.39619 1.396189,2.35607 0.887162,0.95988 2.108828,1.45436 1.23621,0.49449 2.705117,0.49449 0.872619,0 1.759781,-0.20361 0.901706,-0.21816 1.672519,-0.63992 v -5.48296 h -4.363093 q -0.247241,0 -0.378134,-0.24724 -0.116349,-0.24724 -0.116349,-0.77081 0,-0.27633 0.02909,-0.4654 0.02909,-0.20361 0.08726,-0.31996 0.07272,-0.13089 0.15998,-0.18907 0.08726,-0.0582 0.218154,-0.0582 h 5.977437 q 0.15998,0 0.31996,0.0582 0.15998,0.0582 0.290873,0.17453 0.130893,0.11635 0.203611,0.31996 0.07272,0.20361 0.07272,0.46539 v 7.17002 q 0,0.37813 -0.130893,0.65446 -0.130892,0.27633 -0.552658,0.49449 -0.421766,0.20361 -1.090773,0.45085 -0.669008,0.24724 -1.381646,0.42177 -0.712638,0.17452 -1.43982,0.26178 -0.727183,0.0873 -1.439821,0.0873 -2.181546,0 -3.897696,-0.669 -1.71615,-0.68356 -2.908728,-1.93431 -1.178035,-1.25075 -1.803412,-2.99599 -0.625376,-1.74524 -0.625376,-3.89769 0,-2.23973 0.669007,-4.05768 0.683551,-1.81796 1.905217,-3.0978 1.23621,-1.27984 2.952359,-1.97793 1.730694,-0.71264 3.824978,-0.71264 1.07623,0 2.021566,0.18907 0.945337,0.18906 1.672519,0.45085 0.741726,0.24724 1.23621,0.55266 0.509027,0.29087 0.698094,0.47994 0.189068,0.18907 0.261786,0.43631 0.07272,0.24724 0.07272,0.71264 z"
         style="font-size:29.7853775px;fill:#00f000;fill-opacity:1;stroke:none;stroke-width:1.11699998;stroke-miterlimit:4;stroke-dasharray:none;stroke-opacity:1"
         id="path833" />
      <path
         d="m 52.640698,265.3094 q 0,1.5998 -0.421766,2.95236 -0.421766,1.33802 -1.265297,2.31244 -0.828987,0.97442 -2.094284,1.52708 -1.250753,0.53812 -2.908728,0.53812 -1.614345,0 -2.821467,-0.47994 -1.192578,-0.47994 -1.992479,-1.39619 -0.7999,-0.91625 -1.192578,-2.22518 -0.392679,-1.30893 -0.392679,-2.9669 0,-1.5998 0.407222,-2.93782 0.421766,-1.35256 1.250754,-2.32698 0.843531,-0.97443 2.094284,-1.51254 1.250753,-0.53811 2.923272,-0.53811 1.614344,0 2.806923,0.47994 1.207122,0.47994 2.007022,1.39619 0.7999,0.91624 1.192579,2.22517 0.407222,1.30893 0.407222,2.95236 z m -2.530594,0.15998 q 0,-1.06168 -0.203611,-2.00702 -0.189067,-0.94534 -0.63992,-1.65798 -0.450853,-0.71263 -1.221666,-1.11986 -0.770813,-0.42176 -1.919761,-0.42176 -1.061686,0 -1.832499,0.37813 -0.756269,0.37814 -1.250753,1.07623 -0.494483,0.68355 -0.741725,1.62889 -0.232699,0.94534 -0.232699,2.0652 0,1.07623 0.189068,2.02156 0.203611,0.94534 0.654464,1.65798 0.465396,0.69809 1.236209,1.11986 0.770813,0.40722 1.919761,0.40722 1.047142,0 1.817955,-0.37813 0.770813,-0.37814 1.265297,-1.06169 0.494484,-0.68355 0.727182,-1.62889 0.232698,-0.94533 0.232698,-2.07974 z"
         style="font-size:29.7853775px;fill:#00f000;fill-opacity:1;stroke:none;stroke-width:1.11699998;stroke-miterlimit:4;stroke-dasharray:none;stroke-opacity:1"
         id="path835" />
      <path
         d="m 68.34783,265.3094 q 0,1.5998 -0.421766,2.95236 -0.421765,1.33802 -1.265296,2.31244 -0.828988,0.97442 -2.094285,1.52708 -1.250753,0.53812 -2.908728,0.53812 -1.614344,0 -2.821466,-0.47994 -1.192579,-0.47994 -1.992479,-1.39619 -0.799901,-0.91625 -1.192579,-2.22518 -0.392678,-1.30893 -0.392678,-2.9669 0,-1.5998 0.407222,-2.93782 0.421765,-1.35256 1.250753,-2.32698 0.843531,-0.97443 2.094284,-1.51254 1.250753,-0.53811 2.923272,-0.53811 1.614344,0 2.806923,0.47994 1.207122,0.47994 2.007022,1.39619 0.799901,0.91624 1.192579,2.22517 0.407222,1.30893 0.407222,2.95236 z m -2.530594,0.15998 q 0,-1.06168 -0.203611,-2.00702 -0.189067,-0.94534 -0.63992,-1.65798 -0.450853,-0.71263 -1.221666,-1.11986 -0.770813,-0.42176 -1.91976,-0.42176 -1.061686,0 -1.832499,0.37813 -0.75627,0.37814 -1.250753,1.07623 -0.494484,0.68355 -0.741726,1.62889 -0.232698,0.94534 -0.232698,2.0652 0,1.07623 0.189067,2.02156 0.203611,0.94534 0.654464,1.65798 0.465396,0.69809 1.236209,1.11986 0.770813,0.40722 1.919761,0.40722 1.047142,0 1.817955,-0.37813 0.770813,-0.37814 1.265297,-1.06169 0.494484,-0.68355 0.727182,-1.62889 0.232698,-0.94533 0.232698,-2.07974 z"
         style="font-size:29.7853775px;fill:#00f000;fill-opacity:1;stroke:none;stroke-width:1.11699998;stroke-miterlimit:4;stroke-dasharray:none;stroke-opacity:1"
         id="path837" />
      <path
         d="m 83.095084,271.99948 q 0,0.11635 -0.05818,0.20361 -0.04363,0.0873 -0.174523,0.14543 -0.11635,0.0436 -0.31996,0.0727 -0.203611,0.0291 -0.494484,0.0291 -0.305417,0 -0.509028,-0.0291 -0.203611,-0.0291 -0.334503,-0.0727 -0.130893,-0.0582 -0.189068,-0.14543 -0.05817,-0.0873 -0.05817,-0.20361 v -1.7307 q -1.032599,1.11986 -2.152459,1.74524 -1.105317,0.62538 -2.428788,0.62538 -1.439821,0 -2.457876,-0.55266 -1.018055,-0.5672 -1.657975,-1.51254 -0.625377,-0.95988 -0.916249,-2.23972 -0.290873,-1.29439 -0.290873,-2.71966 0,-1.68706 0.363591,-3.03962 0.363591,-1.36711 1.076229,-2.32699 0.712639,-0.95988 1.759781,-1.4689 1.061686,-0.52357 2.443332,-0.52357 1.148947,0 2.094284,0.50902 0.95988,0.49449 1.890673,1.46891 v -7.60632 q 0,-0.10181 0.04363,-0.18907 0.05818,-0.10181 0.203611,-0.14544 0.145437,-0.0582 0.363591,-0.0873 0.232699,-0.0436 0.581746,-0.0436 0.363591,0 0.596289,0.0436 0.232699,0.0291 0.363591,0.0873 0.130893,0.0436 0.189068,0.14544 0.07272,0.0873 0.07272,0.18907 z m -2.414245,-9.20613 q -0.974424,-1.20712 -1.890673,-1.8325 -0.901706,-0.63992 -1.890673,-0.63992 -0.91625,0 -1.55617,0.43631 -0.63992,0.43631 -1.047142,1.14895 -0.392678,0.71264 -0.581746,1.61434 -0.174523,0.90171 -0.174523,1.8325 0,0.98897 0.145436,1.93431 0.15998,0.94533 0.538115,1.68706 0.378134,0.72718 1.003511,1.17803 0.625376,0.43631 1.570713,0.43631 0.47994,0 0.91625,-0.13089 0.450852,-0.13089 0.916249,-0.43631 0.465397,-0.30542 0.974424,-0.78536 0.509027,-0.49448 1.076229,-1.20712 z"
         style="font-size:29.7853775px;fill:#00f000;fill-opacity:1;stroke:none;stroke-width:1.11699998;stroke-miterlimit:4;stroke-dasharray:none;stroke-opacity:1"
         id="path839" />
      <path
         d="m 107.12118,269.70158 q 0,0.2327 -0.0145,0.40722 -0.0145,0.17453 -0.0582,0.30542 -0.0291,0.13089 -0.0873,0.2327 -0.0582,0.1018 -0.20361,0.24724 -0.14544,0.14544 -0.61083,0.45085 -0.4654,0.29088 -1.16349,0.58175 -0.68356,0.27633 -1.58526,0.46539 -0.88716,0.20362 -1.94885,0.20362 -1.832498,0 -3.315949,-0.61084 -1.468908,-0.61083 -2.51605,-1.80341 -1.032599,-1.19258 -1.599801,-2.93781 -0.552658,-1.75978 -0.552658,-4.04314 0,-2.34152 0.596289,-4.17402 0.610833,-1.8325 1.701606,-3.0978 1.090773,-1.27984 2.603312,-1.94885 1.527082,-0.669 3.374121,-0.669 0.81445,0 1.58526,0.15998 0.77081,0.14543 1.42528,0.37813 0.65446,0.2327 1.16349,0.53812 0.50903,0.30541 0.69809,0.50902 0.20361,0.18907 0.26179,0.29088 0.0582,0.1018 0.0873,0.24724 0.0436,0.13089 0.0582,0.31996 0.0291,0.18907 0.0291,0.45085 0,0.29087 -0.0291,0.49449 -0.0291,0.20361 -0.0873,0.34904 -0.0582,0.1309 -0.14543,0.20361 -0.0727,0.0582 -0.18907,0.0582 -0.20361,0 -0.5672,-0.27633 -0.36359,-0.29087 -0.94534,-0.62538 -0.5672,-0.34904 -1.39619,-0.62537 -0.81444,-0.29088 -1.96339,-0.29088 -1.25075,0 -2.283352,0.50903 -1.018055,0.49448 -1.745237,1.46891 -0.727182,0.97442 -1.134404,2.38516 -0.392678,1.39619 -0.392678,3.1996 0,1.78887 0.378135,3.17051 0.392678,1.3671 1.105316,2.2979 0.727182,0.91625 1.774325,1.39619 1.047145,0.46539 2.370615,0.46539 1.11986,0 1.94885,-0.27633 0.84353,-0.27633 1.42527,-0.61083 0.59629,-0.34905 0.97443,-0.62538 0.37813,-0.27633 0.59629,-0.27633 0.1018,0 0.17452,0.0436 0.0727,0.0436 0.11635,0.17452 0.0436,0.11635 0.0582,0.3345 0.0291,0.21816 0.0291,0.55266 z"
         style="font-size:29.7853775px;fill:#00f000;fill-opacity:1;stroke:none;stroke-width:1.11699998;stroke-miterlimit:4;stroke-dasharray:none;stroke-opacity:1"
         id="path841" />
      <path
         d="m 120.02139,272.01402 q 0,0.17452 -0.11635,0.26179 -0.11635,0.0873 -0.31996,0.13089 -0.20361,0.0436 -0.59629,0.0436 -0.37814,0 -0.61083,-0.0436 -0.21816,-0.0436 -0.31996,-0.13089 -0.10181,-0.0873 -0.10181,-0.26179 v -1.30893 q -0.85807,0.91625 -1.91976,1.42528 -1.04714,0.50903 -2.22518,0.50903 -1.0326,0 -1.87613,-0.27633 -0.82898,-0.26179 -1.42527,-0.77082 -0.58175,-0.50902 -0.91625,-1.25075 -0.31996,-0.74172 -0.31996,-1.68706 0,-1.10532 0.45085,-1.91976 0.45085,-0.81445 1.29438,-1.35256 0.84353,-0.53811 2.0652,-0.7999 1.22167,-0.27633 2.74875,-0.27633 h 1.80341 v -1.01805 q 0,-0.75627 -0.15998,-1.33802 -0.15998,-0.58175 -0.52357,-0.95988 -0.34905,-0.39268 -0.91625,-0.58175 -0.5672,-0.20361 -1.39619,-0.20361 -0.88716,0 -1.5998,0.21816 -0.6981,0.20361 -1.23621,0.46539 -0.52357,0.24725 -0.88716,0.4654 -0.34905,0.20361 -0.52357,0.20361 -0.11635,0 -0.20361,-0.0582 -0.0873,-0.0582 -0.15998,-0.17453 -0.0582,-0.11635 -0.0873,-0.29087 -0.0291,-0.18907 -0.0291,-0.40722 0,-0.36359 0.0436,-0.5672 0.0582,-0.21816 0.24724,-0.40722 0.20361,-0.18907 0.68355,-0.43631 0.47994,-0.26179 1.10532,-0.4654 0.62537,-0.21816 1.3671,-0.34905 0.74173,-0.14543 1.49799,-0.14543 1.41074,0 2.39971,0.31996 0.98896,0.31996 1.5998,0.94533 0.61083,0.61084 0.88716,1.52708 0.27633,0.91625 0.27633,2.13792 z m -2.38516,-5.97744 h -2.05065 q -0.98897,0 -1.71615,0.17453 -0.72719,0.15998 -1.20713,0.49448 -0.47994,0.31996 -0.71263,0.78536 -0.21816,0.45085 -0.21816,1.04714 0,1.01805 0.63992,1.62889 0.65447,0.59629 1.81796,0.59629 0.94533,0 1.74523,-0.47994 0.81445,-0.47994 1.70161,-1.46891 z"
         style="font-size:29.7853775px;fill:#00f000;fill-opacity:1;stroke:none;stroke-width:1.11699998;stroke-miterlimit:4;stroke-dasharray:none;stroke-opacity:1"
         id="path843" />
      <path
         d="m 126.81327,271.99948 q 0,0.11635 -0.0582,0.20361 -0.0582,0.0727 -0.18906,0.13089 -0.1309,0.0582 -0.36359,0.0873 -0.2327,0.0291 -0.59629,0.0291 -0.34905,0 -0.58175,-0.0291 -0.2327,-0.0291 -0.37813,-0.0873 -0.1309,-0.0582 -0.18907,-0.13089 -0.0436,-0.0873 -0.0436,-0.20361 v -19.43031 q 0,-0.11635 0.0436,-0.20361 0.0582,-0.0873 0.18907,-0.14544 0.14543,-0.0582 0.37813,-0.0873 0.2327,-0.0291 0.58175,-0.0291 0.36359,0 0.59629,0.0291 0.23269,0.0291 0.36359,0.0873 0.13089,0.0582 0.18906,0.14544 0.0582,0.0873 0.0582,0.20361 z"
         style="font-size:29.7853775px;fill:#00f000;fill-opacity:1;stroke:none;stroke-width:1.11699998;stroke-miterlimit:4;stroke-dasharray:none;stroke-opacity:1"
         id="path845" />
      <path
         d="m 133.67787,271.99948 q 0,0.11635 -0.0582,0.20361 -0.0582,0.0727 -0.18907,0.13089 -0.13089,0.0582 -0.36359,0.0873 -0.2327,0.0291 -0.59629,0.0291 -0.34905,0 -0.58175,-0.0291 -0.2327,-0.0291 -0.37813,-0.0873 -0.1309,-0.0582 -0.18907,-0.13089 -0.0436,-0.0873 -0.0436,-0.20361 v -19.43031 q 0,-0.11635 0.0436,-0.20361 0.0582,-0.0873 0.18907,-0.14544 0.14543,-0.0582 0.37813,-0.0873 0.2327,-0.0291 0.58175,-0.0291 0.36359,0 0.59629,0.0291 0.2327,0.0291 0.36359,0.0873 0.13089,0.0582 0.18907,0.14544 0.0582,0.0873 0.0582,0.20361 z"
         style="font-size:29.7853775px;fill:#00f000;fill-opacity:1;stroke:none;stroke-width:1.11699998;stroke-miterlimit:4;stroke-dasharray:none;stroke-opacity:1"
         id="path847" />
    </g>
  </g>
</svg>
