<svg xmlns="http://www.w3.org/2000/svg" width="64" height="64"><path fill="#BEB0F4" d="M31.5 34.03c-1.67 0-3.267-.296-4.76-.816.165-.875.26-1.775.26-2.698 0-6.345-4.073-11.725-9.74-13.7C18.525 10.092 24.414 5 31.5 5 39.508 5 46 11.5 46 19.516S39.508 34.03 31.5 34.03zm.002-24.033a5.5 5.5 0 0 0-5.496 5.507c0 3.04 2.46 5.507 5.496 5.507A5.502 5.502 0 0 0 37 15.506a5.502 5.502 0 0 0-5.5-5.508z"></path><path fill="#7356B6" d="M31.5 34.03c-1.67 0-3.267-.3-4.76-.822.165-.873.26-1.77.26-2.692 0-2.41-.596-4.677-1.633-6.677a9.918 9.918 0 0 1 2.4-1.23 7.964 7.964 0 0 0 3.72.92 7.968 7.968 0 0 0 3.728-.92c3.115 1.082 5.657 3.587 6.16 7.512-2.59 2.418-6.054 3.908-9.875 3.908z"></path><path fill="#BEB0F4" d="M12.5 45.03c-3.826 0-7.296-1.494-9.888-3.918.507-3.916 3.044-6.417 6.154-7.5a7.964 7.964 0 0 0 3.722.92 7.968 7.968 0 0 0 3.727-.922c3.115 1.083 5.657 3.588 6.16 7.513-2.59 2.418-6.054 3.908-9.875 3.908z"></path><path fill="#7356B6" d="M18 26.504a5.504 5.504 0 0 1-5.498 5.507 5.502 5.502 0 0 1-5.496-5.505 5.5 5.5 0 0 1 5.496-5.507A5.502 5.502 0 0 1 18 26.504z"></path></svg>