<svg width="312" height="37" version="1.1" viewBox="0 0 82.55 9.7896" xmlns="http://www.w3.org/2000/svg">
<g transform="translate(-23.3 -277.95)">
<g fill="#00f000" aria-label="Good Job! That's Correct">
<g transform="translate(0 -.13363)" fill="#f00000" stroke="#f0f0f0" stroke-width=".66146" aria-label="That's Incorrect">
<path d="m29.904 279.85q0 0.17983-0.0186 0.31005-0.0124 0.12403-0.04341 0.20464-0.03101 0.0744-0.08062 0.11162-0.04341 0.0372-0.09922 0.0372h-2.0092v6.4678q0 0.062-0.04341 0.11162-0.03721 0.0496-0.13022 0.0806-0.09302 0.031-0.25425 0.0496-0.15503 0.0186-0.39067 0.0186-0.23564 0-0.39688-0.0186-0.15503-0.0186-0.24805-0.0496-0.09302-0.031-0.13643-0.0806-0.03721-0.0496-0.03721-0.11162v-6.4678h-2.0092q-0.06201 0-0.10542-0.0372t-0.07441-0.11162q-0.03101-0.0806-0.04961-0.20464-0.0124-0.13022-0.0124-0.31005 0-0.18604 0.0124-0.31626 0.0186-0.13023 0.04961-0.20464 0.03101-0.0806 0.07441-0.11162 0.04341-0.0372 0.10542-0.0372h5.6555q0.05581 0 0.09922 0.0372 0.04961 0.031 0.08062 0.11162 0.03101 0.0744 0.04341 0.20464 0.0186 0.13022 0.0186 0.31626z"/>
<path d="m36.055 286.99q0 0.062-0.03721 0.11162-0.03721 0.0434-0.12402 0.0744-0.08682 0.031-0.24185 0.0434-0.14883 0.0186-0.37207 0.0186-0.22944 0-0.38447-0.0186-0.14883-0.0124-0.23564-0.0434-0.08682-0.031-0.12402-0.0744-0.03721-0.0496-0.03721-0.11162v-3.1564q0-0.40308-0.06201-0.63252-0.05581-0.22944-0.16743-0.39067-0.11162-0.16744-0.29146-0.25425-0.17363-0.093-0.40928-0.093-0.29766 0-0.60151 0.21704-0.30386 0.21704-0.63252 0.63252v3.6773q0 0.062-0.03721 0.11162-0.03721 0.0434-0.13022 0.0744-0.08682 0.031-0.23564 0.0434-0.14883 0.0186-0.37827 0.0186-0.22944 0-0.37827-0.0186-0.14883-0.0124-0.24185-0.0434-0.08682-0.031-0.12402-0.0744-0.03721-0.0496-0.03721-0.11162v-8.1546q0-0.062 0.03721-0.11162 0.03721-0.0496 0.12402-0.0806 0.09302-0.0372 0.24185-0.0558 0.14883-0.0186 0.37827-0.0186 0.22944 0 0.37827 0.0186t0.23564 0.0558q0.09302 0.031 0.13022 0.0806 0.03721 0.0496 0.03721 0.11162v3.0572q0.40308-0.39687 0.81856-0.58911 0.42168-0.19844 0.87436-0.19844 0.56431 0 0.94878 0.18604 0.39067 0.18603 0.62632 0.50849 0.24184 0.32247 0.34726 0.75655 0.10542 0.42788 0.10542 1.0418z"/>
<path d="m42.306 287.01q0 0.0868-0.06201 0.13642-0.06201 0.0496-0.19844 0.0682-0.13022 0.0248-0.39067 0.0248-0.27905 0-0.40928-0.0248-0.12402-0.0186-0.17983-0.0682-0.04961-0.0496-0.04961-0.13642v-0.44028q-0.34106 0.36586-0.78135 0.5705-0.43408 0.20464-0.96738 0.20464-0.44028 0-0.81235-0.11782-0.36587-0.11162-0.63872-0.33486-0.26665-0.22945-0.41548-0.56431t-0.14883-0.78135q0-0.48369 0.18604-0.83716 0.19224-0.35966 0.56431-0.58911 0.37827-0.23564 0.93638-0.34726 0.5581-0.11162 1.296-0.11162h0.5395v-0.33487q0-0.26045-0.05581-0.45268-0.04961-0.19844-0.17363-0.32867-0.11782-0.13022-0.32246-0.19223-0.19844-0.062-0.49609-0.062-0.39067 0-0.70073 0.0868-0.30386 0.0868-0.5395 0.19224-0.23564 0.10542-0.39688 0.19224-0.15503 0.0868-0.25425 0.0868-0.06821 0-0.12402-0.0434-0.04961-0.0434-0.08682-0.12402-0.03101-0.0806-0.04961-0.19844-0.0186-0.11782-0.0186-0.26045 0-0.19223 0.03101-0.30385t0.11782-0.19844q0.08682-0.093 0.30386-0.19844 0.21704-0.11162 0.5085-0.20464 0.29146-0.093 0.63252-0.14883 0.34727-0.062 0.71314-0.062 0.65112 0 1.11 0.13023 0.46509 0.12402 0.76274 0.39067 0.29766 0.26045 0.43408 0.67593t0.13643 0.98599zm-1.5317-2.3688h-0.59531q-0.37827 0-0.64492 0.0558-0.26665 0.0558-0.43408 0.16743-0.16743 0.11162-0.24805 0.27285-0.07441 0.15503-0.07441 0.35967 0 0.34727 0.21704 0.54571 0.22324 0.19843 0.61392 0.19843 0.32866 0 0.60151-0.16743 0.27905-0.16743 0.56431-0.48989z"/>
<path d="m47.019 286.44q0 0.27285-0.03721 0.42168-0.03101 0.14263-0.08682 0.20464-0.05581 0.0558-0.16743 0.10542-0.10542 0.0434-0.25425 0.0744-0.14263 0.0372-0.31626 0.0558-0.16743 0.0186-0.34106 0.0186-0.46509 0-0.80615-0.11782-0.34106-0.11783-0.56431-0.35967-0.22324-0.24805-0.32866-0.62012t-0.10542-0.88057v-2.8339h-0.66352q-0.11782 0-0.17983-0.14263-0.06201-0.14883-0.06201-0.48989 0-0.17983 0.0124-0.30386 0.0186-0.12402 0.04961-0.19223 0.03101-0.0744 0.07441-0.10542 0.04961-0.031 0.11162-0.031h0.65732v-1.234q0-0.062 0.03101-0.11162 0.03721-0.0496 0.12402-0.0806 0.09302-0.0372 0.24184-0.0496 0.15503-0.0186 0.37827-0.0186 0.22944 0 0.37827 0.0186 0.15503 0.0124 0.24185 0.0496 0.08682 0.031 0.12402 0.0806 0.03721 0.0496 0.03721 0.11162v1.234h1.203q0.06201 0 0.10542 0.031 0.04961 0.031 0.08062 0.10542 0.03101 0.0682 0.04341 0.19223 0.0186 0.12403 0.0186 0.30386 0 0.34106-0.06201 0.48989-0.06201 0.14263-0.17983 0.14263h-1.2092v2.5983q0 0.45269 0.14263 0.68213 0.14263 0.22324 0.5085 0.22324 0.12402 0 0.22324-0.0186 0.09922-0.0248 0.17363-0.0496 0.08062-0.031 0.13022-0.0496 0.05581-0.0248 0.09922-0.0248 0.03721 0 0.06821 0.0248 0.03721 0.0186 0.05581 0.0868 0.0186 0.062 0.03101 0.17363 0.0186 0.11162 0.0186 0.28525z"/>
<path d="m49.437 281.56q0 0.0682-0.03101 0.11782-0.03101 0.0496-0.09922 0.0806t-0.17983 0.0496q-0.10542 0.0124-0.26665 0.0124-0.16743 0-0.27905-0.0186-0.10542-0.0186-0.17363-0.0496-0.06821-0.031-0.09922-0.0806-0.02481-0.0496-0.03101-0.11162l-0.14262-2.7719q-0.0062-0.062 0.03101-0.11162 0.04341-0.0496 0.13022-0.0806 0.08682-0.0372 0.22324-0.0496 0.14263-0.0186 0.34106-0.0186 0.20464 0 0.34106 0.0186 0.13643 0.0124 0.22324 0.0434 0.08682 0.031 0.12402 0.0806 0.03721 0.0496 0.03101 0.11782z"/>
<path d="m55.031 285.43q0 0.47129-0.17983 0.83096-0.17363 0.35966-0.49609 0.60151t-0.76274 0.35967q-0.44028 0.12402-0.95498 0.12402-0.31006 0-0.59531-0.0496-0.27905-0.0434-0.5023-0.11162-0.22324-0.0744-0.37207-0.14883-0.14883-0.0744-0.21704-0.13642-0.06821-0.0682-0.10542-0.20464-0.03721-0.14263-0.03721-0.41548 0-0.17983 0.0124-0.28525 0.0124-0.11162 0.03721-0.17364 0.02481-0.0682 0.06201-0.0868 0.03721-0.0248 0.09302-0.0248 0.06821 0 0.19844 0.0806 0.13643 0.0744 0.33486 0.16743 0.19844 0.093 0.45889 0.17363 0.26665 0.0806 0.60151 0.0806 0.21084 0 0.37207-0.0434 0.16743-0.0434 0.28525-0.12402 0.12402-0.0806 0.18604-0.20464 0.06201-0.12403 0.06201-0.28526 0-0.18603-0.11782-0.31626-0.11162-0.13642-0.30386-0.23564-0.18604-0.0992-0.42788-0.18604-0.23564-0.0868-0.48989-0.19223-0.24805-0.10542-0.48989-0.24185-0.23564-0.13642-0.42788-0.33486-0.18604-0.19844-0.30386-0.47749-0.11162-0.27905-0.11162-0.66973 0-0.39687 0.15503-0.72554 0.15503-0.33486 0.44648-0.5705 0.29146-0.23565 0.70693-0.36587 0.42168-0.13023 0.94258-0.13023 0.26045 0 0.5023 0.0372 0.24805 0.0372 0.44648 0.093 0.19844 0.0558 0.33486 0.12402 0.13643 0.062 0.19224 0.11162 0.06201 0.0434 0.08682 0.093 0.0248 0.0434 0.03721 0.11162 0.0124 0.062 0.0186 0.16123 0.0124 0.093 0.0124 0.23565 0 0.16743-0.0124 0.27285-0.0062 0.10542-0.03101 0.16743-0.0186 0.062-0.05581 0.0868-0.03721 0.0186-0.08682 0.0186-0.05581 0-0.17363-0.062-0.11782-0.0682-0.29766-0.14263-0.17363-0.0744-0.40928-0.13643-0.22944-0.0682-0.5271-0.0682-0.21084 0-0.36587 0.0434t-0.25425 0.12402q-0.09922 0.0806-0.14883 0.19224-0.04961 0.10542-0.04961 0.22944 0 0.19224 0.11782 0.32246 0.11782 0.13023 0.31006 0.22945 0.19224 0.0992 0.43408 0.18603 0.24805 0.0868 0.49609 0.19224 0.25425 0.0992 0.49609 0.23564 0.24805 0.13643 0.44028 0.33487 0.19224 0.19843 0.31006 0.47749 0.11782 0.27285 0.11782 0.65112z"/>
<path d="m60.804 286.98q0 0.062-0.04341 0.11162-0.03721 0.0496-0.13022 0.0806-0.09302 0.031-0.24805 0.0496-0.15503 0.0186-0.39688 0.0186-0.23564 0-0.39688-0.0186-0.15503-0.0186-0.24805-0.0496-0.09302-0.031-0.13643-0.0806-0.03721-0.0496-0.03721-0.11162v-7.5778q0-0.062 0.03721-0.11162 0.04341-0.0496 0.13643-0.0806 0.09922-0.031 0.25425-0.0496 0.15503-0.0186 0.39067-0.0186 0.24185 0 0.39688 0.0186 0.15503 0.0186 0.24805 0.0496 0.09302 0.031 0.13022 0.0806 0.04341 0.0496 0.04341 0.11162z"/>
<path d="m67.756 286.99q0 0.062-0.03721 0.11162-0.03721 0.0434-0.12402 0.0744-0.08682 0.031-0.24185 0.0434-0.14883 0.0186-0.37207 0.0186-0.22944 0-0.38447-0.0186-0.14883-0.0124-0.23564-0.0434-0.08682-0.031-0.12402-0.0744-0.03721-0.0496-0.03721-0.11162v-3.1564q0-0.40308-0.06201-0.63252-0.05581-0.22944-0.16743-0.39067-0.11162-0.16744-0.29146-0.25425-0.17363-0.093-0.40928-0.093-0.29766 0-0.60151 0.21704-0.30386 0.21704-0.63252 0.63252v3.6773q0 0.062-0.03721 0.11162-0.03721 0.0434-0.13022 0.0744-0.08682 0.031-0.23564 0.0434-0.14883 0.0186-0.37827 0.0186-0.22944 0-0.37827-0.0186-0.14883-0.0124-0.24184-0.0434-0.08682-0.031-0.12402-0.0744-0.03721-0.0496-0.03721-0.11162v-5.5314q0-0.062 0.03101-0.10542 0.03101-0.0496 0.11162-0.0806 0.08062-0.031 0.20464-0.0434 0.13022-0.0186 0.32246-0.0186 0.19844 0 0.32866 0.0186 0.13022 0.0124 0.19844 0.0434 0.07441 0.031 0.10542 0.0806 0.03101 0.0434 0.03101 0.10542v0.63872q0.45889-0.49609 0.93018-0.74414 0.47749-0.24805 0.99219-0.24805 0.56431 0 0.94878 0.18604 0.39067 0.18603 0.62632 0.50849 0.24185 0.31626 0.34727 0.74414 0.10542 0.42789 0.10542 1.0294z"/>
<path d="m73.479 286.11q0 0.16123-0.0124 0.27285-0.0062 0.10542-0.02481 0.17983-0.0124 0.0744-0.03721 0.12403-0.0186 0.0434-0.09302 0.11782-0.07441 0.0682-0.25425 0.17363-0.17983 0.0992-0.40928 0.17984-0.22944 0.0806-0.5023 0.13022-0.26665 0.0496-0.5519 0.0496-0.63872 0-1.1348-0.19844-0.48989-0.19843-0.82476-0.58291-0.33486-0.39067-0.5085-0.94878-0.16743-0.5581-0.16743-1.2774 0-0.83095 0.20464-1.4325 0.21084-0.60771 0.58291-1.0046 0.37207-0.39687 0.88057-0.58911t1.1162-0.19224q0.24805 0 0.48369 0.0434 0.24185 0.0434 0.44648 0.11782 0.21084 0.0744 0.37207 0.16744 0.16743 0.093 0.23564 0.16123 0.06821 0.0682 0.09302 0.11782 0.03101 0.0434 0.04341 0.11782 0.0186 0.0744 0.02481 0.18604 0.0124 0.10542 0.0124 0.26045 0 0.35966-0.06201 0.50849-0.06201 0.14263-0.16123 0.14263-0.10542 0-0.22324-0.0868t-0.27905-0.19223q-0.16123-0.10542-0.38447-0.19224-0.22324-0.0868-0.5333-0.0868-0.60772 0-0.93018 0.47129-0.32246 0.46509-0.32246 1.3705 0 0.44649 0.08062 0.78755t0.23564 0.57051q0.16123 0.22944 0.39688 0.34726 0.24185 0.11162 0.5581 0.11162 0.32246 0 0.5519-0.093 0.23564-0.0992 0.40928-0.21704 0.17363-0.11783 0.29146-0.21084 0.11782-0.0992 0.19844-0.0992 0.05581 0 0.09302 0.031t0.05581 0.11783q0.0248 0.0806 0.03721 0.21084 0.0124 0.13022 0.0124 0.33486z"/>
<path d="m80.146 284.17q0 0.70694-0.18604 1.2898-0.18604 0.58291-0.56431 1.0046t-0.94878 0.65112-1.3333 0.22944q-0.73794 0-1.2836-0.20464t-0.90537-0.59531-0.5333-0.96118q-0.17363-0.57051-0.17363-1.3022 0-0.70693 0.18604-1.2898 0.19224-0.58911 0.57051-1.0046 0.37827-0.42168 0.94258-0.65112 0.57051-0.22945 1.3333-0.22945 0.74414 0 1.2898 0.20464 0.5457 0.19844 0.89917 0.58911 0.35967 0.39068 0.5333 0.96118 0.17363 0.57051 0.17363 1.3084zm-1.6061 0.062q0-0.40927-0.06821-0.75034-0.06201-0.34726-0.21704-0.60151-0.15503-0.25425-0.41548-0.39688-0.25425-0.14262-0.64492-0.14262-0.34727 0-0.60772 0.13022-0.26045 0.12402-0.42788 0.37207-0.16743 0.24185-0.25425 0.58911-0.08062 0.34107-0.08062 0.78135 0 0.40928 0.06821 0.75654 0.06821 0.34107 0.21704 0.59532 0.15503 0.25424 0.41548 0.39687 0.26045 0.13643 0.64492 0.13643 0.35347 0 0.61392-0.12403 0.26045-0.13022 0.42788-0.37207 0.16743-0.24184 0.24805-0.58291 0.08062-0.34726 0.08062-0.78755z"/>
<path d="m84.927 281.97q0 0.22324-0.0124 0.36587-0.0124 0.14262-0.03721 0.22324-0.02481 0.0806-0.06821 0.11162-0.03721 0.031-0.09922 0.031-0.04961 0-0.11162-0.0186-0.06201-0.0248-0.14263-0.0496-0.07441-0.0248-0.16743-0.0434-0.09302-0.0248-0.20464-0.0248-0.13022 0-0.26045 0.0558-0.13022 0.0496-0.27285 0.16123-0.13643 0.11162-0.29146 0.29766-0.14883 0.18603-0.32246 0.45888v3.4479q0 0.062-0.03721 0.11162-0.03721 0.0434-0.13022 0.0744-0.08682 0.031-0.23564 0.0434-0.14883 0.0186-0.37827 0.0186-0.22944 0-0.37827-0.0186-0.14883-0.0124-0.24185-0.0434-0.08682-0.031-0.12402-0.0744-0.03721-0.0496-0.03721-0.11162v-5.5314q0-0.062 0.03101-0.10542 0.03101-0.0496 0.11162-0.0806 0.08061-0.031 0.20464-0.0434 0.13022-0.0186 0.32246-0.0186 0.19844 0 0.32866 0.0186 0.13022 0.0124 0.19844 0.0434 0.07441 0.031 0.10542 0.0806 0.03101 0.0434 0.03101 0.10542v0.68833q0.21704-0.31006 0.40928-0.5085 0.19224-0.20463 0.36587-0.32246 0.17363-0.11782 0.34727-0.16123 0.17363-0.0496 0.34727-0.0496 0.08061 0 0.17363 0.0124 0.09302 6e-3 0.19224 0.031 0.09922 0.0186 0.17363 0.0496 0.07442 0.0248 0.10542 0.0558 0.03721 0.031 0.04961 0.0682 0.0186 0.0372 0.03101 0.10542 0.0124 0.062 0.0186 0.19224 0.0062 0.13022 0.0062 0.35347z"/>
<path d="m89.441 281.97q0 0.22324-0.0124 0.36587-0.0124 0.14262-0.03721 0.22324-0.02481 0.0806-0.06821 0.11162-0.03721 0.031-0.09922 0.031-0.04961 0-0.11162-0.0186-0.06201-0.0248-0.14263-0.0496-0.07441-0.0248-0.16743-0.0434-0.09302-0.0248-0.20464-0.0248-0.13022 0-0.26045 0.0558-0.13022 0.0496-0.27285 0.16123-0.13643 0.11162-0.29146 0.29766-0.14883 0.18603-0.32246 0.45888v3.4479q0 0.062-0.03721 0.11162-0.03721 0.0434-0.13022 0.0744-0.08682 0.031-0.23564 0.0434-0.14883 0.0186-0.37827 0.0186-0.22944 0-0.37827-0.0186-0.14883-0.0124-0.24185-0.0434-0.08682-0.031-0.12402-0.0744-0.03721-0.0496-0.03721-0.11162v-5.5314q0-0.062 0.03101-0.10542 0.031-0.0496 0.11162-0.0806 0.08061-0.031 0.20464-0.0434 0.13022-0.0186 0.32246-0.0186 0.19844 0 0.32866 0.0186 0.13022 0.0124 0.19844 0.0434 0.07441 0.031 0.10542 0.0806 0.03101 0.0434 0.03101 0.10542v0.68833q0.21704-0.31006 0.40928-0.5085 0.19224-0.20463 0.36587-0.32246 0.17363-0.11782 0.34727-0.16123 0.17363-0.0496 0.34726-0.0496 0.08062 0 0.17363 0.0124 0.09302 6e-3 0.19224 0.031 0.09922 0.0186 0.17363 0.0496 0.07441 0.0248 0.10542 0.0558 0.03721 0.031 0.04961 0.0682 0.0186 0.0372 0.03101 0.10542 0.0124 0.062 0.0186 0.19224 0.0062 0.13022 0.0062 0.35347z"/>
<path d="m95.363 284.06q0 0.28526-0.13022 0.42168-0.12402 0.13643-0.34726 0.13643h-3.3672q0 0.35346 0.08062 0.64492 0.08682 0.28525 0.26665 0.48989 0.18604 0.19844 0.47129 0.30386 0.29146 0.10542 0.69453 0.10542 0.40928 0 0.71934-0.0558 0.31006-0.062 0.5333-0.13023 0.22944-0.0744 0.37827-0.13022 0.14883-0.062 0.24185-0.062 0.05581 0 0.09302 0.0248 0.03721 0.0186 0.06201 0.0744 0.02481 0.0558 0.03101 0.16123 0.0124 0.0992 0.0124 0.25424 0 0.13643-0.0062 0.23565-0.0062 0.093-0.0186 0.16123-0.0124 0.0682-0.03721 0.11782-0.02481 0.0434-0.06821 0.0868-0.03721 0.0434-0.21704 0.11782-0.17983 0.0744-0.45889 0.14883-0.27905 0.0682-0.63872 0.11782-0.35967 0.0558-0.76895 0.0558-0.73794 0-1.296-0.18603-0.5519-0.18604-0.92397-0.56431-0.37207-0.37827-0.55811-0.95498-0.17983-0.57671-0.17983-1.3519 0-0.73794 0.19224-1.327 0.19224-0.59531 0.5581-1.0046 0.36587-0.41547 0.88677-0.63252 0.5271-0.21704 1.1844-0.21704 0.69453 0 1.1844 0.20464 0.49609 0.20464 0.81235 0.57051 0.31626 0.35967 0.46509 0.85576t0.14883 1.079zm-1.5131-0.44648q0.0186-0.65733-0.26665-1.0294-0.27905-0.37827-0.86816-0.37827-0.29766 0-0.5209 0.11162-0.21704 0.11162-0.36587 0.30386-0.14263 0.18604-0.22324 0.44648-0.07441 0.25425-0.08682 0.54571z"/>
<path d="m100.84 286.11q0 0.16123-0.0124 0.27285-6e-3 0.10542-0.0248 0.17983-0.0124 0.0744-0.0372 0.12403-0.0186 0.0434-0.093 0.11782-0.0744 0.0682-0.25425 0.17363-0.17983 0.0992-0.40927 0.17984-0.22945 0.0806-0.5023 0.13022-0.26665 0.0496-0.5519 0.0496-0.63872 0-1.1348-0.19844-0.48989-0.19843-0.82476-0.58291-0.33486-0.39067-0.5085-0.94878-0.16743-0.5581-0.16743-1.2774 0-0.83095 0.20464-1.4325 0.21084-0.60771 0.58291-1.0046 0.37207-0.39687 0.88057-0.58911t1.1162-0.19224q0.24805 0 0.48369 0.0434 0.24185 0.0434 0.44648 0.11782 0.21084 0.0744 0.37207 0.16744 0.16743 0.093 0.23564 0.16123 0.0682 0.0682 0.093 0.11782 0.031 0.0434 0.0434 0.11782 0.0186 0.0744 0.0248 0.18604 0.0124 0.10542 0.0124 0.26045 0 0.35966-0.062 0.50849-0.062 0.14263-0.16123 0.14263-0.10542 0-0.22324-0.0868t-0.27905-0.19223q-0.16123-0.10542-0.38447-0.19224-0.22324-0.0868-0.5333-0.0868-0.60771 0-0.93018 0.47129-0.32246 0.46509-0.32246 1.3705 0 0.44649 0.08061 0.78755 0.08062 0.34106 0.23564 0.57051 0.16123 0.22944 0.39688 0.34726 0.24185 0.11162 0.55811 0.11162 0.32246 0 0.5519-0.093 0.23564-0.0992 0.40927-0.21704 0.17363-0.11783 0.29145-0.21084 0.11783-0.0992 0.19844-0.0992 0.0558 0 0.093 0.031t0.0558 0.11783q0.0248 0.0806 0.0372 0.21084 0.0124 0.13022 0.0124 0.33486z"/>
<path d="m105.24 286.44q0 0.27285-0.0372 0.42168-0.031 0.14263-0.0868 0.20464-0.0558 0.0558-0.16743 0.10542-0.10542 0.0434-0.25425 0.0744-0.14263 0.0372-0.31626 0.0558-0.16743 0.0186-0.34107 0.0186-0.46508 0-0.80615-0.11782-0.34106-0.11783-0.5643-0.35967-0.22325-0.24805-0.32867-0.62012t-0.10542-0.88057v-2.8339h-0.66352q-0.11782 0-0.17984-0.14263-0.062-0.14883-0.062-0.48989 0-0.17983 0.0124-0.30386 0.0186-0.12402 0.0496-0.19223 0.031-0.0744 0.0744-0.10542 0.0496-0.031 0.11162-0.031h0.65732v-1.234q0-0.062 0.031-0.11162 0.0372-0.0496 0.12402-0.0806 0.093-0.0372 0.24185-0.0496 0.15503-0.0186 0.37827-0.0186 0.22944 0 0.37827 0.0186 0.15503 0.0124 0.24185 0.0496 0.0868 0.031 0.12402 0.0806 0.0372 0.0496 0.0372 0.11162v1.234h1.203q0.062 0 0.10542 0.031 0.0496 0.031 0.0806 0.10542 0.031 0.0682 0.0434 0.19223 0.0186 0.12403 0.0186 0.30386 0 0.34106-0.062 0.48989-0.062 0.14263-0.17983 0.14263h-1.2092v2.5983q0 0.45269 0.14262 0.68213 0.14263 0.22324 0.5085 0.22324 0.12402 0 0.22324-0.0186 0.0992-0.0248 0.17364-0.0496 0.0806-0.031 0.13022-0.0496 0.0558-0.0248 0.0992-0.0248 0.0372 0 0.0682 0.0248 0.0372 0.0186 0.0558 0.0868 0.0186 0.062 0.031 0.17363 0.0186 0.11162 0.0186 0.28525z"/>
</g>
</g>
</g>
</svg>
