<svg width="479.39" height="99.015" version="1.1" viewBox="0 0 126.84 26.198" xmlns="http://www.w3.org/2000/svg">
<g transform="translate(-10.662 -270.46)">
<g transform="matrix(.92527 0 0 1.0808 .52917 0)" fill="none" stroke="#f0f0f0" stroke-width="3.7042" aria-label="It Matches!">
<path d="m15.877 271.98q0 0.11635-0.05818 0.20361-0.05817 0.0873-0.20361 0.14544-0.14544 0.0436-0.39268 0.0727-0.2327 0.0436-0.59629 0.0436-0.34905 0-0.59629-0.0436-0.24724-0.0291-0.39268-0.0727-0.14544-0.0582-0.20361-0.14544-0.05817-0.0873-0.05817-0.20361v-18.063q0-0.11635 0.05817-0.20361 0.07272-0.0873 0.21816-0.13089 0.15998-0.0582 0.39268-0.0873 0.24724-0.0436 0.58175-0.0436 0.36359 0 0.59629 0.0436 0.24724 0.0291 0.39268 0.0873 0.14544 0.0436 0.20361 0.13089 0.05818 0.0873 0.05818 0.20361z"/>
<path d="m27.41 271.04q0 0.42176-0.05817 0.669-0.05817 0.24725-0.17452 0.36359-0.11635 0.11635-0.34905 0.21816-0.2327 0.1018-0.53812 0.15998-0.29087 0.0727-0.62538 0.11635-0.3345 0.0436-0.66901 0.0436-1.0181 0-1.7452-0.26179-0.72718-0.27633-1.1926-0.81444-0.4654-0.55266-0.68355-1.3816-0.20361-0.84353-0.20361-1.9779v-7.65h-1.8325q-0.21816 0-0.34905-0.23269-0.13089-0.2327-0.13089-0.75627 0-0.27633 0.02909-0.4654 0.04363-0.18907 0.1018-0.30542 0.05817-0.13089 0.14544-0.17452 0.1018-0.0582 0.21815-0.0582h1.818v-3.1123q0-0.10181 0.04363-0.18907 0.05818-0.0873 0.18907-0.14544 0.14544-0.0727 0.37813-0.1018 0.2327-0.0291 0.58175-0.0291 0.36359 0 0.59629 0.0291 0.2327 0.0291 0.36359 0.1018 0.13089 0.0582 0.18907 0.14544 0.05817 0.0873 0.05817 0.18907v3.1123h3.3596q0.11635 0 0.20361 0.0582 0.08726 0.0436 0.14544 0.17452 0.07272 0.11635 0.1018 0.30542 0.02909 0.18907 0.02909 0.4654 0 0.52357-0.13089 0.75627-0.13089 0.23269-0.34905 0.23269h-3.3596v7.3009q0 1.3526 0.39268 2.0506 0.40722 0.68356 1.4398 0.68356 0.3345 0 0.59629-0.0582 0.26179-0.0727 0.4654-0.14543 0.20361-0.0727 0.34905-0.1309 0.14544-0.0727 0.26179-0.0727 0.07272 0 0.13089 0.0436 0.07272 0.0291 0.1018 0.13089 0.04363 0.1018 0.07272 0.27633 0.02909 0.17452 0.02909 0.43631z"/>
<path d="m58.097 271.98q0 0.11635-0.05817 0.20361-0.05817 0.0873-0.20361 0.14544-0.14544 0.0436-0.37813 0.0727-0.21816 0.0436-0.58175 0.0436-0.3345 0-0.58175-0.0436-0.2327-0.0291-0.37813-0.0727-0.13089-0.0582-0.18907-0.14544-0.05817-0.0873-0.05817-0.20361v-16.391h-0.02909l-6.7046 16.463q-0.04363 0.10181-0.13089 0.17452-0.07272 0.0727-0.2327 0.1309-0.14544 0.0436-0.36359 0.0582-0.20361 0.0291-0.49448 0.0291-0.30542 0-0.52357-0.0291t-0.36359-0.0727q-0.14544-0.0582-0.2327-0.13089-0.07272-0.0727-0.10181-0.15998l-6.4137-16.463h-0.01454v16.391q0 0.11635-0.05817 0.20361-0.05817 0.0873-0.20361 0.14544-0.14544 0.0436-0.37814 0.0727-0.2327 0.0436-0.59629 0.0436-0.34905 0-0.58174-0.0436-0.2327-0.0291-0.37814-0.0727-0.13089-0.0582-0.18907-0.14544-0.04363-0.0873-0.04363-0.20361v-17.307q0-0.61083 0.31996-0.87262 0.31996-0.26178 0.71264-0.26178h1.5125q0.4654 0 0.81444 0.0873 0.34905 0.0873 0.61083 0.27633 0.26178 0.18906 0.43631 0.47994 0.17452 0.29087 0.30542 0.68355l5.4539 13.627h0.07272l5.672-13.584q0.15998-0.43631 0.34905-0.74173 0.18907-0.30541 0.40722-0.47994 0.2327-0.18906 0.50903-0.26178 0.27633-0.0873 0.63992-0.0873h1.5853q0.21816 0 0.40722 0.0727 0.20361 0.0582 0.3345 0.20361 0.14544 0.1309 0.2327 0.34905 0.08726 0.20361 0.08726 0.50903z"/>
<path d="m72.699 272.01q0 0.17452-0.11635 0.26179-0.11635 0.0873-0.31996 0.13089-0.20361 0.0436-0.59629 0.0436-0.37814 0-0.61083-0.0436-0.21816-0.0436-0.31996-0.13089-0.10181-0.0873-0.10181-0.26179v-1.3089q-0.85808 0.91625-1.9198 1.4253-1.0471 0.50903-2.2252 0.50903-1.0326 0-1.8761-0.27633-0.82899-0.26179-1.4253-0.77082-0.58175-0.50902-0.91625-1.2508-0.31996-0.74172-0.31996-1.6871 0-1.1053 0.45085-1.9198 0.45085-0.81445 1.2944-1.3526 0.84353-0.53811 2.0652-0.7999 1.2217-0.27633 2.7487-0.27633h1.8034v-1.018q0-0.75627-0.15998-1.338t-0.52357-0.95988q-0.34905-0.39268-0.91625-0.58175-0.5672-0.20361-1.3962-0.20361-0.88716 0-1.5998 0.21816-0.6981 0.20361-1.2362 0.46539-0.52357 0.24725-0.88716 0.4654-0.34905 0.20361-0.52357 0.20361-0.11635 0-0.20361-0.0582-0.08726-0.0582-0.15998-0.17453-0.05817-0.11635-0.08726-0.29087-0.02909-0.18907-0.02909-0.40722 0-0.36359 0.04363-0.5672 0.05817-0.21816 0.24724-0.40722 0.20361-0.18907 0.68355-0.43631 0.47994-0.26179 1.1053-0.4654 0.62538-0.21816 1.3671-0.34905 0.74172-0.14543 1.498-0.14543 1.4107 0 2.3997 0.31996 0.98897 0.31996 1.5998 0.94533 0.61083 0.61084 0.88716 1.5271 0.27633 0.91625 0.27633 2.1379zm-2.3852-5.9774h-2.0507q-0.98897 0-1.7162 0.17453-0.72718 0.15998-1.2071 0.49448-0.47994 0.31996-0.71264 0.78536-0.21815 0.45085-0.21815 1.0471 0 1.018 0.63992 1.6289 0.65446 0.59629 1.818 0.59629 0.94534 0 1.7452-0.47994 0.81444-0.47994 1.7016-1.4689z"/>
<path d="m83.606 271.04q0 0.42176-0.05817 0.669-0.05817 0.24725-0.17452 0.36359-0.11635 0.11635-0.34905 0.21816-0.2327 0.1018-0.53812 0.15998-0.29087 0.0727-0.62538 0.11635-0.3345 0.0436-0.66901 0.0436-1.0181 0-1.7452-0.26179-0.72718-0.27633-1.1926-0.81444-0.4654-0.55266-0.68355-1.3816-0.20361-0.84353-0.20361-1.9779v-7.65h-1.8325q-0.21816 0-0.34905-0.23269-0.13089-0.2327-0.13089-0.75627 0-0.27633 0.02909-0.4654 0.04363-0.18907 0.1018-0.30542 0.05817-0.13089 0.14544-0.17452 0.1018-0.0582 0.21815-0.0582h1.818v-3.1123q0-0.10181 0.04363-0.18907 0.05817-0.0873 0.18907-0.14544 0.14544-0.0727 0.37813-0.1018 0.2327-0.0291 0.58175-0.0291 0.36359 0 0.59629 0.0291 0.2327 0.0291 0.36359 0.1018 0.13089 0.0582 0.18907 0.14544 0.05817 0.0873 0.05817 0.18907v3.1123h3.3596q0.11635 0 0.20361 0.0582 0.08726 0.0436 0.14544 0.17452 0.07272 0.11635 0.1018 0.30542 0.02909 0.18907 0.02909 0.4654 0 0.52357-0.13089 0.75627-0.13089 0.23269-0.34905 0.23269h-3.3596v7.3009q0 1.3526 0.39268 2.0506 0.40722 0.68356 1.4398 0.68356 0.3345 0 0.59629-0.0582 0.26179-0.0727 0.4654-0.14543 0.20361-0.0727 0.34905-0.1309 0.14544-0.0727 0.26179-0.0727 0.07272 0 0.13089 0.0436 0.07272 0.0291 0.1018 0.13089 0.04363 0.1018 0.07272 0.27633 0.02909 0.17452 0.02909 0.43631z"/>
<path d="m95.867 270.01q0 0.24724-0.01454 0.43631-0.01454 0.17452-0.05818 0.30541-0.02909 0.11635-0.08726 0.21816-0.04363 0.0873-0.2327 0.27633-0.17452 0.17452-0.61083 0.45085-0.43631 0.26179-0.98897 0.47994-0.53811 0.20361-1.178 0.3345-0.63992 0.1309-1.3235 0.1309-1.4107 0-2.5015-0.4654t-1.8325-1.3526q-0.72718-0.9017-1.1199-2.1961-0.37814-1.3089-0.37814-3.0105 0-1.9343 0.4654-3.316 0.47994-1.3962 1.2944-2.2834 0.82899-0.88717 1.9343-1.3089 1.1199-0.43631 2.4142-0.43631 0.62538 0 1.2071 0.11635 0.59629 0.11635 1.0908 0.30541 0.49448 0.18907 0.87262 0.43631 0.39268 0.24725 0.5672 0.42177t0.2327 0.27633q0.07272 0.1018 0.11635 0.24724 0.04363 0.13089 0.05817 0.30542 0.01454 0.17452 0.01454 0.43631 0 0.5672-0.13089 0.7999-0.13089 0.21815-0.31996 0.21815-0.21816 0-0.50903-0.2327-0.27633-0.24724-0.71264-0.53811t-1.0617-0.52357q-0.61083-0.24724-1.4544-0.24724-1.7307 0-2.6615 1.338-0.91625 1.3235-0.91625 3.8541 0 1.2653 0.2327 2.2252 0.24724 0.94534 0.71264 1.5853 0.4654 0.63992 1.1344 0.95988 0.68355 0.30542 1.5562 0.30542 0.82899 0 1.4544-0.26179 0.62538-0.26178 1.0762-0.5672 0.4654-0.31996 0.77081-0.5672 0.31996-0.26179 0.49448-0.26179 0.1018 0 0.17452 0.0582 0.07272 0.0582 0.11635 0.20361 0.05817 0.13089 0.07272 0.34904 0.02909 0.20361 0.02909 0.49449z"/>
<path d="m110.35 272q0 0.11635-0.0582 0.20361-0.0582 0.0727-0.18906 0.13089-0.1309 0.0582-0.36359 0.0873-0.2327 0.0291-0.58175 0.0291-0.36359 0-0.59629-0.0291t-0.36359-0.0873-0.18907-0.13089q-0.0582-0.0873-0.0582-0.20361v-7.6645q0-1.1199-0.17453-1.8034-0.17452-0.68356-0.50902-1.178-0.33451-0.49448-0.87262-0.75627-0.52357-0.26178-1.2217-0.26178-0.9017 0-1.8034 0.63992-0.9017 0.63992-1.8907 1.8761v9.148q0 0.11635-0.0582 0.20361-0.0582 0.0727-0.18906 0.13089-0.1309 0.0582-0.36359 0.0873-0.2327 0.0291-0.59629 0.0291-0.34905 0-0.58175-0.0291-0.2327-0.0291-0.37813-0.0873-0.13089-0.0582-0.18907-0.13089-0.04363-0.0873-0.04363-0.20361v-19.43q0-0.11635 0.04363-0.20361 0.05818-0.0873 0.18907-0.14544 0.14544-0.0582 0.37813-0.0873 0.2327-0.0291 0.58175-0.0291 0.36359 0 0.59629 0.0291 0.23269 0.0291 0.36359 0.0873 0.13089 0.0582 0.18906 0.14544 0.0582 0.0873 0.0582 0.20361v7.839q1.0326-1.0908 2.0797-1.6143 1.0471-0.53811 2.1088-0.53811 1.3089 0 2.1961 0.45085 0.9017 0.43631 1.4544 1.178 0.55266 0.74173 0.78536 1.7452 0.24724 0.98897 0.24724 2.3997z"/>
<path d="m125.9 264.89q0 0.5672-0.29087 0.81444-0.27633 0.2327-0.63992 0.2327h-8.5808q0 1.0908 0.21815 1.9634 0.21816 0.87262 0.72719 1.498 0.50902 0.62538 1.3235 0.95989 0.81444 0.3345 1.9925 0.3345 0.93079 0 1.658-0.14544 0.72718-0.15998 1.2508-0.34904 0.53812-0.18907 0.87262-0.33451 0.34905-0.15998 0.52357-0.15998 0.10181 0 0.17453 0.0582 0.0873 0.0436 0.13089 0.14543 0.0436 0.10181 0.0582 0.29088 0.0291 0.17452 0.0291 0.4363 0 0.18907-0.0145 0.33451-0.0145 0.13089-0.0436 0.24724-0.0145 0.10181-0.0727 0.18907-0.0436 0.0873-0.13089 0.17452-0.0727 0.0727-0.4654 0.26179-0.39268 0.17452-1.0181 0.34904-0.62537 0.17453-1.4544 0.30542-0.81444 0.14544-1.7452 0.14544-1.6143 0-2.836-0.45086-1.2071-0.45085-2.0361-1.338-0.82898-0.88716-1.2508-2.2252-0.42176-1.338-0.42176-3.1123 0-1.6871 0.4363-3.0251 0.43631-1.3526 1.2508-2.2834 0.82899-0.94533 1.9925-1.4398 1.1635-0.50902 2.6033-0.50902 1.5416 0 2.6178 0.49448 1.0908 0.49448 1.7889 1.338 0.6981 0.82899 1.0181 1.9634 0.3345 1.1199 0.3345 2.3997zm-2.4142-0.71264q0.0436-1.8907-0.84354-2.9669-0.87261-1.0762-2.6033-1.0762-0.88716 0-1.5562 0.3345-0.669 0.3345-1.1199 0.88716-0.45085 0.55266-0.69809 1.2944-0.24724 0.72718-0.27633 1.5271z"/>
<path d="m137.78 268.44q0 1.0035-0.37813 1.7889-0.36359 0.78536-1.0471 1.3235-0.68356 0.53812-1.6289 0.81445-0.94534 0.27633-2.0797 0.27633-0.6981 0-1.338-0.11635-0.62538-0.10181-1.1344-0.26179-0.49449-0.17452-0.84353-0.34905-0.34905-0.18906-0.50903-0.3345t-0.2327-0.40722q-0.0727-0.26179-0.0727-0.71264 0-0.27633 0.0291-0.4654 0.0291-0.18906 0.0727-0.30541t0.11635-0.15998q0.0873-0.0582 0.18906-0.0582 0.15998 0 0.4654 0.20361 0.31996 0.18907 0.77081 0.42177 0.4654 0.2327 1.0908 0.43631 0.62537 0.18907 1.4398 0.18907 0.61083 0 1.1053-0.1309 0.49449-0.13089 0.85808-0.37813 0.36359-0.26179 0.55266-0.65447 0.20361-0.39267 0.20361-0.93079 0-0.55266-0.29087-0.93079-0.27633-0.37814-0.74173-0.66901t-1.0471-0.50903q-0.58175-0.23269-1.2071-0.47994-0.61084-0.24724-1.2071-0.55265-0.58174-0.31996-1.0471-0.77082-0.4654-0.45085-0.75627-1.0762-0.27633-0.62537-0.27633-1.498 0-0.77082 0.29088-1.4689 0.30541-0.71264 0.9017-1.2362 0.59629-0.53811 1.4834-0.85807 0.90171-0.31996 2.0943-0.31996 0.52357 0 1.0471 0.0873t0.94534 0.21815q0.42176 0.13089 0.71263 0.29087 0.30542 0.14544 0.45086 0.26179 0.15998 0.11635 0.20361 0.20361 0.0582 0.0873 0.0727 0.20361 0.0291 0.10181 0.0436 0.26179 0.0291 0.15998 0.0291 0.39268 0 0.24724-0.0291 0.43631-0.0145 0.17452-0.0727 0.29087-0.0436 0.11635-0.11635 0.17452-0.0727 0.0436-0.15998 0.0436-0.13089 0-0.37813-0.15998-0.24725-0.15998-0.63993-0.3345-0.39267-0.18907-0.93079-0.34905-0.52357-0.15998-1.2071-0.15998-0.61083 0-1.0762 0.14544-0.4654 0.13089-0.77081 0.39268-0.29088 0.24724-0.45086 0.59629-0.14543 0.34904-0.14543 0.75626 0 0.56721 0.29087 0.95989 0.29087 0.37813 0.75627 0.669 0.4654 0.29088 1.0617 0.52357 0.59629 0.2327 1.2071 0.47994 0.62537 0.24725 1.2217 0.55266 0.61084 0.30542 1.0762 0.74173 0.4654 0.43631 0.74173 1.0471 0.29087 0.61083 0.29087 1.4544z"/>
<path d="m145.45 266.94q0 0.11635-0.0582 0.20361-0.0436 0.0873-0.17452 0.14544-0.13089 0.0582-0.3345 0.0873t-0.50903 0.0291-0.50903-0.0291-0.3345-0.0873q-0.1309-0.0582-0.18907-0.14544-0.0436-0.0873-0.0436-0.20361l-0.24724-13.875q-0.0146-0.17453 0.0436-0.30542t0.20361-0.21816q0.15998-0.0873 0.40722-0.11634 0.26179-0.0436 0.66901-0.0436 0.39268 0 0.63992 0.0436 0.26178 0.0436 0.40722 0.13089 0.15998 0.0873 0.21816 0.21815 0.0582 0.11635 0.0582 0.29088zm0.45085 3.9122q0 0.47994-0.0727 0.7999-0.0582 0.30542-0.24724 0.50903-0.17452 0.18906-0.4654 0.26178-0.29087 0.0873-0.74172 0.0873t-0.75627-0.0873q-0.29087-0.0727-0.4654-0.26178-0.17452-0.20361-0.24724-0.50903-0.0582-0.31996-0.0582-0.7999t0.0582-0.7999q0.0727-0.33451 0.24724-0.50903 0.17453-0.18907 0.4654-0.26178 0.30542-0.0873 0.75627-0.0873t0.74172 0.0873q0.29088 0.0727 0.4654 0.26178 0.18907 0.17452 0.24724 0.50903 0.0727 0.31996 0.0727 0.7999z"/>
</g>
<g transform="matrix(.92527 0 0 1.0808 .52917 0)" fill="#00f000" aria-label="It Matches!">
<path d="m15.877 271.98q0 0.11635-0.05818 0.20361-0.05817 0.0873-0.20361 0.14544-0.14544 0.0436-0.39268 0.0727-0.2327 0.0436-0.59629 0.0436-0.34905 0-0.59629-0.0436-0.24724-0.0291-0.39268-0.0727-0.14544-0.0582-0.20361-0.14544-0.05817-0.0873-0.05817-0.20361v-18.063q0-0.11635 0.05817-0.20361 0.07272-0.0873 0.21816-0.13089 0.15998-0.0582 0.39268-0.0873 0.24724-0.0436 0.58175-0.0436 0.36359 0 0.59629 0.0436 0.24724 0.0291 0.39268 0.0873 0.14544 0.0436 0.20361 0.13089 0.05818 0.0873 0.05818 0.20361z"/>
<path d="m27.41 271.04q0 0.42176-0.05817 0.669-0.05817 0.24725-0.17452 0.36359-0.11635 0.11635-0.34905 0.21816-0.2327 0.1018-0.53812 0.15998-0.29087 0.0727-0.62538 0.11635-0.3345 0.0436-0.66901 0.0436-1.0181 0-1.7452-0.26179-0.72718-0.27633-1.1926-0.81444-0.4654-0.55266-0.68355-1.3816-0.20361-0.84353-0.20361-1.9779v-7.65h-1.8325q-0.21816 0-0.34905-0.23269-0.13089-0.2327-0.13089-0.75627 0-0.27633 0.02909-0.4654 0.04363-0.18907 0.1018-0.30542 0.05817-0.13089 0.14544-0.17452 0.1018-0.0582 0.21815-0.0582h1.818v-3.1123q0-0.10181 0.04363-0.18907 0.05818-0.0873 0.18907-0.14544 0.14544-0.0727 0.37813-0.1018 0.2327-0.0291 0.58175-0.0291 0.36359 0 0.59629 0.0291 0.2327 0.0291 0.36359 0.1018 0.13089 0.0582 0.18907 0.14544 0.05817 0.0873 0.05817 0.18907v3.1123h3.3596q0.11635 0 0.20361 0.0582 0.08726 0.0436 0.14544 0.17452 0.07272 0.11635 0.1018 0.30542 0.02909 0.18907 0.02909 0.4654 0 0.52357-0.13089 0.75627-0.13089 0.23269-0.34905 0.23269h-3.3596v7.3009q0 1.3526 0.39268 2.0506 0.40722 0.68356 1.4398 0.68356 0.3345 0 0.59629-0.0582 0.26179-0.0727 0.4654-0.14543 0.20361-0.0727 0.34905-0.1309 0.14544-0.0727 0.26179-0.0727 0.07272 0 0.13089 0.0436 0.07272 0.0291 0.1018 0.13089 0.04363 0.1018 0.07272 0.27633 0.02909 0.17452 0.02909 0.43631z"/>
<path d="m58.097 271.98q0 0.11635-0.05817 0.20361-0.05817 0.0873-0.20361 0.14544-0.14544 0.0436-0.37813 0.0727-0.21816 0.0436-0.58175 0.0436-0.3345 0-0.58175-0.0436-0.2327-0.0291-0.37813-0.0727-0.13089-0.0582-0.18907-0.14544-0.05817-0.0873-0.05817-0.20361v-16.391h-0.02909l-6.7046 16.463q-0.04363 0.10181-0.13089 0.17452-0.07272 0.0727-0.2327 0.1309-0.14544 0.0436-0.36359 0.0582-0.20361 0.0291-0.49448 0.0291-0.30542 0-0.52357-0.0291t-0.36359-0.0727q-0.14544-0.0582-0.2327-0.13089-0.07272-0.0727-0.10181-0.15998l-6.4137-16.463h-0.01454v16.391q0 0.11635-0.05817 0.20361-0.05817 0.0873-0.20361 0.14544-0.14544 0.0436-0.37814 0.0727-0.2327 0.0436-0.59629 0.0436-0.34905 0-0.58174-0.0436-0.2327-0.0291-0.37814-0.0727-0.13089-0.0582-0.18907-0.14544-0.04363-0.0873-0.04363-0.20361v-17.307q0-0.61083 0.31996-0.87262 0.31996-0.26178 0.71264-0.26178h1.5125q0.4654 0 0.81444 0.0873 0.34905 0.0873 0.61083 0.27633 0.26178 0.18906 0.43631 0.47994 0.17452 0.29087 0.30542 0.68355l5.4539 13.627h0.07272l5.672-13.584q0.15998-0.43631 0.34905-0.74173 0.18907-0.30541 0.40722-0.47994 0.2327-0.18906 0.50903-0.26178 0.27633-0.0873 0.63992-0.0873h1.5853q0.21816 0 0.40722 0.0727 0.20361 0.0582 0.3345 0.20361 0.14544 0.1309 0.2327 0.34905 0.08726 0.20361 0.08726 0.50903z"/>
<path d="m72.699 272.01q0 0.17452-0.11635 0.26179-0.11635 0.0873-0.31996 0.13089-0.20361 0.0436-0.59629 0.0436-0.37814 0-0.61083-0.0436-0.21816-0.0436-0.31996-0.13089-0.10181-0.0873-0.10181-0.26179v-1.3089q-0.85808 0.91625-1.9198 1.4253-1.0471 0.50903-2.2252 0.50903-1.0326 0-1.8761-0.27633-0.82899-0.26179-1.4253-0.77082-0.58175-0.50902-0.91625-1.2508-0.31996-0.74172-0.31996-1.6871 0-1.1053 0.45085-1.9198 0.45085-0.81445 1.2944-1.3526 0.84353-0.53811 2.0652-0.7999 1.2217-0.27633 2.7487-0.27633h1.8034v-1.018q0-0.75627-0.15998-1.338t-0.52357-0.95988q-0.34905-0.39268-0.91625-0.58175-0.5672-0.20361-1.3962-0.20361-0.88716 0-1.5998 0.21816-0.6981 0.20361-1.2362 0.46539-0.52357 0.24725-0.88716 0.4654-0.34905 0.20361-0.52357 0.20361-0.11635 0-0.20361-0.0582-0.08726-0.0582-0.15998-0.17453-0.05817-0.11635-0.08726-0.29087-0.02909-0.18907-0.02909-0.40722 0-0.36359 0.04363-0.5672 0.05817-0.21816 0.24724-0.40722 0.20361-0.18907 0.68355-0.43631 0.47994-0.26179 1.1053-0.4654 0.62538-0.21816 1.3671-0.34905 0.74172-0.14543 1.498-0.14543 1.4107 0 2.3997 0.31996 0.98897 0.31996 1.5998 0.94533 0.61083 0.61084 0.88716 1.5271 0.27633 0.91625 0.27633 2.1379zm-2.3852-5.9774h-2.0507q-0.98897 0-1.7162 0.17453-0.72718 0.15998-1.2071 0.49448-0.47994 0.31996-0.71264 0.78536-0.21815 0.45085-0.21815 1.0471 0 1.018 0.63992 1.6289 0.65446 0.59629 1.818 0.59629 0.94534 0 1.7452-0.47994 0.81444-0.47994 1.7016-1.4689z"/>
<path d="m83.606 271.04q0 0.42176-0.05817 0.669-0.05817 0.24725-0.17452 0.36359-0.11635 0.11635-0.34905 0.21816-0.2327 0.1018-0.53812 0.15998-0.29087 0.0727-0.62538 0.11635-0.3345 0.0436-0.66901 0.0436-1.0181 0-1.7452-0.26179-0.72718-0.27633-1.1926-0.81444-0.4654-0.55266-0.68355-1.3816-0.20361-0.84353-0.20361-1.9779v-7.65h-1.8325q-0.21816 0-0.34905-0.23269-0.13089-0.2327-0.13089-0.75627 0-0.27633 0.02909-0.4654 0.04363-0.18907 0.1018-0.30542 0.05817-0.13089 0.14544-0.17452 0.1018-0.0582 0.21815-0.0582h1.818v-3.1123q0-0.10181 0.04363-0.18907 0.05817-0.0873 0.18907-0.14544 0.14544-0.0727 0.37813-0.1018 0.2327-0.0291 0.58175-0.0291 0.36359 0 0.59629 0.0291 0.2327 0.0291 0.36359 0.1018 0.13089 0.0582 0.18907 0.14544 0.05817 0.0873 0.05817 0.18907v3.1123h3.3596q0.11635 0 0.20361 0.0582 0.08726 0.0436 0.14544 0.17452 0.07272 0.11635 0.1018 0.30542 0.02909 0.18907 0.02909 0.4654 0 0.52357-0.13089 0.75627-0.13089 0.23269-0.34905 0.23269h-3.3596v7.3009q0 1.3526 0.39268 2.0506 0.40722 0.68356 1.4398 0.68356 0.3345 0 0.59629-0.0582 0.26179-0.0727 0.4654-0.14543 0.20361-0.0727 0.34905-0.1309 0.14544-0.0727 0.26179-0.0727 0.07272 0 0.13089 0.0436 0.07272 0.0291 0.1018 0.13089 0.04363 0.1018 0.07272 0.27633 0.02909 0.17452 0.02909 0.43631z"/>
<path d="m95.867 270.01q0 0.24724-0.01454 0.43631-0.01454 0.17452-0.05818 0.30541-0.02909 0.11635-0.08726 0.21816-0.04363 0.0873-0.2327 0.27633-0.17452 0.17452-0.61083 0.45085-0.43631 0.26179-0.98897 0.47994-0.53811 0.20361-1.178 0.3345-0.63992 0.1309-1.3235 0.1309-1.4107 0-2.5015-0.4654t-1.8325-1.3526q-0.72718-0.9017-1.1199-2.1961-0.37814-1.3089-0.37814-3.0105 0-1.9343 0.4654-3.316 0.47994-1.3962 1.2944-2.2834 0.82899-0.88717 1.9343-1.3089 1.1199-0.43631 2.4142-0.43631 0.62538 0 1.2071 0.11635 0.59629 0.11635 1.0908 0.30541 0.49448 0.18907 0.87262 0.43631 0.39268 0.24725 0.5672 0.42177t0.2327 0.27633q0.07272 0.1018 0.11635 0.24724 0.04363 0.13089 0.05817 0.30542 0.01454 0.17452 0.01454 0.43631 0 0.5672-0.13089 0.7999-0.13089 0.21815-0.31996 0.21815-0.21816 0-0.50903-0.2327-0.27633-0.24724-0.71264-0.53811t-1.0617-0.52357q-0.61083-0.24724-1.4544-0.24724-1.7307 0-2.6615 1.338-0.91625 1.3235-0.91625 3.8541 0 1.2653 0.2327 2.2252 0.24724 0.94534 0.71264 1.5853 0.4654 0.63992 1.1344 0.95988 0.68355 0.30542 1.5562 0.30542 0.82899 0 1.4544-0.26179 0.62538-0.26178 1.0762-0.5672 0.4654-0.31996 0.77081-0.5672 0.31996-0.26179 0.49448-0.26179 0.1018 0 0.17452 0.0582 0.07272 0.0582 0.11635 0.20361 0.05817 0.13089 0.07272 0.34904 0.02909 0.20361 0.02909 0.49449z"/>
<path d="m110.35 272q0 0.11635-0.0582 0.20361-0.0582 0.0727-0.18906 0.13089-0.1309 0.0582-0.36359 0.0873-0.2327 0.0291-0.58175 0.0291-0.36359 0-0.59629-0.0291t-0.36359-0.0873-0.18907-0.13089q-0.0582-0.0873-0.0582-0.20361v-7.6645q0-1.1199-0.17453-1.8034-0.17452-0.68356-0.50902-1.178-0.33451-0.49448-0.87262-0.75627-0.52357-0.26178-1.2217-0.26178-0.9017 0-1.8034 0.63992-0.9017 0.63992-1.8907 1.8761v9.148q0 0.11635-0.0582 0.20361-0.0582 0.0727-0.18906 0.13089-0.1309 0.0582-0.36359 0.0873-0.2327 0.0291-0.59629 0.0291-0.34905 0-0.58175-0.0291-0.2327-0.0291-0.37813-0.0873-0.13089-0.0582-0.18907-0.13089-0.04363-0.0873-0.04363-0.20361v-19.43q0-0.11635 0.04363-0.20361 0.05818-0.0873 0.18907-0.14544 0.14544-0.0582 0.37813-0.0873 0.2327-0.0291 0.58175-0.0291 0.36359 0 0.59629 0.0291 0.23269 0.0291 0.36359 0.0873 0.13089 0.0582 0.18906 0.14544 0.0582 0.0873 0.0582 0.20361v7.839q1.0326-1.0908 2.0797-1.6143 1.0471-0.53811 2.1088-0.53811 1.3089 0 2.1961 0.45085 0.9017 0.43631 1.4544 1.178 0.55266 0.74173 0.78536 1.7452 0.24724 0.98897 0.24724 2.3997z"/>
<path d="m125.9 264.89q0 0.5672-0.29087 0.81444-0.27633 0.2327-0.63992 0.2327h-8.5808q0 1.0908 0.21815 1.9634 0.21816 0.87262 0.72719 1.498 0.50902 0.62538 1.3235 0.95989 0.81444 0.3345 1.9925 0.3345 0.93079 0 1.658-0.14544 0.72718-0.15998 1.2508-0.34904 0.53812-0.18907 0.87262-0.33451 0.34905-0.15998 0.52357-0.15998 0.10181 0 0.17453 0.0582 0.0873 0.0436 0.13089 0.14543 0.0436 0.10181 0.0582 0.29088 0.0291 0.17452 0.0291 0.4363 0 0.18907-0.0145 0.33451-0.0145 0.13089-0.0436 0.24724-0.0145 0.10181-0.0727 0.18907-0.0436 0.0873-0.13089 0.17452-0.0727 0.0727-0.4654 0.26179-0.39268 0.17452-1.0181 0.34904-0.62537 0.17453-1.4544 0.30542-0.81444 0.14544-1.7452 0.14544-1.6143 0-2.836-0.45086-1.2071-0.45085-2.0361-1.338-0.82898-0.88716-1.2508-2.2252-0.42176-1.338-0.42176-3.1123 0-1.6871 0.4363-3.0251 0.43631-1.3526 1.2508-2.2834 0.82899-0.94533 1.9925-1.4398 1.1635-0.50902 2.6033-0.50902 1.5416 0 2.6178 0.49448 1.0908 0.49448 1.7889 1.338 0.6981 0.82899 1.0181 1.9634 0.3345 1.1199 0.3345 2.3997zm-2.4142-0.71264q0.0436-1.8907-0.84354-2.9669-0.87261-1.0762-2.6033-1.0762-0.88716 0-1.5562 0.3345-0.669 0.3345-1.1199 0.88716-0.45085 0.55266-0.69809 1.2944-0.24724 0.72718-0.27633 1.5271z"/>
<path d="m137.78 268.44q0 1.0035-0.37813 1.7889-0.36359 0.78536-1.0471 1.3235-0.68356 0.53812-1.6289 0.81445-0.94534 0.27633-2.0797 0.27633-0.6981 0-1.338-0.11635-0.62538-0.10181-1.1344-0.26179-0.49449-0.17452-0.84353-0.34905-0.34905-0.18906-0.50903-0.3345t-0.2327-0.40722q-0.0727-0.26179-0.0727-0.71264 0-0.27633 0.0291-0.4654 0.0291-0.18906 0.0727-0.30541t0.11635-0.15998q0.0873-0.0582 0.18906-0.0582 0.15998 0 0.4654 0.20361 0.31996 0.18907 0.77081 0.42177 0.4654 0.2327 1.0908 0.43631 0.62537 0.18907 1.4398 0.18907 0.61083 0 1.1053-0.1309 0.49449-0.13089 0.85808-0.37813 0.36359-0.26179 0.55266-0.65447 0.20361-0.39267 0.20361-0.93079 0-0.55266-0.29087-0.93079-0.27633-0.37814-0.74173-0.66901t-1.0471-0.50903q-0.58175-0.23269-1.2071-0.47994-0.61084-0.24724-1.2071-0.55265-0.58174-0.31996-1.0471-0.77082-0.4654-0.45085-0.75627-1.0762-0.27633-0.62537-0.27633-1.498 0-0.77082 0.29088-1.4689 0.30541-0.71264 0.9017-1.2362 0.59629-0.53811 1.4834-0.85807 0.90171-0.31996 2.0943-0.31996 0.52357 0 1.0471 0.0873t0.94534 0.21815q0.42176 0.13089 0.71263 0.29087 0.30542 0.14544 0.45086 0.26179 0.15998 0.11635 0.20361 0.20361 0.0582 0.0873 0.0727 0.20361 0.0291 0.10181 0.0436 0.26179 0.0291 0.15998 0.0291 0.39268 0 0.24724-0.0291 0.43631-0.0145 0.17452-0.0727 0.29087-0.0436 0.11635-0.11635 0.17452-0.0727 0.0436-0.15998 0.0436-0.13089 0-0.37813-0.15998-0.24725-0.15998-0.63993-0.3345-0.39267-0.18907-0.93079-0.34905-0.52357-0.15998-1.2071-0.15998-0.61083 0-1.0762 0.14544-0.4654 0.13089-0.77081 0.39268-0.29088 0.24724-0.45086 0.59629-0.14543 0.34904-0.14543 0.75626 0 0.56721 0.29087 0.95989 0.29087 0.37813 0.75627 0.669 0.4654 0.29088 1.0617 0.52357 0.59629 0.2327 1.2071 0.47994 0.62537 0.24725 1.2217 0.55266 0.61084 0.30542 1.0762 0.74173 0.4654 0.43631 0.74173 1.0471 0.29087 0.61083 0.29087 1.4544z"/>
<path d="m145.45 266.94q0 0.11635-0.0582 0.20361-0.0436 0.0873-0.17452 0.14544-0.13089 0.0582-0.3345 0.0873t-0.50903 0.0291-0.50903-0.0291-0.3345-0.0873q-0.1309-0.0582-0.18907-0.14544-0.0436-0.0873-0.0436-0.20361l-0.24724-13.875q-0.0146-0.17453 0.0436-0.30542t0.20361-0.21816q0.15998-0.0873 0.40722-0.11634 0.26179-0.0436 0.66901-0.0436 0.39268 0 0.63992 0.0436 0.26178 0.0436 0.40722 0.13089 0.15998 0.0873 0.21816 0.21815 0.0582 0.11635 0.0582 0.29088zm0.45085 3.9122q0 0.47994-0.0727 0.7999-0.0582 0.30542-0.24724 0.50903-0.17452 0.18906-0.4654 0.26178-0.29087 0.0873-0.74172 0.0873t-0.75627-0.0873q-0.29087-0.0727-0.4654-0.26178-0.17452-0.20361-0.24724-0.50903-0.0582-0.31996-0.0582-0.7999t0.0582-0.7999q0.0727-0.33451 0.24724-0.50903 0.17453-0.18907 0.4654-0.26178 0.30542-0.0873 0.75627-0.0873t0.74172 0.0873q0.29088 0.0727 0.4654 0.26178 0.18907 0.17452 0.24724 0.50903 0.0727 0.31996 0.0727 0.7999z"/>
</g>
</g>
</svg>
