<?xml version="1.0" encoding="UTF-8" standalone="no"?>
<!-- Created with Inkscape (http://www.inkscape.org/) -->

<svg
   xmlns:dc="http://purl.org/dc/elements/1.1/"
   xmlns:cc="http://creativecommons.org/ns#"
   xmlns:rdf="http://www.w3.org/1999/02/22-rdf-syntax-ns#"
   xmlns:svg="http://www.w3.org/2000/svg"
   xmlns="http://www.w3.org/2000/svg"
   xmlns:sodipodi="http://sodipodi.sourceforge.net/DTD/sodipodi-0.dtd"
   xmlns:inkscape="http://www.inkscape.org/namespaces/inkscape"
   width="550"
   height="100"
   viewBox="0 0 145.52023 26.458334"
   version="1.1"
   id="svg8"
   inkscape:version="0.92.2 (5c3e80d, 2017-08-06)"
   sodipodi:docname="itmatches.svg">
  <defs
     id="defs2" />
  <sodipodi:namedview
     id="base"
     pagecolor="#ffffff"
     bordercolor="#666666"
     borderopacity="1.0"
     inkscape:pageopacity="0.0"
     inkscape:pageshadow="2"
     inkscape:zoom="1.4"
     inkscape:cx="133.56275"
     inkscape:cy="115.53288"
     inkscape:document-units="mm"
     inkscape:current-layer="layer1"
     showgrid="false"
     inkscape:pagecheckerboard="true"
     units="px"
     inkscape:window-width="1920"
     inkscape:window-height="1017"
     inkscape:window-x="-8"
     inkscape:window-y="-8"
     inkscape:window-maximized="1" />
  <metadata
     id="metadata5">
    <rdf:RDF>
      <cc:Work
         rdf:about="">
        <dc:format>image/svg+xml</dc:format>
        <dc:type
           rdf:resource="http://purl.org/dc/dcmitype/StillImage" />
        <dc:title></dc:title>
      </cc:Work>
    </rdf:RDF>
  </metadata>
  <g
     inkscape:label="Layer 1"
     inkscape:groupmode="layer"
     id="layer1"
     transform="translate(0,-270.54165)">
    <g
       id="g853"
       style="font-style:normal;font-variant:normal;font-weight:normal;font-stretch:normal;font-size:29.7853775px;line-height:1.25;font-family:Calibri;-inkscape-font-specification:Calibri;letter-spacing:0px;word-spacing:0px;fill:none;fill-opacity:1;stroke:#f0f0f0;stroke-width:3.70416674;stroke-miterlimit:4;stroke-dasharray:none;stroke-opacity:1"
       transform="scale(0.92527002,1.0807656)"
       aria-label="It Matches!">
      <path
         id="path833"
         style="font-size:29.7853775px;fill:none;fill-opacity:1;stroke:#f0f0f0;stroke-width:3.70416674;stroke-miterlimit:4;stroke-dasharray:none;stroke-opacity:1"
         d="m 15.876543,271.98493 q 0,0.11635 -0.05818,0.20361 -0.05817,0.0873 -0.203611,0.14544 -0.145436,0.0436 -0.392678,0.0727 -0.232698,0.0436 -0.596289,0.0436 -0.349048,0 -0.596289,-0.0436 -0.247242,-0.0291 -0.392679,-0.0727 -0.145436,-0.0582 -0.203611,-0.14544 -0.05817,-0.0873 -0.05817,-0.20361 v -18.0632 q 0,-0.11635 0.05817,-0.20361 0.07272,-0.0873 0.218155,-0.13089 0.15998,-0.0582 0.392678,-0.0873 0.247242,-0.0436 0.581746,-0.0436 0.363591,0 0.596289,0.0436 0.247242,0.0291 0.392678,0.0873 0.145437,0.0436 0.203611,0.13089 0.05818,0.0873 0.05818,0.20361 z" />
      <path
         id="path835"
         style="font-size:29.7853775px;fill:none;fill-opacity:1;stroke:#f0f0f0;stroke-width:3.70416674;stroke-miterlimit:4;stroke-dasharray:none;stroke-opacity:1"
         d="m 27.409651,271.0396 q 0,0.42176 -0.05817,0.669 -0.05817,0.24725 -0.174524,0.36359 -0.116349,0.11635 -0.349047,0.21816 -0.232698,0.1018 -0.538115,0.15998 -0.290873,0.0727 -0.625376,0.11635 -0.334504,0.0436 -0.669008,0.0436 -1.018055,0 -1.745237,-0.26179 -0.727182,-0.27633 -1.192578,-0.81444 -0.465397,-0.55266 -0.683552,-1.38165 -0.20361,-0.84353 -0.20361,-1.97793 v -7.64996 H 19.33793 q -0.218155,0 -0.349048,-0.23269 -0.130892,-0.2327 -0.130892,-0.75627 0,-0.27633 0.02909,-0.4654 0.04363,-0.18907 0.101805,-0.30542 0.05817,-0.13089 0.145437,-0.17452 0.101805,-0.0582 0.218154,-0.0582 h 1.817956 v -3.11233 q 0,-0.10181 0.04363,-0.18907 0.05818,-0.0873 0.189068,-0.14544 0.145436,-0.0727 0.378134,-0.1018 0.232699,-0.0291 0.581746,-0.0291 0.363591,0 0.596289,0.0291 0.232699,0.0291 0.363591,0.1018 0.130893,0.0582 0.189068,0.14544 0.05817,0.0873 0.05817,0.18907 v 3.11233 h 3.359581 q 0.11635,0 0.203611,0.0582 0.08726,0.0436 0.145437,0.17452 0.07272,0.11635 0.101805,0.30542 0.02909,0.18907 0.02909,0.4654 0,0.52357 -0.130893,0.75627 -0.130893,0.23269 -0.349048,0.23269 h -3.359581 v 7.30091 q 0,1.35256 0.392679,2.05065 0.407222,0.68356 1.43982,0.68356 0.334504,0 0.596289,-0.0582 0.261786,-0.0727 0.465397,-0.14543 0.203611,-0.0727 0.349047,-0.1309 0.145437,-0.0727 0.261786,-0.0727 0.07272,0 0.130893,0.0436 0.07272,0.0291 0.101805,0.13089 0.04363,0.1018 0.07272,0.27633 0.02909,0.17452 0.02909,0.43631 z" />
      <path
         id="path837"
         style="font-size:29.7853775px;fill:none;fill-opacity:1;stroke:#f0f0f0;stroke-width:3.70416674;stroke-miterlimit:4;stroke-dasharray:none;stroke-opacity:1"
         d="m 58.096733,271.98493 q 0,0.11635 -0.05817,0.20361 -0.05817,0.0873 -0.203611,0.14544 -0.145436,0.0436 -0.378134,0.0727 -0.218155,0.0436 -0.581746,0.0436 -0.334504,0 -0.581746,-0.0436 -0.232698,-0.0291 -0.378134,-0.0727 -0.130893,-0.0582 -0.189068,-0.14544 -0.05817,-0.0873 -0.05817,-0.20361 v -16.39068 h -0.02909 l -6.704619,16.4634 q -0.04363,0.10181 -0.130893,0.17452 -0.07272,0.0727 -0.232698,0.1309 -0.145437,0.0436 -0.363591,0.0582 -0.203611,0.0291 -0.494484,0.0291 -0.305416,0 -0.523571,-0.0291 -0.218155,-0.0291 -0.363591,-0.0727 -0.145436,-0.0582 -0.232698,-0.13089 -0.07272,-0.0727 -0.101806,-0.15998 l -6.413746,-16.4634 h -0.01454 v 16.39068 q 0,0.11635 -0.05817,0.20361 -0.05817,0.0873 -0.203611,0.14544 -0.145436,0.0436 -0.378135,0.0727 -0.232698,0.0436 -0.596289,0.0436 -0.349047,0 -0.581745,-0.0436 -0.232699,-0.0291 -0.378135,-0.0727 -0.130893,-0.0582 -0.189067,-0.14544 -0.04363,-0.0873 -0.04363,-0.20361 V 254.678 q 0,-0.61083 0.31996,-0.87262 0.31996,-0.26178 0.712638,-0.26178 h 1.512539 q 0.465396,0 0.814444,0.0873 0.349047,0.0873 0.610833,0.27633 0.261785,0.18906 0.436309,0.47994 0.174524,0.29087 0.305416,0.68355 l 5.453866,13.62739 h 0.07272 l 5.67202,-13.58376 q 0.15998,-0.43631 0.349048,-0.74173 0.189067,-0.30541 0.407222,-0.47994 0.232698,-0.18906 0.509027,-0.26178 0.276329,-0.0873 0.63992,-0.0873 h 1.585257 q 0.218155,0 0.407222,0.0727 0.203611,0.0582 0.334504,0.20361 0.145436,0.1309 0.232698,0.34905 0.08726,0.20361 0.08726,0.50903 z" />
      <path
         id="path839"
         style="font-size:29.7853775px;fill:none;fill-opacity:1;stroke:#f0f0f0;stroke-width:3.70416674;stroke-miterlimit:4;stroke-dasharray:none;stroke-opacity:1"
         d="m 72.69855,272.01402 q 0,0.17452 -0.116349,0.26179 -0.116349,0.0873 -0.31996,0.13089 -0.203611,0.0436 -0.596289,0.0436 -0.378135,0 -0.610833,-0.0436 -0.218155,-0.0436 -0.31996,-0.13089 -0.101806,-0.0873 -0.101806,-0.26179 v -1.30893 q -0.858075,0.91625 -1.91976,1.42528 -1.047143,0.50903 -2.225178,0.50903 -1.032598,0 -1.876129,-0.27633 -0.828988,-0.26179 -1.425277,-0.77082 -0.581746,-0.50902 -0.916249,-1.25075 -0.319961,-0.74172 -0.319961,-1.68706 0,-1.10532 0.450853,-1.91976 0.450853,-0.81445 1.294384,-1.35256 0.843532,-0.53811 2.065197,-0.7999 1.221666,-0.27633 2.748749,-0.27633 h 1.803411 v -1.01805 q 0,-0.75627 -0.15998,-1.33802 -0.15998,-0.58175 -0.523571,-0.95988 -0.349047,-0.39268 -0.916249,-0.58175 -0.567202,-0.20361 -1.39619,-0.20361 -0.887162,0 -1.5998,0.21816 -0.698095,0.20361 -1.23621,0.46539 -0.523571,0.24725 -0.887162,0.4654 -0.349048,0.20361 -0.523571,0.20361 -0.116349,0 -0.203611,-0.0582 -0.08726,-0.0582 -0.15998,-0.17453 -0.05817,-0.11635 -0.08726,-0.29087 -0.02909,-0.18907 -0.02909,-0.40722 0,-0.36359 0.04363,-0.5672 0.05817,-0.21816 0.247241,-0.40722 0.203611,-0.18907 0.683552,-0.43631 0.47994,-0.26179 1.105316,-0.4654 0.625377,-0.21816 1.367103,-0.34905 0.741725,-0.14543 1.497995,-0.14543 1.410733,0 2.3997,0.31996 0.988968,0.31996 1.599801,0.94533 0.610833,0.61084 0.887162,1.52708 0.276329,0.91625 0.276329,2.13792 z m -2.385157,-5.97744 H 68.26274 q -0.988968,0 -1.71615,0.17453 -0.727182,0.15998 -1.207122,0.49448 -0.47994,0.31996 -0.712639,0.78536 -0.218154,0.45085 -0.218154,1.04714 0,1.01805 0.63992,1.62889 0.654464,0.59629 1.817955,0.59629 0.945337,0 1.745237,-0.47994 0.814444,-0.47994 1.701606,-1.46891 z" />
      <path
         id="path841"
         style="font-size:29.7853775px;fill:none;fill-opacity:1;stroke:#f0f0f0;stroke-width:3.70416674;stroke-miterlimit:4;stroke-dasharray:none;stroke-opacity:1"
         d="m 83.606281,271.0396 q 0,0.42176 -0.05817,0.669 -0.05817,0.24725 -0.174524,0.36359 -0.116349,0.11635 -0.349047,0.21816 -0.232698,0.1018 -0.538115,0.15998 -0.290873,0.0727 -0.625376,0.11635 -0.334504,0.0436 -0.669008,0.0436 -1.018055,0 -1.745237,-0.26179 -0.727182,-0.27633 -1.192578,-0.81444 -0.465397,-0.55266 -0.683552,-1.38165 -0.20361,-0.84353 -0.20361,-1.97793 v -7.64996 H 75.53456 q -0.218155,0 -0.349048,-0.23269 -0.130892,-0.2327 -0.130892,-0.75627 0,-0.27633 0.02909,-0.4654 0.04363,-0.18907 0.101805,-0.30542 0.05817,-0.13089 0.145437,-0.17452 0.101805,-0.0582 0.218154,-0.0582 h 1.817956 v -3.11233 q 0,-0.10181 0.04363,-0.18907 0.05817,-0.0873 0.189068,-0.14544 0.145436,-0.0727 0.378134,-0.1018 0.232699,-0.0291 0.581746,-0.0291 0.363591,0 0.596289,0.0291 0.232699,0.0291 0.363591,0.1018 0.130893,0.0582 0.189068,0.14544 0.05817,0.0873 0.05817,0.18907 v 3.11233 h 3.359581 q 0.11635,0 0.203611,0.0582 0.08726,0.0436 0.145437,0.17452 0.07272,0.11635 0.101805,0.30542 0.02909,0.18907 0.02909,0.4654 0,0.52357 -0.130893,0.75627 -0.130893,0.23269 -0.349048,0.23269 h -3.359581 v 7.30091 q 0,1.35256 0.392679,2.05065 0.407222,0.68356 1.43982,0.68356 0.334504,0 0.596289,-0.0582 0.261786,-0.0727 0.465397,-0.14543 0.203611,-0.0727 0.349047,-0.1309 0.145437,-0.0727 0.261786,-0.0727 0.07272,0 0.130893,0.0436 0.07272,0.0291 0.101805,0.13089 0.04363,0.1018 0.07272,0.27633 0.02909,0.17452 0.02909,0.43631 z" />
      <path
         id="path843"
         style="font-size:29.7853775px;fill:none;fill-opacity:1;stroke:#f0f0f0;stroke-width:3.70416674;stroke-miterlimit:4;stroke-dasharray:none;stroke-opacity:1"
         d="m 95.866567,270.007 q 0,0.24724 -0.01454,0.43631 -0.01454,0.17452 -0.05818,0.30541 -0.02909,0.11635 -0.08726,0.21816 -0.04363,0.0873 -0.232698,0.27633 -0.174524,0.17452 -0.610833,0.45085 -0.436309,0.26179 -0.988968,0.47994 -0.538114,0.20361 -1.178035,0.3345 -0.63992,0.1309 -1.323471,0.1309 -1.410733,0 -2.501506,-0.4654 -1.090773,-0.4654 -1.832499,-1.35256 -0.727182,-0.9017 -1.11986,-2.19609 -0.378135,-1.30893 -0.378135,-3.01053 0,-1.93431 0.465396,-3.31595 0.479941,-1.39619 1.294384,-2.28335 0.828988,-0.88717 1.934305,-1.30893 1.11986,-0.43631 2.414244,-0.43631 0.625377,0 1.207122,0.11635 0.59629,0.11635 1.090774,0.30541 0.494483,0.18907 0.872618,0.43631 0.392678,0.24725 0.567202,0.42177 0.174524,0.17452 0.232698,0.27633 0.07272,0.1018 0.116349,0.24724 0.04363,0.13089 0.05817,0.30542 0.01454,0.17452 0.01454,0.43631 0,0.5672 -0.130893,0.7999 -0.130893,0.21815 -0.31996,0.21815 -0.218155,0 -0.509028,-0.2327 -0.276329,-0.24724 -0.712638,-0.53811 -0.436309,-0.29087 -1.061686,-0.52357 -0.610833,-0.24724 -1.454364,-0.24724 -1.730693,0 -2.661486,1.33801 -0.91625,1.32347 -0.91625,3.85407 0,1.26529 0.232698,2.22517 0.247242,0.94534 0.712639,1.58526 0.465396,0.63992 1.134404,0.95988 0.683551,0.30542 1.55617,0.30542 0.828987,0 1.454364,-0.26179 0.625376,-0.26178 1.076229,-0.5672 0.465397,-0.31996 0.770813,-0.5672 0.31996,-0.26179 0.494484,-0.26179 0.101805,0 0.174524,0.0582 0.07272,0.0582 0.116349,0.20361 0.05817,0.13089 0.07272,0.34904 0.02909,0.20361 0.02909,0.49449 z" />
      <path
         id="path845"
         style="font-size:29.7853775px;fill:none;fill-opacity:1;stroke:#f0f0f0;stroke-width:3.70416674;stroke-miterlimit:4;stroke-dasharray:none;stroke-opacity:1"
         d="m 110.35204,271.99948 q 0,0.11635 -0.0582,0.20361 -0.0582,0.0727 -0.18906,0.13089 -0.1309,0.0582 -0.36359,0.0873 -0.2327,0.0291 -0.58175,0.0291 -0.36359,0 -0.59629,-0.0291 -0.2327,-0.0291 -0.36359,-0.0873 -0.13089,-0.0582 -0.18907,-0.13089 -0.0582,-0.0873 -0.0582,-0.20361 v -7.6645 q 0,-1.11986 -0.17453,-1.80341 -0.17452,-0.68356 -0.50902,-1.17804 -0.33451,-0.49448 -0.87262,-0.75627 -0.52357,-0.26178 -1.22167,-0.26178 -0.9017,0 -1.80341,0.63992 -0.9017,0.63992 -1.89067,1.87613 v 9.14795 q 0,0.11635 -0.0582,0.20361 -0.0582,0.0727 -0.18906,0.13089 -0.1309,0.0582 -0.36359,0.0873 -0.2327,0.0291 -0.59629,0.0291 -0.349051,0 -0.58175,-0.0291 -0.232698,-0.0291 -0.378134,-0.0873 -0.130893,-0.0582 -0.189068,-0.13089 -0.04363,-0.0873 -0.04363,-0.20361 v -19.43031 q 0,-0.11635 0.04363,-0.20361 0.05818,-0.0873 0.189068,-0.14544 0.145436,-0.0582 0.378134,-0.0873 0.232699,-0.0291 0.58175,-0.0291 0.36359,0 0.59629,0.0291 0.23269,0.0291 0.36359,0.0873 0.13089,0.0582 0.18906,0.14544 0.0582,0.0873 0.0582,0.20361 v 7.83902 q 1.0326,-1.09077 2.07974,-1.61434 1.04714,-0.53811 2.10883,-0.53811 1.30892,0 2.19609,0.45085 0.9017,0.43631 1.45436,1.17803 0.55266,0.74173 0.78536,1.74524 0.24724,0.98897 0.24724,2.3997 z" />
      <path
         id="path847"
         style="font-size:29.7853775px;fill:none;fill-opacity:1;stroke:#f0f0f0;stroke-width:3.70416674;stroke-miterlimit:4;stroke-dasharray:none;stroke-opacity:1"
         d="m 125.89919,264.88764 q 0,0.5672 -0.29087,0.81444 -0.27633,0.2327 -0.63992,0.2327 h -8.58075 q 0,1.09077 0.21815,1.96339 0.21816,0.87262 0.72719,1.49799 0.50902,0.62538 1.32347,0.95989 0.81444,0.3345 1.99248,0.3345 0.93079,0 1.65797,-0.14544 0.72718,-0.15998 1.25075,-0.34904 0.53812,-0.18907 0.87262,-0.33451 0.34905,-0.15998 0.52357,-0.15998 0.10181,0 0.17453,0.0582 0.0873,0.0436 0.13089,0.14543 0.0436,0.10181 0.0582,0.29088 0.0291,0.17452 0.0291,0.4363 0,0.18907 -0.0145,0.33451 -0.0145,0.13089 -0.0436,0.24724 -0.0145,0.10181 -0.0727,0.18907 -0.0436,0.0873 -0.13089,0.17452 -0.0727,0.0727 -0.4654,0.26179 -0.39268,0.17452 -1.01806,0.34904 -0.62537,0.17453 -1.45436,0.30542 -0.81444,0.14544 -1.74524,0.14544 -1.61434,0 -2.83601,-0.45086 -1.20712,-0.45085 -2.03611,-1.33801 -0.82898,-0.88716 -1.25075,-2.22518 -0.42176,-1.33801 -0.42176,-3.11234 0,-1.68706 0.4363,-3.02507 0.43631,-1.35256 1.25076,-2.28336 0.82899,-0.94533 1.99248,-1.43982 1.16349,-0.50902 2.60331,-0.50902 1.54162,0 2.61785,0.49448 1.09078,0.49448 1.78887,1.33801 0.6981,0.82899 1.01806,1.9634 0.3345,1.11986 0.3345,2.3997 z m -2.41424,-0.71264 q 0.0436,-1.89068 -0.84354,-2.96691 -0.87261,-1.07622 -2.60331,-1.07622 -0.88716,0 -1.55617,0.3345 -0.669,0.3345 -1.11986,0.88716 -0.45085,0.55266 -0.69809,1.29439 -0.24724,0.72718 -0.27633,1.52708 z" />
      <path
         id="path849"
         style="font-size:29.7853775px;fill:none;fill-opacity:1;stroke:#f0f0f0;stroke-width:3.70416674;stroke-miterlimit:4;stroke-dasharray:none;stroke-opacity:1"
         d="m 137.78134,268.43628 q 0,1.00352 -0.37813,1.78887 -0.36359,0.78536 -1.04714,1.32347 -0.68356,0.53812 -1.62889,0.81445 -0.94534,0.27633 -2.07974,0.27633 -0.6981,0 -1.33802,-0.11635 -0.62538,-0.10181 -1.1344,-0.26179 -0.49449,-0.17452 -0.84353,-0.34905 -0.34905,-0.18906 -0.50903,-0.3345 -0.15998,-0.14544 -0.2327,-0.40722 -0.0727,-0.26179 -0.0727,-0.71264 0,-0.27633 0.0291,-0.4654 0.0291,-0.18906 0.0727,-0.30541 0.0436,-0.11635 0.11635,-0.15998 0.0873,-0.0582 0.18906,-0.0582 0.15998,0 0.4654,0.20361 0.31996,0.18907 0.77081,0.42177 0.4654,0.2327 1.09078,0.43631 0.62537,0.18907 1.43982,0.18907 0.61083,0 1.10531,-0.1309 0.49449,-0.13089 0.85808,-0.37813 0.36359,-0.26179 0.55266,-0.65447 0.20361,-0.39267 0.20361,-0.93079 0,-0.55266 -0.29087,-0.93079 -0.27633,-0.37814 -0.74173,-0.66901 -0.4654,-0.29087 -1.04714,-0.50903 -0.58175,-0.23269 -1.20712,-0.47994 -0.61084,-0.24724 -1.20713,-0.55265 -0.58174,-0.31996 -1.04714,-0.77082 -0.4654,-0.45085 -0.75627,-1.07623 -0.27633,-0.62537 -0.27633,-1.49799 0,-0.77082 0.29088,-1.46891 0.30541,-0.71264 0.9017,-1.23621 0.59629,-0.53811 1.48345,-0.85807 0.90171,-0.31996 2.09429,-0.31996 0.52357,0 1.04714,0.0873 0.52357,0.0873 0.94534,0.21815 0.42176,0.13089 0.71263,0.29087 0.30542,0.14544 0.45086,0.26179 0.15998,0.11635 0.20361,0.20361 0.0582,0.0873 0.0727,0.20361 0.0291,0.10181 0.0436,0.26179 0.0291,0.15998 0.0291,0.39268 0,0.24724 -0.0291,0.43631 -0.0145,0.17452 -0.0727,0.29087 -0.0436,0.11635 -0.11635,0.17452 -0.0727,0.0436 -0.15998,0.0436 -0.13089,0 -0.37813,-0.15998 -0.24725,-0.15998 -0.63993,-0.3345 -0.39267,-0.18907 -0.93079,-0.34905 -0.52357,-0.15998 -1.20712,-0.15998 -0.61083,0 -1.07623,0.14544 -0.4654,0.13089 -0.77081,0.39268 -0.29088,0.24724 -0.45086,0.59629 -0.14543,0.34904 -0.14543,0.75626 0,0.56721 0.29087,0.95989 0.29087,0.37813 0.75627,0.669 0.4654,0.29088 1.06169,0.52357 0.59629,0.2327 1.20712,0.47994 0.62537,0.24725 1.22166,0.55266 0.61084,0.30542 1.07623,0.74173 0.4654,0.43631 0.74173,1.04714 0.29087,0.61083 0.29087,1.45436 z" />
      <path
         id="path851"
         style="font-size:29.7853775px;fill:none;fill-opacity:1;stroke:#f0f0f0;stroke-width:3.70416674;stroke-miterlimit:4;stroke-dasharray:none;stroke-opacity:1"
         d="m 145.44584,266.93829 q 0,0.11635 -0.0582,0.20361 -0.0436,0.0873 -0.17452,0.14544 -0.13089,0.0582 -0.3345,0.0873 -0.20361,0.0291 -0.50903,0.0291 -0.30542,0 -0.50903,-0.0291 -0.20361,-0.0291 -0.3345,-0.0873 -0.1309,-0.0582 -0.18907,-0.14544 -0.0436,-0.0873 -0.0436,-0.20361 l -0.24724,-13.87463 q -0.0146,-0.17453 0.0436,-0.30542 0.0582,-0.13089 0.20361,-0.21816 0.15998,-0.0873 0.40722,-0.11634 0.26179,-0.0436 0.66901,-0.0436 0.39268,0 0.63992,0.0436 0.26178,0.0436 0.40722,0.13089 0.15998,0.0873 0.21816,0.21815 0.0582,0.11635 0.0582,0.29088 z m 0.45085,3.91224 q 0,0.47994 -0.0727,0.7999 -0.0582,0.30542 -0.24724,0.50903 -0.17452,0.18906 -0.4654,0.26178 -0.29087,0.0873 -0.74172,0.0873 -0.45085,0 -0.75627,-0.0873 -0.29087,-0.0727 -0.4654,-0.26178 -0.17452,-0.20361 -0.24724,-0.50903 -0.0582,-0.31996 -0.0582,-0.7999 0,-0.47994 0.0582,-0.7999 0.0727,-0.33451 0.24724,-0.50903 0.17453,-0.18907 0.4654,-0.26178 0.30542,-0.0873 0.75627,-0.0873 0.45085,0 0.74172,0.0873 0.29088,0.0727 0.4654,0.26178 0.18907,0.17452 0.24724,0.50903 0.0727,0.31996 0.0727,0.7999 z" />
    </g>
    <g
       aria-label="It Matches!"
       transform="scale(0.92527002,1.0807656)"
       style="font-style:normal;font-variant:normal;font-weight:normal;font-stretch:normal;font-size:29.7853775px;line-height:1.25;font-family:Calibri;-inkscape-font-specification:Calibri;letter-spacing:0px;word-spacing:0px;fill:#00f000;fill-opacity:1;stroke:none;stroke-width:1.11695158;stroke-miterlimit:4;stroke-dasharray:none;stroke-opacity:1"
       id="text817">
      <path
         d="m 15.876543,271.98493 q 0,0.11635 -0.05818,0.20361 -0.05817,0.0873 -0.203611,0.14544 -0.145436,0.0436 -0.392678,0.0727 -0.232698,0.0436 -0.596289,0.0436 -0.349048,0 -0.596289,-0.0436 -0.247242,-0.0291 -0.392679,-0.0727 -0.145436,-0.0582 -0.203611,-0.14544 -0.05817,-0.0873 -0.05817,-0.20361 v -18.0632 q 0,-0.11635 0.05817,-0.20361 0.07272,-0.0873 0.218155,-0.13089 0.15998,-0.0582 0.392678,-0.0873 0.247242,-0.0436 0.581746,-0.0436 0.363591,0 0.596289,0.0436 0.247242,0.0291 0.392678,0.0873 0.145437,0.0436 0.203611,0.13089 0.05818,0.0873 0.05818,0.20361 z"
         style="font-size:29.7853775px;fill:#00f000;fill-opacity:1;stroke:none;stroke-width:1.11695158;stroke-miterlimit:4;stroke-dasharray:none;stroke-opacity:1"
         id="path824" />
      <path
         d="m 27.409651,271.0396 q 0,0.42176 -0.05817,0.669 -0.05817,0.24725 -0.174524,0.36359 -0.116349,0.11635 -0.349047,0.21816 -0.232698,0.1018 -0.538115,0.15998 -0.290873,0.0727 -0.625376,0.11635 -0.334504,0.0436 -0.669008,0.0436 -1.018055,0 -1.745237,-0.26179 -0.727182,-0.27633 -1.192578,-0.81444 -0.465397,-0.55266 -0.683552,-1.38165 -0.20361,-0.84353 -0.20361,-1.97793 v -7.64996 H 19.33793 q -0.218155,0 -0.349048,-0.23269 -0.130892,-0.2327 -0.130892,-0.75627 0,-0.27633 0.02909,-0.4654 0.04363,-0.18907 0.101805,-0.30542 0.05817,-0.13089 0.145437,-0.17452 0.101805,-0.0582 0.218154,-0.0582 h 1.817956 v -3.11233 q 0,-0.10181 0.04363,-0.18907 0.05818,-0.0873 0.189068,-0.14544 0.145436,-0.0727 0.378134,-0.1018 0.232699,-0.0291 0.581746,-0.0291 0.363591,0 0.596289,0.0291 0.232699,0.0291 0.363591,0.1018 0.130893,0.0582 0.189068,0.14544 0.05817,0.0873 0.05817,0.18907 v 3.11233 h 3.359581 q 0.11635,0 0.203611,0.0582 0.08726,0.0436 0.145437,0.17452 0.07272,0.11635 0.101805,0.30542 0.02909,0.18907 0.02909,0.4654 0,0.52357 -0.130893,0.75627 -0.130893,0.23269 -0.349048,0.23269 h -3.359581 v 7.30091 q 0,1.35256 0.392679,2.05065 0.407222,0.68356 1.43982,0.68356 0.334504,0 0.596289,-0.0582 0.261786,-0.0727 0.465397,-0.14543 0.203611,-0.0727 0.349047,-0.1309 0.145437,-0.0727 0.261786,-0.0727 0.07272,0 0.130893,0.0436 0.07272,0.0291 0.101805,0.13089 0.04363,0.1018 0.07272,0.27633 0.02909,0.17452 0.02909,0.43631 z"
         style="font-size:29.7853775px;fill:#00f000;fill-opacity:1;stroke:none;stroke-width:1.11695158;stroke-miterlimit:4;stroke-dasharray:none;stroke-opacity:1"
         id="path826" />
      <path
         d="m 58.096733,271.98493 q 0,0.11635 -0.05817,0.20361 -0.05817,0.0873 -0.203611,0.14544 -0.145436,0.0436 -0.378134,0.0727 -0.218155,0.0436 -0.581746,0.0436 -0.334504,0 -0.581746,-0.0436 -0.232698,-0.0291 -0.378134,-0.0727 -0.130893,-0.0582 -0.189068,-0.14544 -0.05817,-0.0873 -0.05817,-0.20361 v -16.39068 h -0.02909 l -6.704619,16.4634 q -0.04363,0.10181 -0.130893,0.17452 -0.07272,0.0727 -0.232698,0.1309 -0.145437,0.0436 -0.363591,0.0582 -0.203611,0.0291 -0.494484,0.0291 -0.305416,0 -0.523571,-0.0291 -0.218155,-0.0291 -0.363591,-0.0727 -0.145436,-0.0582 -0.232698,-0.13089 -0.07272,-0.0727 -0.101806,-0.15998 l -6.413746,-16.4634 h -0.01454 v 16.39068 q 0,0.11635 -0.05817,0.20361 -0.05817,0.0873 -0.203611,0.14544 -0.145436,0.0436 -0.378135,0.0727 -0.232698,0.0436 -0.596289,0.0436 -0.349047,0 -0.581745,-0.0436 -0.232699,-0.0291 -0.378135,-0.0727 -0.130893,-0.0582 -0.189067,-0.14544 -0.04363,-0.0873 -0.04363,-0.20361 V 254.678 q 0,-0.61083 0.31996,-0.87262 0.31996,-0.26178 0.712638,-0.26178 h 1.512539 q 0.465396,0 0.814444,0.0873 0.349047,0.0873 0.610833,0.27633 0.261785,0.18906 0.436309,0.47994 0.174524,0.29087 0.305416,0.68355 l 5.453866,13.62739 h 0.07272 l 5.67202,-13.58376 q 0.15998,-0.43631 0.349048,-0.74173 0.189067,-0.30541 0.407222,-0.47994 0.232698,-0.18906 0.509027,-0.26178 0.276329,-0.0873 0.63992,-0.0873 h 1.585257 q 0.218155,0 0.407222,0.0727 0.203611,0.0582 0.334504,0.20361 0.145436,0.1309 0.232698,0.34905 0.08726,0.20361 0.08726,0.50903 z"
         style="font-size:29.7853775px;fill:#00f000;fill-opacity:1;stroke:none;stroke-width:1.11695158;stroke-miterlimit:4;stroke-dasharray:none;stroke-opacity:1"
         id="path828" />
      <path
         d="m 72.69855,272.01402 q 0,0.17452 -0.116349,0.26179 -0.116349,0.0873 -0.31996,0.13089 -0.203611,0.0436 -0.596289,0.0436 -0.378135,0 -0.610833,-0.0436 -0.218155,-0.0436 -0.31996,-0.13089 -0.101806,-0.0873 -0.101806,-0.26179 v -1.30893 q -0.858075,0.91625 -1.91976,1.42528 -1.047143,0.50903 -2.225178,0.50903 -1.032598,0 -1.876129,-0.27633 -0.828988,-0.26179 -1.425277,-0.77082 -0.581746,-0.50902 -0.916249,-1.25075 -0.319961,-0.74172 -0.319961,-1.68706 0,-1.10532 0.450853,-1.91976 0.450853,-0.81445 1.294384,-1.35256 0.843532,-0.53811 2.065197,-0.7999 1.221666,-0.27633 2.748749,-0.27633 h 1.803411 v -1.01805 q 0,-0.75627 -0.15998,-1.33802 -0.15998,-0.58175 -0.523571,-0.95988 -0.349047,-0.39268 -0.916249,-0.58175 -0.567202,-0.20361 -1.39619,-0.20361 -0.887162,0 -1.5998,0.21816 -0.698095,0.20361 -1.23621,0.46539 -0.523571,0.24725 -0.887162,0.4654 -0.349048,0.20361 -0.523571,0.20361 -0.116349,0 -0.203611,-0.0582 -0.08726,-0.0582 -0.15998,-0.17453 -0.05817,-0.11635 -0.08726,-0.29087 -0.02909,-0.18907 -0.02909,-0.40722 0,-0.36359 0.04363,-0.5672 0.05817,-0.21816 0.247241,-0.40722 0.203611,-0.18907 0.683552,-0.43631 0.47994,-0.26179 1.105316,-0.4654 0.625377,-0.21816 1.367103,-0.34905 0.741725,-0.14543 1.497995,-0.14543 1.410733,0 2.3997,0.31996 0.988968,0.31996 1.599801,0.94533 0.610833,0.61084 0.887162,1.52708 0.276329,0.91625 0.276329,2.13792 z m -2.385157,-5.97744 H 68.26274 q -0.988968,0 -1.71615,0.17453 -0.727182,0.15998 -1.207122,0.49448 -0.47994,0.31996 -0.712639,0.78536 -0.218154,0.45085 -0.218154,1.04714 0,1.01805 0.63992,1.62889 0.654464,0.59629 1.817955,0.59629 0.945337,0 1.745237,-0.47994 0.814444,-0.47994 1.701606,-1.46891 z"
         style="font-size:29.7853775px;fill:#00f000;fill-opacity:1;stroke:none;stroke-width:1.11695158;stroke-miterlimit:4;stroke-dasharray:none;stroke-opacity:1"
         id="path830" />
      <path
         d="m 83.606281,271.0396 q 0,0.42176 -0.05817,0.669 -0.05817,0.24725 -0.174524,0.36359 -0.116349,0.11635 -0.349047,0.21816 -0.232698,0.1018 -0.538115,0.15998 -0.290873,0.0727 -0.625376,0.11635 -0.334504,0.0436 -0.669008,0.0436 -1.018055,0 -1.745237,-0.26179 -0.727182,-0.27633 -1.192578,-0.81444 -0.465397,-0.55266 -0.683552,-1.38165 -0.20361,-0.84353 -0.20361,-1.97793 v -7.64996 H 75.53456 q -0.218155,0 -0.349048,-0.23269 -0.130892,-0.2327 -0.130892,-0.75627 0,-0.27633 0.02909,-0.4654 0.04363,-0.18907 0.101805,-0.30542 0.05817,-0.13089 0.145437,-0.17452 0.101805,-0.0582 0.218154,-0.0582 h 1.817956 v -3.11233 q 0,-0.10181 0.04363,-0.18907 0.05817,-0.0873 0.189068,-0.14544 0.145436,-0.0727 0.378134,-0.1018 0.232699,-0.0291 0.581746,-0.0291 0.363591,0 0.596289,0.0291 0.232699,0.0291 0.363591,0.1018 0.130893,0.0582 0.189068,0.14544 0.05817,0.0873 0.05817,0.18907 v 3.11233 h 3.359581 q 0.11635,0 0.203611,0.0582 0.08726,0.0436 0.145437,0.17452 0.07272,0.11635 0.101805,0.30542 0.02909,0.18907 0.02909,0.4654 0,0.52357 -0.130893,0.75627 -0.130893,0.23269 -0.349048,0.23269 h -3.359581 v 7.30091 q 0,1.35256 0.392679,2.05065 0.407222,0.68356 1.43982,0.68356 0.334504,0 0.596289,-0.0582 0.261786,-0.0727 0.465397,-0.14543 0.203611,-0.0727 0.349047,-0.1309 0.145437,-0.0727 0.261786,-0.0727 0.07272,0 0.130893,0.0436 0.07272,0.0291 0.101805,0.13089 0.04363,0.1018 0.07272,0.27633 0.02909,0.17452 0.02909,0.43631 z"
         style="font-size:29.7853775px;fill:#00f000;fill-opacity:1;stroke:none;stroke-width:1.11695158;stroke-miterlimit:4;stroke-dasharray:none;stroke-opacity:1"
         id="path832" />
      <path
         d="m 95.866567,270.007 q 0,0.24724 -0.01454,0.43631 -0.01454,0.17452 -0.05818,0.30541 -0.02909,0.11635 -0.08726,0.21816 -0.04363,0.0873 -0.232698,0.27633 -0.174524,0.17452 -0.610833,0.45085 -0.436309,0.26179 -0.988968,0.47994 -0.538114,0.20361 -1.178035,0.3345 -0.63992,0.1309 -1.323471,0.1309 -1.410733,0 -2.501506,-0.4654 -1.090773,-0.4654 -1.832499,-1.35256 -0.727182,-0.9017 -1.11986,-2.19609 -0.378135,-1.30893 -0.378135,-3.01053 0,-1.93431 0.465396,-3.31595 0.479941,-1.39619 1.294384,-2.28335 0.828988,-0.88717 1.934305,-1.30893 1.11986,-0.43631 2.414244,-0.43631 0.625377,0 1.207122,0.11635 0.59629,0.11635 1.090774,0.30541 0.494483,0.18907 0.872618,0.43631 0.392678,0.24725 0.567202,0.42177 0.174524,0.17452 0.232698,0.27633 0.07272,0.1018 0.116349,0.24724 0.04363,0.13089 0.05817,0.30542 0.01454,0.17452 0.01454,0.43631 0,0.5672 -0.130893,0.7999 -0.130893,0.21815 -0.31996,0.21815 -0.218155,0 -0.509028,-0.2327 -0.276329,-0.24724 -0.712638,-0.53811 -0.436309,-0.29087 -1.061686,-0.52357 -0.610833,-0.24724 -1.454364,-0.24724 -1.730693,0 -2.661486,1.33801 -0.91625,1.32347 -0.91625,3.85407 0,1.26529 0.232698,2.22517 0.247242,0.94534 0.712639,1.58526 0.465396,0.63992 1.134404,0.95988 0.683551,0.30542 1.55617,0.30542 0.828987,0 1.454364,-0.26179 0.625376,-0.26178 1.076229,-0.5672 0.465397,-0.31996 0.770813,-0.5672 0.31996,-0.26179 0.494484,-0.26179 0.101805,0 0.174524,0.0582 0.07272,0.0582 0.116349,0.20361 0.05817,0.13089 0.07272,0.34904 0.02909,0.20361 0.02909,0.49449 z"
         style="font-size:29.7853775px;fill:#00f000;fill-opacity:1;stroke:none;stroke-width:1.11695158;stroke-miterlimit:4;stroke-dasharray:none;stroke-opacity:1"
         id="path834" />
      <path
         d="m 110.35204,271.99948 q 0,0.11635 -0.0582,0.20361 -0.0582,0.0727 -0.18906,0.13089 -0.1309,0.0582 -0.36359,0.0873 -0.2327,0.0291 -0.58175,0.0291 -0.36359,0 -0.59629,-0.0291 -0.2327,-0.0291 -0.36359,-0.0873 -0.13089,-0.0582 -0.18907,-0.13089 -0.0582,-0.0873 -0.0582,-0.20361 v -7.6645 q 0,-1.11986 -0.17453,-1.80341 -0.17452,-0.68356 -0.50902,-1.17804 -0.33451,-0.49448 -0.87262,-0.75627 -0.52357,-0.26178 -1.22167,-0.26178 -0.9017,0 -1.80341,0.63992 -0.9017,0.63992 -1.89067,1.87613 v 9.14795 q 0,0.11635 -0.0582,0.20361 -0.0582,0.0727 -0.18906,0.13089 -0.1309,0.0582 -0.36359,0.0873 -0.2327,0.0291 -0.59629,0.0291 -0.349051,0 -0.58175,-0.0291 -0.232698,-0.0291 -0.378134,-0.0873 -0.130893,-0.0582 -0.189068,-0.13089 -0.04363,-0.0873 -0.04363,-0.20361 v -19.43031 q 0,-0.11635 0.04363,-0.20361 0.05818,-0.0873 0.189068,-0.14544 0.145436,-0.0582 0.378134,-0.0873 0.232699,-0.0291 0.58175,-0.0291 0.36359,0 0.59629,0.0291 0.23269,0.0291 0.36359,0.0873 0.13089,0.0582 0.18906,0.14544 0.0582,0.0873 0.0582,0.20361 v 7.83902 q 1.0326,-1.09077 2.07974,-1.61434 1.04714,-0.53811 2.10883,-0.53811 1.30892,0 2.19609,0.45085 0.9017,0.43631 1.45436,1.17803 0.55266,0.74173 0.78536,1.74524 0.24724,0.98897 0.24724,2.3997 z"
         style="font-size:29.7853775px;fill:#00f000;fill-opacity:1;stroke:none;stroke-width:1.11695158;stroke-miterlimit:4;stroke-dasharray:none;stroke-opacity:1"
         id="path836" />
      <path
         d="m 125.89919,264.88764 q 0,0.5672 -0.29087,0.81444 -0.27633,0.2327 -0.63992,0.2327 h -8.58075 q 0,1.09077 0.21815,1.96339 0.21816,0.87262 0.72719,1.49799 0.50902,0.62538 1.32347,0.95989 0.81444,0.3345 1.99248,0.3345 0.93079,0 1.65797,-0.14544 0.72718,-0.15998 1.25075,-0.34904 0.53812,-0.18907 0.87262,-0.33451 0.34905,-0.15998 0.52357,-0.15998 0.10181,0 0.17453,0.0582 0.0873,0.0436 0.13089,0.14543 0.0436,0.10181 0.0582,0.29088 0.0291,0.17452 0.0291,0.4363 0,0.18907 -0.0145,0.33451 -0.0145,0.13089 -0.0436,0.24724 -0.0145,0.10181 -0.0727,0.18907 -0.0436,0.0873 -0.13089,0.17452 -0.0727,0.0727 -0.4654,0.26179 -0.39268,0.17452 -1.01806,0.34904 -0.62537,0.17453 -1.45436,0.30542 -0.81444,0.14544 -1.74524,0.14544 -1.61434,0 -2.83601,-0.45086 -1.20712,-0.45085 -2.03611,-1.33801 -0.82898,-0.88716 -1.25075,-2.22518 -0.42176,-1.33801 -0.42176,-3.11234 0,-1.68706 0.4363,-3.02507 0.43631,-1.35256 1.25076,-2.28336 0.82899,-0.94533 1.99248,-1.43982 1.16349,-0.50902 2.60331,-0.50902 1.54162,0 2.61785,0.49448 1.09078,0.49448 1.78887,1.33801 0.6981,0.82899 1.01806,1.9634 0.3345,1.11986 0.3345,2.3997 z m -2.41424,-0.71264 q 0.0436,-1.89068 -0.84354,-2.96691 -0.87261,-1.07622 -2.60331,-1.07622 -0.88716,0 -1.55617,0.3345 -0.669,0.3345 -1.11986,0.88716 -0.45085,0.55266 -0.69809,1.29439 -0.24724,0.72718 -0.27633,1.52708 z"
         style="font-size:29.7853775px;fill:#00f000;fill-opacity:1;stroke:none;stroke-width:1.11695158;stroke-miterlimit:4;stroke-dasharray:none;stroke-opacity:1"
         id="path838" />
      <path
         d="m 137.78134,268.43628 q 0,1.00352 -0.37813,1.78887 -0.36359,0.78536 -1.04714,1.32347 -0.68356,0.53812 -1.62889,0.81445 -0.94534,0.27633 -2.07974,0.27633 -0.6981,0 -1.33802,-0.11635 -0.62538,-0.10181 -1.1344,-0.26179 -0.49449,-0.17452 -0.84353,-0.34905 -0.34905,-0.18906 -0.50903,-0.3345 -0.15998,-0.14544 -0.2327,-0.40722 -0.0727,-0.26179 -0.0727,-0.71264 0,-0.27633 0.0291,-0.4654 0.0291,-0.18906 0.0727,-0.30541 0.0436,-0.11635 0.11635,-0.15998 0.0873,-0.0582 0.18906,-0.0582 0.15998,0 0.4654,0.20361 0.31996,0.18907 0.77081,0.42177 0.4654,0.2327 1.09078,0.43631 0.62537,0.18907 1.43982,0.18907 0.61083,0 1.10531,-0.1309 0.49449,-0.13089 0.85808,-0.37813 0.36359,-0.26179 0.55266,-0.65447 0.20361,-0.39267 0.20361,-0.93079 0,-0.55266 -0.29087,-0.93079 -0.27633,-0.37814 -0.74173,-0.66901 -0.4654,-0.29087 -1.04714,-0.50903 -0.58175,-0.23269 -1.20712,-0.47994 -0.61084,-0.24724 -1.20713,-0.55265 -0.58174,-0.31996 -1.04714,-0.77082 -0.4654,-0.45085 -0.75627,-1.07623 -0.27633,-0.62537 -0.27633,-1.49799 0,-0.77082 0.29088,-1.46891 0.30541,-0.71264 0.9017,-1.23621 0.59629,-0.53811 1.48345,-0.85807 0.90171,-0.31996 2.09429,-0.31996 0.52357,0 1.04714,0.0873 0.52357,0.0873 0.94534,0.21815 0.42176,0.13089 0.71263,0.29087 0.30542,0.14544 0.45086,0.26179 0.15998,0.11635 0.20361,0.20361 0.0582,0.0873 0.0727,0.20361 0.0291,0.10181 0.0436,0.26179 0.0291,0.15998 0.0291,0.39268 0,0.24724 -0.0291,0.43631 -0.0145,0.17452 -0.0727,0.29087 -0.0436,0.11635 -0.11635,0.17452 -0.0727,0.0436 -0.15998,0.0436 -0.13089,0 -0.37813,-0.15998 -0.24725,-0.15998 -0.63993,-0.3345 -0.39267,-0.18907 -0.93079,-0.34905 -0.52357,-0.15998 -1.20712,-0.15998 -0.61083,0 -1.07623,0.14544 -0.4654,0.13089 -0.77081,0.39268 -0.29088,0.24724 -0.45086,0.59629 -0.14543,0.34904 -0.14543,0.75626 0,0.56721 0.29087,0.95989 0.29087,0.37813 0.75627,0.669 0.4654,0.29088 1.06169,0.52357 0.59629,0.2327 1.20712,0.47994 0.62537,0.24725 1.22166,0.55266 0.61084,0.30542 1.07623,0.74173 0.4654,0.43631 0.74173,1.04714 0.29087,0.61083 0.29087,1.45436 z"
         style="font-size:29.7853775px;fill:#00f000;fill-opacity:1;stroke:none;stroke-width:1.11695158;stroke-miterlimit:4;stroke-dasharray:none;stroke-opacity:1"
         id="path840" />
      <path
         d="m 145.44584,266.93829 q 0,0.11635 -0.0582,0.20361 -0.0436,0.0873 -0.17452,0.14544 -0.13089,0.0582 -0.3345,0.0873 -0.20361,0.0291 -0.50903,0.0291 -0.30542,0 -0.50903,-0.0291 -0.20361,-0.0291 -0.3345,-0.0873 -0.1309,-0.0582 -0.18907,-0.14544 -0.0436,-0.0873 -0.0436,-0.20361 l -0.24724,-13.87463 q -0.0146,-0.17453 0.0436,-0.30542 0.0582,-0.13089 0.20361,-0.21816 0.15998,-0.0873 0.40722,-0.11634 0.26179,-0.0436 0.66901,-0.0436 0.39268,0 0.63992,0.0436 0.26178,0.0436 0.40722,0.13089 0.15998,0.0873 0.21816,0.21815 0.0582,0.11635 0.0582,0.29088 z m 0.45085,3.91224 q 0,0.47994 -0.0727,0.7999 -0.0582,0.30542 -0.24724,0.50903 -0.17452,0.18906 -0.4654,0.26178 -0.29087,0.0873 -0.74172,0.0873 -0.45085,0 -0.75627,-0.0873 -0.29087,-0.0727 -0.4654,-0.26178 -0.17452,-0.20361 -0.24724,-0.50903 -0.0582,-0.31996 -0.0582,-0.7999 0,-0.47994 0.0582,-0.7999 0.0727,-0.33451 0.24724,-0.50903 0.17453,-0.18907 0.4654,-0.26178 0.30542,-0.0873 0.75627,-0.0873 0.45085,0 0.74172,0.0873 0.29088,0.0727 0.4654,0.26178 0.18907,0.17452 0.24724,0.50903 0.0727,0.31996 0.0727,0.7999 z"
         style="font-size:29.7853775px;fill:#00f000;fill-opacity:1;stroke:none;stroke-width:1.11695158;stroke-miterlimit:4;stroke-dasharray:none;stroke-opacity:1"
         id="path842" />
    </g>
  </g>
</svg>
