<?xml version="1.0" encoding="UTF-8" standalone="no"?>
<!-- Created with Inkscape (http://www.inkscape.org/) -->

<svg
   xmlns:dc="http://purl.org/dc/elements/1.1/"
   xmlns:cc="http://creativecommons.org/ns#"
   xmlns:rdf="http://www.w3.org/1999/02/22-rdf-syntax-ns#"
   xmlns:svg="http://www.w3.org/2000/svg"
   xmlns="http://www.w3.org/2000/svg"
   xmlns:xlink="http://www.w3.org/1999/xlink"
   xmlns:sodipodi="http://sodipodi.sourceforge.net/DTD/sodipodi-0.dtd"
   xmlns:inkscape="http://www.inkscape.org/namespaces/inkscape"
   width="512"
   height="512"
   viewBox="0 0 135.46666 135.46667"
   version="1.1"
   id="svg8"
   inkscape:export-filename="C:\Users\lunarglow\Desktop\koji2.png"
   inkscape:export-xdpi="96"
   inkscape:export-ydpi="96"
   inkscape:version="0.92.2 (5c3e80d, 2017-08-06)"
   sodipodi:docname="koji2_icon_raw.svg">
  <defs
     id="defs2">
    <linearGradient
       inkscape:collect="always"
       id="linearGradient4536">
      <stop
         style="stop-color:#c814e6;stop-opacity:1"
         offset="0"
         id="stop4532" />
      <stop
         style="stop-color:#c846e6;stop-opacity:1"
         offset="1"
         id="stop4534" />
    </linearGradient>
    <linearGradient
       id="linearGradient4524"
       inkscape:collect="always">
      <stop
         id="stop4520"
         offset="0"
         style="stop-color:#c80028;stop-opacity:1" />
      <stop
         id="stop4522"
         offset="1"
         style="stop-color:#c85078;stop-opacity:1" />
    </linearGradient>
    <linearGradient
       inkscape:collect="always"
       id="linearGradient4512">
      <stop
         style="stop-color:#1e1ec8;stop-opacity:1"
         offset="0"
         id="stop4508" />
      <stop
         style="stop-color:#5a5ac8;stop-opacity:1"
         offset="1"
         id="stop4510" />
    </linearGradient>
    <linearGradient
       inkscape:collect="always"
       xlink:href="#linearGradient4512"
       id="linearGradient4514"
       x1="9.7172613"
       y1="171.43301"
       x2="55.505356"
       y2="217.41008"
       gradientUnits="userSpaceOnUse"
       gradientTransform="translate(-0.75595238,-0.75595238)" />
    <linearGradient
       inkscape:collect="always"
       xlink:href="#linearGradient4524"
       id="linearGradient4518"
       gradientUnits="userSpaceOnUse"
       gradientTransform="translate(34.77381,34.395834)"
       x1="91.54911"
       y1="252.31992"
       x2="44.816071"
       y2="207.09879" />
    <radialGradient
       inkscape:collect="always"
       xlink:href="#linearGradient4536"
       id="radialGradient4530"
       cx="67.769035"
       cy="229.06961"
       fx="67.769035"
       fy="229.06961"
       r="31.71452"
       gradientTransform="matrix(0.49949931,-0.00182776,0.00275915,0.75403022,33.286416,56.468047)"
       gradientUnits="userSpaceOnUse" />
  </defs>
  <sodipodi:namedview
     id="base"
     pagecolor="#ffffff"
     bordercolor="#666666"
     borderopacity="1.0"
     inkscape:pageopacity="0.0"
     inkscape:pageshadow="2"
     inkscape:zoom="0.7"
     inkscape:cx="105.09991"
     inkscape:cy="345.61155"
     inkscape:document-units="mm"
     inkscape:current-layer="layer1"
     showgrid="false"
     units="px"
     inkscape:pagecheckerboard="true"
     inkscape:window-width="1920"
     inkscape:window-height="1017"
     inkscape:window-x="-8"
     inkscape:window-y="-8"
     inkscape:window-maximized="1" />
  <metadata
     id="metadata5">
    <rdf:RDF>
      <cc:Work
         rdf:about="">
        <dc:format>image/svg+xml</dc:format>
        <dc:type
           rdf:resource="http://purl.org/dc/dcmitype/StillImage" />
        <dc:title></dc:title>
      </cc:Work>
    </rdf:RDF>
  </metadata>
  <g
     inkscape:label="Layer 1"
     inkscape:groupmode="layer"
     id="layer1"
     transform="translate(0,-161.53332)">
    <rect
       style="opacity:1;fill:url(#linearGradient4514);fill-opacity:1;stroke:#f0f0f0;stroke-width:3.96875;stroke-miterlimit:4;stroke-dasharray:none;stroke-opacity:1;paint-order:normal"
       id="rect815"
       width="96.277977"
       height="96.277977"
       x="1.832737"
       y="163.3595"
       inkscape:export-xdpi="96"
       inkscape:export-ydpi="96" />
    <rect
       y="198.51128"
       x="37.362499"
       height="96.277977"
       width="96.277977"
       id="rect4516"
       style="opacity:1;fill:url(#linearGradient4518);fill-opacity:1;stroke:#f0f0f0;stroke-width:3.96875;stroke-miterlimit:4;stroke-dasharray:none;stroke-opacity:1;paint-order:normal"
       inkscape:export-xdpi="96"
       inkscape:export-ydpi="96" />
    <rect
       style="opacity:1;fill:url(#radialGradient4530);fill-opacity:1;stroke:#f0f0f0;stroke-width:3.96875;stroke-miterlimit:4;stroke-dasharray:none;stroke-opacity:1;paint-order:normal"
       id="rect4526"
       width="61.030727"
       height="61.334351"
       x="37.25367"
       y="198.40244"
       inkscape:export-xdpi="96"
       inkscape:export-ydpi="96" />
    <text
       xml:space="preserve"
       style="font-style:normal;font-variant:normal;font-weight:bold;font-stretch:normal;font-size:50.79999924px;line-height:1.25;font-family:Calibri;-inkscape-font-specification:'Calibri Bold';letter-spacing:0px;word-spacing:0px;fill:#000000;fill-opacity:1;stroke:none;stroke-width:0.26458332;"
       x="17.764881"
       y="179.82736"
       id="text4540"><tspan
         sodipodi:role="line"
         id="tspan4538"
         x="17.764881"
         y="226.49664"
         style="stroke-width:0.26458332;-inkscape-font-specification:'Calibri Bold';font-family:Calibri;font-weight:bold;font-style:normal;font-stretch:normal;font-variant:normal;" /></text>
    <g
       aria-label="K"
       style="font-style:normal;font-variant:normal;font-weight:bold;font-stretch:normal;font-size:50.79999924px;line-height:1.25;font-family:'Cambria Math';-inkscape-font-specification:'Cambria Math Bold';letter-spacing:0px;word-spacing:0px;fill:#ffffff;fill-opacity:1;stroke:none;stroke-width:0.26458332"
       id="text4544"
       transform="matrix(0.74029161,-0.67228591,0.64815257,0.71371704,-70.098516,114.16872)"
       inkscape:export-xdpi="96"
       inkscape:export-ydpi="96">
      <path
         id="path4558"
         style="font-style:normal;font-variant:normal;font-weight:bold;font-stretch:normal;font-family:'Cambria Math';-inkscape-font-specification:'Cambria Math Bold';fill:#ffffff;fill-opacity:1;stroke-width:0.26458332"
         d="m 15.430877,121.208 h 0.744141 q 0.942578,0 1.711523,-0.29766 0.79375,-0.29766 1.761133,-1.11621 0.967383,-0.81856 2.951758,-3.05098 2.381249,-2.6541 3.249414,-3.84472 1.091406,-1.41387 1.463476,-2.38125 0.297656,-0.71934 0.297656,-1.38907 0,-0.99218 -0.570507,-1.43867 -0.570508,-0.47129 -1.562696,-0.57051 v -1.21543 h 10.814844 v 1.21543 q -0.79375,0.17364 -1.562695,0.62012 -0.768946,0.42168 -1.5875,1.19063 -0.79375,0.74414 -2.356446,2.48046 l -8.334375,9.37618 9.028907,13.12168 q 1.438671,2.08359 2.257226,2.92695 0.818555,0.81855 1.562695,1.21543 0.744141,0.37207 1.5875,0.49609 v 1.21543 H 25.948064 v -1.21543 q 0.917774,-0.0744 1.339453,-0.34726 0.42168,-0.27285 0.42168,-0.81856 0,-0.44648 -0.297656,-1.0666 -0.272852,-0.64492 -0.892969,-1.53789 l -5.779492,-8.60723 q -1.016992,-1.53789 -1.488281,-2.03398 -0.471289,-0.49609 -1.016992,-0.71934 -0.545704,-0.24804 -1.463477,-0.24804 h -1.314648 v 10.39316 q 0,1.66191 0.09922,2.43086 0.124024,0.76894 0.372071,1.21543 0.272851,0.44648 0.768945,0.74414 0.520898,0.29766 1.661914,0.59531 v 1.21543 H 7.9150568 v -1.21543 q 1.5378906,-0.39687 2.058789,-0.86816 0.5208982,-0.4961 0.6697262,-1.38906 0.173633,-0.89297 0.173633,-2.72852 v -21.45605 q 0,-1.71153 -0.124023,-2.48047 -0.124024,-0.79375 -0.42168,-1.21543 -0.2728515,-0.44649 -0.7441406,-0.69453 -0.471289,-0.27286 -1.6123046,-0.59532 V 105.9035 H 18.35783 v 1.21543 q -1.091406,0.27286 -1.5875,0.54571 -0.471289,0.27285 -0.768945,0.69453 -0.272852,0.39687 -0.42168,1.21543 -0.124023,0.81855 -0.124023,2.53008 z" />
    </g>
    <g
       aria-label="O"
       style="font-style:normal;font-variant:normal;font-weight:bold;font-stretch:normal;font-size:50.79999924px;line-height:1.25;font-family:'Cambria Math';-inkscape-font-specification:'Cambria Math Bold';letter-spacing:0px;word-spacing:0px;fill:#ffffff;fill-opacity:1;stroke:none;stroke-width:0.26458332"
       id="text4548"
       transform="translate(-41.577381,126.62202)"
       inkscape:export-xdpi="96"
       inkscape:export-ydpi="96">
      <path
         d="m 109.96036,117.4802 q -2.97657,0 -5.43223,-0.96739 -2.43086,-0.99218 -4.19199,-3.05097 -1.736331,-2.0836 -2.703714,-5.30821 -0.942578,-3.22461 -0.942578,-7.71425 0,-5.53145 1.686719,-9.5002 1.686723,-3.96875 4.812113,-6.027539 3.15019,-2.083593 7.29257,-2.083593 4.41524,0 7.41661,1.95957 3.02617,1.934766 4.53925,5.729883 1.53789,3.770312 1.53789,9.202539 0,5.8043 -1.73632,9.79785 -1.73633,3.99356 -4.91133,5.97793 -3.1502,1.98438 -7.36699,1.98438 z m -8.16075,-17.735356 q 0,7.615036 2.20762,11.583786 2.23242,3.96875 6.49883,3.96875 2.70371,0 4.58887,-1.71152 1.88515,-1.73633 2.82773,-5.06016 0.94258,-3.32382 0.94258,-7.76386 0,-5.407425 -1.11621,-8.954496 -1.09141,-3.571875 -3.00137,-5.184179 -1.90996,-1.612305 -4.44004,-1.612305 -2.23242,0 -3.84472,1.041797 -1.5875,1.041797 -2.65411,2.976562 -1.04179,1.909961 -1.53789,4.638477 -0.47129,2.728516 -0.47129,6.077148 z"
         style="font-style:normal;font-variant:normal;font-weight:bold;font-stretch:normal;font-family:'Cambria Math';-inkscape-font-specification:'Cambria Math Bold';fill:#ffffff;fill-opacity:1;stroke-width:0.26458332"
         id="path4561"
         inkscape:connector-curvature="0" />
    </g>
    <g
       aria-label="J"
       style="font-style:normal;font-variant:normal;font-weight:bold;font-stretch:normal;font-size:50.79999924px;line-height:1.25;font-family:'Cambria Math';-inkscape-font-specification:'Cambria Math Bold';letter-spacing:0px;word-spacing:0px;fill:#ffffff;fill-opacity:1;stroke:none;stroke-width:0.26458332"
       id="text4552"
       transform="rotate(33.306458,-67.801535,83.723044)"
       inkscape:export-xdpi="96"
       inkscape:export-ydpi="96">
      <path
         d="m 185.50125,145.63469 q 0,3.34864 -0.79375,5.43223 -0.76895,2.08359 -2.6293,3.52226 -1.83555,1.43868 -5.15937,2.45567 l -0.81856,-2.18281 q 2.18281,-0.84336 3.10059,-1.71153 0.91777,-0.84336 1.26504,-2.1332 0.37207,-1.28984 0.37207,-3.47266 v -27.88047 q 0,-2.158 -0.22325,-2.95175 -0.19843,-0.79375 -0.69453,-1.21543 -0.47129,-0.42168 -1.98437,-0.81856 v -1.21543 h 10.46758 v 1.21543 q -1.09141,0.27285 -1.5875,0.54571 -0.47129,0.27285 -0.76895,0.69453 -0.27285,0.39687 -0.42168,1.21543 -0.12402,0.81855 -0.12402,2.53007 z"
         style="font-style:normal;font-variant:normal;font-weight:bold;font-stretch:normal;font-family:'Cambria Math';-inkscape-font-specification:'Cambria Math Bold';fill:#ffffff;fill-opacity:1;stroke-width:0.26458332"
         id="path4564"
         inkscape:connector-curvature="0" />
    </g>
    <g
       aria-label="I"
       style="font-style:normal;font-variant:normal;font-weight:bold;font-stretch:normal;font-size:50.79999924px;line-height:1.25;font-family:'Baskerville Old Face';-inkscape-font-specification:'Baskerville Old Face Bold';letter-spacing:0px;word-spacing:0px;fill:#ffffff;fill-opacity:1;stroke:none;stroke-width:0.26458332"
       id="text4556"
       transform="rotate(-39.707545,120.4513,320.78585)"
       inkscape:export-xdpi="96"
       inkscape:export-ydpi="96">
      <path
         d="m 214.74717,192.46004 v 0.57051 q -1.41386,0.0744 -2.30683,0.39687 -0.86817,0.32246 -1.5627,1.0418 -0.96738,0.99218 -1.19062,2.75332 -0.14883,1.31465 -0.14883,3.02617 v 18.28105 q 0,2.05879 0.19844,3.24942 0.19843,1.19062 0.64492,1.90996 0.64492,0.99219 1.66191,1.48828 1.017,0.47129 2.70371,0.57051 v 0.57051 h -15.85019 v -0.57051 q 1.43867,-0.0744 2.30683,-0.39688 0.89297,-0.34726 1.5627,-1.04179 0.79375,-0.79375 1.0666,-2.00918 0.27285,-1.21543 0.27285,-3.77032 v -18.28105 q 0,-2.55488 -0.27285,-3.77031 -0.27285,-1.21543 -1.0666,-2.00918 -0.66973,-0.71934 -1.5627,-1.0418 -0.89296,-0.32246 -2.30683,-0.39687 v -0.57051 z"
         style="fill:#ffffff;fill-opacity:1;stroke-width:0.26458332"
         id="path4567"
         inkscape:connector-curvature="0" />
    </g>
  </g>
</svg>
