<svg width="642" height="82" version="1.1" viewBox="0 0 169.86 21.696" xmlns="http://www.w3.org/2000/svg">
<g transform="translate(-12.036 -272.44)">
<path d="m106.51 272.92c-0.24253 0-0.46413 8e-3 -0.69336 0.0371-0.22115 0.0277-0.4458 0.0682-0.71484 0.17578l-0.0273 0.0117-0.0293 0.0117c-0.26385 0.11727-0.58836 0.322-0.83594 0.69336l-0.0547 0.082-0.0449 0.0898c-0.0748 0.14968-0.0692 0.28869-0.10156 0.4375l8e-3 6e-3c-2e-3 -2e-3 -5e-3 -4e-4 -8e-3 -2e-3 -2e-3 0.01-6e-3 0.0193-8e-3 0.0293-0.0178-0.012-0.0207-0.0316-0.0391-0.043-0.31166-0.19176-0.68442-0.30078-0.99804-0.30078h-11.162c-0.33073 0-0.69054 0.0955-0.97461 0.25781l-0.04688 0.0273-0.04688 0.0312c-0.37136 0.24758-0.57609 0.57209-0.69336 0.83594-0.10619 0.23892-0.15392 0.43366-0.19336 0.63086l-0.0078 0.0449-0.0059 0.043c-0.03076 0.21529-0.04102 0.42002-0.04102 0.63281 0 0.2128 0.01026 0.41948 0.04102 0.63477l0.0078 0.0547 0.01172 0.0527c0.04049 0.18895 0.09017 0.37867 0.1875 0.59766l0.01563 0.0332 0.01563 0.0312c0.12773 0.25547 0.34155 0.54606 0.66211 0.75977l0.04688 0.0312 0.04688 0.0273c0.28407 0.16232 0.64388 0.25781 0.97461 0.25781h2.9258v12.328c0 0.33073 0.1027 0.73413 0.31641 1.0547 0.28144 0.42217 0.63525 0.60918 0.9043 0.7168l0.06641 0.0274 0.06836 0.0195c0.20557 0.0617 0.3729 0.0856 0.54883 0.10742 0.25416 0.0424 0.49662 0.0586 0.75 0.0586 0.25968 0 0.50297-0.0151 0.76953-0.0625 0.16925-0.0215 0.33105-0.044 0.5293-0.10351l0.06836-0.0195 0.06641-0.0274c0.26904-0.10762 0.62285-0.29463 0.9043-0.7168 0.21371-0.32055 0.3164-0.72395 0.3164-1.0547v-12.328h2.9277c0.29577 0 0.6407-0.11301 0.9414-0.2832v12.625c0 0.26458 0.0541 0.58078 0.20508 0.88281l0.0762 0.15039 0.10352 0.13086c0.26689 0.33361 0.53687 0.47299 0.75586 0.57031l0.0293 0.0137 0.0273 0.01c0.26904 0.10762 0.49369 0.14814 0.71484 0.17578 0.22923 0.0287 0.45083 0.0371 0.69336 0.0371 0.24904 0 0.47181-8e-3 0.70508-0.0371 0.22519-0.0282 0.45408-0.0642 0.75781-0.19922 0.21899-0.0973 0.48897-0.2367 0.75586-0.57031l0.043-0.0527 0.0391-0.0586c0.21371-0.32056 0.31641-0.722 0.31641-1.0527v-7.1621c0.34136-0.37873 0.69355-0.76803 0.94336-0.94531 0.30895-0.21926 0.48205-0.25196 0.61914-0.25196 0.19844 0 0.2868 0.0321 0.33203 0.0547l8e-3 4e-3 6e-3 4e-3c0.0687 0.0334 0.0833 0.0459 0.125 0.10743 0.0717 0.10606 0.14916 0.26585 0.21094 0.50781 0.0478 0.18727 0.0996 0.59034 0.0996 1.1445v6.5371c0 0.33073 0.1027 0.73217 0.31641 1.0527l0.0371 0.0586 0.043 0.0527c0.26689 0.33361 0.53688 0.47299 0.75586 0.57031 0.30373 0.135 0.53263 0.17107 0.75782 0.19922 0.23326 0.0292 0.45799 0.0371 0.70703 0.0371 0.24253 0 0.46217-8e-3 0.6914-0.0371 0.22519-0.0282 0.45409-0.0642 0.75782-0.19922 0.21898-0.0973 0.49092-0.2367 0.75781-0.57031l0.043-0.0527 0.0371-0.0586c0.2137-0.32056 0.3164-0.722 0.3164-1.0527v-6.7969c0-0.88899-0.0748-1.6853-0.25586-2.416-0.17577-0.75218-0.48619-1.46-0.93945-2.0684-0.46917-0.62968-1.1006-1.1285-1.8106-1.4746-0.78141-0.39321-1.6541-0.55273-2.5742-0.55273-0.68496 0-1.3418 0.24077-1.9844 0.49804v-3.7598c0-0.33073-0.1027-0.73413-0.31641-1.0547-0.24757-0.37136-0.57404-0.57609-0.83789-0.69336-0.30373-0.13499-0.53262-0.17107-0.75781-0.19922-0.23327-0.0292-0.45604-0.0371-0.70508-0.0371zm-24 0.0488c-0.24687 0-0.48183 0.0174-0.73438 0.0605-0.1733 0.0242-0.35772 0.0712-0.55274 0.13867-0.34966 0.11128-0.80913 0.38082-1.0703 0.83789l-0.02148 0.0371-0.01953 0.0391c-0.13524 0.27048-0.20508 0.58643-0.20508 0.87109v3.6563c-0.58856-0.21148-1.1777-0.44336-1.8105-0.44336-0.98469 0-1.9335 0.19206-2.7812 0.60937-0.81873 0.39901-1.5323 0.9953-2.0781 1.7305-0.50326 0.67785-0.84231 1.4812-1.0918 2.3379-0.02399-0.0932-0.01373-0.19699-0.04102-0.28906-0.23553-0.83164-0.62747-1.6028-1.1719-2.252-0.55725-0.67263-1.2756-1.2021-2.0859-1.5703-0.87228-0.40004-1.8478-0.5664-2.8926-0.5664-1.0022 0-1.9664 0.18139-2.8457 0.56445-0.86904 0.3705-1.6456 0.92938-2.2676 1.6387v2e-3c-0.6205 0.70914-1.0769 1.5594-1.3809 2.5-0.28679 0.8795-0.39898 1.8416-0.41797 2.8496-0.1438-0.18895-0.2368-0.41365-0.41016-0.57617-0.38256-0.35865-0.81949-0.65779-1.293-0.89453-0.38053-0.19437-0.77159-0.36986-1.1699-0.52734l0.01367 4e-3c-0.35324-0.14298-0.70347-0.28124-1.0488-0.41601-0.26061-0.10171-0.4731-0.20975-0.64062-0.31446-0.01552-0.01-0.01365-0.0142-0.02734-0.0234 0.08279-0.0206 0.18963-0.0449 0.37695-0.0449 0.26476 0 0.45144 0.0338 0.56445 0.0684l0.0118 4e-3c0.24329 0.0723 0.43109 0.14463 0.55664 0.20508l0.02344 0.0117 0.02148 0.01c0.17173 0.0763 0.28834 0.14027 0.32812 0.16602 0.24784 0.16036 0.46437 0.39258 1.1855 0.39258 0.31419 0 0.67156-0.0947 0.95312-0.26368l0.08984-0.0547 0.08398-0.0684c0.30136-0.24109 0.45295-0.52768 0.55274-0.77344 0.10984-0.25221 0.1721-0.49141 0.19141-0.70117 0.02341-0.18075 0.03711-0.35688 0.03711-0.53321 0-0.17402-0.01365-0.35197-0.04297-0.54296-0.0077-0.0749-0.02737-0.16331-0.04297-0.2461-0.03366-0.23609-0.13026-0.48894-0.26758-0.72461-0.21188-0.37133-0.41338-0.53498-0.58008-0.65429-0.21718-0.16754-0.40437-0.26866-0.60547-0.36524-0.27852-0.1497-0.56342-0.2651-0.86719-0.35937-0.322-0.0999-0.65919-0.17693-1.0156-0.23633-0.3823-0.0637-0.76845-0.0957-1.1543-0.0957-0.81997 0-1.5959 0.10957-2.3164 0.36523h-0.0039l-0.0039 2e-3c-0.66197 0.23875-1.2691 0.5825-1.7812 1.043-0.50145 0.44306-0.91015 0.99609-1.1738 1.6113l-2e-3 8e-3 -0.0039 6e-3c-0.04855 0.11651-0.03318 0.24919-0.07227 0.36914 0.0021-0.0593 0.01172-0.12028 0.01172-0.17969 0-0.17402-0.01365-0.35197-0.04297-0.54296-0.0077-0.0749-0.02737-0.16331-0.04297-0.2461-0.03366-0.23609-0.13026-0.48894-0.26758-0.72461-0.21188-0.37133-0.41338-0.53498-0.58008-0.65429-0.21718-0.16754-0.40437-0.26866-0.60547-0.36524-0.27852-0.1497-0.56342-0.2651-0.86719-0.35937-0.322-0.0999-0.65919-0.17693-1.0156-0.23633-0.3823-0.0637-0.76845-0.0957-1.1543-0.0957-0.81997 0-1.5959 0.10957-2.3164 0.36523h-0.0039l-0.0039 2e-3c-0.66197 0.23875-1.2691 0.5825-1.7812 1.043-0.50145 0.44306-0.91015 0.99609-1.1738 1.6113l-2e-3 8e-3 -0.0039 6e-3c-0.24515 0.58836-0.36914 1.2254-0.36914 1.8633 0 0.66367 0.10368 1.3147 0.37109 1.9199l0.0118 0.0274c0.24038 0.51682 0.57113 0.99213 0.98047 1.3887 0.36721 0.35574 0.78244 0.66071 1.2324 0.9082l0.01953 0.0117 0.02148 0.01c0.38006 0.19466 0.76674 0.3728 1.1582 0.53125l0.0118 4e-3c0.35369 0.13984 0.69483 0.27481 1.0234 0.40625l0.01563 8e-3 0.01563 6e-3c0.24385 0.0914 0.44563 0.19062 0.60938 0.29296 0.06747 0.0422 0.07502 0.0613 0.10547 0.0899-0.0427 0.0221-0.07426 0.0441-0.16602 0.0684-0.1248 0.033-0.30324 0.0586-0.53711 0.0586-0.33581 0-0.58513-0.0405-0.75781-0.0918-0.27694-0.0913-0.5027-0.18207-0.67188-0.26562l-0.0059-4e-3c-0.23321-0.1205-0.4275-0.225-0.57227-0.31054l0.07422 0.0449c-0.28008-0.18672-0.51291-0.43945-1.2773-0.43945-0.34616 0-0.71856 0.12609-1.002 0.30468-0.38532 0.24523-0.56453 0.56515-0.67383 0.82422v-8.5449c0-0.36026-0.12528-0.75628-0.31641-1.043-0.15272-0.22908-0.33624-0.30666-0.51562-0.42773 0.10114-0.0712 0.20474-0.0765 0.30469-0.17188 0.70992-0.67765 0.76367-1.4486 0.76367-2.1289 0-0.66492-0.06669-1.4325-0.77148-2.0957-0.68106-0.65945-1.4077-0.70703-2.0684-0.70703-0.67617 0-1.4069 0.0362-2.1016 0.69922-0.70992 0.67766-0.76367 1.4486-0.76367 2.1289 0 0.66624 0.04316 1.4084 0.72461 2.0898l0.02734 0.0273 0.02734 0.0254c0.09041 0.0822 0.18095 0.0834 0.27148 0.14649-0.1736 0.11995-0.3504 0.1926-0.49805 0.41406l-0.05664 0.082-0.04297 0.0899c-0.13524 0.27048-0.20508 0.58643-0.20508 0.87109v11.162c0 0.26458 0.05406 0.58078 0.20508 0.88281l0.07422 0.15039 0.10547 0.13086c0.26689 0.33361 0.53688 0.47299 0.75586 0.57031l0.02734 0.0137 0.0293 0.01c0.26904 0.10762 0.49369 0.14814 0.71484 0.17578 0.22923 0.0287 0.45082 0.0371 0.69336 0.0371 0.24904 0 0.47181-8e-3 0.70508-0.0371 0.22519-0.0282 0.45408-0.0642 0.75781-0.19922 0.21898-0.0973 0.48897-0.2367 0.75586-0.57031l0.04297-0.0527 0.03711-0.0586c0.21371-0.32056 0.31641-0.722 0.31641-1.0527v-0.0488c0.11629 0.29769 0.24173 0.61073 0.51953 0.86328 0.26281 0.23892 0.48708 0.36556 0.74609 0.50586l0.02344 0.0137 0.02344 0.01c0.27732 0.13866 0.57321 0.25952 0.90039 0.375l0.02734 0.01 0.02539 8e-3c0.37184 0.11686 0.76325 0.20555 1.1777 0.27344 0.45833 0.0822 0.92718 0.12304 1.4062 0.12304 0.77382 0 1.5172-0.0957 2.2188-0.30078 0.70489-0.20605 1.3615-0.52646 1.9258-0.9707 0.35734-0.28131 0.57623-0.68871 0.83789-1.0606 0.10861 0.34283 0.28327 0.71721 0.60938 1.0137 0.26281 0.23892 0.48708 0.36556 0.74609 0.50586l0.02344 0.0137 0.02344 0.01c0.27732 0.13866 0.57321 0.25952 0.90039 0.375l0.02734 0.01 0.02539 8e-3c0.37184 0.11686 0.76325 0.20555 1.1777 0.27344 0.45833 0.0822 0.92718 0.12304 1.4062 0.12304 0.77382 0 1.5172-0.0957 2.2188-0.30078 0.70489-0.20605 1.3615-0.52646 1.9258-0.9707 0.57274-0.45088 1.0357-1.0387 1.3438-1.6992 0.1496-0.31285 0.14307-0.67195 0.2207-1.0098 0.29233 0.70541 0.59797 1.4081 1.1055 1.9512 0.64214 0.6872 1.4474 1.2109 2.3418 1.5449h2e-3l0.0039 2e-3c0.90761 0.33495 1.9032 0.48242 2.9688 0.48242 0.6044 0 1.1844-0.0479 1.7441-0.14648 0.5137-0.0814 0.98163-0.17729 1.4102-0.29688 0.40464-0.11292 0.75634-0.23047 1.0859-0.37695l0.02148-0.01 0.02344-0.01c0.1302-0.0627 0.24142-0.11944 0.35547-0.1836 0.11404-0.0641 0.19201-0.0651 0.47461-0.34765 0.1192-0.1192 0.23357-0.28391 0.33984-0.4668 0.13252-0.21887 0.23849-0.46989 0.27734-0.72656 0.01813-0.0916 0.0388-0.18319 0.04883-0.27344v-0.01l2e-3 -8e-3c0.01505-0.15045 0.01953-0.29516 0.01953-0.44336 0-0.17365-0.01306-0.3467-0.03711-0.52929-0.01556-0.1984-0.03273-0.4058-0.16602-0.7168-0.12449-0.29049-0.42064-0.5854-0.74609-0.79688-0.3051-0.19019-0.66544-0.33984-0.97266-0.33984-0.58429 0-0.81788 0.14855-1.1074 0.28125-0.13644 0.0585-0.33884 0.13542-0.60938 0.23047l-0.0059 4e-3 -0.0078 2e-3c-0.20702 0.0748-0.49656 0.15592-0.84961 0.23437-0.28444 0.0561-0.65002 0.0918-1.0918 0.0918-0.51947 0-0.8815-0.078-1.0957-0.16601-0.24893-0.10224-0.38481-0.21005-0.5-0.35157-0.07217-0.0887-0.11429-0.24138-0.16992-0.36328h5.4492c0.54537 0 1.1489-0.21704 1.5684-0.57031l0.0039-2e-3 2e-3 -4e-3c0.07994-0.0679 0.09801-0.1629 0.16406-0.23828 0.04523 0.54517 0.05661 1.1014 0.17383 1.623v4e-3c0.20085 0.88373 0.52976 1.7021 1 2.4238l0.0156 0.0234c0.50025 0.739 1.1723 1.351 1.9551 1.7871l0.0156 8e-3c0.85456 0.4639 1.8318 0.66406 2.8535 0.66406 1.0025 0 1.9888-0.25097 2.8535-0.74023 0.03524-0.0197 0.06267-0.0578 0.09766-0.0781 0.1788 0.16063 0.35691 0.36045 0.52148 0.4336l0.07031 0.0312 0.07227 0.0234c0.20828 0.0694 0.38388 0.10144 0.5625 0.12696 0.22576 0.0323 0.43613 0.041 0.66016 0.041 0.21828 0 0.42596-0.01 0.64648-0.041 0.18386-0.0263 0.36285-0.0555 0.60547-0.14649l0.04297-0.0156 0.04297-0.0195c0.26396-0.11732 0.6127-0.37883 0.85938-0.80469 0.17085-0.30108 0.2832-0.64702 0.2832-0.94336v-16.521c0-0.38292-0.18069-0.74972-0.37695-1.0332-0.23956-0.34117-0.58169-0.61642-0.89648-0.73047-0.23122-0.0885-0.43342-0.1385-0.61719-0.16211-0.25393-0.0427-0.49109-0.0586-0.74023-0.0586zm37.357 0.76953c-0.67617 0-1.407 0.0362-2.1016 0.69922-0.70992 0.67766-0.76367 1.4486-0.76367 2.1289 0 0.66624 0.0432 1.4084 0.72461 2.0898l0.0273 0.0273 0.0273 0.0254c0.0904 0.0822 0.18095 0.0834 0.27148 0.14649-0.17375 0.11998-0.35222 0.19239-0.5 0.41406l-0.0547 0.082-0.043 0.0899c-0.13524 0.27048-0.20507 0.58643-0.20507 0.87109v11.162c0 0.26458 0.0541 0.58078 0.20507 0.88281l0.0742 0.15039 0.10547 0.13086c0.26689 0.33361 0.53688 0.47299 0.75586 0.57031l0.0273 0.0137 0.0273 0.01c0.26904 0.10762 0.49369 0.14814 0.71484 0.17578 0.22923 0.0287 0.45083 0.0371 0.69336 0.0371 0.24904 0 0.47181-8e-3 0.70508-0.0371 0.22519-0.0282 0.45604-0.0642 0.75977-0.19922 0.21898-0.0973 0.48897-0.2367 0.75585-0.57031l0.043-0.0527 0.0371-0.0586c0.21371-0.32056 0.31641-0.722 0.31641-1.0527v-0.0488c0.11629 0.29769 0.24173 0.61073 0.51953 0.86328 0.26281 0.23892 0.48708 0.36556 0.74609 0.50586l0.0234 0.0137 0.0234 0.01c0.27732 0.13866 0.57321 0.25952 0.90039 0.375l0.0254 0.01 0.0273 8e-3c0.37184 0.11686 0.76325 0.20555 1.1777 0.27344 0.45774 0.082 0.92783 0.12304 1.4062 0.12304 0.77382 0 1.5172-0.0957 2.2188-0.30078 0.70489-0.20605 1.3615-0.52646 1.9258-0.9707 0.57274-0.45088 1.0357-1.0387 1.3438-1.6992 0.32603-0.6818 0.47656-1.4353 0.47656-2.2012 0-0.65725-0.11566-1.3104-0.39844-1.9102-0.23612-0.51635-0.56704-0.99144-0.98242-1.3809-0.38256-0.35865-0.82144-0.65779-1.2949-0.89453-0.37687-0.1925-0.7619-0.36712-1.1562-0.52344l-0.0117-4e-3c-0.34928-0.14133-0.69357-0.27881-1.0352-0.41211-0.26062-0.10171-0.4731-0.20975-0.64063-0.31446-0.0155-0.01-0.0136-0.0142-0.0273-0.0234 0.0828-0.0205 0.18782-0.0449 0.375-0.0449 0.26476 0 0.45339 0.0338 0.5664 0.0684l0.012 4e-3c0.24329 0.0723 0.43109 0.14463 0.55664 0.20508l0.0215 0.0117 0.0234 0.01c0.17172 0.0763 0.28833 0.14027 0.32812 0.16602 0.24784 0.16036 0.46242 0.39258 1.1836 0.39258 0.3142 0 0.67156-0.0947 0.95313-0.26368l0.0918-0.0547 0.084-0.0684c0.30136-0.24109 0.45295-0.52768 0.55273-0.77344 0.10984-0.25221 0.17211-0.49141 0.19141-0.70117 0.0234-0.18075 0.0371-0.35688 0.0371-0.53321 0-0.1803-0.0148-0.36318-0.0469-0.5625-7e-3 -0.0692-0.0247-0.15037-0.0391-0.22656-0.0337-0.23609-0.13026-0.48894-0.26758-0.72461-0.21187-0.37133-0.41337-0.53498-0.58007-0.65429-0.21719-0.16754-0.40437-0.26866-0.60547-0.36524-0.27852-0.1497-0.56342-0.2651-0.86719-0.35937-0.322-0.0999-0.65919-0.17693-1.0156-0.23633-0.3823-0.0637-0.76845-0.0957-1.1543-0.0957-0.81997 0-1.5959 0.10957-2.3164 0.36523h-4e-3l-4e-3 2e-3c-0.66058 0.23824-1.2678 0.58202-1.7793 1.041-0.5024 0.44336-0.91174 0.9972-1.1758 1.6133l-2e-3 8e-3 -4e-3 6e-3c-0.24515 0.58836-0.36914 1.2254-0.36914 1.8633 0 0.66367 0.10172 1.3147 0.36914 1.9199l8e-3 0.0137 6e-3 0.0137c0.24039 0.51682 0.57114 0.99213 0.98047 1.3887 0.36721 0.35574 0.78244 0.66071 1.2324 0.9082l0.0195 0.0117 0.0215 0.01c0.38006 0.19466 0.76478 0.3728 1.1562 0.53125l8e-3 2e-3 6e-3 2e-3c0.35369 0.13984 0.69483 0.27481 1.0234 0.40625l0.0156 8e-3 0.0156 6e-3c0.24385 0.0914 0.44563 0.19062 0.60937 0.29296 0.0675 0.0422 0.075 0.0613 0.10547 0.0899-0.0427 0.0221-0.0743 0.0441-0.16601 0.0684-0.1248 0.033-0.30324 0.0586-0.53711 0.0586-0.33581 0-0.58513-0.0405-0.75781-0.0918-0.27694-0.0913-0.5027-0.18207-0.67188-0.26562l-6e-3 -4e-3c-0.23321-0.1205-0.4275-0.225-0.57226-0.31054l0.0723 0.0449c-0.28008-0.18672-0.51291-0.43945-1.2773-0.43945-0.34614 0-0.71661 0.12611-1 0.30468-0.38532 0.24523-0.56453 0.56515-0.67383 0.82422v-8.5449c0-0.36026-0.12528-0.75628-0.31641-1.043-0.15271-0.22908-0.33623-0.30666-0.51562-0.42773 0.10114-0.0712 0.20474-0.0765 0.30469-0.17188 0.70992-0.67765 0.76367-1.4486 0.76367-2.1289 0-0.66491-0.0667-1.4325-0.77149-2.0957-0.68105-0.65945-1.4077-0.70703-2.0684-0.70703zm27.174 0.17383c-1.3933 0-2.6855 0.2292-3.8379 0.72656-1.1246 0.47756-2.111 1.1902-2.8828 2.1074-0.76806 0.90464-1.327 1.9899-1.6856 3.2012-0.35595 1.2026-0.52344 2.5054-0.52344 3.8984 0 1.4354 0.1503 2.7462 0.47852 3.9336 0.33016 1.1944 0.85093 2.2624 1.5859 3.1465l4e-3 4e-3 4e-3 6e-3c0.74425 0.88246 1.6985 1.5657 2.7871 2.0176l0.01 2e-3 8e-3 4e-3c1.1165 0.44869 2.3655 0.64844 3.7285 0.64844 1.3918 0 2.681-0.2216 3.832-0.70898l0.012-4e-3c1.125-0.48646 2.1059-1.2072 2.8711-2.1289 0.76415-0.91904 1.3216-2.015 1.6797-3.2344 0.33084-1.1266 0.46417-2.3675 0.48633-3.6758v7.6191c0 0.26458 0.0541 0.58078 0.20508 0.88281l0.0742 0.15039 0.10547 0.13086c0.26689 0.33361 0.53687 0.47299 0.75586 0.57031l0.0273 0.0137 0.0293 0.01c0.26904 0.10762 0.49369 0.14814 0.71484 0.17578 0.22923 0.0287 0.45083 0.0371 0.69336 0.0371 0.24904 0 0.47181-8e-3 0.70508-0.0371 0.22519-0.0282 0.45408-0.0642 0.75781-0.19922 0.21899-0.0973 0.48897-0.2367 0.75586-0.57031l0.043-0.0527 0.0371-0.0586c0.21371-0.32056 0.31641-0.722 0.31641-1.0527v-7.1602c0.34209-0.37977 0.6931-0.76966 0.94335-0.94726 0.30896-0.21926 0.48205-0.25196 0.61915-0.25196 0.19843 0 0.2868 0.0321 0.33203 0.0547l0.016 8e-3c0.0687 0.0334 0.0833 0.0459 0.125 0.10743 0.0718 0.10606 0.14916 0.26585 0.21094 0.50781 0.0478 0.18727 0.0996 0.59034 0.0996 1.1445v6.5371c0 0.33073 0.10075 0.73217 0.31445 1.0527l0.0391 0.0586 0.043 0.0527c0.26689 0.33361 0.53688 0.47299 0.75586 0.57031 0.30373 0.135 0.53262 0.17107 0.75781 0.19922 0.23327 0.0292 0.45604 0.0371 0.70508 0.0371 0.24254 0 0.46413-8e-3 0.69336-0.0371 0.22519-0.0282 0.45408-0.0642 0.75782-0.19922 0.21898-0.0973 0.48897-0.2367 0.75585-0.57031l0.043-0.0527 0.0391-0.0586c0.2137-0.32056 0.3164-0.722 0.3164-1.0527v-4.1856c0.0688 0.60209 0.075 1.2424 0.2461 1.7852 0.29919 0.94915 0.77046 1.8068 1.4219 2.5039 0.64214 0.6872 1.4454 1.2109 2.3398 1.5449h4e-3l2e-3 2e-3c0.90761 0.33495 1.9032 0.48242 2.9688 0.48242 0.60441 0 1.1864-0.0479 1.7461-0.14648 0.51369-0.0814 0.97968-0.17729 1.4082-0.29688 0.40464-0.11292 0.7583-0.23047 1.0879-0.37695l0.043-0.02c0.1302-0.0627 0.24142-0.11944 0.35547-0.1836 0.11404-0.0641 0.19201-0.0651 0.47461-0.34765 0.11779-0.11779 0.23252-0.28112 0.33789-0.46094 0.13415-0.21995 0.24014-0.47371 0.2793-0.73242 0.0181-0.0916 0.0388-0.18319 0.0488-0.27344l2e-3 -0.01v-8e-3c0.015-0.15045 0.0215-0.29516 0.0215-0.44336 0-0.17753-0.0156-0.35366-0.041-0.54101-0.0155-0.1956-0.031-0.39927-0.16211-0.70508-0.12452-0.29053-0.42252-0.58541-0.74805-0.79688-0.3051-0.19019-0.66544-0.33984-0.97266-0.33984-0.58429 0-0.81788 0.14855-1.1074 0.28125-0.13647 0.0584-0.33956 0.13567-0.60937 0.23047l-6e-3 4e-3 -6e-3 2e-3c-0.20703 0.0748-0.49849 0.15592-0.85156 0.23437-0.28444 0.0561-0.64808 0.0918-1.0898 0.0918-0.51947 0-0.8815-0.078-1.0957-0.16601-0.24893-0.10224-0.38676-0.21005-0.50195-0.35157-0.0722-0.0887-0.1143-0.24138-0.16993-0.36328h5.4512c0.54538 0 1.1489-0.21704 1.5684-0.57031l6e-3 -6e-3c0.62181-0.52854 0.80664-1.3105 0.80664-1.9043v-0.37109c0-0.85985-0.11535-1.6918-0.3496-2.4824-0.23578-0.8325-0.62855-1.6043-1.1738-2.2539-0.55687-0.67106-1.275-1.2008-2.084-1.5684-0.87228-0.40004-1.8458-0.5664-2.8906-0.5664-1.0022 0-1.9683 0.18139-2.8477 0.56445-0.86904 0.3705-1.6436 0.92938-2.2656 1.6387l-2e-3 2e-3c-0.6205 0.70914-1.0769 1.5594-1.3809 2.5-0.18143 0.55641-0.19253 1.1934-0.26367 1.8027v-0.01c0-0.88171-0.0752-1.6735-0.25586-2.4023-0.17577-0.75218-0.48619-1.46-0.93945-2.0684-0.46887-0.62927-1.0992-1.1286-1.8086-1.4746-0.78228-0.39447-1.6567-0.55273-2.5781-0.55273-0.91012 0-1.8099 0.24536-2.6328 0.67773-0.074 0.0385-0.13045 0.12439-0.20313 0.16602-0.12861-0.11549-0.24073-0.28974-0.36328-0.35547-0.35081-0.19549-0.65718-0.2615-0.91015-0.2793-0.19441-0.0226-0.38022-0.0352-0.57813-0.0352-0.20513 0-0.39358 0.0117-0.59375 0.0352-0.24912 0.0194-0.53716 0.0907-0.83594 0.23828-0.2677 0.12514-0.60811 0.36083-0.84375 0.79102-0.17916 0.33391-0.24414 0.66267-0.24414 0.9082v2.9707c-0.0217-1.29-0.14389-2.5038-0.45703-3.5898-0.33229-1.1894-0.86988-2.2522-1.625-3.127-0.74522-0.88062-1.7013-1.5618-2.791-2.0039-1.1069-0.44901-2.3421-0.65039-3.6836-0.65039zm-132.01 0.23633c-0.57602 0-1.185 0.23165-1.6133 0.58203-0.65025 0.53202-0.85547 1.3482-0.85547 1.9726v14.758c0 0.26458 0.05406 0.58273 0.20508 0.88476l0.04492 0.0879 0.05469 0.082c0.24757 0.37137 0.57404 0.5761 0.83789 0.69336l0.0918 0.041 0.0957 0.0293c0.18926 0.0568 0.35098 0.0811 0.51758 0.10351 0.26108 0.0464 0.50369 0.0625 0.75781 0.0625 0.26033 0 0.50413-0.0148 0.77148-0.0625 0.16597-0.0224 0.32705-0.0469 0.51562-0.10351l0.06836-0.0195 0.06445-0.0274c0.26904-0.10762 0.62481-0.29463 0.90625-0.7168 0.21371-0.32055 0.31641-0.72395 0.31641-1.0547v-5.5566l2.4141 6.1953-0.02734-0.0742c0.1002 0.30062 0.27969 0.5668 0.4707 0.75781l0.05078 0.0508 0.05664 0.0449c0.22288 0.18573 0.43219 0.29006 0.625 0.36718l0.06445 0.0254 0.06836 0.0215c0.19893 0.0597 0.37536 0.0891 0.55664 0.11328 0.22022 0.0294 0.43222 0.0391 0.65625 0.0391 0.19718 0 0.38687-0.0124 0.58398-0.0371 0.18892-0.0147 0.37914-0.0362 0.60352-0.10351l0.04297-0.0137 0.04297-0.0156c0.20006-0.0728 0.44346-0.19289 0.71484-0.44141 0.20745-0.18696 0.39942-0.4235 0.51172-0.68554l0.0059-0.0137 2.6895-6.6035v5.9297c0 0.33073 0.1027 0.73413 0.31641 1.0547 0.24757 0.37137 0.57404 0.5761 0.83789 0.69336l0.0918 0.041 0.09766 0.0293c0.19635 0.0589 0.36202 0.0847 0.53516 0.10742 0.24923 0.0416 0.49023 0.0586 0.73828 0.0586 0.25978 0 0.50134-0.0141 0.77734-0.0664 0.16011-0.0221 0.31593-0.045 0.49805-0.0996l0.06836-0.0195 0.06445-0.0274c0.26904-0.10762 0.62481-0.29463 0.90625-0.7168 0.21371-0.32055 0.31641-0.72395 0.31641-1.0547v-14.758c0-0.31767-0.04523-0.66664-0.19922-1.0371-0.11144-0.27378-0.30023-0.55299-0.54688-0.79688-0.25939-0.26594-0.59061-0.46548-0.91797-0.56836-0.27301-0.0932-0.5584-0.15234-0.83008-0.15234h-1.3516c-0.31712 0-0.64271 0.041-0.97266 0.13867-0.36705 0.1007-0.71581 0.28029-1.002 0.51172-0.2991 0.24059-0.5242 0.51957-0.70312 0.80859-0.18009 0.29091-0.31818 0.59451-0.4375 0.91992l0.02539-0.0644-3.373 8.0762-3.2383-8.0918 0.0332 0.0879c-0.10416-0.31249-0.23496-0.61101-0.40625-0.89649-0.20131-0.33552-0.4764-0.64517-0.80273-0.88086s-0.69685-0.39589-1.0664-0.48828c-0.35949-0.0899-0.71432-0.12109-1.0781-0.12109zm89.631 1.0273 0.0625 0.125c-6e-3 -0.0135-0.0286-0.0253-0.0352-0.0391-0.0157-0.0316-9e-3 -0.0535-0.0273-0.0859zm0.26953 0.84375 2e-3 0.0137c-1.7e-4 -1e-3 -2e-3 -3e-3 -2e-3 -4e-3 -4.6e-4 -3e-3 4.8e-4 -6e-3 0-0.01zm-68.283 0.17383c-0.29709 0-0.25573-0.13571 0.07617 0.16602l0.05469 0.0508c0.33418 0.33418 0.20508 0.43258 0.20508 0.15625 0-0.27884 0.12737-0.16242-0.21875 0.16797-0.33081 0.31577-0.39128 0.17968-0.0918 0.17968 0.27358 0 0.16665 0.0864-0.13476-0.19531-0.16568-0.20839-0.20117-0.39364-0.20117-0.17773 0 0.27883-0.12737 0.16242 0.21875-0.16797 0.33081-0.31578 0.39128-0.17969 0.0918-0.17969zm83.195 0c-0.29708 0-0.25572-0.13571 0.0762 0.16602l0.0547 0.0508c0.33418 0.33418 0.20313 0.43258 0.20313 0.15625 0-0.27884 0.12932-0.16242-0.2168 0.16797-0.33081 0.31577-0.39127 0.17968-0.0918 0.17968 0.27358 0 0.16665 0.0864-0.13476-0.19531-0.16568-0.20839-0.20117-0.39364-0.20117-0.17773 0 0.27883-0.12738 0.16242 0.21875-0.16797 0.33081-0.31578 0.39127-0.17969 0.0918-0.17969zm-15.15 1.8633-0.0312 0.0625c9e-3 -0.0162 5e-3 -0.0289 0.0137-0.0449 3e-3 -7e-3 0.0142-0.0109 0.0176-0.0176zm47.377 0.2207 0.0156 0.0234c-3e-3 -4e-3 -7e-3 -6e-3 -0.01-0.01s-3e-3 -0.01-6e-3 -0.0137zm-71.461 0.5 0.02734 0.0117c-0.0053-3e-3 -0.01224-1e-3 -0.01758-4e-3 -0.0036-2e-3 -0.0062-6e-3 -0.0098-8e-3zm27.994 0.0156c-3e-3 1e-3 -5e-3 4e-3 -8e-3 6e-3 -2e-3 1e-3 -5e-3 7e-4 -8e-3 2e-3zm-4.5859 0.0234-0.0918 0.0586c0.018-0.0103 0.0234-0.032 0.041-0.043 0.0159-0.01 0.0353-5e-3 0.0508-0.0156zm42.9 0.0938c0.74178 0 1.2609 0.13075 1.6074 0.30859 0.39838 0.20443 0.66392 0.4492 0.88868 0.79883l8e-3 0.01 8e-3 0.0117c0.24977 0.37466 0.44704 0.84848 0.57031 1.4648l4e-3 0.02c0.13913 0.65392 0.21289 1.3859 0.21289 2.1992 0 0.76737-0.0726 1.4772-0.21289 2.1367-0.12951 0.6087-0.33445 1.1014-0.60547 1.5176-0.24728 0.37208-0.54676 0.64962-0.9707 0.88086-0.35006 0.19094-0.85808 0.32617-1.5957 0.32617-0.75987 0-1.2881-0.13067-1.6328-0.30078-0.38766-0.2035-0.65526-0.44376-0.8789-0.78515-0.24758-0.3861-0.44563-0.87393-0.57032-1.5039-0.13386-0.67635-0.20507-1.4425-0.20507-2.2969 0-0.74681 0.0736-1.4422 0.21289-2.0918 0.13625-0.60514 0.34266-1.0872 0.60546-1.4805 0.25866-0.37512 0.56743-0.65892 0.99024-0.89258 0.33944-0.18758 0.83685-0.32226 1.5644-0.32226zm13.307 0.24804 0.18164 0.28321c-0.0321-0.0642-0.0893-0.068-0.12695-0.125-0.0332-0.0529-0.0148-0.10833-0.0547-0.15821zm-116.65 0.7793c-0.0049 1e-3 -0.0088 6e-3 -0.01367 8e-3 -0.01016 3e-3 -0.0211 7.4e-4 -0.03125 4e-3zm9.9219 0c-0.0049 1e-3 -0.0088 6e-3 -0.01367 8e-3 -0.01016 3e-3 -0.0211 7.4e-4 -0.03125 4e-3zm73.271 0c-5e-3 2e-3 -0.0102 6e-3 -0.0156 8e-3 -9e-3 3e-3 -0.0184 1e-3 -0.0273 4e-3zm-14.34 0.38477 0.0156 8e-3c-3e-3 -2e-3 -7e-3 -4.4e-4 -0.01-2e-3 -2e-3 -1e-3 -3e-3 -5e-3 -6e-3 -6e-3zm51.691 0 0.0156 8e-3c-3e-3 -2e-3 -7e-3 -4.4e-4 -0.01-2e-3 -2e-3 -1e-3 -3e-3 -5e-3 -6e-3 -6e-3zm-116.73 2e-3 0.04492 0.0215c-0.0049-2e-3 -0.01076-4e-3 -0.01563-6e-3 -0.01048-5e-3 -0.01874-0.0109-0.0293-0.0156zm9.9219 0 0.04492 0.0215c-0.0049-2e-3 -0.01076-4e-3 -0.01563-6e-3 -0.01048-5e-3 -0.01874-0.0109-0.0293-0.0156zm-7.8184 1.5703-0.01367 0.10938c0.0042-0.0275 0.0023-0.0529 0.0059-0.0801 8.05e-4 -9e-3 0.0071-0.0206 0.0078-0.0293zm-0.17578 0.64453c-0.0028 0.0252-0.01128 0.049-0.01367 0.0742 0.0056-0.0141 0.0261-0.0312 0.03125-0.0449l-0.04102 0.0957c-0.0115 0.13657-0.08008 0.26327-0.08008 0.40039 0 0.66367 0.10368 1.3147 0.37109 1.9199l0.0118 0.0274c0.24038 0.51682 0.57113 0.99213 0.98047 1.3887 0.36721 0.35574 0.78244 0.66071 1.2324 0.9082l0.01953 0.0117 0.02148 0.01c0.38006 0.19466 0.76674 0.3728 1.1582 0.53125l0.0118 4e-3c0.35369 0.13984 0.69483 0.27481 1.0234 0.40625l0.01563 8e-3 0.01563 6e-3c0.24385 0.0914 0.44563 0.19062 0.60938 0.29296 0.06747 0.0422 0.07502 0.0613 0.10547 0.0899-0.0427 0.0221-0.07426 0.0441-0.16602 0.0684-0.1248 0.033-0.30324 0.0586-0.53711 0.0586-0.33581 0-0.58513-0.0405-0.75781-0.0918-0.27694-0.0913-0.5027-0.18207-0.67188-0.26562l-0.0059-4e-3c-0.23321-0.1205-0.4275-0.225-0.57227-0.31054l0.07422 0.0449c-0.28008-0.18672-0.51291-0.43945-1.2773-0.43945-0.30164 0-0.6067 0.12489-0.87305 0.26562-0.04245-0.50049-0.09026-1.0047-0.30664-1.4648-0.23623-0.51788-0.56794-0.99436-0.98438-1.3848-0.38256-0.35865-0.81949-0.65779-1.293-0.89453-0.38053-0.19437-0.77159-0.36986-1.1699-0.52734l0.01367 4e-3c-0.35324-0.14298-0.70347-0.28124-1.0488-0.41601-0.26061-0.10171-0.4731-0.20975-0.64062-0.31446-0.01552-0.01-0.01365-0.0142-0.02734-0.0234 0.08279-0.0206 0.18963-0.0449 0.37695-0.0449 0.26476 0 0.45144 0.0338 0.56445 0.0684l0.0059 2e-3 0.005693 0.00103c0.24329 0.0723 0.43109 0.14463 0.55664 0.20508l0.02344 0.0117 0.02148 0.01c0.17173 0.0763 0.28834 0.14027 0.32813 0.16602 0.24784 0.16036 0.46437 0.39258 1.1855 0.39258 0.31419 0 0.67156-0.0947 0.95312-0.26368l0.08984-0.0547 0.08398-0.0684c0.30136-0.24109 0.45294-0.52768 0.55273-0.77344 0.01346-0.0309 0.01188-0.0556 0.02344-0.0859zm16.553 0.40235c0.5382 0 0.65924 0.12505 0.81055 0.27148h-1.625c0.06552-0.0496 0.1088-0.11007 0.19726-0.1543 0.12928-0.0646 0.31235-0.11718 0.61719-0.11718zm109.19 0c0.53819 0 0.65923 0.12505 0.81054 0.27148h-1.625c0.0656-0.0498 0.10856-0.10994 0.19727-0.1543 0.12928-0.0646 0.31235-0.11718 0.61719-0.11718zm-113.57 0.0469c-4.12e-4 1e-3 4.12e-4 3e-3 0 4e-3 -7.5e-4 2e-3 -0.0032 4e-3 -0.0039 6e-3zm16.783 0.11328c0.21984 0 0.40411 0.0486 0.69336 0.25391l0.02344 0.016c0.24924 0.17012 0.58909 0.54428 0.91992 0.9043v3.2129c-0.14477 0.16469-0.30117 0.35894-0.42578 0.48047-0.23296 0.21898-0.44153 0.38137-0.60742 0.49023-0.15496 0.1017-0.27228 0.15277-0.35156 0.17579l-0.0078 2e-3 -0.0059 2e-3c-0.0946 0.0284-0.19764 0.0449-0.32617 0.0449-0.28654 0-0.37135-0.0506-0.41992-0.084-0.1431-0.10542-0.25553-0.22805-0.36328-0.43359-0.12949-0.2557-0.23516-0.57148-0.30274-0.96485-0.06868-0.45102-0.10352-0.91484-0.10352-1.3945 0-0.42395 0.03954-0.83715 0.11719-1.2441 0.07817-0.36989 0.18922-0.66816 0.32422-0.91602 0.12114-0.20924 0.24398-0.33929 0.40234-0.44726 0.07243-0.0494 0.16468-0.0977 0.43359-0.0977zm-18.658 3.4102 0.01172 0.0293c-0.0019-4e-3 -0.0059-7e-3 -0.0078-0.0117-0.0026-6e-3 -0.0013-0.012-0.0039-0.0176zm-12.119 0.32226 0.02344 0.0312c-0.0053-7e-3 -0.01417-0.0104-0.01953-0.0176-3e-3 -4e-3 -8.93e-4 -0.01-0.0039-0.0137zm9.9219 0 0.02344 0.0312c-0.0053-7e-3 -0.01417-0.0104-0.01953-0.0176-3e-3 -4e-3 -8.93e-4 -0.01-0.0039-0.0137zm73.273 0 0.0234 0.0312c-5e-3 -7e-3 -0.0142-0.0104-0.0195-0.0176-3e-3 -4e-3 -8.9e-4 -0.01-4e-3 -0.0137zm-80.793 1.1699c-0.01404 8e-3 -0.0099 0.0206-0.02344 0.0293-0.01154 7e-3 -0.0298 4e-3 -0.04102 0.0117zm-2.1562 2.0742-0.02148 0.043c0.0039-7e-3 2e-3 -0.0159 0.0059-0.0234 0.0037-8e-3 0.01199-0.012 0.01563-0.0195zm9.9219 0-0.02148 0.043c0.0039-7e-3 2e-3 -0.0159 0.0059-0.0234 0.0037-8e-3 0.01199-0.012 0.01562-0.0195zm73.273 0-0.0215 0.043c4e-3 -7e-3 2e-3 -0.0159 6e-3 -0.0234 4e-3 -8e-3 0.012-0.012 0.0156-0.0195zm-81.312 0.54883-0.0098 0.0215c0.0017-4e-3 2.36e-4 -8e-3 2e-3 -0.0117 0.0018-4e-3 6e-3 -6e-3 0.0078-0.01z" color="#000000" color-rendering="auto" dominant-baseline="auto" fill="#f0f0f0" image-rendering="auto" shape-rendering="auto" solid-color="#000000" style="font-feature-settings:normal;font-variant-alternates:normal;font-variant-caps:normal;font-variant-ligatures:normal;font-variant-numeric:normal;font-variant-position:normal;isolation:auto;mix-blend-mode:normal;shape-padding:0;text-decoration-color:#000000;text-decoration-line:none;text-decoration-style:solid;text-indent:0;text-orientation:mixed;text-transform:none;white-space:normal"/>
<g fill="#f00000" stroke-width=".26458" aria-label="Missed This One">
<path d="m31.603 291.46q0 0.0992-0.04961 0.17364-0.04961 0.0744-0.17363 0.12402-0.12402 0.0372-0.32246 0.062-0.18604 0.0372-0.49609 0.0372-0.28525 0-0.49609-0.0372-0.19844-0.0248-0.32246-0.062-0.11162-0.0496-0.16123-0.12402-0.04961-0.0744-0.04961-0.17364v-13.977h-0.02481l-5.7175 14.039q-0.03721 0.0868-0.11162 0.14882-0.06201 0.062-0.19844 0.11162-0.12402 0.0372-0.31006 0.0496-0.17363 0.0248-0.42168 0.0248-0.26045 0-0.44648-0.0248t-0.31006-0.062q-0.12402-0.0496-0.19844-0.11162-0.06201-0.062-0.08682-0.13642l-5.4694-14.039h-0.0124v13.977q0 0.0992-0.04961 0.17364-0.04961 0.0744-0.17363 0.12402-0.12402 0.0372-0.32246 0.062-0.19844 0.0372-0.5085 0.0372-0.29766 0-0.49609-0.0372-0.19844-0.0248-0.32246-0.062-0.11162-0.0496-0.16123-0.12402-0.03721-0.0744-0.03721-0.17364v-14.759q0-0.52089 0.27285-0.74414 0.27285-0.22324 0.60771-0.22324h1.2898q0.39688 0 0.69453 0.0744 0.29766 0.0744 0.5209 0.23564 0.22324 0.16123 0.37207 0.40928 0.14883 0.24804 0.26045 0.58291l4.6509 11.621h0.06201l4.8369-11.584q0.13643-0.37208 0.29766-0.63252 0.16123-0.26045 0.34727-0.40928 0.19844-0.16123 0.43408-0.22324 0.23564-0.0744 0.5457-0.0744h1.3519q0.18604 0 0.34727 0.062 0.17363 0.0496 0.28525 0.17364 0.12402 0.11162 0.19844 0.29765 0.07441 0.17364 0.07441 0.43408z"/>
<path d="m37.692 291.47q0 0.0992-0.04961 0.17363-0.04961 0.062-0.16123 0.11162-0.11162 0.0496-0.31006 0.0744-0.19844 0.0248-0.5085 0.0248-0.29766 0-0.49609-0.0248-0.19844-0.0248-0.32246-0.0744-0.11162-0.0496-0.16123-0.11162-0.03721-0.0744-0.03721-0.17363v-11.162q0-0.0868 0.03721-0.16123 0.04961-0.0744 0.16123-0.12403 0.12402-0.0496 0.32246-0.0744 0.19844-0.0248 0.49609-0.0248 0.31006 0 0.5085 0.0248 0.19844 0.0248 0.31006 0.0744t0.16123 0.12403q0.04961 0.0744 0.04961 0.16123zm0.23564-14.932q0 0.71934-0.27285 0.97979-0.27285 0.26045-1.0046 0.26045-0.71934 0-0.99219-0.24805-0.26045-0.26045-0.26045-0.96738 0-0.71934 0.27285-0.97979 0.27285-0.26045 1.0046-0.26045 0.71934 0 0.97978 0.26045 0.27285 0.24805 0.27285 0.95498z"/>
<path d="m48.507 288.44q0 0.85576-0.32246 1.5255-0.31006 0.66973-0.89297 1.1286-0.58291 0.45889-1.3891 0.69453-0.80615 0.23565-1.7735 0.23565-0.59531 0-1.141-0.0992-0.5333-0.0868-0.96738-0.22324-0.42168-0.14883-0.71934-0.29766-0.29766-0.16123-0.43408-0.28525-0.13643-0.12403-0.19844-0.34727-0.06201-0.22324-0.06201-0.60771 0-0.23565 0.02481-0.39688 0.0248-0.16123 0.06201-0.26045 0.03721-0.0992 0.09922-0.13642 0.07441-0.0496 0.16123-0.0496 0.13642 0 0.39688 0.17363 0.27285 0.16123 0.65732 0.35967 0.39688 0.19844 0.93018 0.37207 0.5333 0.16123 1.2278 0.16123 0.5209 0 0.94258-0.11162 0.42168-0.11162 0.73174-0.32246 0.31006-0.22324 0.47129-0.55811 0.17363-0.33486 0.17363-0.79375 0-0.47129-0.24805-0.79375-0.23564-0.32246-0.63252-0.57051-0.39688-0.24804-0.89297-0.43408-0.49609-0.19844-1.0294-0.40927-0.5209-0.21084-1.0294-0.47129-0.49609-0.27286-0.89297-0.65733t-0.64492-0.91777q-0.23564-0.5333-0.23564-1.2774 0-0.65733 0.24805-1.2526 0.26045-0.60771 0.76895-1.0542 0.5085-0.45889 1.265-0.73174 0.76894-0.27285 1.7859-0.27285 0.44648 0 0.89297 0.0744t0.80615 0.18603q0.35967 0.11162 0.60772 0.24805 0.26045 0.12402 0.38447 0.22324 0.13643 0.0992 0.17363 0.17363 0.04961 0.0744 0.06201 0.17364 0.02481 0.0868 0.03721 0.22324 0.02481 0.13642 0.02481 0.33486 0 0.21084-0.02481 0.37207-0.0124 0.14883-0.06201 0.24805-0.03721 0.0992-0.09922 0.14883-0.06201 0.0372-0.13643 0.0372-0.11162 0-0.32246-0.13642-0.21084-0.13643-0.5457-0.28526-0.33486-0.16123-0.79375-0.29765-0.44648-0.13643-1.0294-0.13643-0.5209 0-0.91777 0.12402-0.39688 0.11163-0.65732 0.33487-0.24805 0.21084-0.38447 0.50849-0.12402 0.29766-0.12402 0.64493 0 0.48369 0.24805 0.81855 0.24805 0.32246 0.64492 0.57051t0.90537 0.44648q0.5085 0.19844 1.0294 0.40928 0.5333 0.21084 1.0418 0.47129 0.5209 0.26045 0.91777 0.63252t0.63252 0.89297q0.24805 0.5209 0.24805 1.2402z"/>
<path d="m58.429 288.44q0 0.85576-0.32246 1.5255-0.31006 0.66973-0.89297 1.1286-0.58291 0.45889-1.3891 0.69453-0.80615 0.23565-1.7735 0.23565-0.59531 0-1.141-0.0992-0.5333-0.0868-0.96738-0.22324-0.42168-0.14883-0.71934-0.29766-0.29766-0.16123-0.43408-0.28525-0.13643-0.12403-0.19844-0.34727-0.06201-0.22324-0.06201-0.60771 0-0.23565 0.02481-0.39688 0.0248-0.16123 0.06201-0.26045 0.03721-0.0992 0.09922-0.13642 0.07441-0.0496 0.16123-0.0496 0.13642 0 0.39688 0.17363 0.27285 0.16123 0.65732 0.35967 0.39688 0.19844 0.93018 0.37207 0.5333 0.16123 1.2278 0.16123 0.5209 0 0.94258-0.11162 0.42168-0.11162 0.73174-0.32246 0.31006-0.22324 0.47129-0.55811 0.17363-0.33486 0.17363-0.79375 0-0.47129-0.24805-0.79375-0.23564-0.32246-0.63252-0.57051-0.39688-0.24804-0.89297-0.43408-0.49609-0.19844-1.0294-0.40927-0.5209-0.21084-1.0294-0.47129-0.49609-0.27286-0.89297-0.65733t-0.64492-0.91777q-0.23564-0.5333-0.23564-1.2774 0-0.65733 0.24805-1.2526 0.26045-0.60771 0.76895-1.0542 0.5085-0.45889 1.265-0.73174 0.76894-0.27285 1.7859-0.27285 0.44648 0 0.89297 0.0744t0.80615 0.18603q0.35967 0.11162 0.60772 0.24805 0.26045 0.12402 0.38447 0.22324 0.13643 0.0992 0.17363 0.17363 0.04961 0.0744 0.06201 0.17364 0.02481 0.0868 0.03721 0.22324 0.02481 0.13642 0.02481 0.33486 0 0.21084-0.02481 0.37207-0.0124 0.14883-0.06201 0.24805-0.03721 0.0992-0.09922 0.14883-0.06201 0.0372-0.13643 0.0372-0.11162 0-0.32246-0.13642-0.21084-0.13643-0.5457-0.28526-0.33486-0.16123-0.79375-0.29765-0.44648-0.13643-1.0294-0.13643-0.5209 0-0.91777 0.12402-0.39688 0.11163-0.65732 0.33487-0.24805 0.21084-0.38447 0.50849-0.12402 0.29766-0.12402 0.64493 0 0.48369 0.24805 0.81855 0.24805 0.32246 0.64492 0.57051t0.90537 0.44648q0.5085 0.19844 1.0294 0.40928 0.5333 0.21084 1.0418 0.47129 0.5209 0.26045 0.91777 0.63252t0.63252 0.89297q0.24805 0.5209 0.24805 1.2402z"/>
<path d="m70.869 285.41q0 0.48369-0.24805 0.69453-0.23564 0.19844-0.5457 0.19844h-7.3174q0 0.93017 0.18604 1.6743 0.18604 0.74414 0.62012 1.2774t1.1286 0.81855q0.69453 0.28526 1.6991 0.28526 0.79375 0 1.4139-0.12403 0.62012-0.13642 1.0666-0.29765 0.45889-0.16124 0.74414-0.28526 0.29766-0.13642 0.44648-0.13642 0.08682 0 0.14883 0.0496 0.07442 0.0372 0.11162 0.12402 0.03721 0.0868 0.04961 0.24805 0.02481 0.14882 0.02481 0.37207 0 0.16123-0.0124 0.28525-0.0124 0.11162-0.03721 0.21084-0.0124 0.0868-0.06201 0.16123-0.03721 0.0744-0.11162 0.14883-0.06201 0.062-0.39688 0.22324-0.33486 0.14883-0.86816 0.29766-0.5333 0.14882-1.2402 0.26045-0.69453 0.12402-1.4883 0.12402-1.3767 0-2.4185-0.38447-1.0294-0.38448-1.7363-1.141-0.70693-0.75654-1.0666-1.8976-0.35967-1.141-0.35967-2.6541 0-1.4387 0.37207-2.5797 0.37207-1.1534 1.0666-1.9472 0.70693-0.80616 1.6991-1.2278 0.99219-0.43408 2.22-0.43408 1.3146 0 2.2324 0.42168 0.93018 0.42168 1.5255 1.141 0.59531 0.70693 0.86816 1.6743 0.28525 0.95498 0.28525 2.0464zm-2.0588-0.60771q0.03721-1.6123-0.71934-2.5301-0.74414-0.91778-2.22-0.91778-0.75654 0-1.3271 0.28526-0.57051 0.28525-0.95498 0.75654t-0.59531 1.1038q-0.21084 0.62012-0.23564 1.3022z"/>
<path d="m83.556 291.47q0 0.0992-0.04961 0.17363-0.03721 0.0744-0.14883 0.12402-0.09922 0.0372-0.27285 0.062-0.17363 0.0248-0.42168 0.0248-0.26045 0-0.43408-0.0248-0.17363-0.0248-0.28525-0.062-0.11162-0.0496-0.16123-0.12402-0.04961-0.0744-0.04961-0.17363v-1.4759q-0.88057 0.95498-1.8355 1.4883-0.94258 0.5333-2.0712 0.5333-1.2278 0-2.096-0.47129-0.86816-0.48369-1.4139-1.2898-0.5333-0.81856-0.78135-1.91-0.24805-1.1038-0.24805-2.3192 0-1.4387 0.31006-2.5921 0.31006-1.1658 0.91777-1.9844 0.60772-0.81855 1.5007-1.2526 0.90537-0.44649 2.0836-0.44649 0.97978 0 1.7859 0.43408 0.81855 0.42168 1.6123 1.2526v-6.4864q0-0.0868 0.03721-0.16123 0.04961-0.0868 0.17363-0.12402 0.12402-0.0496 0.31006-0.0744 0.19844-0.0372 0.49609-0.0372 0.31006 0 0.5085 0.0372 0.19844 0.0248 0.31006 0.0744 0.11162 0.0372 0.16123 0.12402 0.06201 0.0744 0.06201 0.16123zm-2.0588-7.8507q-0.83096-1.0294-1.6123-1.5627-0.76895-0.54571-1.6123-0.54571-0.78135 0-1.3271 0.37207t-0.89297 0.97979q-0.33486 0.60771-0.49609 1.3767-0.14883 0.76894-0.14883 1.5627 0 0.84336 0.12402 1.6495 0.13643 0.80615 0.45889 1.4387 0.32246 0.62012 0.85576 1.0046 0.5333 0.37207 1.3395 0.37207 0.40928 0 0.78135-0.11162 0.38447-0.11162 0.78135-0.37207t0.83096-0.66973q0.43408-0.42168 0.91777-1.0294z"/>
<path d="m103.39 276.65q0 0.23564-0.0248 0.40927-0.0248 0.17364-0.0868 0.28526-0.0496 0.0992-0.13642 0.14882-0.0744 0.0496-0.17364 0.0496h-4.5144v13.915q0 0.0992-0.04961 0.17364-0.04961 0.0744-0.17363 0.12402-0.12402 0.0372-0.33486 0.062-0.19844 0.0372-0.5085 0.0372-0.29766 0-0.5085-0.0372-0.21084-0.0248-0.33486-0.062-0.12402-0.0496-0.17363-0.12402-0.04961-0.0744-0.04961-0.17364v-13.915h-4.5145q-0.09922 0-0.18604-0.0496-0.07441-0.0496-0.12402-0.14882-0.04961-0.11162-0.08682-0.28526-0.0248-0.17363-0.0248-0.40927 0-0.23565 0.0248-0.40928 0.03721-0.18604 0.08682-0.29766t0.12402-0.16123q0.08682-0.0496 0.18604-0.0496h11.162q0.0992 0 0.17364 0.0496 0.0868 0.0496 0.13642 0.16123 0.062 0.11162 0.0868 0.29766 0.0248 0.17363 0.0248 0.40928z"/>
<path d="m115.11 291.47q0 0.0992-0.0496 0.17363-0.0496 0.062-0.16123 0.11162-0.11162 0.0496-0.31006 0.0744t-0.49609 0.0248q-0.31006 0-0.5085-0.0248t-0.31006-0.0744-0.16123-0.11162q-0.0496-0.0744-0.0496-0.17363v-6.536q0-0.95498-0.14883-1.5379-0.14882-0.58291-0.43408-1.0046-0.28525-0.42168-0.74414-0.64492-0.44648-0.22324-1.0418-0.22324-0.76894 0-1.5379 0.5457-0.76894 0.5457-1.6123 1.5999v7.8011q0 0.0992-0.0496 0.17363-0.0496 0.062-0.16123 0.11162-0.11162 0.0496-0.31006 0.0744t-0.5085 0.0248q-0.29765 0-0.49609-0.0248t-0.32246-0.0744q-0.11162-0.0496-0.16123-0.11162-0.0372-0.0744-0.0372-0.17363v-16.57q0-0.0992 0.0372-0.17363 0.0496-0.0744 0.16123-0.12402 0.12402-0.0496 0.32246-0.0744t0.49609-0.0248q0.31006 0 0.5085 0.0248t0.31006 0.0744 0.16123 0.12402q0.0496 0.0744 0.0496 0.17363v6.6849q0.88056-0.93018 1.7735-1.3767 0.89297-0.45889 1.7983-0.45889 1.1162 0 1.8728 0.38447 0.76894 0.37207 1.2402 1.0046t0.66973 1.4883q0.21084 0.84336 0.21084 2.0464z"/>
<path d="m120.89 291.47q0 0.0992-0.0496 0.17363-0.0496 0.062-0.16123 0.11162-0.11162 0.0496-0.31006 0.0744-0.19843 0.0248-0.50849 0.0248-0.29766 0-0.49609-0.0248-0.19844-0.0248-0.32247-0.0744-0.11162-0.0496-0.16123-0.11162-0.0372-0.0744-0.0372-0.17363v-11.162q0-0.0868 0.0372-0.16123 0.0496-0.0744 0.16123-0.12403 0.12403-0.0496 0.32247-0.0744 0.19843-0.0248 0.49609-0.0248 0.31006 0 0.50849 0.0248 0.19844 0.0248 0.31006 0.0744t0.16123 0.12403q0.0496 0.0744 0.0496 0.16123zm0.23565-14.932q0 0.71934-0.27285 0.97979-0.27286 0.26045-1.0046 0.26045-0.71934 0-0.99219-0.24805-0.26045-0.26045-0.26045-0.96738 0-0.71934 0.27285-0.97979t1.0046-0.26045q0.71934 0 0.97979 0.26045 0.27285 0.24805 0.27285 0.95498z"/>
<path d="m131.7 288.44q0 0.85576-0.32247 1.5255-0.31005 0.66973-0.89296 1.1286-0.58291 0.45889-1.3891 0.69453-0.80615 0.23565-1.7735 0.23565-0.59531 0-1.141-0.0992-0.5333-0.0868-0.96738-0.22324-0.42168-0.14883-0.71934-0.29766-0.29765-0.16123-0.43408-0.28525-0.13642-0.12403-0.19844-0.34727-0.062-0.22324-0.062-0.60771 0-0.23565 0.0248-0.39688t0.062-0.26045q0.0372-0.0992 0.0992-0.13642 0.0744-0.0496 0.16123-0.0496 0.13642 0 0.39687 0.17363 0.27285 0.16123 0.65733 0.35967 0.39687 0.19844 0.93017 0.37207 0.5333 0.16123 1.2278 0.16123 0.52089 0 0.94257-0.11162t0.73174-0.32246q0.31006-0.22324 0.47129-0.55811 0.17363-0.33486 0.17363-0.79375 0-0.47129-0.24804-0.79375-0.23565-0.32246-0.63252-0.57051-0.39688-0.24804-0.89297-0.43408-0.4961-0.19844-1.0294-0.40927-0.52089-0.21084-1.0294-0.47129-0.49609-0.27286-0.89297-0.65733-0.39687-0.38447-0.64492-0.91777-0.23565-0.5333-0.23565-1.2774 0-0.65733 0.24805-1.2526 0.26045-0.60771 0.76895-1.0542 0.50849-0.45889 1.265-0.73174 0.76894-0.27285 1.7859-0.27285 0.44649 0 0.89297 0.0744 0.44649 0.0744 0.80615 0.18603 0.35967 0.11162 0.60772 0.24805 0.26045 0.12402 0.38447 0.22324 0.13643 0.0992 0.17363 0.17363 0.0496 0.0744 0.062 0.17364 0.0248 0.0868 0.0372 0.22324 0.0248 0.13642 0.0248 0.33486 0 0.21084-0.0248 0.37207-0.0124 0.14883-0.062 0.24805-0.0372 0.0992-0.0992 0.14883-0.062 0.0372-0.13642 0.0372-0.11162 0-0.32246-0.13642-0.21084-0.13643-0.54571-0.28526-0.33486-0.16123-0.79375-0.29765-0.44648-0.13643-1.0294-0.13643-0.5209 0-0.91778 0.12402-0.39687 0.11163-0.65732 0.33487-0.24805 0.21084-0.38447 0.50849-0.12403 0.29766-0.12403 0.64493 0 0.48369 0.24805 0.81855 0.24805 0.32246 0.64492 0.57051 0.39688 0.24805 0.90537 0.44648 0.5085 0.19844 1.0294 0.40928 0.5333 0.21084 1.0418 0.47129 0.52089 0.26045 0.91777 0.63252 0.39687 0.37207 0.63252 0.89297 0.24805 0.5209 0.24805 1.2402z"/>
<path d="m154.05 283.57q0 1.9472-0.45888 3.5099-0.45889 1.5627-1.3767 2.6665-0.90537 1.0914-2.282 1.6867-1.3767 0.58291-3.2122 0.58291-1.8107 0-3.1378-0.5333-1.3146-0.5457-2.1828-1.5751-0.85576-1.0294-1.2774-2.5549t-0.42168-3.5099q0-1.8976 0.45889-3.4478 0.45889-1.5503 1.3767-2.6293 0.91777-1.0914 2.2944-1.6743 1.3767-0.59531 3.2122-0.59531 1.7735 0 3.0882 0.5333t2.1828 1.5627q0.88056 1.017 1.3022 2.5301 0.43408 1.5007 0.43408 3.4478zm-2.2448 0.14883q0-1.3643-0.24805-2.5301-0.23564-1.1782-0.80615-2.034-0.55811-0.86817-1.5007-1.3519-0.94258-0.48369-2.3316-0.48369-1.3891 0-2.3316 0.5209-0.94258 0.5209-1.5379 1.3891-0.58291 0.86817-0.84335 2.034-0.24805 1.1534-0.24805 2.4309 0 1.4139 0.23564 2.6045 0.23565 1.1906 0.79375 2.0588 0.55811 0.85576 1.4883 1.3394 0.94258 0.47129 2.3564 0.47129 1.4015 0 2.3564-0.5209 0.95499-0.5209 1.5379-1.4015 0.58291-0.89297 0.83095-2.0588 0.24805-1.1658 0.24805-2.4681z"/>
<path d="m166.8 291.47q0 0.0992-0.0496 0.17363-0.0496 0.062-0.16123 0.11162-0.11163 0.0496-0.31006 0.0744-0.19844 0.0248-0.4961 0.0248-0.31005 0-0.50849-0.0248t-0.31006-0.0744-0.16123-0.11162q-0.0496-0.0744-0.0496-0.17363v-6.536q0-0.95498-0.14883-1.5379t-0.43408-1.0046-0.74414-0.64492q-0.44649-0.22324-1.0418-0.22324-0.76894 0-1.5379 0.5457-0.76894 0.5457-1.6123 1.5999v7.8011q0 0.0992-0.0496 0.17363-0.0496 0.062-0.16123 0.11162-0.11162 0.0496-0.31006 0.0744t-0.5085 0.0248q-0.29765 0-0.49609-0.0248t-0.32246-0.0744q-0.11162-0.0496-0.16123-0.11162-0.0372-0.0744-0.0372-0.17363v-11.162q0-0.0992 0.0372-0.16123 0.0372-0.0744 0.14882-0.12403 0.11163-0.062 0.28526-0.0744 0.17363-0.0248 0.45889-0.0248 0.27285 0 0.44648 0.0248 0.18603 0.0124 0.28525 0.0744 0.0992 0.0496 0.13643 0.12403 0.0496 0.062 0.0496 0.16123v1.4759q0.94258-1.0542 1.8728-1.5379 0.94258-0.49609 1.8976-0.49609 1.1162 0 1.8728 0.38447 0.76894 0.37207 1.2402 1.0046t0.66973 1.4883q0.21084 0.84336 0.21084 2.034z"/>
<path d="m180.06 285.41q0 0.48369-0.24805 0.69453-0.23564 0.19844-0.5457 0.19844h-7.3174q0 0.93017 0.18603 1.6743 0.18604 0.74414 0.62012 1.2774t1.1286 0.81855q0.69453 0.28526 1.6991 0.28526 0.79375 0 1.4139-0.12403 0.62012-0.13642 1.0666-0.29765 0.45889-0.16124 0.74414-0.28526 0.29766-0.13642 0.44649-0.13642 0.0868 0 0.14882 0.0496 0.0744 0.0372 0.11163 0.12402 0.0372 0.0868 0.0496 0.24805 0.0248 0.14882 0.0248 0.37207 0 0.16123-0.0124 0.28525-0.0124 0.11162-0.0372 0.21084-0.0124 0.0868-0.062 0.16123-0.0372 0.0744-0.11162 0.14883-0.062 0.062-0.39688 0.22324-0.33486 0.14883-0.86816 0.29766-0.5333 0.14882-1.2402 0.26045-0.69453 0.12402-1.4883 0.12402-1.3767 0-2.4184-0.38447-1.0294-0.38448-1.7363-1.141-0.70694-0.75654-1.0666-1.8976-0.35967-1.141-0.35967-2.6541 0-1.4387 0.37207-2.5797 0.37207-1.1534 1.0666-1.9472 0.70693-0.80616 1.6991-1.2278 0.99219-0.43408 2.22-0.43408 1.3146 0 2.2324 0.42168 0.93018 0.42168 1.5255 1.141 0.59531 0.70693 0.86817 1.6743 0.28525 0.95498 0.28525 2.0464zm-2.0588-0.60771q0.0372-1.6123-0.71934-2.5301-0.74414-0.91778-2.22-0.91778-0.75654 0-1.327 0.28526-0.5705 0.28525-0.95498 0.75654-0.38447 0.47129-0.59531 1.1038-0.21084 0.62012-0.23564 1.3022z"/>
</g>
</g>
</svg>
