<?xml version="1.0" encoding="UTF-8" standalone="no"?>
<!-- Created with Inkscape (http://www.inkscape.org/) -->

<svg
   xmlns:dc="http://purl.org/dc/elements/1.1/"
   xmlns:cc="http://creativecommons.org/ns#"
   xmlns:rdf="http://www.w3.org/1999/02/22-rdf-syntax-ns#"
   xmlns:svg="http://www.w3.org/2000/svg"
   xmlns="http://www.w3.org/2000/svg"
   xmlns:sodipodi="http://sodipodi.sourceforge.net/DTD/sodipodi-0.dtd"
   xmlns:inkscape="http://www.inkscape.org/namespaces/inkscape"
   width="730"
   height="96"
   viewBox="0 0 193.1458 25.399998"
   version="1.1"
   id="svg4608"
   inkscape:version="0.92.2 (5c3e80d, 2017-08-06)"
   sodipodi:docname="nodoesntmatch.svg">
  <defs
     id="defs4602" />
  <sodipodi:namedview
     id="base"
     pagecolor="#ffffff"
     bordercolor="#666666"
     borderopacity="1.0"
     inkscape:pageopacity="0.0"
     inkscape:pageshadow="2"
     inkscape:zoom="0.98994949"
     inkscape:cx="179.14994"
     inkscape:cy="-54.782117"
     inkscape:document-units="mm"
     inkscape:current-layer="layer1"
     showgrid="false"
     inkscape:pagecheckerboard="true"
     units="px"
     fit-margin-top="0"
     fit-margin-left="0"
     fit-margin-right="0"
     fit-margin-bottom="0"
     inkscape:window-width="1920"
     inkscape:window-height="1017"
     inkscape:window-x="-8"
     inkscape:window-y="-8"
     inkscape:window-maximized="1" />
  <metadata
     id="metadata4605">
    <rdf:RDF>
      <cc:Work
         rdf:about="">
        <dc:format>image/svg+xml</dc:format>
        <dc:type
           rdf:resource="http://purl.org/dc/dcmitype/StillImage" />
        <dc:title></dc:title>
      </cc:Work>
    </rdf:RDF>
  </metadata>
  <g
     inkscape:label="Layer 1"
     inkscape:groupmode="layer"
     id="layer1"
     transform="translate(-5.8910934,-269.3006)">
    <text
       xml:space="preserve"
       style="font-style:normal;font-variant:normal;font-weight:normal;font-stretch:normal;font-size:19.75555611px;line-height:1.25;font-family:Calibri;-inkscape-font-specification:Calibri;letter-spacing:0px;word-spacing:0px;fill:#000000;fill-opacity:1;stroke:none;stroke-width:0.26458332"
       x="6.4144688"
       y="280.69653"
       id="text5155"><tspan
         sodipodi:role="line"
         id="tspan5153"
         x="6.4144688"
         y="297.98264"
         style="font-size:19.75555611px;stroke-width:0.26458332" /></text>
    <text
       xml:space="preserve"
       style="font-style:normal;font-variant:normal;font-weight:normal;font-stretch:normal;font-size:12.69999981px;line-height:1.25;font-family:Calibri;-inkscape-font-specification:Calibri;letter-spacing:0px;word-spacing:0px;fill:#000000;fill-opacity:1;stroke:none;stroke-width:0.26458332"
       x="7.2162771"
       y="288.18008"
       id="text5159"><tspan
         sodipodi:role="line"
         id="tspan5157"
         x="7.2162771"
         y="299.29257"
         style="stroke-width:0.26458332" /></text>
    <path
       style="color:#000000;font-style:normal;font-variant:normal;font-weight:normal;font-stretch:normal;font-size:25.39999962px;line-height:1.25;font-family:Calibri;-inkscape-font-specification:Calibri;font-variant-ligatures:normal;font-variant-position:normal;font-variant-caps:normal;font-variant-numeric:normal;font-variant-alternates:normal;font-feature-settings:normal;text-indent:0;text-align:start;text-decoration:none;text-decoration-line:none;text-decoration-style:solid;text-decoration-color:#000000;letter-spacing:0px;word-spacing:0px;text-transform:none;writing-mode:lr-tb;direction:ltr;text-orientation:mixed;dominant-baseline:auto;baseline-shift:baseline;text-anchor:start;white-space:normal;shape-padding:0;clip-rule:nonzero;display:inline;overflow:visible;visibility:visible;opacity:1;isolation:auto;mix-blend-mode:normal;color-interpolation:sRGB;color-interpolation-filters:linearRGB;solid-color:#000000;solid-opacity:1;vector-effect:none;fill:#f0f0f0;fill-opacity:1;fill-rule:nonzero;stroke:none;stroke-width:3.17499995;stroke-linecap:butt;stroke-linejoin:miter;stroke-miterlimit:4;stroke-dasharray:none;stroke-dashoffset:0;stroke-opacity:1;color-rendering:auto;image-rendering:auto;shape-rendering:auto;text-rendering:auto;enable-background:accumulate"
       d="m 115.61914,270.07422 c -0.23618,0 -0.45857,0.009 -0.68164,0.0352 h -0.006 l -0.006,0.002 c -0.21711,0.0271 -0.43628,0.0677 -0.67969,0.15625 l -0.0254,0.01 -0.0234,0.01 c -0.25211,0.10084 -0.55098,0.2639 -0.81446,0.58008 -0.26348,0.31618 -0.42969,0.79453 -0.42969,1.1914 v 0.0391 l 0.28711,5.78125 -0.002,-0.0781 c 0,0.26458 0.0521,0.58078 0.20313,0.88281 l 0.0449,0.0879 0.0547,0.084 c 0.17983,0.26975 0.42826,0.483 0.66992,0.62109 0.2982,0.1704 0.54259,0.2252 0.76172,0.26172 l 0.01,0.002 0.01,0.002 c 0.21632,0.0333 0.41933,0.043 0.62695,0.043 0.20763,0 0.40663,-0.009 0.63281,-0.0469 0.20283,-0.0338 0.43625,-0.0998 0.70508,-0.24219 0.16618,-0.0858 0.32775,-0.30912 0.49805,-0.49023 0.0468,0.16041 -0.002,0.27657 0.10351,0.46484 0.25591,0.45495 0.97541,0.98651 1.65625,1 v 4.94532 c 0,0.7399 0.0649,1.42125 0.21875,2.05859 l 0.004,0.0156 0.004,0.0156 c 0.17263,0.65601 0.46652,1.27702 0.90429,1.79687 l 0.006,0.008 0.008,0.008 c 0.44424,0.51366 1.02419,0.90193 1.65234,1.14062 l 0.0137,0.004 0.0137,0.006 c 0.63556,0.2288 1.31055,0.31641 2.02539,0.31641 0.25919,0 0.51793,-0.0172 0.77539,-0.0508 0.22308,-0.0291 0.43938,-0.0703 0.65235,-0.1211 0.25877,-0.0509 0.51626,-0.12271 0.77148,-0.23437 0.24674,-0.10795 0.50658,-0.24096 0.78321,-0.51758 0.37016,-0.37017 0.49786,-0.75216 0.57226,-1.06836 0.0792,-0.33647 0.0918,-0.62083 0.0918,-0.93359 0,-0.20763 -0.009,-0.40859 -0.0469,-0.63477 -0.0212,-0.12729 -0.0704,-0.27872 -0.12109,-0.43164 -0.0977,-0.3195 -0.44024,-0.75456 -0.90039,-1.00977 -0.25687,-0.13197 -0.53334,-0.26953 -0.80469,-0.26953 -0.39687,0 -0.69945,0.1134 -0.93359,0.23047 l 0.12109,-0.0547 c -0.0573,0.0229 -0.13996,0.0553 -0.24219,0.0918 -0.0548,0.0196 -0.13767,0.0454 -0.22265,0.0703 -0.003,4.8e-4 -0.019,-6.7e-4 -0.0234,0 -0.0378,-0.12886 -0.0996,-0.26881 -0.0996,-0.73437 v -4.63867 h 1.27734 c 0.68847,0 1.42247,-0.54707 1.68164,-1.00782 0.32384,-0.57571 0.31446,-0.99192 0.31446,-1.42187 0,-0.2128 -0.009,-0.41631 -0.043,-0.63867 -0.0331,-0.2151 -0.12752,-0.46714 -0.26172,-0.72461 -0.12276,-0.25597 -0.35308,-0.56575 -0.74609,-0.79493 -0.30156,-0.17171 -0.64825,-0.28515 -0.94532,-0.28515 h -1.27734 v -1.06641 c 0,-0.36026 -0.12528,-0.75628 -0.31641,-1.04297 -0.23431,-0.35146 -0.53734,-0.53611 -0.79297,-0.65625 -0.30263,-0.15109 -0.5691,-0.21884 -0.80273,-0.24804 -0.23327,-0.0292 -0.45604,-0.0371 -0.70508,-0.0371 -0.24253,0 -0.46413,0.008 -0.69336,0.0371 -0.23979,0.03 -0.50166,0.0919 -0.79101,0.22851 -0.26012,0.11871 -0.57515,0.3139 -0.81641,0.67578 l -0.0547,0.082 -0.0449,0.0899 c -0.13524,0.27048 -0.20508,0.58643 -0.20508,0.87109 v 1.07617 c -0.30202,0.007 -0.61788,0.0936 -0.88281,0.23438 -0.13802,0.0736 -0.14925,0.17668 -0.25,0.26758 l 0.18945,-3.98438 -0.0117,0.12305 c 0.0517,-0.41379 -0.11631,-0.95244 -0.38282,-1.3125 -0.27777,-0.36264 -0.5825,-0.53854 -0.82617,-0.63086 -0.30482,-0.13097 -0.58009,-0.19005 -0.82031,-0.20508 -0.20081,-0.0212 -0.39748,-0.0332 -0.61133,-0.0332 z m 72.64063,0.0488 c -0.24254,0 -0.46413,0.008 -0.69336,0.0371 -0.22116,0.0276 -0.4458,0.0682 -0.71485,0.17578 l -0.0273,0.0117 -0.0273,0.0117 c -0.26385,0.11726 -0.59032,0.32199 -0.8379,0.69335 l -0.0547,0.082 -0.0449,0.0898 c -0.15102,0.30204 -0.20508,0.61823 -0.20508,0.88281 v 5.38086 l 0.0137,0.0215 c -0.005,-0.01 -0.008,-0.008 -0.0137,-0.0176 v 0.0293 c -0.0153,-0.0257 -0.0203,-0.0505 -0.0371,-0.0762 -0.14943,-0.23992 -0.27277,-0.37823 -0.40235,-0.50781 -0.24803,-0.24804 -0.47239,-0.39659 -0.73828,-0.56445 l -0.004,-0.002 c -0.3241,-0.21148 -0.67175,-0.3842 -1.04102,-0.52539 -0.37602,-0.14377 -0.77181,-0.25284 -1.18555,-0.33398 -6.3e-4,-1.3e-4 -0.001,1.2e-4 -0.002,0 -0.4374,-0.0873 -0.88651,-0.12891 -1.33984,-0.12891 -0.91216,0 -1.80109,0.1549 -2.62891,0.47657 -0.84963,0.32493 -1.61337,0.8449 -2.23828,1.51367 l -0.006,0.006 -0.004,0.006 c -0.17922,0.19522 -0.24928,0.48437 -0.40234,0.70312 -1e-5,-0.0117 0.008,-0.0273 0.008,-0.0391 0,-0.2128 -0.009,-0.41631 -0.043,-0.63867 -0.0329,-0.21386 -0.12526,-0.46491 -0.25781,-0.72071 -0.1224,-0.25652 -0.35314,-0.56851 -0.74805,-0.79883 -0.30159,-0.17177 -0.65013,-0.28515 -0.94726,-0.28515 h -1.27734 v -1.06641 c 0,-0.36026 -0.12528,-0.75628 -0.31641,-1.04297 -0.23431,-0.35146 -0.53734,-0.53611 -0.79297,-0.65625 -0.30264,-0.15109 -0.56911,-0.21884 -0.80273,-0.24804 -0.23327,-0.0292 -0.45604,-0.0371 -0.70508,-0.0371 -0.24254,0 -0.46413,0.008 -0.69336,0.0371 -0.24102,0.0301 -0.5018,0.0923 -0.79297,0.23047 -0.25973,0.11884 -0.57382,0.31288 -0.81445,0.67382 l -0.0547,0.082 -0.043,0.0899 c -0.13524,0.27048 -0.20508,0.58643 -0.20508,0.87109 v 1.07617 c -0.30208,0.007 -0.61979,0.0935 -0.88476,0.23438 -0.45519,0.24257 -0.70201,0.60669 -0.82618,0.88086 -0.0979,0.20777 -0.15527,0.39093 -0.19531,0.56445 l -0.0137,0.0566 -0.01,0.0586 c -0.003,0.0224 -9.5e-4,0.0424 -0.004,0.0644 -0.12817,-0.17431 -0.17304,-0.40104 -0.32617,-0.55469 -0.5507,-0.56071 -1.24627,-0.95668 -2.00196,-1.20117 -0.77258,-0.24995 -1.61312,-0.34961 -2.53515,-0.34961 -0.5271,0 -1.05305,0.0518 -1.57032,0.15234 -0.48089,0.0857 -0.93999,0.20117 -1.375,0.35157 -0.42207,0.13798 -0.81585,0.30287 -1.18359,0.50195 -0.33063,0.17055 -0.60648,0.31833 -0.91992,0.60938 l -0.0215,0.0195 -0.0215,0.0215 c -0.26579,0.26579 -0.50712,0.63314 -0.62109,1.06055 l -0.0117,0.0371 -0.008,0.0391 c -0.0654,0.30505 -0.0723,0.5462 -0.0723,0.81641 0,0.19457 0.0125,0.3897 0.043,0.58789 l 0.002,0.01 0.002,0.01 c 0.0353,0.21207 0.093,0.4418 0.22071,0.69726 l 0.0332,0.0684 0.0391,0.0645 c 0.12958,0.20732 0.31683,0.43582 0.60352,0.62695 0.32056,0.2137 0.722,0.31641 1.05273,0.31641 0.71658,0 0.95014,-0.2149 1.24805,-0.38868 l 0.008,-0.006 0.008,-0.006 c 0.14531,-0.0872 0.35424,-0.1981 0.61718,-0.32226 l 0.01,-0.004 0.008,-0.004 c 0.20868,-0.10152 0.47812,-0.20554 0.80469,-0.30079 l 0.01,-0.002 0.01,-0.004 c 0.22884,-0.0701 0.52615,-0.11524 0.90039,-0.11524 0.34132,0 0.56331,0.0474 0.6543,0.0801 l 0.0156,0.006 0.0176,0.006 c 0.10235,0.0341 0.0988,0.0462 0.0977,0.0449 l 0.0195,0.0234 0.0215,0.0215 c 0.005,0.006 0.0278,0.0196 0.0606,0.13867 9.6e-4,0.004 0.001,0.0121 0.002,0.0156 -0.90894,0.008 -1.7652,0.0796 -2.55664,0.25781 -0.83605,0.17994 -1.60348,0.4659 -2.27539,0.89453 -0.67759,0.43226 -1.25093,1.02222 -1.63867,1.72266 -0.40369,0.72925 -0.58203,1.56202 -0.58203,2.40625 0,0.71654 0.12328,1.42145 0.40234,2.06836 l 0.006,0.0117 0.004,0.0117 c 0.276,0.61201 0.67876,1.16765 1.18359,1.60937 l 0.008,0.006 0.008,0.006 c 0.51042,0.43573 1.1128,0.75592 1.75781,0.96094 0.66001,0.21545 1.36133,0.3125 2.08789,0.3125 0.89709,0 1.78298,-0.20313 2.58789,-0.59375 0.0311,-0.0149 0.0532,-0.0451 0.084,-0.0605 0.34378,0.26411 0.65651,0.37505 0.91016,0.42578 h 0.01 l 0.01,0.002 c 0.28538,0.0535 0.53647,0.0645 0.8125,0.0645 0.28204,0 0.5216,-0.004 0.8418,-0.0723 0.26719,-0.0573 0.57243,-0.15247 0.89258,-0.39258 0.47254,-0.35441 0.73437,-1.04214 0.73437,-1.49414 v -7.52734 c 0,-0.35731 -0.0954,-0.66544 -0.13281,-1.00195 0.28727,0.17847 0.61555,0.30456 0.93945,0.31054 v 4.94532 c 0,0.7399 0.063,1.42125 0.2168,2.05859 l 0.004,0.0156 0.004,0.0156 c 0.17264,0.65601 0.46653,1.27702 0.9043,1.79687 l 0.008,0.008 0.006,0.008 c 0.44424,0.51366 1.02615,0.90193 1.6543,1.14062 l 0.0137,0.004 0.0117,0.006 c 0.63555,0.2288 1.31249,0.31641 2.02734,0.31641 0.25919,0 0.51793,-0.0172 0.77539,-0.0508 0.22308,-0.0291 0.43938,-0.0703 0.65235,-0.1211 0.25875,-0.0509 0.51433,-0.12272 0.76953,-0.23437 0.24673,-0.10795 0.50853,-0.24096 0.78515,-0.51758 0.37017,-0.37017 0.49592,-0.75216 0.57032,-1.06836 0.0361,-0.15342 0.0275,-0.28628 0.041,-0.42578 0.0655,0.091 0.086,0.21562 0.15625,0.30273 l 0.008,0.01 0.01,0.0117 c 0.57968,0.69334 1.3207,1.2392 2.15625,1.5957 0.84733,0.36153 1.78122,0.52344 2.75781,0.52344 0.48994,0 0.97279,-0.0479 1.44531,-0.14453 0.43655,-0.0893 0.85263,-0.20585 1.24805,-0.35547 l 0.0117,-0.004 0.01,-0.004 c 0.3832,-0.15126 0.74333,-0.32451 1.07812,-0.52539 l 0.0156,-0.01 0.0156,-0.01 c 0.29484,-0.18673 0.52421,-0.3328 0.79492,-0.60351 0.1108,-0.1108 0.23306,-0.27512 0.36524,-0.47657 0,0.26459 0.0541,0.58078 0.20508,0.88282 l 0.0762,0.15039 0.10351,0.13086 c 0.26689,0.33361 0.53883,0.47494 0.75782,0.57226 l 0.0273,0.0117 0.0273,0.01 c 0.26905,0.10761 0.49369,0.14813 0.71485,0.17578 0.22923,0.0286 0.45082,0.0371 0.69336,0.0371 0.24903,0 0.47181,-0.008 0.70507,-0.0371 0.22519,-0.0281 0.45409,-0.0623 0.75782,-0.19727 0.21898,-0.0973 0.48897,-0.23865 0.75586,-0.57226 l 0.043,-0.0527 0.0391,-0.0586 c 0.2137,-0.32056 0.3164,-0.72201 0.3164,-1.05274 v -7.16211 c 0.34137,-0.37873 0.69355,-0.76802 0.94336,-0.94531 0.30896,-0.21926 0.48205,-0.25195 0.61914,-0.25195 0.19844,0 0.28681,0.0321 0.33203,0.0547 l 0.008,0.004 0.008,0.004 c 0.0687,0.0334 0.0814,0.0458 0.12305,0.10742 0.0717,0.10606 0.14916,0.26585 0.21093,0.50781 0.0478,0.18727 0.0996,0.59035 0.0996,1.14453 v 6.53711 c 0,0.33073 0.1027,0.73218 0.31641,1.05274 l 0.0371,0.0586 0.043,0.0527 c 0.26689,0.33361 0.53687,0.47494 0.75586,0.57226 0.30373,0.13499 0.53262,0.16912 0.75781,0.19727 0.23327,0.0292 0.45799,0.0371 0.70703,0.0371 0.24254,0 0.46218,-0.008 0.69141,-0.0371 0.22519,-0.0281 0.45408,-0.0623 0.75781,-0.19727 0.21898,-0.0973 0.49092,-0.23865 0.75781,-0.57226 l 0.043,-0.0527 0.0371,-0.0586 c 0.21371,-0.32056 0.31641,-0.72201 0.31641,-1.05274 v -6.79687 c 0,-0.88758 -0.0754,-1.68238 -0.25586,-2.41211 -0.1757,-0.75284 -0.48584,-1.46152 -0.93946,-2.07031 -0.46917,-0.62968 -1.10059,-1.13048 -1.81054,-1.47656 -0.78142,-0.39321 -1.65411,-0.55274 -2.57422,-0.55274 -0.68497,0 -1.34179,0.24077 -1.98438,0.49805 v -3.75977 c 0,-0.33073 -0.1027,-0.73413 -0.3164,-1.05469 -0.24758,-0.37136 -0.57404,-0.57609 -0.83789,-0.69335 -0.30373,-0.135 -0.53263,-0.17107 -0.75782,-0.19922 -0.23326,-0.0292 -0.45604,-0.0371 -0.70507,-0.0371 z m -168.585942,1.1914 c -0.249039,0 -0.471809,0.008 -0.705078,0.0371 h -0.0059 l -0.0078,0.002 c -0.237359,0.0316 -0.49343,0.0983 -0.767578,0.22851 -0.259726,0.11885 -0.573823,0.31288 -0.814453,0.67383 -0.191127,0.28669 -0.316406,0.68271 -0.316406,1.04297 v 6.41015 l -3.447266,-6.23632 c -0.153679,-0.27991 -0.309587,-0.52582 -0.480469,-0.75977 -0.186303,-0.2763 -0.425151,-0.54041 -0.732422,-0.76367 -0.298587,-0.22858 -0.643393,-0.39904 -0.990234,-0.48633 -0.342941,-0.0884 -0.65854,-0.11133 -0.984375,-0.11133 H 9.4042969 c -0.5609676,0 -1.1431278,0.21545 -1.5644531,0.54102 -0.6585829,0.5089 -0.890625,1.34112 -0.890625,1.96289 v 14.80859 c 0,0.36026 0.1135984,0.7071 0.2597656,0.96289 l 0.025391,0.0469 0.03125,0.0449 c 0.2475748,0.37136 0.5740412,0.57805 0.8378906,0.69531 l 0.070313,0.0293 0.072266,0.0254 c 0.2063068,0.0688 0.3713193,0.0935 0.5410156,0.11719 0.2595428,0.0458 0.5010863,0.0625 0.7539062,0.0625 0.2476905,0 0.4827754,-0.0147 0.7441404,-0.0625 0.171688,-0.0226 0.335572,-0.0448 0.552735,-0.11719 l 0.04297,-0.0156 0.04492,-0.0176 c 0.269045,-0.10762 0.622854,-0.29463 0.904297,-0.7168 l 0.0293,-0.0449 0.02734,-0.0469 c 0.146167,-0.25579 0.259765,-0.60263 0.259765,-0.96289 v -6.98047 l 3.609375,6.50977 c 0.187651,0.34757 0.364533,0.64982 0.546875,0.91797 l 0.01172,0.0176 0.01172,0.0176 c 0.199329,0.27685 0.413614,0.52822 0.673828,0.75782 l 0.03516,0.0332 0.03906,0.0293 c 0.275744,0.21446 0.59911,0.39673 0.957031,0.50976 l 0.04492,0.0137 0.04688,0.0117 c 0.322394,0.0806 0.638341,0.10938 0.955078,0.10938 h 0.683594 c 0.270307,0 0.539414,-0.0423 0.789062,-0.11914 0.305357,-0.094 0.600957,-0.26626 0.845703,-0.47852 0.267368,-0.22676 0.477097,-0.52024 0.613282,-0.82031 0.175513,-0.37147 0.24414,-0.74927 0.24414,-1.08594 v -14.80859 c 0,-0.36026 -0.125279,-0.75628 -0.316406,-1.04297 -0.234311,-0.35147 -0.53734,-0.53611 -0.792969,-0.65625 -0.302635,-0.15109 -0.569109,-0.21884 -0.802734,-0.24805 -0.221152,-0.0276 -0.437962,-0.0371 -0.667969,-0.0371 z m 31.13086,0.0371 c -0.556125,0 -1.106405,0.22166 -1.501954,0.52149 -0.688602,0.52052 -0.878906,1.34154 -0.878906,1.93359 v 14.3125 c 0,0.59383 0.187069,1.39653 0.84375,1.92188 l 0.0332,0.0273 0.03516,0.0254 c 0.396691,0.28335 0.933472,0.48047 1.46875,0.48047 h 3.398437 c 1.503224,0 2.854474,-0.18234 4.058594,-0.59375 1.193905,-0.40792 2.256995,-1.04606 3.115234,-1.9043 0.850213,-0.85021 1.471552,-1.91709 1.894531,-3.10937 0.0642,0.39956 0.05168,0.84023 0.164063,1.21484 0.279197,0.93066 0.723426,1.78025 1.339844,2.48633 0.621493,0.71189 1.41419,1.26155 2.302734,1.61914 h 0.0039 l 0.002,0.002 c 0.912033,0.36262 1.919048,0.52149 2.994141,0.52149 1.114325,0 2.162433,-0.18133 3.107422,-0.58789 l 0.0039,-0.002 0.0039,-0.002 c 0.914707,-0.39953 1.722391,-0.98184 2.355469,-1.72461 0.59723,-0.6914 1.02419,-1.51787 1.322266,-2.4082 0.01712,0.0589 0.009,0.13313 0.02734,0.1914 0.29919,0.94916 0.768508,1.80678 1.419921,2.50391 0.642136,0.6872 1.447395,1.21087 2.341797,1.54492 h 0.002 l 0.002,0.002 c 0.90761,0.33496 1.903192,0.48243 2.96875,0.48243 0.604408,0 1.186369,-0.0479 1.746094,-0.14649 0.5137,-0.0814 0.981629,-0.17728 1.410156,-0.29687 0.404637,-0.11292 0.756346,-0.22852 1.085938,-0.375 l 0.02148,-0.01 0.02148,-0.0117 c 0.130204,-0.0627 0.243376,-0.11944 0.357422,-0.18359 0.114045,-0.0641 0.192014,-0.0651 0.474609,-0.34766 0.117748,-0.11775 0.230599,-0.2812 0.335938,-0.46093 0.06549,-0.10738 0.09123,-0.23537 0.136718,-0.35743 0.116077,0.30008 0.243232,0.61637 0.523438,0.8711 0.262808,0.23891 0.487074,0.36555 0.746094,0.50586 l 0.02344,0.0137 0.02344,0.0117 c 0.277322,0.13866 0.57321,0.25757 0.900391,0.37304 l 0.02539,0.01 0.02734,0.008 c 0.365719,0.11494 0.751275,0.20403 1.158203,0.27149 0.0019,3.4e-4 0.004,-3.5e-4 0.0059,0 0.461973,0.0836 0.936831,0.125 1.419922,0.125 0.773821,0 1.517179,-0.0938 2.21875,-0.29883 0.704893,-0.20605 1.36147,-0.52646 1.925781,-0.9707 0.573468,-0.45146 1.037685,-1.04155 1.345703,-1.70313 0.147087,-0.30835 0.137632,-0.66347 0.214844,-0.99609 v 1.83593 c 0,0.26459 0.05406,0.58078 0.205078,0.88282 l 0.07422,0.15039 0.10547,0.13086 c 0.26688,0.33361 0.53687,0.47494 0.75586,0.57226 l 0.0273,0.0117 0.0273,0.01 c 0.26905,0.10761 0.49565,0.14813 0.7168,0.17578 0.22923,0.0286 0.44887,0.0371 0.69141,0.0371 0.24903,0 0.47376,-0.008 0.70703,-0.0371 0.22519,-0.0281 0.45408,-0.0623 0.75781,-0.19727 0.21898,-0.0973 0.48897,-0.23865 0.75586,-0.57226 l 0.043,-0.0527 0.0371,-0.0586 c 0.2137,-0.32056 0.3164,-0.72201 0.3164,-1.05274 v -7.16015 c 0.3421,-0.37978 0.69311,-0.76967 0.94336,-0.94727 0.30896,-0.21926 0.48205,-0.25195 0.61914,-0.25195 0.19844,0 0.28681,0.0321 0.33203,0.0547 l 0.008,0.004 0.008,0.004 c 0.0687,0.0334 0.0814,0.0458 0.12305,0.10742 0.0717,0.10606 0.14916,0.26585 0.21093,0.50781 0.0478,0.18727 0.0996,0.59035 0.0996,1.14453 v 6.53711 c 0,0.33073 0.1027,0.73218 0.31641,1.05274 l 0.0391,0.0586 0.043,0.0527 c 0.26689,0.33361 0.53688,0.47494 0.75586,0.57226 0.30373,0.13499 0.53262,0.16912 0.75781,0.19727 0.23327,0.0292 0.45604,0.0371 0.70508,0.0371 0.24254,0 0.46413,-0.008 0.69336,-0.0371 0.22519,-0.0281 0.45408,-0.0623 0.75781,-0.19727 0.21899,-0.0973 0.48897,-0.23865 0.75586,-0.57226 l 0.043,-0.0527 0.0391,-0.0586 c 0.21371,-0.32056 0.31641,-0.72201 0.31641,-1.05274 v -6.80859 c 0,-0.88242 -0.0769,-1.67689 -0.25781,-2.40625 -0.17596,-0.75056 -0.48512,-1.4573 -0.9375,-2.06445 -0.46887,-0.62928 -1.09921,-1.1305 -1.8086,-1.47656 -0.78227,-0.39447 -1.65667,-0.55274 -2.57812,-0.55274 -0.91012,0 -1.80994,0.24536 -2.63281,0.67774 -0.0747,0.0389 -0.13169,0.12589 -0.20508,0.16796 -0.12875,-0.11568 -0.23864,-0.2916 -0.36133,-0.35742 -0.35307,-0.19673 -0.662,-0.26166 -0.91602,-0.2793 -0.19284,-0.0222 -0.37578,-0.0351 -0.57226,-0.0351 -0.20513,0 -0.39358,0.0116 -0.59375,0.0351 -0.24912,0.0194 -0.53717,0.0907 -0.83594,0.23829 -0.2677,0.12513 -0.60811,0.36082 -0.84375,0.79101 -0.179166,0.33391 -0.24414,0.66267 -0.24414,0.9082 v 6.88282 c -0.06006,-0.22153 -0.04119,-0.45935 -0.140625,-0.66992 -0.236098,-0.51596 -0.56732,-0.99171 -0.982422,-1.38086 -0.382564,-0.35866 -0.819489,-0.6578 -1.292969,-0.89454 -0.376871,-0.1925 -0.761906,-0.36711 -1.15625,-0.52343 l -0.01172,-0.004 c -0.349286,-0.14132 -0.693578,-0.27881 -1.035157,-0.41211 -0.260612,-0.1017 -0.475052,-0.20975 -0.642578,-0.31445 -0.0156,-0.01 -0.01359,-0.0141 -0.02734,-0.0234 0.0827,-0.0206 0.188833,-0.043 0.376953,-0.043 0.264759,0 0.453392,0.0319 0.566406,0.0664 l 0.0059,0.002 0.0059,0.002 c 0.243287,0.0723 0.43109,0.14463 0.55664,0.20508 l 0.02148,0.0117 0.02344,0.01 c 0.171729,0.0763 0.288339,0.14027 0.328125,0.16601 0.247836,0.16037 0.462421,0.39258 1.183594,0.39258 0.314193,0 0.67156,-0.0947 0.953125,-0.26367 l 0.0918,-0.0547 0.08398,-0.0664 c 0.301399,-0.24112 0.452951,-0.52961 0.552735,-0.7754 0.109838,-0.2522 0.172103,-0.49141 0.191406,-0.70117 0.02341,-0.18074 0.03711,-0.35687 0.03711,-0.5332 0,-0.1803 -0.01484,-0.36319 -0.04688,-0.5625 -0.0073,-0.068 -0.02511,-0.14792 -0.03906,-0.22266 -0.03351,-0.23662 -0.129857,-0.49221 -0.267578,-0.72851 -0.211876,-0.37134 -0.413378,-0.53498 -0.580079,-0.6543 -0.217183,-0.16754 -0.404367,-0.26865 -0.605468,-0.36523 -0.278522,-0.14971 -0.563421,-0.26511 -0.867188,-0.35938 -0.322,-0.0999 -0.659189,-0.17692 -1.015625,-0.23633 -0.382299,-0.0637 -0.768446,-0.0957 -1.154297,-0.0957 -0.819966,0 -1.595907,0.10957 -2.316406,0.36524 h -0.0039 l -0.0039,0.002 c -0.659719,0.23793 -1.266238,0.58096 -1.777343,1.03906 -0.503902,0.44384 -0.913131,0.99783 -1.177735,1.61523 l -0.0039,0.008 -0.002,0.006 c -0.137748,0.33059 -0.147962,0.69404 -0.208984,1.04687 -0.240791,-0.70406 -0.542117,-1.38586 -1.013672,-1.94726 -0.55817,-0.67304 -1.278245,-1.20239 -2.089844,-1.57032 -0.871328,-0.3988 -1.843406,-0.56445 -2.886719,-0.56445 -1.003518,0 -1.971287,0.1823 -2.851562,0.56641 -0.867408,0.3705 -1.640681,0.92851 -2.261719,1.63672 v 0.002 c -0.603394,0.68959 -1.037985,1.52177 -1.341797,2.43164 -0.0011,-0.004 -8.27e-4,-0.008 -0.002,-0.0117 -0.279281,-0.92896 -0.724379,-1.77548 -1.339844,-2.48047 -0.624028,-0.71479 -1.422721,-1.26455 -2.318359,-1.62109 -0.907236,-0.36449 -1.908693,-0.52344 -2.982422,-0.52344 -1.1211,0 -2.1721,0.18044 -3.119141,0.58789 -0.911603,0.3922 -1.720341,0.97079 -2.359375,1.70899 l -0.0039,0.006 -0.0059,0.006 c -0.478345,0.56227 -0.773507,1.25955 -1.058594,1.95899 -0.07961,-0.92395 -0.134521,-1.859 -0.423828,-2.67969 -0.397182,-1.14998 -1.01538,-2.17727 -1.833985,-3.01953 -0.818278,-0.85819 -1.837974,-1.51094 -2.992187,-1.93945 -1.195042,-0.45205 -2.553433,-0.64649 -4.078125,-0.64649 z m 84.917972,0 c -0.57602,0 -1.18504,0.23165 -1.61328,0.58203 -0.65026,0.53203 -0.85352,1.34821 -0.85352,1.97266 v 14.75781 c 0,0.26459 0.0521,0.58273 0.20312,0.88477 l 0.0449,0.0879 0.0547,0.082 c 0.24758,0.37136 0.57404,0.57805 0.83789,0.69531 l 0.0918,0.0391 0.0957,0.0293 c 0.18926,0.0568 0.35099,0.0811 0.51758,0.10352 0.26108,0.0464 0.50369,0.0625 0.75782,0.0625 0.26033,0 0.50412,-0.0148 0.77148,-0.0625 0.16597,-0.0224 0.32705,-0.0469 0.51562,-0.10352 l 0.0684,-0.0195 0.0645,-0.0273 c 0.26904,-0.10762 0.6248,-0.29463 0.90625,-0.7168 0.2137,-0.32056 0.3164,-0.72396 0.3164,-1.05469 v -5.55664 l 2.41407,6.19531 -0.0274,-0.0742 c 0.10021,0.30061 0.27969,0.5668 0.47071,0.75781 l 0.0508,0.0508 0.0566,0.0449 c 0.22288,0.18573 0.43219,0.29007 0.625,0.36719 l 0.0644,0.0254 0.0684,0.0215 c 0.19893,0.0597 0.37535,0.0911 0.55664,0.11524 0.22022,0.0294 0.43222,0.0371 0.65625,0.0371 0.19718,0 0.38687,-0.0124 0.58398,-0.0371 0.18892,-0.0147 0.37915,-0.0362 0.60352,-0.10352 l 0.043,-0.0137 0.043,-0.0156 c 0.20005,-0.0727 0.44346,-0.1929 0.71484,-0.44141 0.20745,-0.18697 0.39942,-0.42351 0.51172,-0.68555 l 0.006,-0.0117 2.69141,-6.60937 v 5.93359 c 0,0.33073 0.10074,0.73413 0.31445,1.05469 0.24757,0.37136 0.57404,0.57805 0.83789,0.69531 l 0.0918,0.0391 0.0977,0.0293 c 0.1964,0.0589 0.36393,0.0847 0.53711,0.10742 0.24854,0.0414 0.48893,0.0586 0.73633,0.0586 0.25454,0 0.49275,-0.0129 0.76172,-0.0625 0.16534,-0.0224 0.32578,-0.0471 0.51367,-0.10352 l 0.0684,-0.0195 0.0644,-0.0273 c 0.26905,-0.10762 0.62481,-0.29463 0.90625,-0.7168 0.21371,-0.32056 0.31641,-0.72396 0.31641,-1.05469 v -14.75781 c 0,-0.31768 -0.0452,-0.66664 -0.19922,-1.03711 -0.11144,-0.27377 -0.30023,-0.55299 -0.54687,-0.79687 -0.2594,-0.26594 -0.59061,-0.46548 -0.91797,-0.56836 -0.27301,-0.0932 -0.55841,-0.15235 -0.83008,-0.15235 h -1.35156 c -0.31909,0 -0.64646,0.0435 -0.97852,0.14258 -0.36453,0.1011 -0.71173,0.27782 -0.99609,0.50781 -0.2991,0.2406 -0.52226,0.51957 -0.70117,0.8086 -0.18009,0.29091 -0.32014,0.59646 -0.43946,0.92187 l 0.0254,-0.0664 -3.37304,8.07617 -3.23829,-8.0918 0.0332,0.0879 c -0.10417,-0.31249 -0.23497,-0.61101 -0.40625,-0.89648 -0.20132,-0.33553 -0.4764,-0.64517 -0.80274,-0.88086 -0.32634,-0.23569 -0.69684,-0.39589 -1.0664,-0.48828 -0.3595,-0.0899 -0.71433,-0.1211 -1.07813,-0.1211 z m -106.089848,4.01758 c -1.121099,0 -2.172099,0.18044 -3.11914,0.58789 -0.911603,0.3922 -1.720342,0.97079 -2.359375,1.70899 l -0.0039,0.006 -0.0059,0.006 c -0.620089,0.72888 -1.077527,1.59137 -1.373047,2.53907 v 0.006 l -0.002,0.006 c -0.282823,0.92927 -0.416015,1.92259 -0.416015,2.96679 0,1.06791 0.126091,2.06549 0.402343,2.98633 0.279198,0.93066 0.723426,1.78025 1.339844,2.48633 0.621493,0.71189 1.41419,1.26155 2.302735,1.61914 h 0.0039 l 0.002,0.002 c 0.912033,0.36262 1.919047,0.52149 2.994141,0.52149 1.114325,0 2.162432,-0.18133 3.107421,-0.58789 l 0.0039,-0.002 0.0039,-0.002 c 0.914706,-0.39953 1.722391,-0.98184 2.355469,-1.72461 0.62688,-0.72572 1.091606,-1.58493 1.388671,-2.52734 v -0.002 -0.002 c 0.292731,-0.93876 0.431641,-1.94122 0.431641,-2.99023 0,-1.06124 -0.130873,-2.05747 -0.416015,-2.97852 -0.279281,-0.92896 -0.724379,-1.77548 -1.339844,-2.48047 -0.624028,-0.71479 -1.422721,-1.26455 -2.31836,-1.62109 -0.907235,-0.36449 -1.908693,-0.52344 -2.982422,-0.52344 z m 160.718748,0.62695 c -0.003,0.001 -0.005,0.004 -0.008,0.006 -0.002,0.001 -0.005,7e-4 -0.008,0.002 z m -136.621091,0.30274 h 0.583984 c 0.96183,0 1.659146,0.14404 2.082031,0.32812 0.500966,0.21807 0.859719,0.48909 1.150391,0.83789 l 0.0039,0.006 0.0059,0.004 c 0.308566,0.36367 0.541055,0.79701 0.701171,1.35742 v 0.002 0.002 c 0.169288,0.58599 0.259766,1.24138 0.259766,1.97851 0,0.97515 -0.109798,1.77209 -0.292969,2.38477 v 0.006 l -0.002,0.004 c -0.176985,0.60681 -0.421838,1.04187 -0.716797,1.37305 -0.295294,0.33156 -0.639402,0.56918 -1.11914,0.74414 -0.469353,0.17118 -1.15586,0.28711 -2.048828,0.28711 h -0.607422 z m 50.675781,0.0625 0.17969,0.2832 c -0.0316,-0.0632 -0.088,-0.0668 -0.125,-0.12305 -0.0335,-0.0535 -0.0143,-0.10973 -0.0547,-0.16015 z m 13.11719,0.32031 c -0.009,0.0185 -0.009,0.0308 -0.0176,0.0488 -0.002,0.005 -0.0116,0.011 -0.0137,0.0156 z m -24.001956,0.45898 c -0.0054,0.002 -0.01018,0.006 -0.01563,0.008 -0.0089,0.003 -0.01843,0.001 -0.02734,0.004 z m 68.326176,0.14649 0.0352,0.0117 c -0.007,-0.002 -0.0146,-0.001 -0.0215,-0.004 -0.005,-0.002 -0.009,-0.006 -0.0137,-0.008 z m 20.82617,0.12891 0.041,0.0156 c -0.005,-0.002 -0.0107,2e-5 -0.0156,-0.002 -0.009,-0.003 -0.0161,-0.0102 -0.0254,-0.0137 z m -74.37305,0.10937 0.0156,0.008 c -0.003,-0.002 -0.007,-4.3e-4 -0.01,-0.002 -0.002,-0.001 -0.003,-0.005 -0.006,-0.006 z m 85.875,0 0.0156,0.008 c -0.003,-0.002 -0.007,-4.3e-4 -0.01,-0.002 -0.002,-0.001 -0.003,-0.005 -0.006,-0.006 z m -162.249999,0.0996 0.01953,0.01 c -0.0035,-0.002 -0.0082,-5e-5 -0.01172,-0.002 -0.0033,-0.002 -0.0045,-0.006 -0.0078,-0.008 z m 40.679688,0 0.01953,0.01 c -0.0035,-0.002 -0.0082,-5e-5 -0.01172,-0.002 -0.0033,-0.002 -0.0045,-0.006 -0.0078,-0.008 z m 113.291011,0.38086 0.0137,0.0449 c -0.002,-0.006 -0.006,-0.012 -0.008,-0.0176 -0.003,-0.01 -0.003,-0.0176 -0.006,-0.0273 z m -22.625,0.18164 0.043,0.0469 c -0.007,-0.008 -0.0183,-0.01 -0.0254,-0.0176 -0.008,-0.009 -0.009,-0.0208 -0.0176,-0.0293 z m -7.08984,0.0391 c -0.002,9.5e-4 0.007,-8.6e-4 0.006,0 -0.007,0.004 -0.0165,0.008 -0.0234,0.0117 z m 28.43164,0.33985 c -1.7e-4,-9e-5 0.012,0.004 0.0117,0.004 l 0.0664,0.0566 c -0.0236,-0.0211 -0.054,-0.0398 -0.0781,-0.0605 z m -66.83008,0.11718 -0.0996,0.17188 c 0.0213,-0.032 0.0121,-0.072 0.0312,-0.10547 0.0188,-0.0323 0.0512,-0.0321 0.0684,-0.0664 z m -92.152341,0.29493 c -0.0012,0.002 -7.59e-4,0.004 -0.002,0.006 -0.0019,0.003 -0.0059,0.003 -0.0078,0.006 z m 40.679688,0 c -0.0012,0.002 -7.6e-4,0.004 -0.002,0.006 -0.0019,0.003 -0.0059,0.003 -0.0078,0.006 z m 23.246094,0.76171 0.0078,0.0234 c -0.0012,-0.004 -0.0046,-0.007 -0.0059,-0.0117 -0.0011,-0.004 -8.35e-4,-0.008 -0.002,-0.0117 z m -6.234375,0.4043 c 0.542285,0 0.66668,0.12487 0.818359,0.27344 h -1.634766 c 0.06617,-0.0504 0.10954,-0.11141 0.199219,-0.15625 0.129283,-0.0646 0.312348,-0.11719 0.617188,-0.11719 z m 91.224614,0.0332 c -0.27874,0.93145 -0.43946,1.93053 -0.43946,3.05469 0,0.90321 0.13931,1.71481 0.32031,2.50391 -0.22465,-0.0939 -0.44109,-0.22266 -0.66601,-0.22266 -0.39688,0 -0.69946,0.1134 -0.9336,0.23047 l 0.11915,-0.0547 c -0.0573,0.0229 -0.13801,0.0553 -0.24024,0.0918 -0.0545,0.0195 -0.13837,0.0456 -0.22265,0.0703 -0.003,4.9e-4 -0.0205,-7.2e-4 -0.0254,0 -0.0378,-0.12886 -0.0996,-0.26881 -0.0996,-0.73437 v -4.63867 h 1.27734 c 0.31279,0 0.62745,-0.13438 0.91016,-0.30079 z m -95.603521,0.0137 c -4.12e-4,0.001 4.12e-4,0.003 0,0.004 -7.5e-4,0.002 -0.0032,0.004 -0.0039,0.006 z m -49.396484,0.0644 c 0.458939,0 0.72816,0.0837 0.875,0.16406 l 0.0098,0.006 0.0098,0.006 c 0.213064,0.11256 0.332541,0.22523 0.44336,0.40039 0.140355,0.22185 0.255137,0.50225 0.330078,0.87695 l 0.002,0.0117 0.002,0.01 c 0.09,0.41785 0.138672,0.87681 0.138672,1.37891 0,0.53637 -0.05528,0.99824 -0.152344,1.39257 -0.09114,0.37025 -0.2185,0.63505 -0.365234,0.83789 -0.133001,0.18386 -0.27304,0.30461 -0.492188,0.41211 -0.183022,0.0898 -0.447338,0.16016 -0.851562,0.16016 -0.461523,0 -0.735605,-0.0834 -0.886719,-0.16211 -0.218004,-0.12172 -0.353406,-0.25135 -0.470703,-0.42383 -0.137744,-0.22221 -0.253798,-0.49905 -0.333984,-0.86328 -0.08387,-0.42201 -0.13086,-0.88826 -0.13086,-1.4043 0,-0.5222 0.05443,-0.97529 0.150391,-1.36914 0.09836,-0.37091 0.229527,-0.64311 0.378906,-0.84961 l 0.0059,-0.008 0.0039,-0.006 c 0.136814,-0.19315 0.274727,-0.30896 0.474609,-0.41015 0.179473,-0.0875 0.44608,-0.16016 0.859375,-0.16016 z m 40.679687,0 c 0.45894,0 0.728161,0.0837 0.875,0.16406 l 0.0098,0.006 0.0098,0.006 c 0.213063,0.11256 0.332541,0.22523 0.443359,0.40039 0.140356,0.22185 0.255137,0.50225 0.330078,0.87695 l 0.002,0.0117 0.002,0.01 c 0.09,0.41785 0.138671,0.87681 0.138671,1.37891 0,0.53637 -0.05528,0.99824 -0.152343,1.39257 -0.09114,0.37025 -0.2185,0.63505 -0.365235,0.83789 -0.133001,0.18386 -0.27304,0.30461 -0.492187,0.41211 -0.183023,0.0898 -0.447338,0.16016 -0.851563,0.16016 -0.461522,0 -0.735605,-0.0834 -0.886719,-0.16211 -0.218004,-0.12172 -0.353406,-0.25135 -0.470703,-0.42383 -0.137743,-0.22221 -0.253798,-0.49905 -0.333984,-0.86328 -0.08387,-0.42201 -0.130859,-0.88826 -0.130859,-1.4043 0,-0.5222 0.05443,-0.97529 0.15039,-1.36914 0.09836,-0.37091 0.229528,-0.64311 0.378906,-0.84961 l 0.0059,-0.008 0.0039,-0.006 c 0.136815,-0.19315 0.274727,-0.30896 0.47461,-0.41015 0.179473,-0.0875 0.44608,-0.16016 0.859374,-0.16016 z m 110.654298,0.0254 c 0.32446,0 0.53284,0.0485 0.64453,0.0938 l 0.0195,0.01 0.0215,0.008 c 0.266,0.099 0.45878,0.19973 0.57812,0.2793 0.20402,0.13601 0.35146,0.25032 0.42969,0.32031 l 0.0332,0.0293 0.0332,0.0274 c 0.31654,0.25323 0.73732,0.54687 1.42579,0.54687 0.69163,0 1.31979,-0.50381 1.58789,-0.91015 v 4.68945 c -0.0945,-0.17931 -0.11302,-0.34159 -0.34766,-0.5293 -0.32353,-0.25882 -0.78037,-0.39843 -1.14062,-0.39843 -0.89297,0 -1.1344,0.34362 -1.42579,0.58203 -0.12738,0.10286 -0.31431,0.24038 -0.55273,0.40429 -0.14819,0.0995 -0.3572,0.21357 -0.63086,0.32813 -0.12506,0.0523 -0.32277,0.0996 -0.62695,0.0996 -0.30019,0 -0.4994,-0.05 -0.65625,-0.11719 -0.13059,-0.0647 -0.23433,-0.14007 -0.35547,-0.30664 -0.1222,-0.16803 -0.24939,-0.43005 -0.34961,-0.80469 -0.0934,-0.38931 -0.15234,-0.89451 -0.15234,-1.51172 0,-1.24609 0.24884,-2.01742 0.5,-2.38086 1.9e-4,-2.8e-4 -2e-4,-0.002 0,-0.002 0.26444,-0.37963 0.39142,-0.45703 0.96484,-0.45703 z m -21.72461,1.91016 c -0.003,7.6e-4 -0.006,0.003 -0.01,0.004 -0.006,0.001 -0.0134,4.9e-4 -0.0195,0.002 z m -69.248047,0.42773 c 0.206769,0.34687 0.403236,0.70332 0.693359,0.98438 0.367212,0.35573 0.784393,0.66071 1.234376,0.9082 l 0.01953,0.0117 0.02148,0.01 c 0.380059,0.19467 0.764784,0.3728 1.15625,0.53125 l 0.0059,0.002 0.0059,0.002 c 0.353692,0.13983 0.694826,0.2748 1.023437,0.40625 l 0.01758,0.008 0.01562,0.006 c 0.243852,0.0915 0.445631,0.19063 0.609376,0.29297 0.06747,0.0422 0.07502,0.0613 0.105468,0.0898 -0.04271,0.0222 -0.074,0.044 -0.166015,0.0684 -0.124802,0.033 -0.303237,0.0586 -0.53711,0.0586 -0.337626,0 -0.590934,-0.0421 -0.763672,-0.0938 -0.280684,-0.0929 -0.514587,-0.18698 -0.683593,-0.27149 -0.226916,-0.1175 -0.418691,-0.22281 -0.560547,-0.30664 l 0.07227,0.0449 c -0.280077,-0.18671 -0.512908,-0.43945 -1.277343,-0.43945 -0.346137,0 -0.71661,0.12611 -1,0.30469 -0.426499,0.27143 -0.645587,0.64409 -0.746094,0.91211 -0.0037,0.01 -0.0024,0.0158 -0.0059,0.0254 -0.136631,-0.26311 -0.374031,-0.51794 -0.66211,-0.70508 -0.304798,-0.1895 -0.664067,-0.33789 -0.970703,-0.33789 -0.584288,0 -0.819835,0.14659 -1.109375,0.2793 -0.136477,0.0584 -0.337645,0.13568 -0.607422,0.23046 l -0.0078,0.004 -0.0059,0.002 c -0.207148,0.0748 -0.498203,0.15784 -0.851562,0.23633 -0.284209,0.0559 -0.648919,0.0899 -1.089844,0.0899 -0.519469,0 -0.881501,-0.078 -1.095703,-0.16602 -0.248928,-0.10224 -0.384808,-0.21004 -0.5,-0.35156 -0.07192,-0.0884 -0.116379,-0.24001 -0.171875,-0.36133 h 5.451172 c 0.545372,0 1.148854,-0.219 1.568359,-0.57227 l 0.002,-0.002 0.0039,-0.004 c 0.619999,-0.52699 0.805561,-1.30329 0.806641,-1.89648 z m 67.679687,0.22266 c -0.003,0.002 -0.004,0.007 -0.008,0.01 -0.006,0.004 -0.0137,0.004 -0.0195,0.008 z m -60.144531,1.19726 0.02344,0.0312 c -0.0053,-0.007 -0.01418,-0.0104 -0.01953,-0.0176 -0.003,-0.004 -8.92e-4,-0.01 -0.0039,-0.0137 z m -58.248047,0.58203 c -0.276031,0 -0.53555,0.0134 -0.80664,0.0586 -0.318115,0.053 -0.664355,0.16425 -0.992188,0.38281 -0.404037,0.26936 -0.686886,0.68391 -0.828125,1.06055 l -0.01563,0.041 -0.01367,0.043 c -0.11717,0.37495 -0.134765,0.68462 -0.134765,1.00586 v 1.22461 l -1.480469,3.06445 c -0.104068,0.20814 -0.21875,0.48043 -0.21875,0.88282 v 0.13281 l 0.02148,0.1289 c 0.06748,0.40488 0.404159,0.87986 0.775391,1.13868 0.356516,0.23765 0.672121,0.32696 0.898438,0.34765 0.180516,0.0243 0.353841,0.0391 0.52539,0.0391 0.180636,0 0.358604,-0.0136 0.548828,-0.0391 0.221553,-0.0198 0.463537,-0.0664 0.72461,-0.17773 0.17012,-0.0696 0.355548,-0.16901 0.548828,-0.32031 0.178229,-0.13507 0.345229,-0.29348 0.474609,-0.47461 l 0.01563,-0.0215 1.703125,-2.56445 c 0.17009,-0.25013 0.317508,-0.50384 0.445313,-0.76563 0.139787,-0.26155 0.257274,-0.53422 0.34375,-0.81836 0.088,-0.28914 0.148783,-0.58502 0.183593,-0.88671 0.03304,-0.28635 0.04688,-0.5831 0.04688,-0.89063 0,-0.32309 -0.03382,-0.65343 -0.166016,-1.0332 -0.129073,-0.39065 -0.411793,-0.82063 -0.810547,-1.09571 -0.33607,-0.23401 -0.682996,-0.35244 -0.994141,-0.40429 -0.266388,-0.0444 -0.524716,-0.0586 -0.794922,-0.0586 z m 121.765628,0.5586 h 0.16211 v 0.0781 c -0.23759,0.21946 -0.50234,0.48914 -0.66993,0.58789 l -0.006,0.004 -0.004,0.002 c -0.21817,0.1309 -0.40309,0.1836 -0.67188,0.1836 -0.37139,0 -0.43012,-0.0633 -0.45898,-0.0899 -0.0356,-0.0274 -0.0508,0.004 -0.0508,-0.2207 0,-0.13552 0.021,-0.17381 0.0273,-0.1875 6.7e-4,-0.004 -0.007,-0.008 0.0606,-0.0527 l 0.0137,-0.01 0.0137,-0.01 c 0.0617,-0.043 0.20466,-0.11701 0.46289,-0.17382 l 0.0137,-0.002 0.0156,-0.004 c 0.25461,-0.0611 0.62294,-0.10547 1.0918,-0.10547 z m 24.90429,0.43359 0.0703,0.18945 c -0.005,-0.0169 -0.0355,-0.0448 -0.041,-0.0625 -0.0173,-0.047 -0.007,-0.0772 -0.0293,-0.12695 z m -11.40234,0.0527 0.36133,0.20312 c -0.0696,-0.0522 -0.17547,-0.0436 -0.25781,-0.0859 -0.0532,-0.0295 -0.0459,-0.0942 -0.10352,-0.11718 z m 11.58594,0.66601 0.0117,0.11914 c -4.9e-4,-0.007 -0.005,-0.018 -0.006,-0.0254 -0.004,-0.0315 -0.001,-0.0618 -0.006,-0.0938 z m -10.63086,0.29297 0.0684,0.18945 c -0.002,-0.007 -0.0192,-0.0159 -0.0215,-0.0234 -0.0196,-0.0589 -0.0181,-0.0989 -0.0469,-0.16602 z m -86.027345,0.25391 0.01758,0.13867 c -9.96e-4,-0.0129 -0.01068,-0.0338 -0.01172,-0.0469 -0.0043,-0.0318 -3.95e-4,-0.059 -0.0059,-0.0918 z m 8.298828,0.40429 -0.02148,0.041 c 0.0036,-0.007 0.0023,-0.0146 0.0059,-0.0215 0.0037,-0.008 0.01198,-0.012 0.01563,-0.0195 z m 88.289067,0.71289 -0.0332,0.11719 c 0.008,-0.0244 0.006,-0.0443 0.0137,-0.0684 0.005,-0.0168 0.0153,-0.032 0.0195,-0.0488 z m -96.607426,0.23633 -0.03125,0.16016 c 0.01252,-0.0501 0.01754,-0.0987 0.02734,-0.14844 6.1e-4,-0.004 0.0033,-0.008 0.0039,-0.0117 z m 96.414066,0.27344 -0.041,0.0781 c 0.009,-0.0159 0.0108,-0.0346 0.0195,-0.0508 0.009,-0.0181 0.0117,-0.008 0.0215,-0.0273 z"
       id="text5163"
       inkscape:connector-curvature="0" />
    <g
       aria-label="No, Doesn't Match"
       style="font-style:normal;font-variant:normal;font-weight:normal;font-stretch:normal;font-size:25.39999962px;line-height:1.25;font-family:Calibri;-inkscape-font-specification:Calibri;letter-spacing:0px;word-spacing:0px;fill:#f00000;fill-opacity:1;stroke:none;stroke-width:0.26458332"
       id="text5167">
      <path
         d="m 20.666419,288.10668 q 0,0.24804 -0.08682,0.42168 -0.07441,0.17363 -0.210839,0.28525 -0.124024,0.11162 -0.285254,0.16123 -0.161231,0.0496 -0.322461,0.0496 h -0.682129 q -0.322461,0 -0.570508,-0.062 -0.235644,-0.0744 -0.458887,-0.24805 -0.21084,-0.18603 -0.434082,-0.49609 -0.21084,-0.31006 -0.471289,-0.79375 l -5.060156,-9.12813 q -0.396875,-0.70693 -0.806152,-1.47588 -0.396875,-0.78134 -0.744141,-1.51308 h -0.02481 q 0.02481,0.89297 0.03721,1.82314 0.0124,0.93018 0.0124,1.84795 v 9.68623 q 0,0.0868 -0.04961,0.17364 -0.04961,0.0744 -0.173632,0.12402 -0.111621,0.0372 -0.310059,0.062 -0.1860351,0.0372 -0.4836914,0.0372 -0.2976562,0 -0.4960937,-0.0372 -0.1860352,-0.0248 -0.2976562,-0.062 -0.1116211,-0.0496 -0.1612305,-0.12402 -0.049609,-0.0868 -0.049609,-0.17364 v -14.8084 q 0,-0.49609 0.2728516,-0.70693 0.2728515,-0.21084 0.5953125,-0.21084 h 1.0169921 q 0.359668,0 0.595313,0.062 0.248046,0.062 0.434082,0.21084 0.198437,0.13643 0.37207,0.39688 0.186035,0.24804 0.396875,0.63252 l 3.894336,7.04453 q 0.359668,0.64492 0.694531,1.26504 0.334863,0.60771 0.644922,1.20302 0.310058,0.59532 0.607715,1.17823 0.310058,0.57051 0.607715,1.15342 h 0.0124 q -0.02481,-0.97979 -0.03721,-2.03399 0,-1.0666 0,-2.04639 v -8.70644 q 0,-0.0868 0.04961,-0.16123 0.04961,-0.0744 0.161231,-0.12402 0.124023,-0.062 0.310058,-0.0868 0.198438,-0.0248 0.508496,-0.0248 0.272852,0 0.471289,0.0248 0.198438,0.0248 0.310059,0.0868 0.111621,0.0496 0.16123,0.12402 0.04961,0.0744 0.04961,0.16123 z"
         style="fill:#f00000;fill-opacity:1;stroke-width:0.26458332"
         id="path5169" />
      <path
         d="m 35.102746,282.97211 q 0,1.36425 -0.359668,2.51767 -0.359668,1.14102 -1.079004,1.97198 -0.706934,0.83095 -1.785938,1.30224 -1.066601,0.45889 -2.480468,0.45889 -1.37666,0 -2.406055,-0.40928 -1.016992,-0.40928 -1.699121,-1.19062 -0.682129,-0.78135 -1.016992,-1.89756 -0.334863,-1.11621 -0.334863,-2.53008 0,-1.36426 0.347265,-2.50527 0.359668,-1.15342 1.066602,-1.98438 0.719336,-0.83096 1.785937,-1.28984 1.066602,-0.45889 2.492871,-0.45889 1.37666,0 2.393653,0.40928 1.029394,0.40928 1.711523,1.19062 0.682129,0.78135 1.016992,1.89756 0.347266,1.11621 0.347266,2.51768 z m -2.158008,0.13642 q 0,-0.90537 -0.173633,-1.71152 -0.16123,-0.80615 -0.545703,-1.41387 -0.384473,-0.60771 -1.041797,-0.95498 -0.657324,-0.35967 -1.637109,-0.35967 -0.905371,0 -1.562695,0.32246 -0.644922,0.32247 -1.066602,0.91778 -0.42168,0.58291 -0.632519,1.38906 -0.198438,0.80615 -0.198438,1.76113 0,0.91778 0.161231,1.72393 0.173632,0.80615 0.558105,1.41387 0.396875,0.59531 1.054199,0.95498 0.657324,0.34726 1.63711,0.34726 0.892968,0 1.550292,-0.32246 0.657325,-0.32246 1.079004,-0.90537 0.42168,-0.58291 0.620118,-1.38906 0.198437,-0.80615 0.198437,-1.77354 z"
         style="fill:#f00000;fill-opacity:1;stroke-width:0.26458332"
         id="path5171" />
      <path
         d="m 40.373741,287.21371 q 0,0.38447 -0.03721,0.70693 -0.03721,0.32246 -0.124024,0.60772 -0.08682,0.28525 -0.235644,0.5581 -0.136426,0.28526 -0.347266,0.59531 l -1.699121,2.55489 q -0.06201,0.0868 -0.148828,0.14883 -0.07441,0.062 -0.198437,0.11162 -0.111622,0.0496 -0.272852,0.062 -0.148828,0.0248 -0.384473,0.0248 -0.210839,0 -0.359668,-0.0248 -0.136425,-0.0124 -0.198437,-0.062 -0.06201,-0.0372 -0.07441,-0.11162 0,-0.0744 0.04961,-0.17364 l 1.649512,-3.41064 v -1.5875 q 0,-0.33486 0.06201,-0.5333 0.07441,-0.19844 0.223242,-0.29766 0.148828,-0.0992 0.37207,-0.13642 0.223242,-0.0372 0.545703,-0.0372 0.310059,0 0.533301,0.0372 0.223242,0.0372 0.359668,0.13642 0.148828,0.0992 0.21084,0.29766 0.07441,0.19844 0.07441,0.5333 z"
         style="fill:#f00000;fill-opacity:1;stroke-width:0.26458332"
         id="path5173" />
      <path
         d="m 62.350693,280.72728 q 0,2.0836 -0.533301,3.64629 -0.5333,1.55029 -1.562695,2.57969 -1.016992,1.01699 -2.505273,1.52549 -1.488282,0.50849 -3.547071,0.50849 h -3.398242 q -0.285254,0 -0.545703,-0.18603 -0.248047,-0.19844 -0.248047,-0.68213 v -14.3123 q 0,-0.4837 0.248047,-0.66973 0.260449,-0.19844 0.545703,-0.19844 h 3.633887 q 2.083594,0 3.522265,0.5457 1.438672,0.5333 2.406055,1.5503 0.979785,1.00459 1.475879,2.44326 0.508496,1.43867 0.508496,3.24941 z m -2.244824,0.0868 q 0,-1.30225 -0.322461,-2.41846 -0.322461,-1.12861 -1.016992,-1.94717 -0.682129,-0.81855 -1.736328,-1.27744 -1.054199,-0.45888 -2.716114,-0.45888 h -2.17041 v 12.48916 h 2.195215 q 1.537891,0 2.59209,-0.38448 1.054199,-0.38447 1.761133,-1.17822 0.706933,-0.79375 1.054199,-1.98437 0.359668,-1.20303 0.359668,-2.84014 z"
         style="fill:#f00000;fill-opacity:1;stroke-width:0.26458332"
         id="path5175" />
      <path
         d="m 75.782431,282.97211 q 0,1.36425 -0.359668,2.51767 -0.359668,1.14102 -1.079003,1.97198 -0.706934,0.83095 -1.785938,1.30224 -1.066601,0.45889 -2.480469,0.45889 -1.37666,0 -2.406054,-0.40928 -1.016992,-0.40928 -1.699121,-1.19062 -0.682129,-0.78135 -1.016993,-1.89756 -0.334863,-1.11621 -0.334863,-2.53008 0,-1.36426 0.347266,-2.50527 0.359668,-1.15342 1.066601,-1.98438 0.719336,-0.83096 1.785938,-1.28984 1.066601,-0.45889 2.492871,-0.45889 1.37666,0 2.393652,0.40928 1.029395,0.40928 1.711524,1.19062 0.682129,0.78135 1.016992,1.89756 0.347265,1.11621 0.347265,2.51768 z m -2.158007,0.13642 q 0,-0.90537 -0.173633,-1.71152 -0.161231,-0.80615 -0.545703,-1.41387 -0.384473,-0.60771 -1.041797,-0.95498 -0.657324,-0.35967 -1.637109,-0.35967 -0.905372,0 -1.562696,0.32246 -0.644922,0.32247 -1.066601,0.91778 -0.42168,0.58291 -0.63252,1.38906 -0.198437,0.80615 -0.198437,1.76113 0,0.91778 0.16123,1.72393 0.173633,0.80615 0.558106,1.41387 0.396875,0.59531 1.054199,0.95498 0.657324,0.34726 1.637109,0.34726 0.892969,0 1.550293,-0.32246 0.657324,-0.32246 1.079004,-0.90537 0.42168,-0.58291 0.620117,-1.38906 0.198438,-0.80615 0.198438,-1.77354 z"
         style="fill:#f00000;fill-opacity:1;stroke-width:0.26458332"
         id="path5177" />
      <path
         d="m 88.321201,282.61244 q 0,0.48369 -0.248047,0.69453 -0.235644,0.19844 -0.545703,0.19844 h -7.317383 q 0,0.93017 0.186035,1.67431 0.186036,0.74414 0.620118,1.27745 0.434082,0.5333 1.128613,0.81855 0.694531,0.28525 1.699121,0.28525 0.79375,0 1.413867,-0.12402 0.620117,-0.13643 1.066602,-0.29766 0.458886,-0.16123 0.74414,-0.28525 0.297657,-0.13643 0.446485,-0.13643 0.08682,0 0.148828,0.0496 0.07441,0.0372 0.111621,0.12403 0.03721,0.0868 0.04961,0.24804 0.02481,0.14883 0.02481,0.37207 0,0.16124 -0.0124,0.28526 -0.0124,0.11162 -0.03721,0.21084 -0.0124,0.0868 -0.06201,0.16123 -0.03721,0.0744 -0.111621,0.14883 -0.06201,0.062 -0.396875,0.22324 -0.334864,0.14883 -0.868164,0.29766 -0.533301,0.14882 -1.240235,0.26044 -0.694531,0.12403 -1.488281,0.12403 -1.37666,0 -2.418457,-0.38447 -1.029394,-0.38448 -1.736328,-1.14102 -0.706934,-0.75654 -1.066602,-1.89756 -0.359668,-1.14101 -0.359668,-2.6541 0,-1.43867 0.372071,-2.57969 0.37207,-1.15342 1.066601,-1.94717 0.706934,-0.80615 1.699121,-1.22783 0.992188,-0.43408 2.22002,-0.43408 1.314648,0 2.232422,0.42168 0.930176,0.42168 1.525488,1.14102 0.595313,0.70693 0.868164,1.67431 0.285254,0.95498 0.285254,2.04639 z m -2.058789,-0.60772 q 0.03721,-1.6123 -0.719336,-2.53007 -0.744141,-0.91778 -2.220019,-0.91778 -0.756543,0 -1.327051,0.28526 -0.570508,0.28525 -0.954981,0.75654 -0.384472,0.47129 -0.595312,1.10381 -0.21084,0.62012 -0.235645,1.30224 z"
         style="fill:#f00000;fill-opacity:1;stroke-width:0.26458332"
         id="path5179" />
      <path
         d="m 98.453916,285.63861 q 0,0.85576 -0.322461,1.52549 -0.310059,0.66973 -0.892969,1.12861 -0.58291,0.45889 -1.389062,0.69453 -0.806153,0.23565 -1.773535,0.23565 -0.595313,0 -1.141016,-0.0992 -0.533301,-0.0868 -0.967383,-0.22324 -0.42168,-0.14883 -0.719336,-0.29766 -0.297656,-0.16123 -0.434082,-0.28525 -0.136426,-0.12403 -0.198437,-0.34727 -0.06201,-0.22324 -0.06201,-0.60771 0,-0.23565 0.02481,-0.39688 0.0248,-0.16123 0.06201,-0.26045 0.03721,-0.0992 0.09922,-0.13642 0.07441,-0.0496 0.161231,-0.0496 0.136425,0 0.396875,0.17363 0.272851,0.16123 0.657324,0.35967 0.396875,0.19844 0.930176,0.37207 0.5333,0.16123 1.227832,0.16123 0.520898,0 0.942578,-0.11162 0.421679,-0.11162 0.731738,-0.32246 0.310059,-0.22325 0.471289,-0.55811 0.173633,-0.33486 0.173633,-0.79375 0,-0.47129 -0.248047,-0.79375 -0.235645,-0.32246 -0.63252,-0.57051 -0.396875,-0.24804 -0.892968,-0.43408 -0.496094,-0.19844 -1.029395,-0.40928 -0.520898,-0.21084 -1.029394,-0.47128 -0.496094,-0.27286 -0.892969,-0.65733 -0.396875,-0.38447 -0.644922,-0.91777 -0.235644,-0.5333 -0.235644,-1.27744 0,-0.65733 0.248046,-1.25264 0.26045,-0.60772 0.768946,-1.0542 0.508496,-0.45889 1.265039,-0.73174 0.768945,-0.27285 1.785937,-0.27285 0.446485,0 0.892969,0.0744 0.446484,0.0744 0.806152,0.18604 0.359668,0.11162 0.607715,0.24805 0.260449,0.12402 0.384473,0.22324 0.136426,0.0992 0.173633,0.17363 0.04961,0.0744 0.06201,0.17363 0.02481,0.0868 0.03721,0.22325 0.02481,0.13642 0.02481,0.33486 0,0.21084 -0.02481,0.37207 -0.0124,0.14883 -0.06201,0.24805 -0.03721,0.0992 -0.09922,0.14883 -0.06201,0.0372 -0.136426,0.0372 -0.111621,0 -0.322461,-0.13642 -0.21084,-0.13643 -0.545703,-0.28526 -0.334863,-0.16123 -0.79375,-0.29765 -0.446484,-0.13643 -1.029394,-0.13643 -0.520899,0 -0.917774,0.12402 -0.396875,0.11162 -0.657324,0.33487 -0.248047,0.21084 -0.384473,0.50849 -0.124023,0.29766 -0.124023,0.64493 0,0.48369 0.248047,0.81855 0.248047,0.32246 0.644922,0.57051 0.396875,0.24804 0.905371,0.44648 0.508496,0.19844 1.029394,0.40928 0.533301,0.21084 1.041797,0.47129 0.520898,0.26045 0.917773,0.63252 0.396875,0.37207 0.63252,0.89297 0.248047,0.52089 0.248047,1.24023 z"
         style="fill:#f00000;fill-opacity:1;stroke-width:0.26458332"
         id="path5181" />
      <path
         d="m 110.98028,288.67719 q 0,0.0992 -0.0496,0.17363 -0.0496,0.062 -0.16123,0.11162 -0.11162,0.0496 -0.31006,0.0744 -0.19843,0.0248 -0.49609,0.0248 -0.31006,0 -0.5085,-0.0248 -0.19843,-0.0248 -0.31005,-0.0744 -0.11162,-0.0496 -0.16123,-0.11162 -0.0496,-0.0744 -0.0496,-0.17363 v -6.53604 q 0,-0.95498 -0.14883,-1.53789 -0.14883,-0.58291 -0.43408,-1.00459 -0.28526,-0.42168 -0.74414,-0.64492 -0.44649,-0.22324 -1.0418,-0.22324 -0.76895,0 -1.53789,0.5457 -0.76895,0.5457 -1.61231,1.5999 v 7.80108 q 0,0.0992 -0.0496,0.17363 -0.0496,0.062 -0.16123,0.11162 -0.11162,0.0496 -0.31006,0.0744 -0.19843,0.0248 -0.50849,0.0248 -0.29766,0 -0.49609,-0.0248 -0.19844,-0.0248 -0.32247,-0.0744 -0.11162,-0.0496 -0.16123,-0.11162 -0.0372,-0.0744 -0.0372,-0.17363 v -11.16211 q 0,-0.0992 0.0372,-0.16123 0.0372,-0.0744 0.14883,-0.12403 0.11162,-0.062 0.28526,-0.0744 0.17363,-0.0248 0.45888,-0.0248 0.27285,0 0.44649,0.0248 0.18603,0.0124 0.28525,0.0744 0.0992,0.0496 0.13643,0.12403 0.0496,0.062 0.0496,0.16123 v 1.47587 q 0.94257,-1.05419 1.87275,-1.53789 0.94258,-0.49609 1.89756,-0.49609 1.11621,0 1.87275,0.38447 0.76895,0.37207 1.24024,1.00459 0.47129,0.63252 0.66972,1.48828 0.21084,0.84336 0.21084,2.03399 z"
         style="fill:#f00000;fill-opacity:1;stroke-width:0.26458332"
         id="path5183" />
      <path
         d="m 116.41251,277.80033 q 0,0.0992 -0.0496,0.17363 -0.0372,0.0744 -0.13642,0.12403 -0.0868,0.0496 -0.23565,0.0744 -0.14883,0.0248 -0.37207,0.0248 -0.22324,0 -0.38447,-0.0248 -0.14883,-0.0248 -0.23564,-0.0744 -0.0868,-0.0496 -0.13643,-0.12403 -0.0372,-0.0744 -0.0372,-0.17363 l -0.28525,-5.74229 q 0,-0.0992 0.062,-0.17363 0.062,-0.0744 0.18604,-0.12402 0.13642,-0.0496 0.33486,-0.0744 0.21084,-0.0248 0.49609,-0.0248 0.29766,0 0.4961,0.0248 0.21084,0.0124 0.33486,0.0744 0.13643,0.0496 0.18603,0.12402 0.062,0.0744 0.0496,0.17363 z"
         style="fill:#f00000;fill-opacity:1;stroke-width:0.26458332"
         id="path5185" />
      <path
         d="m 126.12355,287.85863 q 0,0.35967 -0.0496,0.57051 -0.0496,0.21084 -0.14883,0.31006 -0.0992,0.0992 -0.29766,0.18603 -0.19843,0.0868 -0.45888,0.13643 -0.24805,0.062 -0.5333,0.0992 -0.28526,0.0372 -0.57051,0.0372 -0.86817,0 -1.48828,-0.22324 -0.62012,-0.23564 -1.017,-0.69453 -0.39687,-0.47129 -0.58291,-1.17822 -0.17363,-0.71934 -0.17363,-1.68672 v -6.52363 h -1.56269 q -0.18604,0 -0.29766,-0.19844 -0.11162,-0.19844 -0.11162,-0.64492 0,-0.23565 0.0248,-0.39688 0.0372,-0.16123 0.0868,-0.26045 0.0496,-0.11162 0.12402,-0.14883 0.0868,-0.0496 0.18604,-0.0496 h 1.55029 v -2.6541 q 0,-0.0868 0.0372,-0.16123 0.0496,-0.0744 0.16123,-0.12402 0.12402,-0.062 0.32246,-0.0868 0.19844,-0.0248 0.49609,-0.0248 0.31006,0 0.5085,0.0248 0.19844,0.0248 0.31006,0.0868 0.11162,0.0496 0.16123,0.12402 0.0496,0.0744 0.0496,0.16123 v 2.6541 h 2.86494 q 0.0992,0 0.17363,0.0496 0.0744,0.0372 0.12403,0.14883 0.062,0.0992 0.0868,0.26045 0.0248,0.16123 0.0248,0.39688 0,0.44648 -0.11162,0.64492 -0.11163,0.19844 -0.29766,0.19844 h -2.86494 v 6.22597 q 0,1.15342 0.33486,1.74873 0.34727,0.58291 1.22783,0.58291 0.28526,0 0.5085,-0.0496 0.22324,-0.062 0.39687,-0.12402 0.17364,-0.062 0.29766,-0.11162 0.12402,-0.062 0.22324,-0.062 0.062,0 0.11162,0.0372 0.062,0.0248 0.0868,0.11163 0.0372,0.0868 0.062,0.23564 0.0248,0.14883 0.0248,0.37207 z"
         style="fill:#f00000;fill-opacity:1;stroke-width:0.26458332"
         id="path5187" />
      <path
         d="m 152.29249,288.66478 q 0,0.0992 -0.0496,0.17364 -0.0496,0.0744 -0.17363,0.12402 -0.12403,0.0372 -0.32246,0.062 -0.18604,0.0372 -0.4961,0.0372 -0.28525,0 -0.49609,-0.0372 -0.19844,-0.0248 -0.32246,-0.062 -0.11162,-0.0496 -0.16123,-0.12402 -0.0496,-0.0744 -0.0496,-0.17364 v -13.97744 h -0.0248 l -5.71748,14.03945 q -0.0372,0.0868 -0.11162,0.14883 -0.062,0.062 -0.19844,0.11162 -0.12402,0.0372 -0.31005,0.0496 -0.17364,0.0248 -0.42168,0.0248 -0.26045,0 -0.44649,-0.0248 -0.18603,-0.0248 -0.31006,-0.062 -0.12402,-0.0496 -0.19843,-0.11162 -0.062,-0.062 -0.0868,-0.13643 l -5.46943,-14.03945 h -0.0124 v 13.97744 q 0,0.0992 -0.0496,0.17364 -0.0496,0.0744 -0.17363,0.12402 -0.12402,0.0372 -0.32246,0.062 -0.19844,0.0372 -0.5085,0.0372 -0.29765,0 -0.49609,-0.0372 -0.19844,-0.0248 -0.32246,-0.062 -0.11162,-0.0496 -0.16123,-0.12402 -0.0372,-0.0744 -0.0372,-0.17364 v -14.75879 q 0,-0.52089 0.27285,-0.74414 0.27286,-0.22324 0.60772,-0.22324 h 1.28984 q 0.39688,0 0.69453,0.0744 0.29766,0.0744 0.5209,0.23564 0.22324,0.16123 0.37207,0.40928 0.14883,0.24804 0.26045,0.58291 l 4.65088,11.62099 h 0.062 l 4.83692,-11.58379 q 0.13642,-0.37207 0.29765,-0.63252 0.16123,-0.26044 0.34727,-0.40927 0.19844,-0.16123 0.43408,-0.22324 0.23564,-0.0744 0.5457,-0.0744 h 1.35186 q 0.18603,0 0.34726,0.062 0.17364,0.0496 0.28526,0.17364 0.12402,0.11162 0.19844,0.29765 0.0744,0.17363 0.0744,0.43408 z"
         style="fill:#f00000;fill-opacity:1;stroke-width:0.26458332"
         id="path5189" />
      <path
         d="m 164.74445,288.68959 q 0,0.14883 -0.0992,0.22324 -0.0992,0.0744 -0.27285,0.11162 -0.17363,0.0372 -0.5085,0.0372 -0.32246,0 -0.5209,-0.0372 -0.18603,-0.0372 -0.27285,-0.11162 -0.0868,-0.0744 -0.0868,-0.22324 v -1.11621 q -0.73174,0.78134 -1.63711,1.21543 -0.89297,0.43408 -1.89756,0.43408 -0.88057,0 -1.5999,-0.23565 -0.70694,-0.22324 -1.21543,-0.65732 -0.4961,-0.43408 -0.78135,-1.0666 -0.27285,-0.63252 -0.27285,-1.43867 0,-0.94258 0.38447,-1.63711 0.38447,-0.69453 1.10381,-1.15342 0.71933,-0.45889 1.76113,-0.68213 1.0418,-0.23564 2.34404,-0.23564 h 1.53789 v -0.86817 q 0,-0.64492 -0.13642,-1.14101 -0.13643,-0.4961 -0.44649,-0.81856 -0.29765,-0.33486 -0.78134,-0.49609 -0.48369,-0.17364 -1.19063,-0.17364 -0.75654,0 -1.36426,0.18604 -0.59531,0.17363 -1.05419,0.39687 -0.44649,0.21084 -0.75655,0.39688 -0.29765,0.17363 -0.44648,0.17363 -0.0992,0 -0.17363,-0.0496 -0.0744,-0.0496 -0.13643,-0.14883 -0.0496,-0.0992 -0.0744,-0.24804 -0.0248,-0.16123 -0.0248,-0.34727 0,-0.31006 0.0372,-0.48369 0.0496,-0.18603 0.21084,-0.34726 0.17363,-0.16124 0.58291,-0.37207 0.40927,-0.22325 0.94258,-0.39688 0.5333,-0.18604 1.16582,-0.29766 0.63252,-0.12402 1.27744,-0.12402 1.20302,0 2.04638,0.27285 0.84336,0.27285 1.36426,0.80615 0.5209,0.5209 0.75654,1.30225 0.23565,0.78135 0.23565,1.82314 z m -2.03399,-5.09737 h -1.74873 q -0.84335,0 -1.46347,0.14883 -0.62012,0.13643 -1.0294,0.42168 -0.40927,0.27285 -0.60771,0.66973 -0.18604,0.38447 -0.18604,0.89297 0,0.86816 0.54571,1.38906 0.5581,0.5085 1.55029,0.5085 0.80615,0 1.48828,-0.40928 0.69453,-0.40928 1.45107,-1.25264 z"
         style="fill:#f00000;fill-opacity:1;stroke-width:0.26458332"
         id="path5191" />
      <path
         d="m 174.04621,287.85863 q 0,0.35967 -0.0496,0.57051 -0.0496,0.21084 -0.14883,0.31006 -0.0992,0.0992 -0.29766,0.18603 -0.19843,0.0868 -0.45888,0.13643 -0.24805,0.062 -0.5333,0.0992 -0.28526,0.0372 -0.57051,0.0372 -0.86817,0 -1.48828,-0.22324 -0.62012,-0.23564 -1.017,-0.69453 -0.39687,-0.47129 -0.58291,-1.17822 -0.17363,-0.71934 -0.17363,-1.68672 v -6.52363 h -1.56269 q -0.18604,0 -0.29766,-0.19844 -0.11162,-0.19844 -0.11162,-0.64492 0,-0.23565 0.0248,-0.39688 0.0372,-0.16123 0.0868,-0.26045 0.0496,-0.11162 0.12402,-0.14883 0.0868,-0.0496 0.18604,-0.0496 h 1.55029 v -2.6541 q 0,-0.0868 0.0372,-0.16123 0.0496,-0.0744 0.16123,-0.12402 0.12402,-0.062 0.32246,-0.0868 0.19844,-0.0248 0.49609,-0.0248 0.31006,0 0.5085,0.0248 0.19844,0.0248 0.31006,0.0868 0.11162,0.0496 0.16123,0.12402 0.0496,0.0744 0.0496,0.16123 v 2.6541 h 2.86494 q 0.0992,0 0.17363,0.0496 0.0744,0.0372 0.12403,0.14883 0.062,0.0992 0.0868,0.26045 0.0248,0.16123 0.0248,0.39688 0,0.44648 -0.11162,0.64492 -0.11163,0.19844 -0.29766,0.19844 h -2.86494 v 6.22597 q 0,1.15342 0.33486,1.74873 0.34727,0.58291 1.22783,0.58291 0.28526,0 0.5085,-0.0496 0.22324,-0.062 0.39687,-0.12402 0.17364,-0.062 0.29766,-0.11162 0.12402,-0.062 0.22324,-0.062 0.062,0 0.11162,0.0372 0.062,0.0248 0.0868,0.11163 0.0372,0.0868 0.062,0.23564 0.0248,0.14883 0.0248,0.37207 z"
         style="fill:#f00000;fill-opacity:1;stroke-width:0.26458332"
         id="path5193" />
      <path
         d="m 184.50138,286.97806 q 0,0.21084 -0.0124,0.37207 -0.0124,0.14883 -0.0496,0.26045 -0.0248,0.0992 -0.0744,0.18604 -0.0372,0.0744 -0.19843,0.23564 -0.14883,0.14883 -0.5209,0.38448 -0.37207,0.22324 -0.84336,0.40927 -0.45889,0.17364 -1.00459,0.28526 -0.5457,0.11162 -1.12861,0.11162 -1.20303,0 -2.13321,-0.39688 -0.93017,-0.39687 -1.56269,-1.15341 -0.62012,-0.76895 -0.95498,-1.87276 -0.32246,-1.11621 -0.32246,-2.56728 0,-1.64952 0.39687,-2.82774 0.40928,-1.19062 1.10381,-1.94717 0.70693,-0.75654 1.64951,-1.11621 0.95498,-0.37207 2.05879,-0.37207 0.5333,0 1.02939,0.0992 0.5085,0.0992 0.93018,0.26045 0.42168,0.16123 0.74414,0.37207 0.33486,0.21084 0.48369,0.35967 0.14883,0.14883 0.19844,0.23564 0.062,0.0868 0.0992,0.21084 0.0372,0.11162 0.0496,0.26045 0.0124,0.14883 0.0124,0.37207 0,0.48369 -0.11162,0.68213 -0.11162,0.18604 -0.27285,0.18604 -0.18604,0 -0.43408,-0.19844 -0.23565,-0.21084 -0.60772,-0.45889 -0.37207,-0.24804 -0.90537,-0.44648 -0.5209,-0.21084 -1.24023,-0.21084 -1.47588,0 -2.26963,1.14101 -0.78135,1.12862 -0.78135,3.28663 0,1.079 0.19844,1.89755 0.21084,0.80616 0.60771,1.35186 0.39688,0.5457 0.96738,0.81855 0.58291,0.26045 1.32705,0.26045 0.70694,0 1.24024,-0.22324 0.5333,-0.22324 0.91777,-0.48369 0.39688,-0.27285 0.65733,-0.48369 0.27285,-0.22324 0.42168,-0.22324 0.0868,0 0.14882,0.0496 0.062,0.0496 0.0992,0.17363 0.0496,0.11162 0.062,0.29765 0.0248,0.17364 0.0248,0.42168 z"
         style="fill:#f00000;fill-opacity:1;stroke-width:0.26458332"
         id="path5195" />
      <path
         d="m 196.85411,288.67719 q 0,0.0992 -0.0496,0.17363 -0.0496,0.062 -0.16123,0.11162 -0.11162,0.0496 -0.31006,0.0744 -0.19844,0.0248 -0.49609,0.0248 -0.31006,0 -0.5085,-0.0248 -0.19844,-0.0248 -0.31006,-0.0744 -0.11162,-0.0496 -0.16123,-0.11162 -0.0496,-0.0744 -0.0496,-0.17363 v -6.53604 q 0,-0.95498 -0.14883,-1.53789 -0.14882,-0.58291 -0.43408,-1.00459 -0.28525,-0.42168 -0.74414,-0.64492 -0.44648,-0.22324 -1.0418,-0.22324 -0.76894,0 -1.53789,0.5457 -0.76894,0.5457 -1.6123,1.5999 v 7.80108 q 0,0.0992 -0.0496,0.17363 -0.0496,0.062 -0.16123,0.11162 -0.11162,0.0496 -0.31006,0.0744 -0.19844,0.0248 -0.5085,0.0248 -0.29765,0 -0.49609,-0.0248 -0.19844,-0.0248 -0.32246,-0.0744 -0.11162,-0.0496 -0.16123,-0.11162 -0.0372,-0.0744 -0.0372,-0.17363 v -16.56954 q 0,-0.0992 0.0372,-0.17363 0.0496,-0.0744 0.16123,-0.12402 0.12402,-0.0496 0.32246,-0.0744 0.19844,-0.0248 0.49609,-0.0248 0.31006,0 0.5085,0.0248 0.19844,0.0248 0.31006,0.0744 0.11162,0.0496 0.16123,0.12402 0.0496,0.0744 0.0496,0.17363 v 6.68487 q 0.88056,-0.93018 1.77353,-1.37666 0.89297,-0.45889 1.79834,-0.45889 1.11621,0 1.87276,0.38447 0.76894,0.37207 1.24023,1.00459 0.47129,0.63252 0.66973,1.48828 0.21084,0.84336 0.21084,2.04639 z"
         style="fill:#f00000;fill-opacity:1;stroke-width:0.26458332"
         id="path5197" />
    </g>
  </g>
</svg>
