<svg width="730" height="96" version="1.1" viewBox="0 0 193.15 25.4" xmlns="http://www.w3.org/2000/svg">
<g transform="translate(-5.8911 -269.3)">
<text x="6.4144688" y="280.69653" fill="#000000" font-family="Calibri" font-size="19.756px" letter-spacing="0px" stroke-width=".26458" word-spacing="0px" style="line-height:1.25" xml:space="preserve"><tspan x="6.4144688" y="297.98264" font-size="19.756px" stroke-width=".26458"/></text>
<text x="7.2162771" y="288.18008" fill="#000000" font-family="Calibri" font-size="12.7px" letter-spacing="0px" stroke-width=".26458" word-spacing="0px" style="line-height:1.25" xml:space="preserve"><tspan x="7.2162771" y="299.29257" stroke-width=".26458"/></text>
<path d="m115.62 270.07c-0.23618 0-0.45857 9e-3 -0.68164 0.0352h-6e-3l-6e-3 2e-3c-0.21711 0.0271-0.43628 0.0677-0.67969 0.15625l-0.0254 0.01-0.0234 0.01c-0.25211 0.10084-0.55098 0.2639-0.81446 0.58008s-0.42969 0.79453-0.42969 1.1914v0.0391l0.28711 5.7812-2e-3 -0.0781c0 0.26458 0.0521 0.58078 0.20313 0.88281l0.0449 0.0879 0.0547 0.084c0.17983 0.26975 0.42826 0.483 0.66992 0.62109 0.2982 0.1704 0.54259 0.2252 0.76172 0.26172l0.02 4e-3c0.21632 0.0333 0.41933 0.043 0.62695 0.043 0.20763 0 0.40663-9e-3 0.63281-0.0469 0.20283-0.0338 0.43625-0.0998 0.70508-0.24219 0.16618-0.0858 0.32775-0.30912 0.49805-0.49023 0.0468 0.16041-2e-3 0.27657 0.10351 0.46484 0.25591 0.45495 0.97541 0.98651 1.6562 1v4.9453c0 0.7399 0.0649 1.4212 0.21875 2.0586l8e-3 0.0312c0.17263 0.65601 0.46652 1.277 0.90429 1.7969l6e-3 8e-3 8e-3 8e-3c0.44424 0.51366 1.0242 0.90193 1.6523 1.1406l0.0137 4e-3 0.0137 6e-3c0.63556 0.2288 1.3106 0.31641 2.0254 0.31641 0.25919 0 0.51793-0.0172 0.77539-0.0508 0.22308-0.0291 0.43938-0.0703 0.65235-0.1211 0.25877-0.0509 0.51626-0.12271 0.77148-0.23437 0.24674-0.10795 0.50658-0.24096 0.78321-0.51758 0.37016-0.37017 0.49786-0.75216 0.57226-1.0684 0.0792-0.33647 0.0918-0.62083 0.0918-0.93359 0-0.20763-9e-3 -0.40859-0.0469-0.63477-0.0212-0.12729-0.0704-0.27872-0.12109-0.43164-0.0977-0.3195-0.44024-0.75456-0.90039-1.0098-0.25687-0.13197-0.53334-0.26953-0.80469-0.26953-0.39687 0-0.69945 0.1134-0.93359 0.23047l0.12109-0.0547c-0.0573 0.0229-0.13996 0.0553-0.24219 0.0918-0.0548 0.0196-0.13767 0.0454-0.22265 0.0703-3e-3 4.8e-4 -0.019-6.7e-4 -0.0234 0-0.0378-0.12886-0.0996-0.26881-0.0996-0.73437v-4.6387h1.2773c0.68847 0 1.4225-0.54707 1.6816-1.0078 0.32384-0.57571 0.31446-0.99192 0.31446-1.4219 0-0.2128-9e-3 -0.41631-0.043-0.63867-0.0331-0.2151-0.12752-0.46714-0.26172-0.72461-0.12276-0.25597-0.35308-0.56575-0.74609-0.79493-0.30156-0.17171-0.64825-0.28515-0.94532-0.28515h-1.2773v-1.0664c0-0.36026-0.12528-0.75628-0.31641-1.043-0.23431-0.35146-0.53734-0.53611-0.79297-0.65625-0.30263-0.15109-0.5691-0.21884-0.80273-0.24804-0.23327-0.0292-0.45604-0.0371-0.70508-0.0371-0.24253 0-0.46413 8e-3 -0.69336 0.0371-0.23979 0.03-0.50166 0.0919-0.79101 0.22851-0.26012 0.11871-0.57515 0.3139-0.81641 0.67578l-0.0547 0.082-0.0449 0.0899c-0.13524 0.27048-0.20508 0.58643-0.20508 0.87109v1.0762c-0.30202 7e-3 -0.61788 0.0936-0.88281 0.23438-0.13802 0.0736-0.14925 0.17668-0.25 0.26758l0.18945-3.9844-0.0117 0.12305c0.0517-0.41379-0.11631-0.95244-0.38282-1.3125-0.27777-0.36264-0.5825-0.53854-0.82617-0.63086-0.30482-0.13097-0.58009-0.19005-0.82031-0.20508-0.20081-0.0212-0.39748-0.0332-0.61133-0.0332zm72.641 0.0488c-0.24254 0-0.46413 8e-3 -0.69336 0.0371-0.22116 0.0276-0.4458 0.0682-0.71485 0.17578l-0.0546 0.0234c-0.26385 0.11726-0.59032 0.32199-0.8379 0.69335l-0.0547 0.082-0.0449 0.0898c-0.15102 0.30204-0.20508 0.61823-0.20508 0.88281v5.3809l0.0137 0.0215c-5e-3 -0.01-8e-3 -8e-3 -0.0137-0.0176v0.0293c-0.0153-0.0257-0.0203-0.0505-0.0371-0.0762-0.14943-0.23992-0.27277-0.37823-0.40235-0.50781-0.24803-0.24804-0.47239-0.39659-0.73828-0.56445l-4e-3 -2e-3c-0.3241-0.21148-0.67175-0.3842-1.041-0.52539-0.37602-0.14377-0.77181-0.25284-1.1856-0.33398-6.3e-4 -1.3e-4 -1e-3 1.2e-4 -2e-3 0-0.4374-0.0873-0.88651-0.12891-1.3398-0.12891-0.91216 0-1.8011 0.1549-2.6289 0.47657-0.84963 0.32493-1.6134 0.8449-2.2383 1.5137l-6e-3 6e-3 -4e-3 6e-3c-0.17922 0.19522-0.24928 0.48437-0.40234 0.70312-1e-5 -0.0117 8e-3 -0.0273 8e-3 -0.0391 0-0.2128-9e-3 -0.41631-0.043-0.63867-0.0329-0.21386-0.12526-0.46491-0.25781-0.72071-0.1224-0.25652-0.35314-0.56851-0.74805-0.79883-0.30159-0.17177-0.65013-0.28515-0.94726-0.28515h-1.2773v-1.0664c0-0.36026-0.12528-0.75628-0.31641-1.043-0.23431-0.35146-0.53734-0.53611-0.79297-0.65625-0.30264-0.15109-0.56911-0.21884-0.80273-0.24804-0.23327-0.0292-0.45604-0.0371-0.70508-0.0371-0.24254 0-0.46413 8e-3 -0.69336 0.0371-0.24102 0.0301-0.5018 0.0923-0.79297 0.23047-0.25973 0.11884-0.57382 0.31288-0.81445 0.67382l-0.0547 0.082-0.043 0.0899c-0.13524 0.27048-0.20508 0.58643-0.20508 0.87109v1.0762c-0.30208 7e-3 -0.61979 0.0935-0.88476 0.23438-0.45519 0.24257-0.70201 0.60669-0.82618 0.88086-0.0979 0.20777-0.15527 0.39093-0.19531 0.56445l-0.0137 0.0566-0.01 0.0586c-3e-3 0.0224-9.5e-4 0.0424-4e-3 0.0644-0.12817-0.17431-0.17304-0.40104-0.32617-0.55469-0.5507-0.56071-1.2463-0.95668-2.002-1.2012-0.77258-0.24995-1.6131-0.34961-2.5352-0.34961-0.5271 0-1.053 0.0518-1.5703 0.15234-0.48089 0.0857-0.93999 0.20117-1.375 0.35157-0.42207 0.13798-0.81585 0.30287-1.1836 0.50195-0.33063 0.17055-0.60648 0.31833-0.91992 0.60938l-0.0215 0.0195-0.0215 0.0215c-0.26579 0.26579-0.50712 0.63314-0.62109 1.0606l-0.0117 0.0371-8e-3 0.0391c-0.0654 0.30505-0.0723 0.5462-0.0723 0.81641 0 0.19457 0.0125 0.3897 0.043 0.58789l4e-3 0.02c0.0353 0.21207 0.093 0.4418 0.22071 0.69726l0.0332 0.0684 0.0391 0.0645c0.12958 0.20732 0.31683 0.43582 0.60352 0.62695 0.32056 0.2137 0.722 0.31641 1.0527 0.31641 0.71658 0 0.95014-0.2149 1.248-0.38868l0.016-0.012c0.14531-0.0872 0.35424-0.1981 0.61718-0.32226l0.01-4e-3 8e-3 -4e-3c0.20868-0.10152 0.47812-0.20554 0.80469-0.30079l0.01-2e-3 0.01-4e-3c0.22884-0.0701 0.52615-0.11524 0.90039-0.11524 0.34132 0 0.56331 0.0474 0.6543 0.0801l0.0156 6e-3 0.0176 6e-3c0.10235 0.0341 0.0988 0.0462 0.0977 0.0449l0.0195 0.0234 0.0215 0.0215c5e-3 6e-3 0.0278 0.0196 0.0606 0.13867 9.6e-4 4e-3 1e-3 0.0121 2e-3 0.0156-0.90894 8e-3 -1.7652 0.0796-2.5566 0.25781-0.83605 0.17994-1.6035 0.4659-2.2754 0.89453-0.67759 0.43226-1.2509 1.0222-1.6387 1.7227-0.40369 0.72925-0.58203 1.562-0.58203 2.4062 0 0.71654 0.12328 1.4214 0.40234 2.0684l6e-3 0.0117 4e-3 0.0117c0.276 0.61201 0.67876 1.1676 1.1836 1.6094l0.016 0.012c0.51042 0.43573 1.1128 0.75592 1.7578 0.96094 0.66001 0.21545 1.3613 0.3125 2.0879 0.3125 0.89709 0 1.783-0.20313 2.5879-0.59375 0.0311-0.0149 0.0532-0.0451 0.084-0.0605 0.34378 0.26411 0.65651 0.37505 0.91016 0.42578h0.01l0.01 2e-3c0.28538 0.0535 0.53647 0.0645 0.8125 0.0645 0.28204 0 0.5216-4e-3 0.8418-0.0723 0.26719-0.0573 0.57243-0.15247 0.89258-0.39258 0.47254-0.35441 0.73437-1.0421 0.73437-1.4941v-7.5273c0-0.35731-0.0954-0.66544-0.13281-1.002 0.28727 0.17847 0.61555 0.30456 0.93945 0.31054v4.9453c0 0.7399 0.063 1.4212 0.2168 2.0586l8e-3 0.0312c0.17264 0.65601 0.46653 1.277 0.9043 1.7969l8e-3 8e-3 6e-3 8e-3c0.44424 0.51366 1.0262 0.90193 1.6543 1.1406l0.0137 4e-3 0.0117 6e-3c0.63555 0.2288 1.3125 0.31641 2.0273 0.31641 0.25919 0 0.51793-0.0172 0.77539-0.0508 0.22308-0.0291 0.43938-0.0703 0.65235-0.1211 0.25875-0.0509 0.51433-0.12272 0.76953-0.23437 0.24673-0.10795 0.50853-0.24096 0.78515-0.51758 0.37017-0.37017 0.49592-0.75216 0.57032-1.0684 0.0361-0.15342 0.0275-0.28628 0.041-0.42578 0.0655 0.091 0.086 0.21562 0.15625 0.30273l8e-3 0.01 0.01 0.0117c0.57968 0.69334 1.3207 1.2392 2.1562 1.5957 0.84733 0.36153 1.7812 0.52344 2.7578 0.52344 0.48994 0 0.97279-0.0479 1.4453-0.14453 0.43655-0.0893 0.85263-0.20585 1.248-0.35547l0.0117-4e-3 0.01-4e-3c0.3832-0.15126 0.74333-0.32451 1.0781-0.52539l0.0312-0.02c0.29484-0.18673 0.52421-0.3328 0.79492-0.60351 0.1108-0.1108 0.23306-0.27512 0.36524-0.47657 0 0.26459 0.0541 0.58078 0.20508 0.88282l0.0762 0.15039 0.10351 0.13086c0.26689 0.33361 0.53883 0.47494 0.75782 0.57226l0.0273 0.0117 0.0273 0.01c0.26905 0.10761 0.49369 0.14813 0.71485 0.17578 0.22923 0.0286 0.45082 0.0371 0.69336 0.0371 0.24903 0 0.47181-8e-3 0.70507-0.0371 0.22519-0.0281 0.45409-0.0623 0.75782-0.19727 0.21898-0.0973 0.48897-0.23865 0.75586-0.57226l0.043-0.0527 0.0391-0.0586c0.2137-0.32056 0.3164-0.72201 0.3164-1.0527v-7.1621c0.34137-0.37873 0.69355-0.76802 0.94336-0.94531 0.30896-0.21926 0.48205-0.25195 0.61914-0.25195 0.19844 0 0.28681 0.0321 0.33203 0.0547l0.016 8e-3c0.0687 0.0334 0.0814 0.0458 0.12305 0.10742 0.0717 0.10606 0.14916 0.26585 0.21093 0.50781 0.0478 0.18727 0.0996 0.59035 0.0996 1.1445v6.5371c0 0.33073 0.1027 0.73218 0.31641 1.0527l0.0371 0.0586 0.043 0.0527c0.26689 0.33361 0.53687 0.47494 0.75586 0.57226 0.30373 0.13499 0.53262 0.16912 0.75781 0.19727 0.23327 0.0292 0.45799 0.0371 0.70703 0.0371 0.24254 0 0.46218-8e-3 0.69141-0.0371 0.22519-0.0281 0.45408-0.0623 0.75781-0.19727 0.21898-0.0973 0.49092-0.23865 0.75781-0.57226l0.043-0.0527 0.0371-0.0586c0.21371-0.32056 0.31641-0.72201 0.31641-1.0527v-6.7969c0-0.88758-0.0754-1.6824-0.25586-2.4121-0.1757-0.75284-0.48584-1.4615-0.93946-2.0703-0.46917-0.62968-1.1006-1.1305-1.8105-1.4766-0.78142-0.39321-1.6541-0.55274-2.5742-0.55274-0.68497 0-1.3418 0.24077-1.9844 0.49805v-3.7598c0-0.33073-0.1027-0.73413-0.3164-1.0547-0.24758-0.37136-0.57404-0.57609-0.83789-0.69335-0.30373-0.135-0.53263-0.17107-0.75782-0.19922-0.23326-0.0292-0.45604-0.0371-0.70507-0.0371zm-168.59 1.1914c-0.24904 0-0.47181 8e-3 -0.70508 0.0371h-0.0059l-0.0078 2e-3c-0.23736 0.0316-0.49343 0.0983-0.76758 0.22851-0.25973 0.11885-0.57382 0.31288-0.81445 0.67383-0.19113 0.28669-0.31641 0.68271-0.31641 1.043v6.4102l-3.4473-6.2363c-0.15368-0.27991-0.30959-0.52582-0.48047-0.75977-0.1863-0.2763-0.42515-0.54041-0.73242-0.76367-0.29859-0.22858-0.64339-0.39904-0.99023-0.48633-0.34294-0.0884-0.65854-0.11133-0.98438-0.11133h-1.0176c-0.56097 0-1.1431 0.21545-1.5645 0.54102-0.65858 0.5089-0.89062 1.3411-0.89062 1.9629v14.809c0 0.36026 0.1136 0.7071 0.25977 0.96289l0.025391 0.0469 0.03125 0.0449c0.24757 0.37136 0.57404 0.57805 0.83789 0.69531l0.070313 0.0293 0.072266 0.0254c0.20631 0.0688 0.37132 0.0935 0.54102 0.11719 0.25954 0.0458 0.50109 0.0625 0.75391 0.0625 0.24769 0 0.48278-0.0147 0.74414-0.0625 0.17169-0.0226 0.33557-0.0448 0.55274-0.11719l0.04297-0.0156 0.04492-0.0176c0.26904-0.10762 0.62285-0.29463 0.9043-0.7168l0.0293-0.0449 0.02734-0.0469c0.14617-0.25579 0.25976-0.60263 0.25976-0.96289v-6.9805l3.6094 6.5098c0.18765 0.34757 0.36453 0.64982 0.54688 0.91797l0.02344 0.0352c0.19933 0.27685 0.41361 0.52822 0.67383 0.75782l0.03516 0.0332 0.03906 0.0293c0.27574 0.21446 0.59911 0.39673 0.95703 0.50976l0.04492 0.0137 0.04688 0.0117c0.32239 0.0806 0.63834 0.10938 0.95508 0.10938h0.68359c0.27031 0 0.53941-0.0423 0.78906-0.11914 0.30536-0.094 0.60096-0.26626 0.8457-0.47852 0.26737-0.22676 0.4771-0.52024 0.61328-0.82031 0.17551-0.37147 0.24414-0.74927 0.24414-1.0859v-14.809c0-0.36026-0.12528-0.75628-0.31641-1.043-0.23431-0.35147-0.53734-0.53611-0.79297-0.65625-0.30264-0.15109-0.56911-0.21884-0.80273-0.24805-0.22115-0.0276-0.43796-0.0371-0.66797-0.0371zm31.131 0.0371c-0.55612 0-1.1064 0.22166-1.502 0.52149-0.6886 0.52052-0.87891 1.3415-0.87891 1.9336v14.312c0 0.59383 0.18707 1.3965 0.84375 1.9219l0.0332 0.0273 0.03516 0.0254c0.39669 0.28335 0.93347 0.48047 1.4688 0.48047h3.3984c1.5032 0 2.8545-0.18234 4.0586-0.59375 1.1939-0.40792 2.257-1.0461 3.1152-1.9043 0.85021-0.85021 1.4716-1.9171 1.8945-3.1094 0.0642 0.39956 0.05168 0.84023 0.16406 1.2148 0.2792 0.93066 0.72343 1.7802 1.3398 2.4863 0.62149 0.71189 1.4142 1.2616 2.3027 1.6191h0.0039l2e-3 2e-3c0.91203 0.36262 1.919 0.52149 2.9941 0.52149 1.1143 0 2.1624-0.18133 3.1074-0.58789l0.0078-4e-3c0.91471-0.39953 1.7224-0.98184 2.3555-1.7246 0.59723-0.6914 1.0242-1.5179 1.3223-2.4082 0.01712 0.0589 9e-3 0.13313 0.02734 0.1914 0.29919 0.94916 0.76851 1.8068 1.4199 2.5039 0.64214 0.6872 1.4474 1.2109 2.3418 1.5449h2e-3l2e-3 2e-3c0.90761 0.33496 1.9032 0.48243 2.9688 0.48243 0.60441 0 1.1864-0.0479 1.7461-0.14649 0.5137-0.0814 0.98163-0.17728 1.4102-0.29687 0.40464-0.11292 0.75635-0.22852 1.0859-0.375l0.02148-0.01 0.02148-0.0117c0.1302-0.0627 0.24338-0.11944 0.35742-0.18359 0.11404-0.0641 0.19201-0.0651 0.47461-0.34766 0.11775-0.11775 0.2306-0.2812 0.33594-0.46093 0.06549-0.10738 0.09123-0.23537 0.13672-0.35743 0.11608 0.30008 0.24323 0.61637 0.52344 0.8711 0.26281 0.23891 0.48707 0.36555 0.74609 0.50586l0.02344 0.0137 0.02344 0.0117c0.27732 0.13866 0.57321 0.25757 0.90039 0.37304l0.02539 0.01 0.02734 8e-3c0.36572 0.11494 0.75128 0.20403 1.1582 0.27149 0.0019 3.4e-4 4e-3 -3.5e-4 0.0059 0 0.46197 0.0836 0.93683 0.125 1.4199 0.125 0.77382 0 1.5172-0.0938 2.2188-0.29883 0.70489-0.20605 1.3615-0.52646 1.9258-0.9707 0.57347-0.45146 1.0377-1.0416 1.3457-1.7031 0.14709-0.30835 0.13763-0.66347 0.21484-0.99609v1.8359c0 0.26459 0.05406 0.58078 0.20508 0.88282l0.07422 0.15039 0.10547 0.13086c0.26688 0.33361 0.53687 0.47494 0.75586 0.57226l0.0273 0.0117 0.0273 0.01c0.26905 0.10761 0.49565 0.14813 0.7168 0.17578 0.22923 0.0286 0.44887 0.0371 0.69141 0.0371 0.24903 0 0.47376-8e-3 0.70703-0.0371 0.22519-0.0281 0.45408-0.0623 0.75781-0.19727 0.21898-0.0973 0.48897-0.23865 0.75586-0.57226l0.043-0.0527 0.0371-0.0586c0.2137-0.32056 0.3164-0.72201 0.3164-1.0527v-7.1602c0.3421-0.37978 0.69311-0.76967 0.94336-0.94727 0.30896-0.21926 0.48205-0.25195 0.61914-0.25195 0.19844 0 0.28681 0.0321 0.33203 0.0547l0.016 8e-3c0.0687 0.0334 0.0814 0.0458 0.12305 0.10742 0.0717 0.10606 0.14916 0.26585 0.21093 0.50781 0.0478 0.18727 0.0996 0.59035 0.0996 1.1445v6.5371c0 0.33073 0.1027 0.73218 0.31641 1.0527l0.0391 0.0586 0.043 0.0527c0.26689 0.33361 0.53688 0.47494 0.75586 0.57226 0.30373 0.13499 0.53262 0.16912 0.75781 0.19727 0.23327 0.0292 0.45604 0.0371 0.70508 0.0371 0.24254 0 0.46413-8e-3 0.69336-0.0371 0.22519-0.0281 0.45408-0.0623 0.75781-0.19727 0.21899-0.0973 0.48897-0.23865 0.75586-0.57226l0.043-0.0527 0.0391-0.0586c0.21371-0.32056 0.31641-0.72201 0.31641-1.0527v-6.8086c0-0.88242-0.0769-1.6769-0.25781-2.4062-0.17596-0.75056-0.48512-1.4573-0.9375-2.0644-0.46887-0.62928-1.0992-1.1305-1.8086-1.4766-0.78227-0.39447-1.6567-0.55274-2.5781-0.55274-0.91012 0-1.8099 0.24536-2.6328 0.67774-0.0747 0.0389-0.13169 0.12589-0.20508 0.16796-0.12875-0.11568-0.23864-0.2916-0.36133-0.35742-0.35307-0.19673-0.662-0.26166-0.91602-0.2793-0.19284-0.0222-0.37578-0.0351-0.57226-0.0351-0.20513 0-0.39358 0.0116-0.59375 0.0351-0.24912 0.0194-0.53717 0.0907-0.83594 0.23829-0.2677 0.12513-0.60811 0.36082-0.84375 0.79101-0.17917 0.33391-0.24414 0.66267-0.24414 0.9082v6.8828c-0.06006-0.22153-0.04119-0.45935-0.14062-0.66992-0.2361-0.51596-0.56732-0.99171-0.98242-1.3809-0.38256-0.35866-0.81949-0.6578-1.293-0.89454-0.37687-0.1925-0.76191-0.36711-1.1562-0.52343l-0.01172-4e-3c-0.34929-0.14132-0.69358-0.27881-1.0352-0.41211-0.26061-0.1017-0.47505-0.20975-0.64258-0.31445-0.0156-0.01-0.01359-0.0141-0.02734-0.0234 0.0827-0.0206 0.18883-0.043 0.37695-0.043 0.26476 0 0.45339 0.0319 0.56641 0.0664l0.0118 4e-3c0.24329 0.0723 0.43109 0.14463 0.55664 0.20508l0.02148 0.0117 0.02344 0.01c0.17173 0.0763 0.28834 0.14027 0.32812 0.16601 0.24784 0.16037 0.46242 0.39258 1.1836 0.39258 0.31419 0 0.67156-0.0947 0.95312-0.26367l0.0918-0.0547 0.08398-0.0664c0.3014-0.24112 0.45295-0.52961 0.55274-0.7754 0.10984-0.2522 0.1721-0.49141 0.19141-0.70117 0.02341-0.18074 0.03711-0.35687 0.03711-0.5332 0-0.1803-0.01484-0.36319-0.04688-0.5625-0.0073-0.068-0.02511-0.14792-0.03906-0.22266-0.03351-0.23662-0.12986-0.49221-0.26758-0.72851-0.21188-0.37134-0.41338-0.53498-0.58008-0.6543-0.21718-0.16754-0.40437-0.26865-0.60547-0.36523-0.27852-0.14971-0.56342-0.26511-0.86719-0.35938-0.322-0.0999-0.65919-0.17692-1.0156-0.23633-0.3823-0.0637-0.76845-0.0957-1.1543-0.0957-0.81997 0-1.5959 0.10957-2.3164 0.36524h-0.0039l-0.0039 2e-3c-0.65972 0.23793-1.2662 0.58096-1.7773 1.0391-0.5039 0.44384-0.91313 0.99783-1.1777 1.6152l-0.0039 8e-3 -2e-3 6e-3c-0.13775 0.33059-0.14796 0.69404-0.20898 1.0469-0.24079-0.70406-0.54212-1.3859-1.0137-1.9473-0.55817-0.67304-1.2782-1.2024-2.0898-1.5703-0.87133-0.3988-1.8434-0.56445-2.8867-0.56445-1.0035 0-1.9713 0.1823-2.8516 0.56641-0.86741 0.3705-1.6407 0.92851-2.2617 1.6367v2e-3c-0.60339 0.68959-1.038 1.5218-1.3418 2.4316-0.0011-4e-3 -8.27e-4 -8e-3 -2e-3 -0.0117-0.27928-0.92896-0.72438-1.7755-1.3398-2.4805-0.62403-0.71479-1.4227-1.2646-2.3184-1.6211-0.90724-0.36449-1.9087-0.52344-2.9824-0.52344-1.1211 0-2.1721 0.18044-3.1191 0.58789-0.9116 0.3922-1.7203 0.97079-2.3594 1.709l-0.0039 6e-3 -0.0059 6e-3c-0.47834 0.56227-0.77351 1.2596-1.0586 1.959-0.07961-0.92395-0.13452-1.859-0.42383-2.6797-0.39718-1.15-1.0154-2.1773-1.834-3.0195-0.81828-0.85819-1.838-1.5109-2.9922-1.9394-1.195-0.45205-2.5534-0.64649-4.0781-0.64649zm84.918 0c-0.57602 0-1.185 0.23165-1.6133 0.58203-0.65026 0.53203-0.85352 1.3482-0.85352 1.9727v14.758c0 0.26459 0.0521 0.58273 0.20312 0.88477l0.0449 0.0879 0.0547 0.082c0.24758 0.37136 0.57404 0.57805 0.83789 0.69531l0.0918 0.0391 0.0957 0.0293c0.18926 0.0568 0.35099 0.0811 0.51758 0.10352 0.26108 0.0464 0.50369 0.0625 0.75782 0.0625 0.26033 0 0.50412-0.0148 0.77148-0.0625 0.16597-0.0224 0.32705-0.0469 0.51562-0.10352l0.0684-0.0195 0.0645-0.0273c0.26904-0.10762 0.6248-0.29463 0.90625-0.7168 0.2137-0.32056 0.3164-0.72396 0.3164-1.0547v-5.5566l2.4141 6.1953-0.0274-0.0742c0.10021 0.30061 0.27969 0.5668 0.47071 0.75781l0.0508 0.0508 0.0566 0.0449c0.22288 0.18573 0.43219 0.29007 0.625 0.36719l0.0644 0.0254 0.0684 0.0215c0.19893 0.0597 0.37535 0.0911 0.55664 0.11524 0.22022 0.0294 0.43222 0.0371 0.65625 0.0371 0.19718 0 0.38687-0.0124 0.58398-0.0371 0.18892-0.0147 0.37915-0.0362 0.60352-0.10352l0.043-0.0137 0.043-0.0156c0.20005-0.0727 0.44346-0.1929 0.71484-0.44141 0.20745-0.18697 0.39942-0.42351 0.51172-0.68555l6e-3 -0.0117 2.6914-6.6094v5.9336c0 0.33073 0.10074 0.73413 0.31445 1.0547 0.24757 0.37136 0.57404 0.57805 0.83789 0.69531l0.0918 0.0391 0.0977 0.0293c0.1964 0.0589 0.36393 0.0847 0.53711 0.10742 0.24854 0.0414 0.48893 0.0586 0.73633 0.0586 0.25454 0 0.49275-0.0129 0.76172-0.0625 0.16534-0.0224 0.32578-0.0471 0.51367-0.10352l0.0684-0.0195 0.0644-0.0273c0.26905-0.10762 0.62481-0.29463 0.90625-0.7168 0.21371-0.32056 0.31641-0.72396 0.31641-1.0547v-14.758c0-0.31768-0.0452-0.66664-0.19922-1.0371-0.11144-0.27377-0.30023-0.55299-0.54687-0.79687-0.2594-0.26594-0.59061-0.46548-0.91797-0.56836-0.27301-0.0932-0.55841-0.15235-0.83008-0.15235h-1.3516c-0.31909 0-0.64646 0.0435-0.97852 0.14258-0.36453 0.1011-0.71173 0.27782-0.99609 0.50781-0.2991 0.2406-0.52226 0.51957-0.70117 0.8086-0.18009 0.29091-0.32014 0.59646-0.43946 0.92187l0.0254-0.0664-3.373 8.0762-3.2383-8.0918 0.0332 0.0879c-0.10417-0.31249-0.23497-0.61101-0.40625-0.89648-0.20132-0.33553-0.4764-0.64517-0.80274-0.88086s-0.69684-0.39589-1.0664-0.48828c-0.3595-0.0899-0.71433-0.1211-1.0781-0.1211zm-106.09 4.0176c-1.1211 0-2.1721 0.18044-3.1191 0.58789-0.9116 0.3922-1.7203 0.97079-2.3594 1.709l-0.0039 6e-3 -0.0059 6e-3c-0.62009 0.72888-1.0775 1.5914-1.373 2.5391v6e-3l-2e-3 6e-3c-0.28282 0.92927-0.41602 1.9226-0.41602 2.9668 0 1.0679 0.12609 2.0655 0.40234 2.9863 0.2792 0.93066 0.72343 1.7802 1.3398 2.4863 0.62149 0.71189 1.4142 1.2616 2.3027 1.6191h0.0039l2e-3 2e-3c0.91203 0.36262 1.919 0.52149 2.9941 0.52149 1.1143 0 2.1624-0.18133 3.1074-0.58789l0.0078-4e-3c0.91471-0.39953 1.7224-0.98184 2.3555-1.7246 0.62688-0.72572 1.0916-1.5849 1.3887-2.5273v-4e-3c0.29273-0.93876 0.43164-1.9412 0.43164-2.9902 0-1.0612-0.13087-2.0575-0.41602-2.9785-0.27928-0.92896-0.72438-1.7755-1.3398-2.4805-0.62403-0.71479-1.4227-1.2646-2.3184-1.6211-0.90724-0.36449-1.9087-0.52344-2.9824-0.52344zm160.72 0.62695c-3e-3 1e-3 -5e-3 4e-3 -8e-3 6e-3 -2e-3 1e-3 -5e-3 7e-4 -8e-3 2e-3zm-136.62 0.30274h0.58398c0.96183 0 1.6591 0.14404 2.082 0.32812 0.50097 0.21807 0.85972 0.48909 1.1504 0.83789l0.0039 6e-3 0.0059 4e-3c0.30857 0.36367 0.54106 0.79701 0.70117 1.3574v4e-3c0.16929 0.58599 0.25977 1.2414 0.25977 1.9785 0 0.97515-0.1098 1.7721-0.29297 2.3848v6e-3l-2e-3 4e-3c-0.17698 0.60681-0.42184 1.0419-0.7168 1.373-0.29529 0.33156-0.6394 0.56918-1.1191 0.74414-0.46935 0.17118-1.1559 0.28711-2.0488 0.28711h-0.60742zm50.676 0.0625 0.17969 0.2832c-0.0316-0.0632-0.088-0.0668-0.125-0.12305-0.0335-0.0535-0.0143-0.10973-0.0547-0.16015zm13.117 0.32031c-9e-3 0.0185-9e-3 0.0308-0.0176 0.0488-2e-3 5e-3 -0.0116 0.011-0.0137 0.0156zm-24.002 0.45898c-0.0054 2e-3 -0.01018 6e-3 -0.01563 8e-3 -0.0089 3e-3 -0.01843 1e-3 -0.02734 4e-3zm68.326 0.14649 0.0352 0.0117c-7e-3 -2e-3 -0.0146-1e-3 -0.0215-4e-3 -5e-3 -2e-3 -9e-3 -6e-3 -0.0137-8e-3zm20.826 0.12891 0.041 0.0156c-5e-3 -2e-3 -0.0107 2e-5 -0.0156-2e-3 -9e-3 -3e-3 -0.0161-0.0102-0.0254-0.0137zm-74.373 0.10937 0.0156 8e-3c-3e-3 -2e-3 -7e-3 -4.3e-4 -0.01-2e-3 -2e-3 -1e-3 -3e-3 -5e-3 -6e-3 -6e-3zm85.875 0 0.0156 8e-3c-3e-3 -2e-3 -7e-3 -4.3e-4 -0.01-2e-3 -2e-3 -1e-3 -3e-3 -5e-3 -6e-3 -6e-3zm-162.25 0.0996 0.01953 0.01c-0.0035-2e-3 -0.0082-5e-5 -0.01172-2e-3 -0.0033-2e-3 -0.0045-6e-3 -0.0078-8e-3zm40.68 0 0.01953 0.01c-0.0035-2e-3 -0.0082-5e-5 -0.01172-2e-3 -0.0033-2e-3 -0.0045-6e-3 -0.0078-8e-3zm113.29 0.38086 0.0137 0.0449c-2e-3 -6e-3 -6e-3 -0.012-8e-3 -0.0176-3e-3 -0.01-3e-3 -0.0176-6e-3 -0.0273zm-22.625 0.18164 0.043 0.0469c-7e-3 -8e-3 -0.0183-0.01-0.0254-0.0176-8e-3 -9e-3 -9e-3 -0.0208-0.0176-0.0293zm-7.0898 0.0391c-2e-3 9.5e-4 7e-3 -8.6e-4 6e-3 0-7e-3 4e-3 -0.0165 8e-3 -0.0234 0.0117zm28.432 0.33985c-1.7e-4 -9e-5 0.012 4e-3 0.0117 4e-3l0.0664 0.0566c-0.0236-0.0211-0.054-0.0398-0.0781-0.0605zm-66.83 0.11718-0.0996 0.17188c0.0213-0.032 0.0121-0.072 0.0312-0.10547 0.0188-0.0323 0.0512-0.0321 0.0684-0.0664zm-92.152 0.29493c-0.0012 2e-3 -7.59e-4 4e-3 -2e-3 6e-3 -0.0019 3e-3 -0.0059 3e-3 -0.0078 6e-3zm40.68 0c-0.0012 2e-3 -7.6e-4 4e-3 -2e-3 6e-3 -0.0019 3e-3 -0.0059 3e-3 -0.0078 6e-3zm23.246 0.76171 0.0078 0.0234c-0.0012-4e-3 -0.0046-7e-3 -0.0059-0.0117-0.0011-4e-3 -8.35e-4 -8e-3 -2e-3 -0.0117zm-6.2344 0.4043c0.54228 0 0.66668 0.12487 0.81836 0.27344h-1.6348c0.06617-0.0504 0.10954-0.11141 0.19922-0.15625 0.12928-0.0646 0.31235-0.11719 0.61719-0.11719zm91.225 0.0332c-0.27874 0.93145-0.43946 1.9305-0.43946 3.0547 0 0.90321 0.13931 1.7148 0.32031 2.5039-0.22465-0.0939-0.44109-0.22266-0.66601-0.22266-0.39688 0-0.69946 0.1134-0.9336 0.23047l0.11915-0.0547c-0.0573 0.0229-0.13801 0.0553-0.24024 0.0918-0.0545 0.0195-0.13837 0.0456-0.22265 0.0703-3e-3 4.9e-4 -0.0205-7.2e-4 -0.0254 0-0.0378-0.12886-0.0996-0.26881-0.0996-0.73437v-4.6387h1.2773c0.31279 0 0.62745-0.13438 0.91016-0.30079zm-95.604 0.0137c-4.12e-4 1e-3 4.12e-4 3e-3 0 4e-3 -7.5e-4 2e-3 -0.0032 4e-3 -0.0039 6e-3zm-49.396 0.0644c0.45894 0 0.72816 0.0837 0.875 0.16406l0.0196 0.012c0.21306 0.11256 0.33254 0.22523 0.44336 0.40039 0.14036 0.22185 0.25514 0.50225 0.33008 0.87695l2e-3 0.0117 2e-3 0.01c0.09 0.41785 0.13867 0.87681 0.13867 1.3789 0 0.53637-0.05528 0.99824-0.15234 1.3926-0.09114 0.37025-0.2185 0.63505-0.36523 0.83789-0.133 0.18386-0.27304 0.30461-0.49219 0.41211-0.18302 0.0898-0.44734 0.16016-0.85156 0.16016-0.46152 0-0.7356-0.0834-0.88672-0.16211-0.218-0.12172-0.35341-0.25135-0.4707-0.42383-0.13774-0.22221-0.2538-0.49905-0.33398-0.86328-0.08387-0.42201-0.13086-0.88826-0.13086-1.4043 0-0.5222 0.05443-0.97529 0.15039-1.3691 0.09836-0.37091 0.22953-0.64311 0.37891-0.84961l0.0059-8e-3 0.0039-6e-3c0.13681-0.19315 0.27473-0.30896 0.47461-0.41015 0.17947-0.0875 0.44608-0.16016 0.85938-0.16016zm40.68 0c0.45894 0 0.72816 0.0837 0.875 0.16406l0.0196 0.012c0.21306 0.11256 0.33254 0.22523 0.44336 0.40039 0.14036 0.22185 0.25514 0.50225 0.33008 0.87695l2e-3 0.0117 2e-3 0.01c0.09 0.41785 0.13867 0.87681 0.13867 1.3789 0 0.53637-0.05528 0.99824-0.15234 1.3926-0.09114 0.37025-0.2185 0.63505-0.36524 0.83789-0.133 0.18386-0.27304 0.30461-0.49219 0.41211-0.18302 0.0898-0.44734 0.16016-0.85156 0.16016-0.46152 0-0.7356-0.0834-0.88672-0.16211-0.218-0.12172-0.35341-0.25135-0.4707-0.42383-0.13774-0.22221-0.2538-0.49905-0.33398-0.86328-0.08387-0.42201-0.13086-0.88826-0.13086-1.4043 0-0.5222 0.05443-0.97529 0.15039-1.3691 0.09836-0.37091 0.22953-0.64311 0.37891-0.84961l0.0059-8e-3 0.0039-6e-3c0.13682-0.19315 0.27473-0.30896 0.47461-0.41015 0.17947-0.0875 0.44608-0.16016 0.85937-0.16016zm110.65 0.0254c0.32446 0 0.53284 0.0485 0.64453 0.0938l0.0195 0.01 0.0215 8e-3c0.266 0.099 0.45878 0.19973 0.57812 0.2793 0.20402 0.13601 0.35146 0.25032 0.42969 0.32031l0.0332 0.0293 0.0332 0.0274c0.31654 0.25323 0.73732 0.54687 1.4258 0.54687 0.69163 0 1.3198-0.50381 1.5879-0.91015v4.6894c-0.0945-0.17931-0.11302-0.34159-0.34766-0.5293-0.32353-0.25882-0.78037-0.39843-1.1406-0.39843-0.89297 0-1.1344 0.34362-1.4258 0.58203-0.12738 0.10286-0.31431 0.24038-0.55273 0.40429-0.14819 0.0995-0.3572 0.21357-0.63086 0.32813-0.12506 0.0523-0.32277 0.0996-0.62695 0.0996-0.30019 0-0.4994-0.05-0.65625-0.11719-0.13059-0.0647-0.23433-0.14007-0.35547-0.30664-0.1222-0.16803-0.24939-0.43005-0.34961-0.80469-0.0934-0.38931-0.15234-0.89451-0.15234-1.5117 0-1.2461 0.24884-2.0174 0.5-2.3809 1.9e-4 -2.8e-4 -2e-4 -2e-3 0-2e-3 0.26444-0.37963 0.39142-0.45703 0.96484-0.45703zm-21.725 1.9102c-3e-3 7.6e-4 -6e-3 3e-3 -0.01 4e-3 -6e-3 1e-3 -0.0134 4.9e-4 -0.0195 2e-3zm-69.248 0.42773c0.20677 0.34687 0.40324 0.70332 0.69336 0.98438 0.36721 0.35573 0.78439 0.66071 1.2344 0.9082l0.01953 0.0117 0.02148 0.01c0.38006 0.19467 0.76478 0.3728 1.1562 0.53125l0.0118 4e-3c0.35369 0.13983 0.69483 0.2748 1.0234 0.40625l0.01758 8e-3 0.01562 6e-3c0.24385 0.0915 0.44563 0.19063 0.60938 0.29297 0.06747 0.0422 0.07502 0.0613 0.10547 0.0898-0.04271 0.0222-0.074 0.044-0.16602 0.0684-0.1248 0.033-0.30324 0.0586-0.53711 0.0586-0.33763 0-0.59093-0.0421-0.76367-0.0938-0.28068-0.0929-0.51459-0.18698-0.68359-0.27149-0.22692-0.1175-0.41869-0.22281-0.56055-0.30664l0.07227 0.0449c-0.28008-0.18671-0.51291-0.43945-1.2773-0.43945-0.34614 0-0.71661 0.12611-1 0.30469-0.4265 0.27143-0.64559 0.64409-0.74609 0.91211-0.0037 0.01-0.0024 0.0158-0.0059 0.0254-0.13663-0.26311-0.37403-0.51794-0.66211-0.70508-0.3048-0.1895-0.66407-0.33789-0.9707-0.33789-0.58429 0-0.81984 0.14659-1.1094 0.2793-0.13648 0.0584-0.33764 0.13568-0.60742 0.23046l-0.0078 4e-3 -0.0059 2e-3c-0.20715 0.0748-0.4982 0.15784-0.85156 0.23633-0.28421 0.0559-0.64892 0.0899-1.0898 0.0899-0.51947 0-0.8815-0.078-1.0957-0.16602-0.24893-0.10224-0.38481-0.21004-0.5-0.35156-0.07192-0.0884-0.11638-0.24001-0.17188-0.36133h5.4512c0.54537 0 1.1489-0.219 1.5684-0.57227l2e-3 -2e-3 0.0039-4e-3c0.62-0.52699 0.80556-1.3033 0.80664-1.8965zm67.68 0.22266c-3e-3 2e-3 -4e-3 7e-3 -8e-3 0.01-6e-3 4e-3 -0.0137 4e-3 -0.0195 8e-3zm-60.145 1.1973 0.02344 0.0312c-0.0053-7e-3 -0.01418-0.0104-0.01953-0.0176-3e-3 -4e-3 -8.92e-4 -0.01-0.0039-0.0137zm-58.248 0.58203c-0.27603 0-0.53555 0.0134-0.80664 0.0586-0.31812 0.053-0.66436 0.16425-0.99219 0.38281-0.40404 0.26936-0.68689 0.68391-0.82812 1.0606l-0.01563 0.041-0.01367 0.043c-0.11717 0.37495-0.13476 0.68462-0.13476 1.0059v1.2246l-1.4805 3.0644c-0.10407 0.20814-0.21875 0.48043-0.21875 0.88282v0.13281l0.02148 0.1289c0.06748 0.40488 0.40416 0.87986 0.77539 1.1387 0.35652 0.23765 0.67212 0.32696 0.89844 0.34765 0.18052 0.0243 0.35384 0.0391 0.52539 0.0391 0.18064 0 0.3586-0.0136 0.54883-0.0391 0.22155-0.0198 0.46354-0.0664 0.72461-0.17773 0.17012-0.0696 0.35555-0.16901 0.54883-0.32031 0.17823-0.13507 0.34523-0.29348 0.47461-0.47461l0.01563-0.0215 1.7031-2.5644c0.17009-0.25013 0.31751-0.50384 0.44531-0.76563 0.13979-0.26155 0.25727-0.53422 0.34375-0.81836 0.088-0.28914 0.14878-0.58502 0.18359-0.88671 0.03304-0.28635 0.04688-0.5831 0.04688-0.89063 0-0.32309-0.03382-0.65343-0.16602-1.0332-0.12907-0.39065-0.41179-0.82063-0.81055-1.0957-0.33607-0.23401-0.683-0.35244-0.99414-0.40429-0.26639-0.0444-0.52472-0.0586-0.79492-0.0586zm121.77 0.5586h0.16211v0.0781c-0.23759 0.21946-0.50234 0.48914-0.66993 0.58789l-6e-3 4e-3 -4e-3 2e-3c-0.21817 0.1309-0.40309 0.1836-0.67188 0.1836-0.37139 0-0.43012-0.0633-0.45898-0.0899-0.0356-0.0274-0.0508 4e-3 -0.0508-0.2207 0-0.13552 0.021-0.17381 0.0273-0.1875 6.7e-4 -4e-3 -7e-3 -8e-3 0.0606-0.0527l0.0274-0.02c0.0617-0.043 0.20466-0.11701 0.46289-0.17382l0.0137-2e-3 0.0156-4e-3c0.25461-0.0611 0.62294-0.10547 1.0918-0.10547zm24.904 0.43359 0.0703 0.18945c-5e-3 -0.0169-0.0355-0.0448-0.041-0.0625-0.0173-0.047-7e-3 -0.0772-0.0293-0.12695zm-11.402 0.0527 0.36133 0.20312c-0.0696-0.0522-0.17547-0.0436-0.25781-0.0859-0.0532-0.0295-0.0459-0.0942-0.10352-0.11718zm11.586 0.66601 0.0117 0.11914c-4.9e-4 -7e-3 -5e-3 -0.018-6e-3 -0.0254-4e-3 -0.0315-1e-3 -0.0618-6e-3 -0.0938zm-10.631 0.29297 0.0684 0.18945c-2e-3 -7e-3 -0.0192-0.0159-0.0215-0.0234-0.0196-0.0589-0.0181-0.0989-0.0469-0.16602zm-86.027 0.25391 0.01758 0.13867c-9.96e-4 -0.0129-0.01068-0.0338-0.01172-0.0469-0.0043-0.0318-3.95e-4 -0.059-0.0059-0.0918zm8.2988 0.40429-0.02148 0.041c0.0036-7e-3 0.0023-0.0146 0.0059-0.0215 0.0037-8e-3 0.01198-0.012 0.01563-0.0195zm88.289 0.71289-0.0332 0.11719c8e-3 -0.0244 6e-3 -0.0443 0.0137-0.0684 5e-3 -0.0168 0.0153-0.032 0.0195-0.0488zm-96.607 0.23633-0.03125 0.16016c0.01252-0.0501 0.01754-0.0987 0.02734-0.14844 6.1e-4 -4e-3 0.0033-8e-3 0.0039-0.0117zm96.414 0.27344-0.041 0.0781c9e-3 -0.0159 0.0108-0.0346 0.0195-0.0508 9e-3 -0.0181 0.0117-8e-3 0.0215-0.0273z" color="#000000" color-rendering="auto" dominant-baseline="auto" fill="#f0f0f0" image-rendering="auto" shape-rendering="auto" solid-color="#000000" style="font-feature-settings:normal;font-variant-alternates:normal;font-variant-caps:normal;font-variant-ligatures:normal;font-variant-numeric:normal;font-variant-position:normal;isolation:auto;mix-blend-mode:normal;shape-padding:0;text-decoration-color:#000000;text-decoration-line:none;text-decoration-style:solid;text-indent:0;text-orientation:mixed;text-transform:none;white-space:normal"/>
<g fill="#f00000" stroke-width=".26458" aria-label="No, Doesn't Match">
<path d="m20.666 288.11q0 0.24804-0.08682 0.42168-0.07441 0.17363-0.21084 0.28525-0.12402 0.11162-0.28525 0.16123-0.16123 0.0496-0.32246 0.0496h-0.68213q-0.32246 0-0.57051-0.062-0.23564-0.0744-0.45889-0.24805-0.21084-0.18603-0.43408-0.49609-0.21084-0.31006-0.47129-0.79375l-5.0602-9.1281q-0.39688-0.70693-0.80615-1.4759-0.39688-0.78134-0.74414-1.5131h-0.02481q0.02481 0.89297 0.03721 1.8231 0.0124 0.93018 0.0124 1.848v9.6862q0 0.0868-0.04961 0.17364-0.04961 0.0744-0.17363 0.12402-0.11162 0.0372-0.31006 0.062-0.18604 0.0372-0.48369 0.0372-0.29766 0-0.49609-0.0372-0.18604-0.0248-0.29766-0.062-0.11162-0.0496-0.16123-0.12402-0.049609-0.0868-0.049609-0.17364v-14.808q0-0.49609 0.27285-0.70693 0.27285-0.21084 0.59531-0.21084h1.017q0.35967 0 0.59531 0.062 0.24805 0.062 0.43408 0.21084 0.19844 0.13643 0.37207 0.39688 0.18604 0.24804 0.39688 0.63252l3.8943 7.0445q0.35967 0.64492 0.69453 1.265 0.33486 0.60771 0.64492 1.203 0.31006 0.59532 0.60772 1.1782 0.31006 0.57051 0.60772 1.1534h0.0124q-0.02481-0.97979-0.03721-2.034 0-1.0666 0-2.0464v-8.7064q0-0.0868 0.04961-0.16123 0.04961-0.0744 0.16123-0.12402 0.12402-0.062 0.31006-0.0868 0.19844-0.0248 0.5085-0.0248 0.27285 0 0.47129 0.0248 0.19844 0.0248 0.31006 0.0868 0.11162 0.0496 0.16123 0.12402 0.04961 0.0744 0.04961 0.16123z"/>
<path d="m35.103 282.97q0 1.3642-0.35967 2.5177-0.35967 1.141-1.079 1.972-0.70693 0.83095-1.7859 1.3022-1.0666 0.45889-2.4805 0.45889-1.3767 0-2.4061-0.40928-1.017-0.40928-1.6991-1.1906-0.68213-0.78135-1.017-1.8976t-0.33486-2.5301q0-1.3643 0.34726-2.5053 0.35967-1.1534 1.0666-1.9844 0.71934-0.83096 1.7859-1.2898 1.0666-0.45889 2.4929-0.45889 1.3767 0 2.3937 0.40928 1.0294 0.40928 1.7115 1.1906 0.68213 0.78135 1.017 1.8976 0.34727 1.1162 0.34727 2.5177zm-2.158 0.13642q0-0.90537-0.17363-1.7115-0.16123-0.80615-0.5457-1.4139-0.38447-0.60771-1.0418-0.95498-0.65732-0.35967-1.6371-0.35967-0.90537 0-1.5627 0.32246-0.64492 0.32247-1.0666 0.91778-0.42168 0.58291-0.63252 1.3891-0.19844 0.80615-0.19844 1.7611 0 0.91778 0.16123 1.7239 0.17363 0.80615 0.5581 1.4139 0.39688 0.59531 1.0542 0.95498 0.65732 0.34726 1.6371 0.34726 0.89297 0 1.5503-0.32246 0.65732-0.32246 1.079-0.90537 0.42168-0.58291 0.62012-1.3891 0.19844-0.80615 0.19844-1.7735z"/>
<path d="m40.374 287.21q0 0.38447-0.03721 0.70693t-0.12402 0.60772q-0.08682 0.28525-0.23564 0.5581-0.13643 0.28526-0.34727 0.59531l-1.6991 2.5549q-0.06201 0.0868-0.14883 0.14883-0.07441 0.062-0.19844 0.11162-0.11162 0.0496-0.27285 0.062-0.14883 0.0248-0.38447 0.0248-0.21084 0-0.35967-0.0248-0.13642-0.0124-0.19844-0.062-0.06201-0.0372-0.07441-0.11162 0-0.0744 0.04961-0.17364l1.6495-3.4106v-1.5875q0-0.33486 0.06201-0.5333 0.07441-0.19844 0.22324-0.29766 0.14883-0.0992 0.37207-0.13642 0.22324-0.0372 0.5457-0.0372 0.31006 0 0.5333 0.0372t0.35967 0.13642q0.14883 0.0992 0.21084 0.29766 0.07441 0.19844 0.07441 0.5333z"/>
<path d="m62.351 280.73q0 2.0836-0.5333 3.6463-0.5333 1.5503-1.5627 2.5797-1.017 1.017-2.5053 1.5255-1.4883 0.50849-3.5471 0.50849h-3.3982q-0.28525 0-0.5457-0.18603-0.24805-0.19844-0.24805-0.68213v-14.312q0-0.4837 0.24805-0.66973 0.26045-0.19844 0.5457-0.19844h3.6339q2.0836 0 3.5223 0.5457 1.4387 0.5333 2.4061 1.5503 0.97978 1.0046 1.4759 2.4433 0.5085 1.4387 0.5085 3.2494zm-2.2448 0.0868q0-1.3022-0.32246-2.4185-0.32246-1.1286-1.017-1.9472-0.68213-0.81855-1.7363-1.2774-1.0542-0.45888-2.7161-0.45888h-2.1704v12.489h2.1952q1.5379 0 2.5921-0.38448 1.0542-0.38447 1.7611-1.1782 0.70693-0.79375 1.0542-1.9844 0.35967-1.203 0.35967-2.8401z"/>
<path d="m75.782 282.97q0 1.3642-0.35967 2.5177-0.35967 1.141-1.079 1.972-0.70693 0.83095-1.7859 1.3022-1.0666 0.45889-2.4805 0.45889-1.3767 0-2.4061-0.40928-1.017-0.40928-1.6991-1.1906-0.68213-0.78135-1.017-1.8976-0.33486-1.1162-0.33486-2.5301 0-1.3643 0.34727-2.5053 0.35967-1.1534 1.0666-1.9844 0.71934-0.83096 1.7859-1.2898 1.0666-0.45889 2.4929-0.45889 1.3767 0 2.3937 0.40928 1.0294 0.40928 1.7115 1.1906 0.68213 0.78135 1.017 1.8976 0.34726 1.1162 0.34726 2.5177zm-2.158 0.13642q0-0.90537-0.17363-1.7115-0.16123-0.80615-0.5457-1.4139-0.38447-0.60771-1.0418-0.95498-0.65732-0.35967-1.6371-0.35967-0.90537 0-1.5627 0.32246-0.64492 0.32247-1.0666 0.91778-0.42168 0.58291-0.63252 1.3891-0.19844 0.80615-0.19844 1.7611 0 0.91778 0.16123 1.7239 0.17363 0.80615 0.55811 1.4139 0.39688 0.59531 1.0542 0.95498 0.65732 0.34726 1.6371 0.34726 0.89297 0 1.5503-0.32246t1.079-0.90537 0.62012-1.3891q0.19844-0.80615 0.19844-1.7735z"/>
<path d="m88.321 282.61q0 0.48369-0.24805 0.69453-0.23564 0.19844-0.5457 0.19844h-7.3174q0 0.93017 0.18604 1.6743 0.18604 0.74414 0.62012 1.2774 0.43408 0.5333 1.1286 0.81855t1.6991 0.28525q0.79375 0 1.4139-0.12402 0.62012-0.13643 1.0666-0.29766 0.45889-0.16123 0.74414-0.28525 0.29766-0.13643 0.44648-0.13643 0.08682 0 0.14883 0.0496 0.07441 0.0372 0.11162 0.12403 0.03721 0.0868 0.04961 0.24804 0.02481 0.14883 0.02481 0.37207 0 0.16124-0.0124 0.28526-0.0124 0.11162-0.03721 0.21084-0.0124 0.0868-0.06201 0.16123-0.03721 0.0744-0.11162 0.14883-0.06201 0.062-0.39688 0.22324-0.33486 0.14883-0.86816 0.29766-0.5333 0.14882-1.2402 0.26044-0.69453 0.12403-1.4883 0.12403-1.3767 0-2.4185-0.38447-1.0294-0.38448-1.7363-1.141t-1.0666-1.8976q-0.35967-1.141-0.35967-2.6541 0-1.4387 0.37207-2.5797 0.37207-1.1534 1.0666-1.9472 0.70693-0.80615 1.6991-1.2278 0.99219-0.43408 2.22-0.43408 1.3146 0 2.2324 0.42168 0.93018 0.42168 1.5255 1.141 0.59531 0.70693 0.86816 1.6743 0.28525 0.95498 0.28525 2.0464zm-2.0588-0.60772q0.03721-1.6123-0.71934-2.5301-0.74414-0.91778-2.22-0.91778-0.75654 0-1.3271 0.28526-0.57051 0.28525-0.95498 0.75654-0.38447 0.47129-0.59531 1.1038-0.21084 0.62012-0.23564 1.3022z"/>
<path d="m98.454 285.64q0 0.85576-0.32246 1.5255-0.31006 0.66973-0.89297 1.1286-0.58291 0.45889-1.3891 0.69453-0.80615 0.23565-1.7735 0.23565-0.59531 0-1.141-0.0992-0.5333-0.0868-0.96738-0.22324-0.42168-0.14883-0.71934-0.29766-0.29766-0.16123-0.43408-0.28525-0.13643-0.12403-0.19844-0.34727-0.06201-0.22324-0.06201-0.60771 0-0.23565 0.02481-0.39688 0.0248-0.16123 0.06201-0.26045 0.03721-0.0992 0.09922-0.13642 0.07441-0.0496 0.16123-0.0496 0.13642 0 0.39688 0.17363 0.27285 0.16123 0.65732 0.35967 0.39688 0.19844 0.93018 0.37207 0.5333 0.16123 1.2278 0.16123 0.5209 0 0.94258-0.11162 0.42168-0.11162 0.73174-0.32246 0.31006-0.22325 0.47129-0.55811 0.17363-0.33486 0.17363-0.79375 0-0.47129-0.24805-0.79375-0.23564-0.32246-0.63252-0.57051-0.39688-0.24804-0.89297-0.43408-0.49609-0.19844-1.0294-0.40928-0.5209-0.21084-1.0294-0.47128-0.49609-0.27286-0.89297-0.65733t-0.64492-0.91777q-0.23564-0.5333-0.23564-1.2774 0-0.65733 0.24805-1.2526 0.26045-0.60772 0.76895-1.0542 0.5085-0.45889 1.265-0.73174 0.76894-0.27285 1.7859-0.27285 0.44648 0 0.89297 0.0744t0.80615 0.18604q0.35967 0.11162 0.60772 0.24805 0.26045 0.12402 0.38447 0.22324 0.13643 0.0992 0.17363 0.17363 0.04961 0.0744 0.06201 0.17363 0.02481 0.0868 0.03721 0.22325 0.02481 0.13642 0.02481 0.33486 0 0.21084-0.02481 0.37207-0.0124 0.14883-0.06201 0.24805-0.03721 0.0992-0.09922 0.14883-0.06201 0.0372-0.13643 0.0372-0.11162 0-0.32246-0.13642-0.21084-0.13643-0.5457-0.28526-0.33486-0.16123-0.79375-0.29765-0.44648-0.13643-1.0294-0.13643-0.5209 0-0.91777 0.12402-0.39688 0.11162-0.65732 0.33487-0.24805 0.21084-0.38447 0.50849-0.12402 0.29766-0.12402 0.64493 0 0.48369 0.24805 0.81855 0.24805 0.32246 0.64492 0.57051 0.39688 0.24804 0.90537 0.44648t1.0294 0.40928q0.5333 0.21084 1.0418 0.47129 0.5209 0.26045 0.91777 0.63252t0.63252 0.89297q0.24805 0.52089 0.24805 1.2402z"/>
<path d="m110.98 288.68q0 0.0992-0.0496 0.17363-0.0496 0.062-0.16123 0.11162-0.11162 0.0496-0.31006 0.0744-0.19843 0.0248-0.49609 0.0248-0.31006 0-0.5085-0.0248-0.19843-0.0248-0.31005-0.0744t-0.16123-0.11162q-0.0496-0.0744-0.0496-0.17363v-6.536q0-0.95498-0.14883-1.5379t-0.43408-1.0046q-0.28526-0.42168-0.74414-0.64492-0.44649-0.22324-1.0418-0.22324-0.76895 0-1.5379 0.5457-0.76895 0.5457-1.6123 1.5999v7.8011q0 0.0992-0.0496 0.17363-0.0496 0.062-0.16123 0.11162-0.11162 0.0496-0.31006 0.0744-0.19843 0.0248-0.50849 0.0248-0.29766 0-0.49609-0.0248-0.19844-0.0248-0.32247-0.0744-0.11162-0.0496-0.16123-0.11162-0.0372-0.0744-0.0372-0.17363v-11.162q0-0.0992 0.0372-0.16123 0.0372-0.0744 0.14883-0.12403 0.11162-0.062 0.28526-0.0744 0.17363-0.0248 0.45888-0.0248 0.27285 0 0.44649 0.0248 0.18603 0.0124 0.28525 0.0744 0.0992 0.0496 0.13643 0.12403 0.0496 0.062 0.0496 0.16123v1.4759q0.94257-1.0542 1.8728-1.5379 0.94258-0.49609 1.8976-0.49609 1.1162 0 1.8728 0.38447 0.76895 0.37207 1.2402 1.0046t0.66972 1.4883q0.21084 0.84336 0.21084 2.034z"/>
<path d="m116.41 277.8q0 0.0992-0.0496 0.17363-0.0372 0.0744-0.13642 0.12403-0.0868 0.0496-0.23565 0.0744-0.14883 0.0248-0.37207 0.0248t-0.38447-0.0248q-0.14883-0.0248-0.23564-0.0744-0.0868-0.0496-0.13643-0.12403-0.0372-0.0744-0.0372-0.17363l-0.28525-5.7423q0-0.0992 0.062-0.17363 0.062-0.0744 0.18604-0.12402 0.13642-0.0496 0.33486-0.0744 0.21084-0.0248 0.49609-0.0248 0.29766 0 0.4961 0.0248 0.21084 0.0124 0.33486 0.0744 0.13643 0.0496 0.18603 0.12402 0.062 0.0744 0.0496 0.17363z"/>
<path d="m126.12 287.86q0 0.35967-0.0496 0.57051t-0.14883 0.31006q-0.0992 0.0992-0.29766 0.18603-0.19843 0.0868-0.45888 0.13643-0.24805 0.062-0.5333 0.0992-0.28526 0.0372-0.57051 0.0372-0.86817 0-1.4883-0.22324-0.62012-0.23564-1.017-0.69453-0.39687-0.47129-0.58291-1.1782-0.17363-0.71934-0.17363-1.6867v-6.5236h-1.5627q-0.18604 0-0.29766-0.19844t-0.11162-0.64492q0-0.23565 0.0248-0.39688 0.0372-0.16123 0.0868-0.26045 0.0496-0.11162 0.12402-0.14883 0.0868-0.0496 0.18604-0.0496h1.5503v-2.6541q0-0.0868 0.0372-0.16123 0.0496-0.0744 0.16123-0.12402 0.12402-0.062 0.32246-0.0868t0.49609-0.0248q0.31006 0 0.5085 0.0248t0.31006 0.0868q0.11162 0.0496 0.16123 0.12402 0.0496 0.0744 0.0496 0.16123v2.6541h2.8649q0.0992 0 0.17363 0.0496 0.0744 0.0372 0.12403 0.14883 0.062 0.0992 0.0868 0.26045 0.0248 0.16123 0.0248 0.39688 0 0.44648-0.11162 0.64492-0.11163 0.19844-0.29766 0.19844h-2.8649v6.226q0 1.1534 0.33486 1.7487 0.34727 0.58291 1.2278 0.58291 0.28526 0 0.5085-0.0496 0.22324-0.062 0.39687-0.12402 0.17364-0.062 0.29766-0.11162 0.12402-0.062 0.22324-0.062 0.062 0 0.11162 0.0372 0.062 0.0248 0.0868 0.11163 0.0372 0.0868 0.062 0.23564 0.0248 0.14883 0.0248 0.37207z"/>
<path d="m152.29 288.66q0 0.0992-0.0496 0.17364-0.0496 0.0744-0.17363 0.12402-0.12403 0.0372-0.32246 0.062-0.18604 0.0372-0.4961 0.0372-0.28525 0-0.49609-0.0372-0.19844-0.0248-0.32246-0.062-0.11162-0.0496-0.16123-0.12402-0.0496-0.0744-0.0496-0.17364v-13.977h-0.0248l-5.7175 14.039q-0.0372 0.0868-0.11162 0.14883-0.062 0.062-0.19844 0.11162-0.12402 0.0372-0.31005 0.0496-0.17364 0.0248-0.42168 0.0248-0.26045 0-0.44649-0.0248-0.18603-0.0248-0.31006-0.062-0.12402-0.0496-0.19843-0.11162-0.062-0.062-0.0868-0.13643l-5.4694-14.039h-0.0124v13.977q0 0.0992-0.0496 0.17364-0.0496 0.0744-0.17363 0.12402-0.12402 0.0372-0.32246 0.062-0.19844 0.0372-0.5085 0.0372-0.29765 0-0.49609-0.0372-0.19844-0.0248-0.32246-0.062-0.11162-0.0496-0.16123-0.12402-0.0372-0.0744-0.0372-0.17364v-14.759q0-0.52089 0.27285-0.74414 0.27286-0.22324 0.60772-0.22324h1.2898q0.39688 0 0.69453 0.0744 0.29766 0.0744 0.5209 0.23564 0.22324 0.16123 0.37207 0.40928 0.14883 0.24804 0.26045 0.58291l4.6509 11.621h0.062l4.8369-11.584q0.13642-0.37207 0.29765-0.63252 0.16123-0.26044 0.34727-0.40927 0.19844-0.16123 0.43408-0.22324 0.23564-0.0744 0.5457-0.0744h1.3519q0.18603 0 0.34726 0.062 0.17364 0.0496 0.28526 0.17364 0.12402 0.11162 0.19844 0.29765 0.0744 0.17363 0.0744 0.43408z"/>
<path d="m164.74 288.69q0 0.14883-0.0992 0.22324-0.0992 0.0744-0.27285 0.11162-0.17363 0.0372-0.5085 0.0372-0.32246 0-0.5209-0.0372-0.18603-0.0372-0.27285-0.11162-0.0868-0.0744-0.0868-0.22324v-1.1162q-0.73174 0.78134-1.6371 1.2154-0.89297 0.43408-1.8976 0.43408-0.88057 0-1.5999-0.23565-0.70694-0.22324-1.2154-0.65732-0.4961-0.43408-0.78135-1.0666-0.27285-0.63252-0.27285-1.4387 0-0.94258 0.38447-1.6371t1.1038-1.1534q0.71933-0.45889 1.7611-0.68213 1.0418-0.23564 2.344-0.23564h1.5379v-0.86817q0-0.64492-0.13642-1.141-0.13643-0.4961-0.44649-0.81856-0.29765-0.33486-0.78134-0.49609-0.48369-0.17364-1.1906-0.17364-0.75654 0-1.3643 0.18604-0.59531 0.17363-1.0542 0.39687-0.44649 0.21084-0.75655 0.39688-0.29765 0.17363-0.44648 0.17363-0.0992 0-0.17363-0.0496-0.0744-0.0496-0.13643-0.14883-0.0496-0.0992-0.0744-0.24804-0.0248-0.16123-0.0248-0.34727 0-0.31006 0.0372-0.48369 0.0496-0.18603 0.21084-0.34726 0.17363-0.16124 0.58291-0.37207 0.40927-0.22325 0.94258-0.39688 0.5333-0.18604 1.1658-0.29766 0.63252-0.12402 1.2774-0.12402 1.203 0 2.0464 0.27285t1.3643 0.80615q0.5209 0.5209 0.75654 1.3022 0.23565 0.78135 0.23565 1.8231zm-2.034-5.0974h-1.7487q-0.84335 0-1.4635 0.14883-0.62012 0.13643-1.0294 0.42168-0.40927 0.27285-0.60771 0.66973-0.18604 0.38447-0.18604 0.89297 0 0.86816 0.54571 1.3891 0.5581 0.5085 1.5503 0.5085 0.80615 0 1.4883-0.40928 0.69453-0.40928 1.4511-1.2526z"/>
<path d="m174.05 287.86q0 0.35967-0.0496 0.57051t-0.14883 0.31006q-0.0992 0.0992-0.29766 0.18603-0.19843 0.0868-0.45888 0.13643-0.24805 0.062-0.5333 0.0992-0.28526 0.0372-0.57051 0.0372-0.86817 0-1.4883-0.22324-0.62012-0.23564-1.017-0.69453-0.39687-0.47129-0.58291-1.1782-0.17363-0.71934-0.17363-1.6867v-6.5236h-1.5627q-0.18604 0-0.29766-0.19844t-0.11162-0.64492q0-0.23565 0.0248-0.39688 0.0372-0.16123 0.0868-0.26045 0.0496-0.11162 0.12402-0.14883 0.0868-0.0496 0.18604-0.0496h1.5503v-2.6541q0-0.0868 0.0372-0.16123 0.0496-0.0744 0.16123-0.12402 0.12402-0.062 0.32246-0.0868t0.49609-0.0248q0.31006 0 0.5085 0.0248t0.31006 0.0868q0.11162 0.0496 0.16123 0.12402 0.0496 0.0744 0.0496 0.16123v2.6541h2.8649q0.0992 0 0.17363 0.0496 0.0744 0.0372 0.12403 0.14883 0.062 0.0992 0.0868 0.26045 0.0248 0.16123 0.0248 0.39688 0 0.44648-0.11162 0.64492-0.11163 0.19844-0.29766 0.19844h-2.8649v6.226q0 1.1534 0.33486 1.7487 0.34727 0.58291 1.2278 0.58291 0.28526 0 0.5085-0.0496 0.22324-0.062 0.39687-0.12402 0.17364-0.062 0.29766-0.11162 0.12402-0.062 0.22324-0.062 0.062 0 0.11162 0.0372 0.062 0.0248 0.0868 0.11163 0.0372 0.0868 0.062 0.23564 0.0248 0.14883 0.0248 0.37207z"/>
<path d="m184.5 286.98q0 0.21084-0.0124 0.37207-0.0124 0.14883-0.0496 0.26045-0.0248 0.0992-0.0744 0.18604-0.0372 0.0744-0.19843 0.23564-0.14883 0.14883-0.5209 0.38448-0.37207 0.22324-0.84336 0.40927-0.45889 0.17364-1.0046 0.28526t-1.1286 0.11162q-1.203 0-2.1332-0.39688-0.93017-0.39687-1.5627-1.1534-0.62012-0.76895-0.95498-1.8728-0.32246-1.1162-0.32246-2.5673 0-1.6495 0.39687-2.8277 0.40928-1.1906 1.1038-1.9472 0.70693-0.75654 1.6495-1.1162 0.95498-0.37207 2.0588-0.37207 0.5333 0 1.0294 0.0992 0.5085 0.0992 0.93018 0.26045 0.42168 0.16123 0.74414 0.37207 0.33486 0.21084 0.48369 0.35967t0.19844 0.23564q0.062 0.0868 0.0992 0.21084 0.0372 0.11162 0.0496 0.26045t0.0124 0.37207q0 0.48369-0.11162 0.68213-0.11162 0.18604-0.27285 0.18604-0.18604 0-0.43408-0.19844-0.23565-0.21084-0.60772-0.45889-0.37207-0.24804-0.90537-0.44648-0.5209-0.21084-1.2402-0.21084-1.4759 0-2.2696 1.141-0.78135 1.1286-0.78135 3.2866 0 1.079 0.19844 1.8976 0.21084 0.80616 0.60771 1.3519 0.39688 0.5457 0.96738 0.81855 0.58291 0.26045 1.327 0.26045 0.70694 0 1.2402-0.22324t0.91777-0.48369q0.39688-0.27285 0.65733-0.48369 0.27285-0.22324 0.42168-0.22324 0.0868 0 0.14882 0.0496 0.062 0.0496 0.0992 0.17363 0.0496 0.11162 0.062 0.29765 0.0248 0.17364 0.0248 0.42168z"/>
<path d="m196.85 288.68q0 0.0992-0.0496 0.17363-0.0496 0.062-0.16123 0.11162-0.11162 0.0496-0.31006 0.0744t-0.49609 0.0248q-0.31006 0-0.5085-0.0248t-0.31006-0.0744-0.16123-0.11162q-0.0496-0.0744-0.0496-0.17363v-6.536q0-0.95498-0.14883-1.5379-0.14882-0.58291-0.43408-1.0046-0.28525-0.42168-0.74414-0.64492-0.44648-0.22324-1.0418-0.22324-0.76894 0-1.5379 0.5457-0.76894 0.5457-1.6123 1.5999v7.8011q0 0.0992-0.0496 0.17363-0.0496 0.062-0.16123 0.11162-0.11162 0.0496-0.31006 0.0744t-0.5085 0.0248q-0.29765 0-0.49609-0.0248t-0.32246-0.0744q-0.11162-0.0496-0.16123-0.11162-0.0372-0.0744-0.0372-0.17363v-16.57q0-0.0992 0.0372-0.17363 0.0496-0.0744 0.16123-0.12402 0.12402-0.0496 0.32246-0.0744t0.49609-0.0248q0.31006 0 0.5085 0.0248t0.31006 0.0744 0.16123 0.12402q0.0496 0.0744 0.0496 0.17363v6.6849q0.88056-0.93018 1.7735-1.3767 0.89297-0.45889 1.7983-0.45889 1.1162 0 1.8728 0.38447 0.76894 0.37207 1.2402 1.0046t0.66973 1.4883q0.21084 0.84336 0.21084 2.0464z"/>
</g>
</g>
</svg>
