<svg width="329" height="369" version="1.1" viewBox="0 0 87.048 97.631" xmlns="http://www.w3.org/2000/svg">
 <g transform="translate(-56.75 -103.53)">
  <path d="m113.13 200.44c-2.6157-0.70718-6.2625-2.3243-6.752-2.9941-0.15281-0.2091-0.54794-1.2533-0.87809-2.3204-0.33014-1.0672-1.0353-2.734-1.567-3.7042-0.92547-1.6886-1.0371-1.7684-2.6158-1.8703l-1.6491-0.10644-1.4098 2.3995c-0.77538 1.3197-1.6127 3.0957-1.8607 3.9467-0.54229 1.8609-1.4622 2.5033-5.4258 3.7894-4.0175 1.3036-8.1373 1.3548-10.582 0.13152-4.2863-2.1445-3.1704-4.7248 2.5554-5.9088l2.8918-0.59795 0.2263-1.5091c0.52214-3.4818-0.85244-8.0079-3.4853-11.476-3.9052-5.144-5.5444-9.8614-5.5355-15.931 7e-3 -4.5609 0.65047-7.2209 2.8881-11.933 0.993-2.0911 1.7288-3.8787 1.6352-3.9723-0.0936-0.0936-2.0637-0.74765-4.3779-1.4534-5.7854-1.7643-11.263-3.915-12.417-4.875-0.60266-0.5015-1.6885-0.8944-2.903-1.0504-1.0672-0.13711-2.2737-0.46603-2.6813-0.73094-1.0676-0.69395-1.9048-2.6854-1.9048-4.531 0-1.309 0.16926-1.7299 0.93927-2.3356 0.51659-0.40636 1.2707-0.80479 1.6757-0.88541 2.6877-0.535 2.5104-0.36658 2.3802-2.2601-0.14985-2.1806 0.81669-3.4323 2.3555-3.0505 1.4353 0.3561 2.526 1.5609 2.5348 2.7999 0.018 2.5186 2.8466 6.4884 5.219 7.3246 1.3121 0.46251 10.744 0.52 12.861 0.0784 0.95628-0.19943 0.97304-0.2451 0.74373-2.0263-0.12902-1.0022-0.86113-3.5685-1.6269-5.7028-1.2596-3.5106-1.3781-4.1328-1.2432-6.5264 0.16385-2.9064 0.92547-4.7781 2.9528-7.2564l1.1744-1.4356-0.69586-1.8314c-1.8306-4.8177 0.2795-8.6998 4.6925-8.6332 2.0414 0.0308 3.3128 0.81372 4.2243 2.6012 0.33924 0.6653 0.61706 1.7156 0.61736 2.334 7.9e-4 1.1071 0.0208 1.1206 1.3235 0.88195 1.6908-0.30983 7.2834-0.31404 8.9542-7e-3l1.2813 0.23565 0.22503-1.6963c0.51706-3.8978 3.991-5.5394 7.7231-3.6496 2.3103 1.1698 3.0918 5.0044 1.662 8.1547l-0.68812 1.5162 1.5376 1.8878c3.2362 3.9732 3.5681 7.3988 1.3383 13.813-2.2655 6.5171-2.4734 5.9077 3.9636 11.616 6.2631 5.5538 11.672 9.8433 14.373 11.398 3.7968 2.1858 5.5567 4.678 5.5717 7.8904 8e-3 1.6022-0.0328 1.6673-1.1626 1.8793-1.0325 0.19369-4.5338-0.22959-6.3564-0.76844-0.55559-0.16426-0.59319-0.0897-0.26458 0.52427 0.58149 1.0865 0.47433 2.7683-0.19269 3.0242-0.78045 0.29949-2.9292-0.81691-3.7584-1.9527-0.39375-0.53934-0.83965-2.0646-1.069-3.6566l-0.39348-2.7313-2.6231-1.77c-1.9084-1.2878-2.5651-1.5891-2.4101-1.1059 1.5894 4.9553 1.7331 5.746 1.7554 9.66 0.0265 4.6504-0.53186 7.2292-2.4216 11.184-1.2419 2.5987-3.9378 6.2584-5.537 7.5163-1.5589 1.2262-3.2025 7.5618-2.5924 9.9928 0.18541 0.73872 0.53972 0.95652 2.0752 1.2756 2.8966 0.602 5.4934 1.9396 5.75 2.9616 0.79232 3.1569-5.1679 5.0113-11.021 3.429zm-5.2684-12.712c7.8327-2.0033 14.025-7.6188 16.893-15.319 0.87446-2.3478 1.0953-3.557 1.2331-6.7501 0.10119-2.345-7.9e-4 -4.7013-0.25626-5.9328l-0.42411-2.0429-1.6457 1.6262c-0.90516 0.89441-2.5189 2.0561-3.586 2.5814-1.7359 0.85462-2.3304 0.95523-5.6444 0.95523-3.4547 0-3.8586-0.0761-5.9972-1.1293-1.2612-0.62109-3.0312-1.8117-3.9333-2.6458l-1.6402-1.5166-2.1186 2.1829c-1.243 1.2806-3.0438 2.6628-4.357 3.3441-2.0414 1.0591-2.5182 1.1619-5.4186 1.1685-2.8766 7e-3 -3.4009-0.10125-5.4906-1.1291-1.351-0.6645-3.2156-2.0194-4.4907-3.2632-1.1992-1.1698-2.2443-2.1269-2.3225-2.1269-0.0782 0-0.31719 1.0052-0.53114 2.2338-2.1763 12.498 5.5298 24.56 17.734 27.76 3.4473 0.90379 8.4703 0.9053 11.996 4e-3zm2.7598-48.23c1.688-0.59063 3.849-1.5743 4.8022-2.186 1.5911-1.021 1.7496-1.249 1.934-2.7822 0.1105-0.91851 0.788-3.1781 1.5056-5.0214 2.6489-6.8046 1.2693-11.575-4.4318-15.325-3.0961-2.0362-3.9788-2.4626-6.9942-3.3783-3.5793-1.0869-9.6489-0.88559-13.194 0.43765-6.5285 2.4367-10.477 7.0064-10.496 12.146-5e-3 1.4458 0.29634 3.0368 0.90249 4.7625 1.5254 4.3426 1.912 5.666 1.912 6.5441 0 1.2543 1.277 2.3052 4.3611 3.5891 4.9798 2.0731 7.2906 2.527 12.219 2.4003 3.8312-0.0985 4.8124-0.25427 7.4788-1.1872zm-13.263-7.8951c-1.0535-0.30629-3.0354-1.974-3.0354-2.5542 0-0.18031 0.63546 0.24627 1.4121 0.94794 1.7864 1.6139 3.768 1.7722 5.1303 0.40986 1.328-1.328 1.1784-3.0195-0.42387-4.793-1.579-1.7478-1.2957-2.1904 1.402-2.1904 3.1024 0 3.4651 0.62894 1.4752 2.5576-1.5416 1.4942-1.6769 3.1176-0.36881 4.4258 1.3623 1.3623 3.3439 1.204 5.1303-0.40986 0.77667-0.70167 1.4121-1.1282 1.4121-0.94794 0 0.60362-1.981 2.234-3.1066 2.5569-1.2733 0.36519-3.2939-0.073-3.943-0.85512-0.36574-0.44069-0.55045-0.42072-1.3611 0.14711-1.2056 0.84445-2.4404 1.0784-3.7234 0.70538zm-4.6485-5.7312c-1.9672-1.6921-1.364-6.6539 0.9546-7.8529 1.3814-0.71434 3.0034-0.62942 3.8335 0.20071 0.91154 0.91154 0.89938 1.0086-0.33747 2.6904-0.57366 0.78005-1.2303 2.2004-1.4592 3.1563s-0.46897 1.9364-0.53341 2.179c-0.18638 0.70144-1.4276 0.51283-2.458-0.37354zm2.8688-3.4527c0.31101-0.50323-0.71857-1.5328-1.2218-1.2218-0.21265 0.13143-0.38663 0.54709-0.38663 0.92369 0 0.74931 1.1929 0.9704 1.6084 0.29811zm13.674 3.297c-0.11957-0.33954-0.42399-1.1333-0.67649-1.7639-0.42084-1.051-0.40354-1.1465 0.20766-1.1465 0.93401 0 1.2457-0.6722 0.60758-1.3103-0.60085-0.60085-1.3103-0.34205-1.3103 0.47798 0 0.32573-0.55537-0.0409-1.4111-0.93155-1.6098-1.6755-1.7117-2.1689-0.66432-3.2162 0.60589-0.60589 1.0412-0.7136 2.3074-0.57088 2.5785 0.29063 4.0014 2.2075 4.0014 5.3904 0 1.3268-0.18976 1.8157-1.0312 2.6572-1.1821 1.1821-1.7213 1.292-2.0306 0.41383z" fill="#000000" stroke-width=".35278"/>
  <g fill="#ffffff" stroke="#ffffff">
   <g stroke-width=".080181">
    <path d="m99.074 140.52c-2.2959-0.222-4.5151-0.83202-7.584-2.0847-1.9658-0.80241-3.1483-1.4365-3.8799-2.0805-0.75963-0.66865-0.93923-1.0252-1.0439-2.0726-0.04951-0.49558-0.55228-2.2578-1.2371-4.3359-1.2072-3.6635-1.5114-4.9443-1.5175-6.3886-0.0083-1.9807 0.65538-4.1549 1.7963-5.8846 0.85936-1.3027 2.6565-3.0754 4.0901-4.0344 1.2464-0.8338 3.728-2.0695 4.9991-2.4893 2.151-0.71035 4.7915-1.0141 7.9513-0.91467 4.4134 0.13889 7.352 1.1122 11.353 3.7603 4.3062 2.85 6.0342 5.5663 6.0405 9.4959 3e-3 1.8232-0.23916 3.0386-1.1047 5.5458-1.0512 3.0448-1.4329 4.3317-1.6442 5.5424-0.10793 0.61835-0.29229 1.2708-0.40967 1.45-0.7457 1.1381-5.3357 3.3037-8.7123 4.1106-1.8575 0.4439-6.4525 0.63592-9.0974 0.38017zm1.1877-9.1227c0.39402-0.18993 0.93186-0.47891 1.1952-0.64217l0.47881-0.29685 0.52346 0.41341c1.1183 0.88318 3.1197 1.151 4.392 0.58759 1.2331-0.54596 2.8937-2.0761 2.6613-2.4521-0.0889-0.14389-0.55984 0.15081-1.4547 0.91035-0.77686 0.65941-1.7825 1.1866-2.5098 1.3156-0.83524 0.14822-1.886-0.235-2.5678-0.9365-1.3008-1.3385-1.1474-2.5768 0.55316-4.4649 0.96748-1.0742 1.189-1.494 0.98713-1.8711-0.21345-0.39884-0.92549-0.54514-2.6592-0.54637-2.6792-2e-3 -2.9758 0.37214-1.6256 2.0505 0.93077 1.157 1.4743 2.2288 1.4762 2.911 2e-3 0.65275-0.58215 1.7674-1.1547 2.2041-0.63814 0.48673-1.5839 0.76075-2.2452 0.6505-0.86714-0.14455-1.5485-0.50477-2.7248-1.4405-1.0746-0.85486-1.3575-1.0159-1.3575-0.77287 0 0.55904 2.0172 2.2836 3.0736 2.6277 0.85699 0.27915 2.078 0.17703 2.9586-0.24744zm-5.3159-4.8026c0.14415-0.10541 0.37758-0.74232 0.6128-1.672 0.42753-1.6898 1.0317-3.0594 1.925-4.3641 0.79395-1.1595 0.83463-1.3172 0.48568-1.8818-0.98183-1.5886-3.7976-1.5694-5.2104 0.0356-0.9442 1.0727-1.4755 3.1464-1.2225 4.7714 0.24597 1.5799 1.0243 2.6507 2.2424 3.0849 0.65476 0.23339 0.87653 0.23832 1.167 0.0259zm15.852-0.77608c1.3788-1.0899 1.781-2.2519 1.4904-4.3064-0.39856-2.8183-2.0482-4.3615-4.6687-4.3674-0.83796-2e-3 -1.3061 0.21375-1.8778 0.86487-0.60904 0.69365-0.58228 1.3118 0.0936 2.1617 0.65693 0.8261 1.8269 1.9163 2.0565 1.9163 0.0973 0 0.24497-0.1804 0.3282-0.4009 0.18279-0.48426 0.6974-0.54622 1.11-0.13364 0.57084 0.57085 0.22441 1.2027-0.65939 1.2027-0.54363 0-0.53464 0.20557 0.0804 1.8389 0.75343 2.0009 0.93009 2.1065 2.0468 1.2238z" style="paint-order:normal"/>
    <path d="m94.33 122.61c-0.43451-0.25308-0.19298-1.4593 0.2922-1.4593 0.2061 0 0.79564 0.54514 0.88125 0.81487 0.17831 0.5618-0.59045 0.98397-1.1735 0.64441z" style="paint-order:normal"/>
    <path d="m99.308 188.23c-4.4123-0.42018-8.8269-2.2454-12.435-5.141-6.6925-5.3716-10.069-14.099-8.7423-22.595 0.26701-1.7093 0.46847-2.5945 0.59046-2.5945 0.05762 0 0.8144 0.66851 1.6817 1.4856 3.1338 2.9521 5.7419 4.4965 8.1383 4.819 0.58655 0.0789 2.0011 0.11499 3.1435 0.0801 1.7765-0.0542 2.216-0.1123 3.037-0.40123 2.1038-0.74036 4.1226-2.1639 6.5236-4.5999l1.6036-1.627 1.2027 1.0772c1.8271 1.6365 3.8301 2.9076 5.8084 3.6862 0.83428 0.32833 1.0165 0.34608 4.0714 0.39675 2.1344 0.0354 3.4678 2.6e-4 4.009-0.10563 1.7835-0.34895 3.9664-1.669 6.0536-3.6607 0.68489-0.65355 1.2653-1.1647 1.2898-1.1359 0.0245 0.0288 0.1583 0.62367 0.29737 1.3219 0.35867 1.8008 0.36396 8.2903 8e-3 10.069-0.59802 2.9895-2.3228 6.7094-4.3717 9.4284-3.7992 5.0419-9.6765 8.5497-15.686 9.3623-1.5226 0.20587-4.7445 0.27562-6.2238 0.13474z" style="paint-order:normal"/>
   </g>
   <path d="m100.36 188.34c-2.1668-0.14292-3.4923-0.35272-5.0318-0.7964-2.8284-0.81513-5.42-2.098-7.7511-3.8368-1.835-1.3687-3.5798-3.1135-4.9485-4.9485-2.041-2.7363-3.5334-5.9885-4.2575-9.2779-0.71052-3.2276-0.77123-6.3022-0.19011-9.6287 0.15723-0.90007 0.41008-2.0305 0.46686-2.0873 0.01437-0.0144 0.07388 0.0156 0.13224 0.0666 0.39346 0.34378 1.11 1.0045 1.7361 1.6009 2.9454 2.8056 5.7445 4.4599 8.032 4.747 0.6655 0.0835 2.7711 0.11226 3.8739 0.0529 1.6081-0.0866 2.192-0.24346 3.6384-0.97735 1.8179-0.92238 3.1191-1.9429 5.3466-4.1934l1.4487-1.4637 0.13541 0.11396c0.0745 0.0627 0.47496 0.4262 0.88998 0.80784 1.5488 1.4243 2.9557 2.4073 4.6688 3.2623 0.89522 0.44678 1.6736 0.75705 2.157 0.85986 0.84665 0.18003 6.2457 0.22263 7.1424 0.0564 1.5038-0.27887 3.2441-1.2125 5.0689-2.7194 0.20671-0.17071 0.82255-0.73988 1.3685-1.2648s0.99958-0.94755 1.008-0.93911c0.0336 0.0336 0.43416 2.0194 0.50105 2.4842 0.24961 1.7342 0.26179 5.1666 0.027 7.6068-0.1328 1.3801-0.31675 2.2365-0.77639 3.6144-2.3963 7.1838-7.5201 12.64-14.387 15.32-2.852 1.113-5.5707 1.5876-8.9525 1.563-0.6241-5e-3 -1.2304-0.0146-1.3473-0.0223z" stroke-width=".028348" style="paint-order:normal"/>
   <path d="m99.782 140.63c-2.3372-0.16123-4.1712-0.57693-6.7-1.5186-1.2967-0.48286-2.9604-1.1796-3.6901-1.5452-1.1055-0.55402-1.9441-1.1468-2.3422-1.6556-0.3316-0.42379-0.43214-0.6917-0.47978-1.2784-0.08187-1.0082-0.42027-2.1627-1.9185-6.5455-0.42281-1.2368-0.65913-2.2121-0.81174-3.3501-0.08926-0.66563-0.07959-2.0753 0.01863-2.7136 0.26366-1.7137 0.8886-3.2457 1.9215-4.7106 0.78836-1.118 1.9809-2.324 3.2112-3.2474 1.9185-1.4399 4.5648-2.7238 6.7308-3.2655 3.3758-0.84431 8.0335-0.9138 11.043-0.16476 1.9299 0.4804 3.8036 1.2102 5.2588 2.0482 0.9614 0.55368 2.6733 1.668 3.3986 2.2122 0.93471 0.70132 1.9596 1.6745 2.5636 2.434 1.7956 2.2583 2.4562 4.8365 2.0258 7.9062-0.17832 1.2718-0.52452 2.5479-1.127 4.1544-0.52069 1.3883-0.96722 2.7492-1.2392 3.7771-0.18385 0.69471-0.22945 0.9094-0.32463 1.5286-0.10064 0.65464-0.15557 0.8798-0.27872 1.1423-0.1987 0.42351-0.508 0.71324-1.357 1.2711-1.2628 0.82978-3.4369 1.8171-5.6127 2.5488-1.8824 0.63307-2.8654 0.81387-5.1282 0.94319-0.80926 0.0463-4.6039 0.0678-5.1616 0.0294zm-0.56124-8.9373c0.60161-0.10492 1.2624-0.39088 1.931-0.83564 0.37808-0.25151 0.6981-0.41502 0.81236-0.41506 0.11924-3e-5 0.20266 0.0556 0.47387 0.31613 0.4866 0.46741 1.1947 0.77109 2.1126 0.90602 0.44419 0.0653 1.3111 0.0495 1.6634-0.0303 0.77277-0.17503 1.7928-0.81546 2.6422-1.6588 0.42954-0.4265 0.6301-0.70564 0.63069-0.87777 2.3e-4 -0.0717-0.0154-0.0919-0.0712-0.0919-0.13923 0-0.63538 0.35144-1.2482 0.88413-1.0042 0.87298-1.7501 1.2562-2.7061 1.3904-1.3771 0.19333-2.8593-0.78492-3.2959-2.1752-0.11038-0.35152-0.11055-0.9345-2.7e-4 -1.3188 0.168-0.58607 0.48778-1.0857 1.1213-1.7518 0.69329-0.72906 1.0763-1.2125 1.2027-1.5179 0.0759-0.18332 0.0692-0.43875-0.015-0.57495-0.20031-0.3241-0.78502-0.45999-2.1532-0.50042-0.80455-0.0238-1.7134 0.019-2.1382 0.10075-0.98908 0.19022-0.93313 0.71728 0.21653 2.0394 0.46324 0.53275 0.72165 0.90425 0.95275 1.3698 0.27665 0.55724 0.3517 0.82514 0.37467 1.3374 0.0153 0.34044 7e-3 0.44523-0.0534 0.68488-0.14339 0.56795-0.42682 1.0282-0.9187 1.4918-0.74896 0.70596-1.7423 0.98275-2.7267 0.75974-0.78919-0.1788-1.4609-0.5463-2.2841-1.2497-0.7083-0.60518-1.1464-0.9244-1.354-0.98657-0.0775-0.0232-0.07947-0.0194-0.06107 0.11774 0.07272 0.54213 1.7646 2.0007 2.8023 2.4158 0.615 0.24604 1.3252 0.30408 2.0896 0.17078zm-4.367-5.0925c0.2304-0.11754 0.35305-0.44949 0.71605-1.938 0.29706-1.2181 0.53001-1.8588 1.0028-2.7579 0.25632-0.48749 0.36146-0.65454 0.81892-1.3012 0.43754-0.61852 0.5416-0.78217 0.65524-1.0305 0.19525-0.4267 0.09475-0.71565-0.43324-1.2456-0.3924-0.39382-0.68801-0.56463-1.2203-0.70513-0.41491-0.10951-1.1296-0.12228-1.5723-0.0281-0.78051 0.16604-1.3943 0.48341-1.8862 0.97538-1.2112 1.2112-1.7488 3.7393-1.2016 5.6508 0.10758 0.37583 0.39616 0.9662 0.60966 1.2472 0.40555 0.53382 1.0581 0.97046 1.7138 1.1468 0.27263 0.0733 0.63893 0.067 0.79731-0.0138zm15.321-0.40226c0.41615-0.20146 1.3239-1.0326 1.6267-1.4894 0.35352-0.53338 0.48778-1.0108 0.51558-1.8336 0.0393-1.164-0.15126-2.2563-0.54942-3.1486-0.66079-1.4809-1.808-2.2994-3.4992-2.4969-0.81661-0.0953-1.2961-0.0521-1.7208 0.15508-0.29209 0.14255-0.90222 0.74903-1.0701 1.0638-0.10903 0.20434-0.11587 0.23603-0.11587 0.53705 0 0.30868 5e-3 0.32978 0.14012 0.60136 0.1593 0.31998 0.42352 0.6616 0.94857 1.2264 0.57875 0.62257 1.3019 1.2433 1.4484 1.2433 0.0794 0 0.19412-0.16562 0.22345-0.3226 0.0364-0.19496 0.16251-0.39285 0.30609-0.48039 0.14931-0.091 0.42487-0.0876 0.62288 8e-3 0.203 0.0978 0.48961 0.38846 0.57768 0.58577 0.24527 0.54952-0.1624 0.94433-0.97509 0.94433-0.1193 0-0.21523 0.0199-0.26528 0.0549-0.0723 0.0506-0.0771 0.072-0.0611 0.27563 9e-3 0.12139 0.0623 0.34849 0.11745 0.50468 0.16198 0.45908 0.7987 2.0872 0.87393 2.2346 0.0847 0.16611 0.2584 0.36795 0.35087 0.4078 0.10551 0.0455 0.32958 0.0139 0.50524-0.0711z" stroke-width=".020045" style="paint-order:normal"/>
  </g>
 </g>
</svg>
