<?xml version="1.0" encoding="UTF-8" standalone="no"?>
<!-- Created with Inkscape (http://www.inkscape.org/) -->

<svg
   xmlns:dc="http://purl.org/dc/elements/1.1/"
   xmlns:cc="http://creativecommons.org/ns#"
   xmlns:rdf="http://www.w3.org/1999/02/22-rdf-syntax-ns#"
   xmlns:svg="http://www.w3.org/2000/svg"
   xmlns="http://www.w3.org/2000/svg"
   xmlns:sodipodi="http://sodipodi.sourceforge.net/DTD/sodipodi-0.dtd"
   xmlns:inkscape="http://www.inkscape.org/namespaces/inkscape"
   width="329"
   height="369"
   viewBox="0 0 87.047916 97.631247"
   version="1.1"
   id="svg842"
   inkscape:version="0.92.2 (5c3e80d, 2017-08-06)"
   sodipodi:docname="PandaThumbsUp.svg">
  <defs
     id="defs836" />
  <sodipodi:namedview
     id="base"
     pagecolor="#ffffff"
     bordercolor="#666666"
     borderopacity="1.0"
     inkscape:pageopacity="0.0"
     inkscape:pageshadow="2"
     inkscape:zoom="1.4"
     inkscape:cx="-150.40756"
     inkscape:cy="218.1464"
     inkscape:document-units="mm"
     inkscape:current-layer="layer1"
     showgrid="false"
     inkscape:pagecheckerboard="true"
     fit-margin-top="0"
     fit-margin-left="0"
     fit-margin-right="0"
     fit-margin-bottom="0"
     units="px"
     inkscape:window-width="1920"
     inkscape:window-height="1017"
     inkscape:window-x="-8"
     inkscape:window-y="-8"
     inkscape:window-maximized="1" />
  <metadata
     id="metadata839">
    <rdf:RDF>
      <cc:Work
         rdf:about="">
        <dc:format>image/svg+xml</dc:format>
        <dc:type
           rdf:resource="http://purl.org/dc/dcmitype/StillImage" />
        <dc:title></dc:title>
      </cc:Work>
    </rdf:RDF>
  </metadata>
  <g
     inkscape:label="Layer 1"
     inkscape:groupmode="layer"
     id="layer1"
     transform="translate(-56.750379,-103.53081)">
    <path
       style="fill:#000000;stroke-width:0.35277775"
       d="m 113.1281,200.43539 c -2.61574,-0.70718 -6.26254,-2.32431 -6.75201,-2.9941 -0.15281,-0.2091 -0.54794,-1.2533 -0.87809,-2.32045 -0.33014,-1.06715 -1.03529,-2.73403 -1.56699,-3.70417 -0.92547,-1.6886 -1.03713,-1.76843 -2.61584,-1.87032 l -1.649104,-0.10644 -1.40979,2.39949 c -0.77538,1.31972 -1.61268,3.09572 -1.86066,3.94666 -0.54229,1.86086 -1.46218,2.50331 -5.42579,3.78937 -4.0175,1.30355 -8.13731,1.35475 -10.5822,0.13152 -4.2863,-2.14452 -3.17036,-4.72484 2.55543,-5.90881 l 2.89177,-0.59795 0.2263,-1.50912 c 0.52214,-3.48185 -0.85244,-8.00789 -3.4853,-11.47591 -3.90525,-5.14404 -5.5444,-9.86135 -5.53551,-15.93061 0.007,-4.56092 0.65047,-7.22092 2.88814,-11.93321 0.993,-2.09114 1.72884,-3.87868 1.6352,-3.97232 -0.0936,-0.0936 -2.06368,-0.74765 -4.37787,-1.45338 -5.78536,-1.76427 -11.26337,-3.91498 -12.41708,-4.87502 -0.60266,-0.5015 -1.68849,-0.8944 -2.90305,-1.05045 -1.06715,-0.13711 -2.27373,-0.46603 -2.68129,-0.73094 -1.06761,-0.69395 -1.90482,-2.6854 -1.90482,-4.53096 0,-1.30903 0.16926,-1.72991 0.93927,-2.3356 0.51659,-0.40636 1.27066,-0.80479 1.67569,-0.88541 2.68772,-0.535 2.51035,-0.36658 2.38023,-2.26006 -0.14985,-2.18059 0.81669,-3.43229 2.35552,-3.0505 1.43527,0.3561 2.52597,1.56088 2.53482,2.79994 0.018,2.51858 2.84655,6.48835 5.21899,7.32463 1.31209,0.46251 10.74385,0.52 12.86132,0.0784 0.95628,-0.19943 0.97304,-0.2451 0.74373,-2.02629 -0.12902,-1.00224 -0.86113,-3.5685 -1.62691,-5.7028 -1.25957,-3.51059 -1.37809,-4.13281 -1.24315,-6.52639 0.16385,-2.90645 0.92547,-4.7781 2.95284,-7.25645 l 1.17438,-1.43562 -0.69586,-1.83136 c -1.83059,-4.81769 0.2795,-8.69982 4.69248,-8.63325 2.04139,0.0308 3.31284,0.81372 4.2243,2.6012 0.33924,0.6653 0.61706,1.7156 0.61736,2.33399 7.9e-4,1.1071 0.0208,1.12063 1.32346,0.88195 1.69085,-0.30983 7.283424,-0.31404 8.954224,-0.007 l 1.28131,0.23565 0.22503,-1.69631 c 0.51706,-3.89781 3.99097,-5.53943 7.7231,-3.64961 2.31028,1.16985 3.0918,5.00436 1.66204,8.15469 l -0.68812,1.51619 1.53763,1.8878 c 3.2362,3.97317 3.56809,7.3988 1.33829,13.81333 -2.26546,6.51711 -2.47341,5.90769 3.96358,11.61561 6.26314,5.55375 11.67227,9.84332 14.37277,11.39796 3.79685,2.18579 5.55671,4.67802 5.57171,7.89041 0.008,1.60222 -0.0328,1.66731 -1.16264,1.87927 -1.03246,0.19369 -4.53378,-0.22959 -6.35642,-0.76844 -0.55559,-0.16426 -0.59319,-0.0897 -0.26458,0.52427 0.58149,1.08653 0.47433,2.76829 -0.19269,3.02425 -0.78045,0.29949 -2.92922,-0.81691 -3.75842,-1.95269 -0.39375,-0.53934 -0.83965,-2.06455 -1.069,-3.65657 l -0.39348,-2.73128 -2.62311,-1.77005 c -1.90843,-1.2878 -2.56507,-1.58911 -2.41009,-1.10593 1.58942,4.9553 1.73312,5.74603 1.75544,9.65996 0.0265,4.65042 -0.53186,7.22917 -2.4216,11.18361 -1.24187,2.59871 -3.93783,6.25838 -5.537,7.5163 -1.5589,1.22623 -3.20254,7.56184 -2.59242,9.99278 0.18541,0.73872 0.53972,0.95652 2.0752,1.27564 2.8966,0.602 5.49342,1.93956 5.74995,2.96164 0.79232,3.15686 -5.16786,5.01134 -11.02062,3.42902 z m -5.26841,-12.71176 c 7.8327,-2.00327 14.02538,-7.61884 16.89331,-15.319 0.87446,-2.34785 1.09534,-3.55696 1.23312,-6.7501 0.10119,-2.34505 -7.9e-4,-4.70128 -0.25626,-5.93284 l -0.42411,-2.04291 -1.64574,1.62621 c -0.90516,0.89441 -2.51886,2.05607 -3.58601,2.58145 -1.73591,0.85462 -2.33044,0.95523 -5.64445,0.95523 -3.45469,0 -3.8586,-0.0761 -5.99722,-1.12926 -1.26118,-0.62109 -3.03116,-1.81171 -3.93328,-2.64583 l -1.64023,-1.51657 -2.11863,2.18287 c -1.242964,1.28065 -3.043784,2.66284 -4.356994,3.34414 -2.0414,1.05908 -2.51823,1.1619 -5.41865,1.16851 -2.87662,0.007 -3.40089,-0.10125 -5.4906,-1.12906 -1.35105,-0.6645 -3.2156,-2.0194 -4.49066,-3.26319 -1.19919,-1.16979 -2.24432,-2.12689 -2.3225,-2.12689 -0.0782,0 -0.31719,1.0052 -0.53114,2.23376 -2.17634,12.4975 5.52979,24.56016 17.73415,27.75986 3.44726,0.90379 8.470324,0.9053 11.995894,0.004 z m 2.75982,-48.2299 c 1.68802,-0.59063 3.84902,-1.57433 4.80223,-2.186 1.59107,-1.02099 1.74956,-1.24899 1.93402,-2.78215 0.1105,-0.91851 0.788,-3.17814 1.50555,-5.02141 2.64893,-6.80464 1.26933,-11.57519 -4.43176,-15.32469 -3.09608,-2.03624 -3.97876,-2.46258 -6.99423,-3.37829 -3.57929,-1.08692 -9.648874,-0.88559 -13.194164,0.43765 -6.52849,2.4367 -10.47719,7.0064 -10.49553,12.14612 -0.005,1.44578 0.29634,3.0368 0.90249,4.7625 1.52535,4.34264 1.91199,5.66598 1.91199,6.5441 0,1.25426 1.27697,2.30518 4.36111,3.58911 4.97984,2.07311 7.29065,2.52703 12.219444,2.40031 3.83116,-0.0985 4.81239,-0.25427 7.47885,-1.18725 z m -13.262884,-7.89514 c -1.05352,-0.30629 -3.03541,-1.97402 -3.03541,-2.55424 0,-0.18031 0.63546,0.24627 1.41212,0.94794 1.78635,1.61386 3.76799,1.77217 5.130304,0.40986 1.328,-1.32799 1.17842,-3.01948 -0.42387,-4.79302 -1.579024,-1.74778 -1.295714,-2.19037 1.40205,-2.19037 3.10236,0 3.46514,0.62894 1.47523,2.55764 -1.54163,1.49421 -1.67692,3.11765 -0.36881,4.42575 1.36231,1.36231 3.34394,1.204 5.13029,-0.40986 0.77667,-0.70167 1.41213,-1.12825 1.41213,-0.94794 0,0.60362 -1.98095,2.23404 -3.10659,2.55687 -1.27333,0.36519 -3.2939,-0.073 -3.94298,-0.85512 -0.36574,-0.44069 -0.55045,-0.42072 -1.3611,0.14711 -1.205574,0.84445 -2.440384,1.07838 -3.723364,0.70538 z m -4.64854,-5.73115 c -1.96718,-1.69208 -1.36402,-6.65386 0.9546,-7.85286 1.38138,-0.71434 3.0034,-0.62942 3.83353,0.20071 0.91154,0.91154 0.89938,1.00855 -0.33747,2.6904 -0.57366,0.78005 -1.23032,2.20039 -1.45925,3.1563 -0.22893,0.95591 -0.46897,1.93645 -0.53341,2.17899 -0.18638,0.70144 -1.42755,0.51283 -2.458,-0.37354 z m 2.86877,-3.45267 c 0.31101,-0.50323 -0.71857,-1.53281 -1.22179,-1.2218 -0.21265,0.13143 -0.38663,0.54709 -0.38663,0.92369 0,0.74931 1.19292,0.9704 1.60842,0.29811 z m 13.674264,3.29704 c -0.11957,-0.33954 -0.42399,-1.13329 -0.67649,-1.76389 -0.42084,-1.05102 -0.40354,-1.14652 0.20766,-1.14652 0.93401,0 1.2457,-0.6722 0.60758,-1.31032 -0.60085,-0.60085 -1.31032,-0.34205 -1.31032,0.47798 0,0.32573 -0.55537,-0.0409 -1.41111,-0.93155 -1.6098,-1.67548 -1.7117,-2.16886 -0.66432,-3.21624 0.60589,-0.60589 1.04122,-0.7136 2.30737,-0.57088 2.57848,0.29063 4.00139,2.20749 4.00139,5.39042 0,1.32676 -0.18976,1.81574 -1.0312,2.65717 -1.1821,1.1821 -1.72132,1.292 -2.03056,0.41383 z"
       id="path825"
       inkscape:connector-curvature="0" />
    <path
       style="opacity:1;fill:#ffffff;fill-opacity:1;stroke:#ffffff;stroke-width:0.08018086;stroke-miterlimit:4;stroke-dasharray:none;stroke-opacity:1;paint-order:normal"
       d="m 99.074204,140.52105 c -2.295924,-0.222 -4.515117,-0.83202 -7.583977,-2.08469 -1.965782,-0.80241 -3.148279,-1.43649 -3.879865,-2.08046 -0.759627,-0.66865 -0.939229,-1.02525 -1.043864,-2.07259 -0.04951,-0.49558 -0.552278,-2.25777 -1.237078,-4.33593 -1.207198,-3.66348 -1.511448,-4.94433 -1.51752,-6.38857 -0.0083,-1.98073 0.655378,-4.15493 1.796346,-5.88455 0.859356,-1.30273 2.656507,-3.07542 4.090107,-4.03445 1.246401,-0.8338 3.728003,-2.0695 4.999109,-2.48929 2.150961,-0.71035 4.79154,-1.01411 7.951268,-0.91467 4.41343,0.13889 7.35205,1.11218 11.35327,3.76028 4.30624,2.84998 6.03416,5.56633 6.04051,9.49586 0.003,1.82318 -0.23916,3.03857 -1.10472,5.54584 -1.05115,3.04484 -1.43293,4.33174 -1.64424,5.54242 -0.10793,0.61835 -0.29229,1.27085 -0.40967,1.45 -0.7457,1.13808 -5.33566,3.30372 -8.71227,4.11063 -1.85754,0.4439 -6.45251,0.63592 -9.097406,0.38017 z m 1.187696,-9.12269 c 0.39402,-0.18993 0.93186,-0.47891 1.1952,-0.64217 l 0.47881,-0.29685 0.52346,0.41341 c 1.11826,0.88318 3.11967,1.15095 4.39199,0.58759 1.23306,-0.54596 2.89368,-2.07606 2.66128,-2.4521 -0.0889,-0.14389 -0.55984,0.15081 -1.45467,0.91035 -0.77686,0.65941 -1.78251,1.18656 -2.50985,1.31563 -0.83524,0.14822 -1.88596,-0.235 -2.56775,-0.9365 -1.30085,-1.33849 -1.14745,-2.57675 0.55316,-4.46494 0.96748,-1.07419 1.18896,-1.494 0.98713,-1.87112 -0.21345,-0.39884 -0.92549,-0.54514 -2.65925,-0.54637 -2.67924,-0.002 -2.975772,0.37214 -1.62558,2.05052 0.93077,1.15701 1.47428,2.22883 1.47615,2.91102 0.002,0.65275 -0.58215,1.76738 -1.15471,2.20409 -0.63814,0.48673 -1.583904,0.76075 -2.245203,0.6505 -0.867143,-0.14455 -1.548532,-0.50477 -2.72482,-1.44048 -1.07465,-0.85486 -1.357508,-1.0159 -1.357508,-0.77287 0,0.55904 2.017212,2.28363 3.073601,2.62773 0.856991,0.27915 2.077956,0.17703 2.95856,-0.24744 z m -5.315857,-4.80258 c 0.144147,-0.10541 0.377581,-0.74232 0.612799,-1.67199 0.427527,-1.68976 1.0317,-3.05945 1.925013,-4.36409 0.793948,-1.15953 0.83463,-1.31715 0.485677,-1.88177 -0.981829,-1.58863 -3.797589,-1.5694 -5.210352,0.0356 -0.944198,1.07266 -1.475529,3.14641 -1.222534,4.77145 0.245967,1.5799 1.024329,2.65069 2.24241,3.08488 0.654756,0.23339 0.876533,0.23832 1.166987,0.0259 z M 110.7983,125.8197 c 1.37879,-1.08987 1.78097,-2.2519 1.49042,-4.3064 -0.39856,-2.81834 -2.04822,-4.36151 -4.66873,-4.36738 -0.83796,-0.002 -1.30614,0.21375 -1.87782,0.86487 -0.60904,0.69365 -0.58228,1.31184 0.0936,2.16174 0.65693,0.8261 1.82691,1.91629 2.05654,1.91629 0.0973,0 0.24497,-0.1804 0.3282,-0.4009 0.18279,-0.48426 0.6974,-0.54622 1.10999,-0.13364 0.57084,0.57085 0.22441,1.20272 -0.65939,1.20272 -0.54363,0 -0.53464,0.20557 0.0804,1.83891 0.75343,2.0009 0.93009,2.10653 2.04683,1.22379 z"
       id="path1393"
       inkscape:connector-curvature="0" />
    <path
       style="opacity:1;fill:#ffffff;fill-opacity:1;stroke:#ffffff;stroke-width:0.08018086;stroke-miterlimit:4;stroke-dasharray:none;stroke-opacity:1;paint-order:normal"
       d="m 94.329966,122.61266 c -0.434512,-0.25308 -0.192985,-1.45928 0.2922,-1.45928 0.206098,0 0.795639,0.54514 0.881251,0.81487 0.178308,0.5618 -0.590452,0.98397 -1.173451,0.64441 z"
       id="path1395"
       inkscape:connector-curvature="0" />
    <path
       style="opacity:1;fill:#ffffff;fill-opacity:1;stroke:#ffffff;stroke-width:0.08018086;stroke-miterlimit:4;stroke-dasharray:none;stroke-opacity:1;paint-order:normal"
       d="m 99.30786,188.23343 c -4.412316,-0.42018 -8.826857,-2.24535 -12.434601,-5.14102 -6.692482,-5.37157 -10.069436,-14.09946 -8.742336,-22.59498 0.267009,-1.70928 0.468466,-2.59449 0.590455,-2.59449 0.05762,0 0.8144,0.66851 1.681742,1.48558 3.133785,2.95214 5.741886,4.49651 8.138284,4.81901 0.586549,0.0789 2.001139,0.11499 3.143533,0.0801 1.776539,-0.0542 2.215975,-0.1123 3.036996,-0.40123 2.103789,-0.74036 4.122608,-2.16386 6.523637,-4.59993 l 1.60361,-1.62702 1.20272,1.07724 c 1.8271,1.6365 3.83006,2.90764 5.80837,3.68618 0.83428,0.32833 1.01648,0.34608 4.07141,0.39675 2.13435,0.0354 3.46779,2.6e-4 4.00904,-0.10563 1.7835,-0.34895 3.96637,-1.66896 6.05365,-3.66072 0.68489,-0.65355 1.26528,-1.1647 1.28977,-1.1359 0.0245,0.0288 0.1583,0.62367 0.29737,1.32191 0.35867,1.80083 0.36396,8.2903 0.008,10.06871 -0.59802,2.98946 -2.32283,6.70936 -4.37169,9.4284 -3.79916,5.04186 -9.6765,8.54971 -15.68637,9.36229 -1.5226,0.20587 -4.74446,0.27562 -6.223792,0.13474 z"
       id="path1397"
       inkscape:connector-curvature="0" />
    <path
       style="opacity:1;fill:#ffffff;fill-opacity:1;stroke:#ffffff;stroke-width:0.02834821;stroke-miterlimit:4;stroke-dasharray:none;stroke-opacity:1;paint-order:normal"
       d="m 100.35866,188.33911 c -2.166754,-0.14292 -3.492316,-0.35272 -5.031813,-0.7964 -2.828359,-0.81513 -5.419958,-2.09795 -7.751133,-3.83675 -1.834959,-1.36868 -3.579788,-3.11351 -4.948465,-4.94847 -2.040953,-2.73626 -3.533357,-5.98851 -4.257474,-9.2779 -0.71052,-3.22762 -0.771226,-6.30219 -0.190111,-9.62873 0.157234,-0.90007 0.410078,-2.03051 0.46686,-2.08729 0.01437,-0.0144 0.07388,0.0156 0.132239,0.0666 0.393462,0.34378 1.109972,1.00449 1.736143,1.60094 2.945387,2.80559 5.744506,4.45992 8.031993,4.74703 0.665501,0.0835 2.771082,0.11226 3.873868,0.0529 1.608143,-0.0866 2.191993,-0.24346 3.63841,-0.97735 1.817933,-0.92238 3.119064,-1.94287 5.346633,-4.19342 l 1.44874,-1.4637 0.13541,0.11396 c 0.0745,0.0627 0.47496,0.4262 0.88998,0.80784 1.54883,1.42426 2.95573,2.40732 4.66879,3.26226 0.89522,0.44678 1.67356,0.75705 2.15702,0.85986 0.84665,0.18003 6.24571,0.22263 7.14238,0.0564 1.50385,-0.27887 3.24414,-1.2125 5.06886,-2.71935 0.20671,-0.17071 0.82255,-0.73988 1.36852,-1.26483 0.54597,-0.52495 0.99958,-0.94755 1.00802,-0.93911 0.0336,0.0336 0.43416,2.01936 0.50105,2.48415 0.24961,1.73421 0.26179,5.16662 0.027,7.60677 -0.1328,1.38008 -0.31675,2.23648 -0.77639,3.6144 -2.39628,7.18376 -7.52013,12.63983 -14.38667,15.31951 -2.85195,1.11297 -5.57069,1.58765 -8.95251,1.56305 -0.6241,-0.005 -1.23041,-0.0146 -1.34734,-0.0223 z"
       id="path1399"
       inkscape:connector-curvature="0" />
    <path
       style="opacity:1;fill:#ffffff;fill-opacity:1;stroke:#ffffff;stroke-width:0.02004521;stroke-miterlimit:4;stroke-dasharray:none;stroke-opacity:1;paint-order:normal"
       d="m 99.781634,140.63493 c -2.337165,-0.16123 -4.171241,-0.57693 -6.700046,-1.51859 -1.296689,-0.48286 -2.96045,-1.17956 -3.690057,-1.54522 -1.105455,-0.55402 -1.944103,-1.14683 -2.342171,-1.65558 -0.331597,-0.42379 -0.432141,-0.6917 -0.479785,-1.27844 -0.08187,-1.00817 -0.420266,-2.16269 -1.918544,-6.54549 -0.422809,-1.23682 -0.65913,-2.21212 -0.811736,-3.35008 -0.08926,-0.66563 -0.07959,-2.07526 0.01863,-2.71359 0.263657,-1.71367 0.888605,-3.24573 1.921531,-4.71063 0.788358,-1.11805 1.980898,-2.32405 3.211179,-3.24742 1.918541,-1.43993 4.56479,-2.72377 6.730844,-3.26551 3.375816,-0.84431 8.033451,-0.9138 11.042581,-0.16476 1.92992,0.4804 3.80358,1.21016 5.25876,2.04822 0.9614,0.55368 2.67331,1.66797 3.39861,2.21217 0.93471,0.70132 1.95965,1.67446 2.56357,2.43401 1.79556,2.25826 2.45617,4.83649 2.02576,7.90615 -0.17832,1.27179 -0.52452,2.54794 -1.12703,4.15438 -0.52069,1.38829 -0.96722,2.74925 -1.23923,3.77706 -0.18385,0.69471 -0.22945,0.9094 -0.32463,1.52856 -0.10064,0.65464 -0.15557,0.8798 -0.27872,1.14226 -0.1987,0.42351 -0.508,0.71324 -1.35697,1.27111 -1.26275,0.82978 -3.43686,1.8171 -5.61266,2.54885 -1.88238,0.63307 -2.86542,0.81387 -5.12824,0.94319 -0.80926,0.0463 -4.60388,0.0678 -5.161638,0.0294 z m -0.56124,-8.93728 c 0.601613,-0.10492 1.262416,-0.39088 1.930996,-0.83564 0.37808,-0.25151 0.6981,-0.41502 0.81236,-0.41506 0.11924,-3e-5 0.20266,0.0556 0.47387,0.31613 0.4866,0.46741 1.1947,0.77109 2.11261,0.90602 0.44419,0.0653 1.31113,0.0495 1.66339,-0.0303 0.77277,-0.17503 1.79285,-0.81546 2.64224,-1.65884 0.42954,-0.4265 0.6301,-0.70564 0.63069,-0.87777 2.3e-4,-0.0717 -0.0154,-0.0919 -0.0712,-0.0919 -0.13923,0 -0.63538,0.35144 -1.24816,0.88413 -1.00425,0.87298 -1.75006,1.25619 -2.70611,1.39041 -1.37706,0.19333 -2.85934,-0.78492 -3.29586,-2.17515 -0.11038,-0.35152 -0.11055,-0.9345 -2.7e-4,-1.31881 0.168,-0.58607 0.48778,-1.0857 1.12127,-1.75185 0.69329,-0.72906 1.07631,-1.21246 1.20271,-1.51792 0.0759,-0.18332 0.0692,-0.43875 -0.015,-0.57495 -0.20031,-0.3241 -0.78502,-0.45999 -2.15318,-0.50042 -0.80455,-0.0238 -1.71337,0.019 -2.13816,0.10075 -0.989084,0.19022 -0.933128,0.71728 0.21653,2.03942 0.46324,0.53275 0.72165,0.90425 0.95275,1.36976 0.27665,0.55724 0.3517,0.82514 0.37467,1.33738 0.0153,0.34044 0.007,0.44523 -0.0534,0.68488 -0.14339,0.56795 -0.42682,1.0282 -0.9187,1.49185 -0.74896,0.70596 -1.742336,0.98275 -2.726687,0.75974 -0.789189,-0.1788 -1.460899,-0.5463 -2.284121,-1.24969 -0.708298,-0.60518 -1.14639,-0.9244 -1.353982,-0.98657 -0.0775,-0.0232 -0.07947,-0.0194 -0.06107,0.11774 0.07272,0.54213 1.764599,2.00066 2.802327,2.41582 0.614997,0.24604 1.325162,0.30408 2.089565,0.17078 z m -4.367037,-5.09247 c 0.230396,-0.11754 0.353049,-0.44949 0.716047,-1.93796 0.297055,-1.21806 0.53001,-1.85875 1.002802,-2.75794 0.256318,-0.48749 0.361456,-0.65454 0.818918,-1.30121 0.437544,-0.61852 0.541604,-0.78217 0.655238,-1.03051 0.195251,-0.4267 0.09475,-0.71565 -0.433245,-1.24555 -0.392398,-0.39382 -0.688012,-0.56463 -1.22034,-0.70513 -0.414907,-0.10951 -1.129615,-0.12228 -1.572335,-0.0281 -0.780512,0.16604 -1.394258,0.48341 -1.886225,0.97538 -1.211204,1.2112 -1.748803,3.73929 -1.201642,5.65079 0.107582,0.37583 0.396163,0.9662 0.609661,1.24723 0.405548,0.53382 1.058069,0.97046 1.713812,1.14682 0.272627,0.0733 0.638934,0.067 0.797309,-0.0138 z m 15.320663,-0.40226 c 0.41615,-0.20146 1.32388,-1.0326 1.62667,-1.48943 0.35352,-0.53338 0.48778,-1.01083 0.51558,-1.83363 0.0393,-1.16399 -0.15126,-2.2563 -0.54942,-3.14859 -0.66079,-1.48086 -1.80795,-2.29943 -3.4992,-2.49691 -0.81661,-0.0953 -1.29613,-0.0521 -1.72076,0.15508 -0.29209,0.14255 -0.90222,0.74903 -1.07014,1.06377 -0.10903,0.20434 -0.11587,0.23603 -0.11587,0.53705 0,0.30868 0.005,0.32978 0.14012,0.60136 0.1593,0.31998 0.42352,0.6616 0.94857,1.2264 0.57875,0.62257 1.30187,1.24333 1.44836,1.24333 0.0794,0 0.19412,-0.16562 0.22345,-0.3226 0.0364,-0.19496 0.16251,-0.39285 0.30609,-0.48039 0.14931,-0.091 0.42487,-0.0876 0.62288,0.008 0.203,0.0978 0.48961,0.38846 0.57768,0.58577 0.24527,0.54952 -0.1624,0.94433 -0.97509,0.94433 -0.1193,0 -0.21523,0.0199 -0.26528,0.0549 -0.0723,0.0506 -0.0771,0.072 -0.0611,0.27563 0.009,0.12139 0.0623,0.34849 0.11745,0.50468 0.16198,0.45908 0.7987,2.08718 0.87393,2.23464 0.0847,0.16611 0.2584,0.36795 0.35087,0.4078 0.10551,0.0455 0.32958,0.0139 0.50524,-0.0711 z"
       id="path1401"
       inkscape:connector-curvature="0" />
  </g>
</svg>
