<svg width="72mm" height="100mm" version="1.1" viewBox="0 0 72 100" xmlns="http://www.w3.org/2000/svg">
<g transform="translate(-19.042 -64.896)">
<path d="m67.36 163.55c-4.2574-0.87794-8.4034-2.9891-8.4034-4.279 0-0.23268-0.15469-0.87313-0.34376-1.4232-0.3374-0.98166-2.193-4.7888-2.6071-5.3493-0.16615-0.22481-0.53159-0.29283-1.7281-0.32166l-1.5174-0.0366-0.64417 0.99899c-1.0116 1.5687-2.836 5.3333-2.836 5.8518 0 1.0861-1.843 2.3043-5.0776 3.3561-4.1508 1.3498-8.6118 1.4138-11.078 0.15908-0.98437-0.50091-1.8632-1.3502-2.2128-2.1384-0.28597-0.64483-0.29267-0.76939-0.06993-1.3011 0.47195-1.1267 2.4213-2.0067 5.9404-2.6819l1.9605-0.37616 0.17556-0.81653c0.25749-1.1976 0.21416-3.5064-0.0937-4.9931-0.57044-2.7547-1.6477-5.5014-2.4362-6.2117-0.54336-0.48949-2.4091-3.057-3.2059-4.4118-0.84514-1.437-1.9101-3.9608-2.3801-5.6406l-0.34637-1.2379 0.42738 0.0526c0.38002 0.0468 0.48883 0.24022 0.98202 1.7459 0.66902 2.0426 1.3276 3.4974 2.2997 5.08 3.6562 5.9525 9.4632 9.9782 16.409 11.376 2.2682 0.45633 6.864 0.41451 9.1779-0.0835 3.2165-0.6923 6.1142-1.9043 8.8205-3.6893 1.7973-1.1854 4.5346-3.7911 5.9192-5.6345 1.3823-1.8403 2.9533-4.8953 3.6587-7.115 0.48909-1.5389 0.58466-1.7113 0.94881-1.7113 0.48043 0 0.46637 0.10927-0.31616 2.4553-1.1664 3.497-3.3971 7.0327-6.2251 9.8669-1.2932 1.2961-1.5569 1.6624-1.9667 2.7319-0.79103 2.0648-1.1244 3.5681-1.2242 5.5198-0.1152 2.2531 0.09835 3.3014 0.67272 3.3032 0.6601 2e-3 3.1256 0.65234 4.5481 1.1995 1.6856 0.64837 2.8726 1.6692 2.8726 2.4706 0 1.0628-1.3864 2.4218-3.1776 3.1148-1.3845 0.53565-4.7504 0.61848-6.9234 0.17038zm-43.546-32.007c-0.84105-0.25519-1.4657-0.67281-2.2379-1.4963-1.3655-1.4561-2.0052-3.1872-2.0052-5.4263 0-2.2795 0.85567-4.5093 2.5219-6.5718 0.44326-0.54867 1.1383-1.6199 1.5446-2.3804 0.40628-0.76057 0.91528-1.5981 1.1311-1.8612l0.39239-0.47837 0.0061 2.0523 0.0061 2.0523 0.74857 0.0842c1.584 0.17809 3.3759 1.4379 4.1243 2.8999 0.6432 1.2563 0.72914 3.0458 0.21257 4.426-0.33045 0.88292-0.68841 1.3263-2.7329 3.3848-2.0571 2.0713-2.3526 2.4382-2.3526 2.921 0 0.493-0.05002 0.5506-0.46685 0.53761-0.25677-8e-3 -0.65834-0.0727-0.89237-0.14366zm60.947-0.45617c0-0.62252-0.12271-0.78154-2.0796-2.695-1.3105-1.2813-2.268-2.3762-2.5889-2.9604-0.46518-0.84666-0.50922-1.0663-0.50847-2.5356 7.96e-4 -1.4203 0.05464-1.7106 0.46006-2.4787 0.75466-1.4296 2.5121-2.6896 4.0359-2.8935l0.67127-0.0898 0.09464-4.2747 0.79377 1.1955c0.43657 0.65754 0.93303 1.4957 1.1032 1.8627 0.17022 0.36692 0.66942 1.1056 1.1094 1.6415 2.7467 3.3459 3.4194 7.257 1.8176 10.568-0.81886 1.6925-2.5087 3.0382-4.0426 3.2194l-0.86622 0.10233zm-50.133-26.144c1.5659-1.3501 3.0628-3.1855 3.8067-4.6676l0.68724-1.3691-0.26618-1.5385c-0.1464-0.84619-0.54346-2.2875-0.88236-3.2029-1.614-4.3598-1.9439-5.4518-2.046-6.7734-0.24668-3.1907 1.3381-7.0555 3.9016-9.5146l0.59308-0.56893-0.64905-1.3387c-1.417-2.9228-1.259-5.6951 0.43162-7.5707 1.0438-1.158 2.1446-1.6164 3.9096-1.6278 1.1991-0.0078 1.4937 0.05452 2.36 0.49912 0.54445 0.2794 1.2075 0.77724 1.4734 1.1063 0.65351 0.80877 1.1627 2.3246 1.1627 3.4615 0 1.073-0.14412 1.0228 1.9523 0.67925 1.9605-0.3213 5.8487-0.3213 7.8092 0 2.0828 0.34133 1.9523 0.37959 1.9523-0.57252 0-0.45586 0.15886-1.3418 0.35301-1.9688 0.80979-2.6151 3.2168-3.8078 6.1479-3.0463 1.2667 0.3291 2.2011 0.96142 2.838 1.9206 1.3634 2.0531 1.336 4.7642-0.07519 7.4265l-0.55535 1.0478 0.75428 0.73024c1.482 1.4348 2.604 3.2415 3.3 5.3142 0.32886 0.97922 0.39385 1.5236 0.39287 3.29-0.0011 2.0554-0.02156 2.173-0.70598 4.064-1.7162 4.7416-1.943 5.4601-2.1316 6.7508l-0.19975 1.367 0.71361 1.4021c0.76999 1.5129 2.2463 3.3269 3.8202 4.6942l0.98604 0.85656h-42.82zm25.203-1.6802c3.099-0.52929 6.4587-1.8345 9.2528-3.5946 1.0097-0.63604 1.0639-0.70467 1.1551-1.4622 0.19411-1.611 0.63126-3.1888 1.5987-5.7699 1.2295-3.2802 1.4425-4.1518 1.433-5.8623-0.01494-2.6943-1.0198-5.1559-2.9637-7.2601-0.65605-0.71017-1.2579-1.2912-1.3375-1.2912-0.0796 0-0.77984-0.45681-1.5562-1.0151-2.6164-1.8817-5.7056-3.2371-8.7496-3.8389-2.0615-0.40756-6.0751-0.40654-8.0256 2e-3 -2.9866 0.62559-5.5471 1.6755-8.1487 3.3413-1.9607 1.2554-3.5698 3.0598-4.6674 5.2337-0.9526 1.8868-1.1604 2.8602-1.066 4.9932 0.08795 1.988 0.0086 1.7016 2.0729 7.4831 0.33803 0.94676 0.71202 2.3944 0.83108 3.2171 0.2145 1.482 0.2226 1.4993 0.88636 1.8897 3.2983 1.9398 8.3099 3.6653 12.044 4.1468 1.6057 0.20705 5.4431 0.0943 7.2406-0.21265zm-9.8295-9.0628c-0.4902-0.22764-0.89127-0.49359-0.89127-0.59101 0-0.25411 0.19321-0.22264 1.1061 0.18015 1.0188 0.44954 2.5656 0.39032 3.2571-0.12471 0.80687-0.60087 1.0422-1.0975 1.1611-2.4509l0.11307-1.287-2.6491-2.9619 0.4157-0.31875c0.54703-0.41946 1.4709-0.58787 2.0431-0.37243 0.26332 0.0991 0.55718 0.11087 0.68907 0.0275 0.56162-0.35497 1.6919-0.12144 2.4011 0.49608 0.28575 0.24882 0.2218 0.34653-1.0832 1.655l-1.3869 1.3906 0.07635 1.4511c0.08639 1.6416 0.2759 1.977 1.411 2.4969 0.91975 0.42127 2.1747 0.40523 3.0959-0.0396 0.83633-0.40383 1.1823-0.28567 0.58289 0.19908-1.2501 1.0109-3.5518 0.83794-4.8163-0.36189l-0.6515-0.61818-0.63721 0.6356c-1.0759 1.0731-2.7118 1.3026-4.2371 0.59424zm-3.5226-4.9442c-1.3126-0.69024-1.9823-1.9727-1.9823-3.7964 0-3.0015 1.4422-4.9516 3.8289-5.1775 1.5523-0.14688 3.0287 0.95952 2.7514 2.0618-0.05558 0.22088-0.419 0.76771-0.80761 1.2152-0.94272 1.0855-1.4593 2.2633-1.7823 4.0638-0.14714 0.82012-0.29389 1.5864-0.3261 1.7028-0.0813 0.29379-1.0686 0.25287-1.682-0.0697zm1.9446-3.858c0.31479-0.37833 0.14068-0.98719-0.36262-1.268-0.41564-0.23194-0.48581-0.22646-0.80639 0.0629-0.39032 0.35234-0.45929 0.93552-0.14741 1.2466 0.2808 0.28009 1.0695 0.25524 1.3164-0.0415zm13.938 3.4143c-0.08128-0.2066-0.34845-0.95189-0.5937-1.6562-0.53922-1.5486-1.3511-2.7925-2.3616-3.6184-1.0178-0.83187-1.2705-1.4556-0.90203-2.2263 0.55167-1.1539 2.1319-1.6522 3.7509-1.1827 1.7993 0.52176 3.1827 2.7181 3.2065 5.0907 0.01944 1.9381-0.72998 3.1865-2.2295 3.7142-0.70178 0.24697-0.72705 0.24345-0.87055-0.12127zm0.12602-3.3728c0.3312-0.33036 0.24676-1.1166-0.14223-1.3242-0.67178-0.35861-1.4899 0.27993-1.2362 0.96482 0.21107 0.56971 0.96933 0.76742 1.3784 0.3594z" fill="#000000" stroke-width=".16955"/>
<g fill="none" stroke="#000000">
<g stroke-width=".26492px">
<path d="m79.128 132.7-53.858-0.0668v-2.0045"/>
<path d="m84.751 117.43-0.19218-11.656-50.917 0.0153"/>
<path d="m33.642 105.79-8.3725 0.0515-0.09599 11.588"/>
</g>
<path d="m43.883 105.9 0.37888 26.762" stroke-width=".26689px"/>
<path d="m66.051 105.88 0.28411 26.763" stroke-width=".26783px"/>
<path d="m79.128 132.7h5.5935l0.0398-0.9569" stroke-width=".26492px"/>
</g>
<g stroke-width="0">
<path d="m25.445 131.5v-0.99191l0.35398-0.40187c0.19469-0.22104 1.1022-1.1704 2.0168-2.1097s1.799-1.9128 1.9654-2.1634c0.72299-1.0887 0.99388-2.4955 0.7539-3.9152-0.20456-1.2101-0.58519-1.9515-1.4352-2.7954-0.92306-0.91646-2.0729-1.5036-3.2193-1.6439l-0.48295-0.0591 0.03317-5.6694c0.01825-3.1181 0.04682-5.6837 0.0635-5.7012 0.01668-0.0175 4.1263-0.056 9.1325-0.0856l9.1021-0.0538v1.0642c0 1.5062 0.26464 20.365 0.32527 23.179l0.05038 2.3387h-18.66z" fill="#0000f0" style="paint-order:normal"/>
<path d="m66.387 120.94c-0.06349-6.3535-0.1144-12.328-0.11312-13.276l0.0024-1.7245h18.073l0.05801 2.008c0.0319 1.1044 0.0686 3.6868 0.08154 5.7386l0.02353 3.7306-0.52104 0.0722c-0.30704 0.0425-0.88184 0.24918-1.3995 0.50318-1.1773 0.57764-2.1033 1.4718-2.6344 2.5437l-0.37125 0.74925v3.2266l0.3051 0.61817c0.37458 0.75894 1.0992 1.6139 3.1495 3.7158 1.6396 1.6809 1.7084 1.7846 1.7084 2.5719 0 0.1754-0.04263 0.31892-0.09473 0.31892s-0.09473 0.17008-0.09473 0.37797v0.37798h-18.058z" fill="#f0f62a" style="paint-order:normal"/>
<path d="m44.313 123.97c-0.06386-4.6904-0.1429-10.665-0.17563-13.276l-0.05952-4.7483h21.82l-5.6e-5 1.5828c-7.6e-5 2.1491 0.17032 18.142 0.23359 21.923l0.05099 3.0474h-21.753z" fill="#00f000" style="paint-order:normal"/>
</g>
</g>
</svg>
