<?xml version="1.0" encoding="UTF-8" standalone="no"?>
<!-- Created with Inkscape (http://www.inkscape.org/) -->

<svg
   xmlns:dc="http://purl.org/dc/elements/1.1/"
   xmlns:cc="http://creativecommons.org/ns#"
   xmlns:rdf="http://www.w3.org/1999/02/22-rdf-syntax-ns#"
   xmlns:svg="http://www.w3.org/2000/svg"
   xmlns="http://www.w3.org/2000/svg"
   xmlns:sodipodi="http://sodipodi.sourceforge.net/DTD/sodipodi-0.dtd"
   xmlns:inkscape="http://www.inkscape.org/namespaces/inkscape"
   width="72mm"
   height="100mm"
   viewBox="0 0 72 100"
   version="1.1"
   id="svg876"
   inkscape:version="0.92.2 (5c3e80d, 2017-08-06)"
   sodipodi:docname="pandaBoxes.svg">
  <defs
     id="defs870" />
  <sodipodi:namedview
     id="base"
     pagecolor="#ffffff"
     bordercolor="#666666"
     borderopacity="1.0"
     inkscape:pageopacity="0.0"
     inkscape:pageshadow="2"
     inkscape:zoom="2.8"
     inkscape:cx="22.557963"
     inkscape:cy="241.38447"
     inkscape:document-units="mm"
     inkscape:current-layer="layer1"
     showgrid="false"
     fit-margin-top="0"
     fit-margin-left="0"
     fit-margin-right="0"
     fit-margin-bottom="0"
     inkscape:window-width="1920"
     inkscape:window-height="1017"
     inkscape:window-x="-8"
     inkscape:window-y="-8"
     inkscape:window-maximized="1" />
  <metadata
     id="metadata873">
    <rdf:RDF>
      <cc:Work
         rdf:about="">
        <dc:format>image/svg+xml</dc:format>
        <dc:type
           rdf:resource="http://purl.org/dc/dcmitype/StillImage" />
        <dc:title></dc:title>
      </cc:Work>
    </rdf:RDF>
  </metadata>
  <g
     inkscape:label="Layer 1"
     inkscape:groupmode="layer"
     id="layer1"
     transform="translate(-19.042011,-64.895797)">
    <path
       style="fill:#000000;stroke-width:0.16954926"
       d="m 67.360151,163.54768 c -4.257402,-0.87794 -8.403388,-2.98907 -8.403388,-4.27901 0,-0.23268 -0.15469,-0.87313 -0.343759,-1.42322 -0.337396,-0.98166 -2.192956,-4.78884 -2.607149,-5.34927 -0.16615,-0.22481 -0.531591,-0.29283 -1.728119,-0.32166 l -1.517409,-0.0366 -0.64417,0.99899 c -1.011553,1.56874 -2.836025,5.33329 -2.836025,5.85177 0,1.08609 -1.843042,2.30427 -5.077646,3.35612 -4.150835,1.34979 -8.611781,1.41385 -11.07761,0.15908 -0.98437,-0.50091 -1.863209,-1.35022 -2.212759,-2.13841 -0.28597,-0.64483 -0.292666,-0.76939 -0.06993,-1.30111 0.471949,-1.12666 2.421286,-2.00674 5.94035,-2.68192 l 1.960548,-0.37616 0.175561,-0.81653 c 0.257491,-1.19757 0.214161,-3.50639 -0.0937,-4.99306 -0.570444,-2.75467 -1.647671,-5.50137 -2.436152,-6.21168 -0.543363,-0.48949 -2.4091,-3.05705 -3.205855,-4.41178 -0.845143,-1.43701 -1.910064,-3.9608 -2.380067,-5.6406 l -0.346368,-1.23794 0.427378,0.0526 c 0.380024,0.0468 0.488832,0.24022 0.982016,1.74593 0.669023,2.04256 1.327643,3.49744 2.299702,5.08 3.656213,5.95251 9.46319,9.97819 16.409166,11.37564 2.268209,0.45633 6.864006,0.41451 9.177931,-0.0835 3.216474,-0.6923 6.114179,-1.90431 8.820488,-3.68932 1.797294,-1.18544 4.534591,-3.79107 5.919225,-5.63449 1.382289,-1.8403 2.953259,-4.89533 3.658703,-7.11501 0.489087,-1.53892 0.584659,-1.7113 0.948806,-1.7113 0.480434,0 0.466367,0.10927 -0.316164,2.45533 -1.166408,3.49699 -3.397087,7.03267 -6.225084,9.86694 -1.293202,1.29606 -1.556943,1.66244 -1.966667,2.73193 -0.791033,2.06485 -1.124441,3.56811 -1.224226,5.5198 -0.115195,2.25306 0.09835,3.30137 0.672722,3.30319 0.660101,0.002 3.125636,0.65234 4.548136,1.19952 1.685571,0.64837 2.872561,1.66924 2.872561,2.47056 0,1.06275 -1.386437,2.42176 -3.177617,3.11476 -1.384485,0.53565 -4.750411,0.61848 -6.923433,0.17038 z M 23.814216,131.54106 c -0.841047,-0.25519 -1.465656,-0.67281 -2.237885,-1.49628 -1.365455,-1.45607 -2.005153,-3.18721 -2.005153,-5.42631 0,-2.27951 0.855671,-4.50926 2.521945,-6.57183 0.443257,-0.54867 1.138336,-1.61988 1.54462,-2.38045 0.406285,-0.76057 0.915276,-1.59813 1.131091,-1.86122 l 0.392393,-0.47837 0.0061,2.05232 0.0061,2.05231 0.74857,0.0842 c 1.584042,0.17809 3.375861,1.43794 4.124329,2.89987 0.643199,1.25632 0.729141,3.04578 0.212567,4.42601 -0.330447,0.88292 -0.68841,1.32628 -2.732862,3.38484 -2.057115,2.07129 -2.352616,2.43819 -2.352616,2.921 0,0.493 -0.05002,0.5506 -0.466854,0.53761 -0.256771,-0.008 -0.658336,-0.0727 -0.892368,-0.14366 z m 60.946897,-0.45617 c 0,-0.62252 -0.122712,-0.78154 -2.079622,-2.69498 -1.310467,-1.28134 -2.267995,-2.37625 -2.588931,-2.96036 -0.465184,-0.84666 -0.509217,-1.06628 -0.508474,-2.53561 7.96e-4,-1.42027 0.05464,-1.71056 0.460062,-2.47868 0.75466,-1.42963 2.512105,-2.6896 4.035882,-2.89346 l 0.671268,-0.0898 0.04732,-2.13736 0.04732,-2.13736 0.79377,1.19553 c 0.43657,0.65754 0.933026,1.49574 1.103228,1.86267 0.170215,0.36692 0.669423,1.10561 1.109365,1.64152 2.746731,3.34593 3.419403,7.25704 1.817555,10.56777 -0.818865,1.69246 -2.508675,3.03815 -4.04258,3.21935 l -0.866223,0.10233 z M 34.627984,104.9411 c 1.565858,-1.3501 3.062764,-3.18551 3.806722,-4.66755 l 0.68724,-1.369053 -0.266182,-1.538512 c -0.146401,-0.846188 -0.543462,-2.287519 -0.882358,-3.202948 -1.614001,-4.359781 -1.943854,-5.451761 -2.046036,-6.773441 -0.246677,-3.19073 1.338139,-7.05549 3.90163,-9.51458 l 0.593083,-0.56893 -0.649051,-1.338741 c -1.417048,-2.922817 -1.258993,-5.69512 0.431619,-7.5707 1.04384,-1.158047 2.144629,-1.616372 3.90964,-1.627819 1.199118,-0.0078 1.49368,0.05452 2.360037,0.499115 0.544452,0.279401 1.207466,0.777244 1.473369,1.10632 0.653506,0.808771 1.16267,2.32463 1.16267,3.461451 0,1.072965 -0.144115,1.022825 1.952303,0.679252 1.960515,-0.3213 5.848698,-0.3213 7.809213,0 2.082752,0.341333 1.952304,0.379587 1.952304,-0.572518 0,-0.455857 0.158855,-1.341838 0.35301,-1.968846 0.809792,-2.615128 3.21683,-3.807822 6.147913,-3.046315 1.266705,0.329096 2.201095,0.961424 2.838046,1.920591 1.363378,2.053097 1.335951,4.764197 -0.07519,7.42649 l -0.555354,1.04776 0.754281,0.73024 c 1.482002,1.43477 2.603958,3.24152 3.300029,5.31422 0.328857,0.97922 0.393853,1.52356 0.392872,3.29002 -0.0011,2.05539 -0.02156,2.17305 -0.705978,4.064 -1.716169,4.74162 -1.943027,5.460051 -2.131636,6.750839 l -0.199747,1.366951 0.713614,1.402104 c 0.769989,1.51288 2.24631,3.32694 3.820245,4.69421 l 0.98604,0.85656 H 55.05216 33.641954 Z m 25.20318,-1.68023 c 3.099005,-0.52929 6.458743,-1.83452 9.252804,-3.594627 1.009651,-0.636037 1.063878,-0.704667 1.155139,-1.462156 0.194106,-1.61104 0.631258,-3.18879 1.59869,-5.769881 1.22946,-3.28021 1.442524,-4.1518 1.433019,-5.86226 -0.01494,-2.69428 -1.019837,-5.15594 -2.963653,-7.26012 -0.656051,-0.71017 -1.257912,-1.29122 -1.337485,-1.29122 -0.0796,0 -0.779836,-0.45681 -1.556152,-1.01513 -2.616399,-1.881681 -5.705602,-3.237068 -8.749626,-3.838882 -2.06147,-0.407562 -6.075058,-0.406544 -8.025641,0.002 -2.986623,0.62559 -5.547147,1.675502 -8.148744,3.341292 -1.960719,1.25545 -3.569819,3.05979 -4.667391,5.23373 -0.952596,1.88679 -1.160406,2.86016 -1.066033,4.99323 0.08795,1.98801 0.0086,1.70156 2.07286,7.483121 0.338031,0.946758 0.712018,2.394447 0.831078,3.217079 0.214497,1.482029 0.222595,1.499291 0.88636,1.88966 3.298345,1.939794 8.309908,3.665274 12.04417,4.146784 1.605684,0.20705 5.443124,0.0943 7.240605,-0.21265 z m -9.829525,-9.062794 c -0.490198,-0.22764 -0.891272,-0.493591 -0.891272,-0.591011 0,-0.254108 0.193214,-0.222639 1.106107,0.18015 1.018845,0.44954 2.565567,0.390321 3.257146,-0.124709 0.806866,-0.60087 1.042151,-1.09754 1.161059,-2.45086 l 0.113074,-1.28697 -1.324529,-1.48093 -1.324528,-1.48093 0.415697,-0.31875 c 0.547026,-0.41946 1.470933,-0.58787 2.043145,-0.37243 0.26332,0.0991 0.557179,0.11087 0.689073,0.0275 0.561616,-0.35497 1.691885,-0.12144 2.401059,0.49608 0.28575,0.24882 0.221799,0.34653 -1.083193,1.655 l -1.386875,1.39056 0.07635,1.45109 c 0.08639,1.64165 0.275903,1.97703 1.410972,2.496931 0.919746,0.42127 2.174724,0.405228 3.095924,-0.0396 0.836334,-0.403831 1.182326,-0.285671 0.58289,0.19908 -1.250081,1.010889 -3.551819,0.837938 -4.816326,-0.361892 l -0.651496,-0.618179 -0.637212,0.6356 c -1.075865,1.073121 -2.711788,1.302559 -4.237075,0.594241 z m -3.522637,-4.94417 c -1.312635,-0.69024 -1.98226,-1.97268 -1.98226,-3.79636 0,-3.00151 1.442185,-4.95165 3.828903,-5.17748 1.552269,-0.14688 3.028735,0.95952 2.751383,2.06177 -0.05558,0.22088 -0.419002,0.76771 -0.807609,1.21518 -0.942725,1.08553 -1.459277,2.26331 -1.782308,4.06379 -0.147142,0.82012 -0.293888,1.58639 -0.326104,1.7028 -0.0813,0.29379 -1.068565,0.25287 -1.682005,-0.0697 z m 1.94455,-3.85798 c 0.314793,-0.37833 0.140685,-0.98719 -0.362616,-1.26804 -0.415637,-0.23194 -0.485809,-0.22646 -0.806387,0.0629 -0.390325,0.35234 -0.459287,0.93552 -0.147414,1.2466 0.280803,0.28009 1.069539,0.25524 1.316417,-0.0415 z m 13.93832,3.41432 c -0.08128,-0.2066 -0.348447,-0.95189 -0.593697,-1.6562 -0.539225,-1.54856 -1.351092,-2.79248 -2.361626,-3.61843 -1.017779,-0.83187 -1.270493,-1.4556 -0.902027,-2.22631 0.551668,-1.15391 2.13188,-1.65219 3.750875,-1.18274 1.799347,0.52176 3.182741,2.71806 3.20651,5.09071 0.01944,1.93807 -0.72998,3.18653 -2.229489,3.71424 -0.701779,0.24697 -0.727052,0.24345 -0.870546,-0.12127 z m 0.126015,-3.37284 c 0.331205,-0.33036 0.246763,-1.11657 -0.142226,-1.32422 -0.671781,-0.35861 -1.489904,0.27993 -1.23616,0.96482 0.211069,0.56971 0.969326,0.76742 1.378386,0.3594 z"
       id="path826"
       inkscape:connector-curvature="0" />
    <path
       style="fill:none;stroke:#000000;stroke-width:0.26492071px;stroke-linecap:butt;stroke-linejoin:miter;stroke-opacity:1"
       d="m 79.127715,132.70335 -53.858267,-0.0668 v -1.93771 -0.0668"
       id="path832"
       inkscape:connector-curvature="0" />
    <path
       style="fill:none;stroke:#000000;stroke-width:0.26492071px;stroke-linecap:butt;stroke-linejoin:miter;stroke-opacity:1"
       d="m 84.751298,117.432 -0.192179,-11.65605 -50.917165,0.0153 v 0"
       id="path834"
       inkscape:connector-curvature="0" />
    <path
       style="fill:none;stroke:#000000;stroke-width:0.26492071px;stroke-linecap:butt;stroke-linejoin:miter;stroke-opacity:1"
       d="m 33.641954,105.79125 -8.372506,0.0515 -0.09599,11.58846 v 0"
       id="path836"
       inkscape:connector-curvature="0" />
    <path
       style="fill:none;stroke:#000000;stroke-width:0.26689434px;stroke-linecap:butt;stroke-linejoin:miter;stroke-opacity:1"
       d="m 43.883292,105.89851 0.378881,26.76235 v 0"
       id="path840"
       inkscape:connector-curvature="0" />
    <path
       style="fill:none;stroke:#000000;stroke-width:0.26783445px;stroke-linecap:butt;stroke-linejoin:miter;stroke-opacity:1"
       d="m 66.051339,105.87638 0.284113,26.76257"
       id="path842"
       inkscape:connector-curvature="0" />
    <path
       style="fill:none;stroke:#000000;stroke-width:0.26492071px;stroke-linecap:butt;stroke-linejoin:miter;stroke-opacity:1"
       d="m 79.127715,132.70335 h 5.593487 l 0.0398,-0.9569"
       id="path844"
       inkscape:connector-curvature="0" />
    <path
       style="opacity:1;fill:#0000f0;fill-opacity:1;stroke:#000000;stroke-width:0;stroke-miterlimit:4;stroke-dasharray:none;stroke-opacity:1;paint-order:normal"
       d="m 25.445225,131.50271 v -0.99191 l 0.353979,-0.40187 c 0.194686,-0.22104 1.102248,-1.17041 2.016803,-2.10972 0.914555,-0.93931 1.798968,-1.91285 1.965359,-2.16341 0.722991,-1.08874 0.993881,-2.49553 0.753896,-3.91518 -0.204565,-1.21014 -0.585187,-1.95151 -1.435186,-2.79542 -0.923058,-0.91646 -2.072932,-1.50362 -3.219267,-1.64386 l -0.482952,-0.0591 0.03317,-5.66936 c 0.01825,-3.11814 0.04682,-5.68368 0.0635,-5.70119 0.01668,-0.0175 4.126293,-0.056 9.132464,-0.0856 l 9.102132,-0.0538 v 1.06418 c 0,1.50624 0.264637,20.3651 0.325268,23.17945 l 0.05038,2.33873 h -9.329767 -9.329773 z"
       id="path846"
       inkscape:connector-curvature="0" />
    <path
       style="opacity:1;fill:#f0f62a;fill-opacity:1;stroke:#000000;stroke-width:0;stroke-miterlimit:4;stroke-dasharray:none;stroke-opacity:1;paint-order:normal"
       d="m 66.386894,120.94273 c -0.06349,-6.35354 -0.114398,-12.32793 -0.113123,-13.27641 l 0.0024,-1.72452 h 9.036721 9.036724 l 0.05801,2.008 c 0.0319,1.1044 0.0686,3.68678 0.08154,5.73862 l 0.02353,3.73061 -0.521045,0.0722 c -0.307044,0.0425 -0.881838,0.24918 -1.399503,0.50318 -1.177292,0.57764 -2.103323,1.47177 -2.634434,2.54367 l -0.371248,0.74925 v 1.61329 1.61328 l 0.305098,0.61817 c 0.374576,0.75894 1.099216,1.61387 3.149521,3.71582 1.63957,1.68086 1.708447,1.78455 1.708447,2.57192 0,0.1754 -0.04263,0.31892 -0.09473,0.31892 -0.0521,0 -0.09473,0.17008 -0.09473,0.37797 v 0.37798 h -9.02891 -9.028824 z"
       id="path848"
       inkscape:connector-curvature="0" />
    <path
       style="opacity:1;fill:#00f000;fill-opacity:1;stroke:#000000;stroke-width:0;stroke-miterlimit:4;stroke-dasharray:none;stroke-opacity:1;paint-order:normal"
       d="m 44.312504,123.96654 c -0.06386,-4.69045 -0.142898,-10.66483 -0.17563,-13.27641 l -0.05952,-4.74833 H 54.98725 65.897147 l -5.6e-5,1.58278 c -7.6e-5,2.14909 0.170323,18.14156 0.233588,21.92261 l 0.05099,3.04744 H 55.305143 44.428618 Z"
       id="path850"
       inkscape:connector-curvature="0" />
  </g>
</svg>
