<svg width="113" height="77" version="1.1" viewBox="0 0 29.898 20.373" xmlns="http://www.w3.org/2000/svg">
<g transform="translate(-2.021 -284.12)">
<g fill="none" stroke="#f0f0f0" stroke-width="3.175" aria-label="+ 1">
<path d="m14.768 295.05q0 0.23565-0.03721 0.40928-0.03721 0.16123-0.09922 0.27285t-0.14883 0.16123q-0.08682 0.0496-0.18604 0.0496h-4.068v4.5145q0 0.0992-0.04961 0.17363-0.04961 0.062-0.16123 0.11162-0.099219 0.0496-0.27285 0.0868-0.17363 0.0248-0.43408 0.0248-0.24805 0-0.43408-0.0248-0.17363-0.0372-0.28525-0.0868-0.099219-0.0496-0.14883-0.11162-0.049609-0.0744-0.049609-0.17363v-4.5145h-4.068q-0.11162 0-0.19844-0.0496-0.074414-0.0496-0.13643-0.16123-0.062012-0.11162-0.099219-0.27285-0.037207-0.17363-0.037207-0.40928 0-0.22324 0.037207-0.38447 0.037207-0.17363 0.099219-0.28525t0.13643-0.16123q0.086816-0.0496 0.18604-0.0496h4.0804v-4.5145q0-0.0992 0.049609-0.17363 0.049609-0.0868 0.14883-0.13642 0.11162-0.062 0.28525-0.0868 0.18604-0.0372 0.43408-0.0372 0.26045 0 0.43408 0.0372 0.17363 0.0248 0.27285 0.0868 0.11162 0.0496 0.16123 0.13642 0.04961 0.0744 0.04961 0.17363v4.5145h4.0804q0.09922 0 0.17363 0.0496 0.08682 0.0496 0.14883 0.16123 0.07441 0.11162 0.09922 0.28525 0.03721 0.16123 0.03721 0.38447z"/>
<path d="m30.242 301.35q0 0.23565-0.03721 0.39688t-0.09922 0.26045q-0.06201 0.0992-0.14883 0.14883-0.07441 0.0372-0.16123 0.0372h-8.384q-0.08682 0-0.16123-0.0372-0.07441-0.0496-0.14883-0.14883-0.06201-0.0992-0.09922-0.26045-0.03721-0.16123-0.03721-0.39688 0-0.22324 0.03721-0.38447t0.08682-0.26045q0.06201-0.11162 0.13643-0.16123 0.08682-0.062 0.18604-0.062h3.3486v-12.204l-3.1006 1.848q-0.23564 0.12403-0.38447 0.14883-0.13643 0.0248-0.22324-0.0496-0.08682-0.0868-0.12402-0.27285-0.02481-0.18603-0.02481-0.47129 0-0.21084 0.0124-0.35967 0.02481-0.14882 0.06201-0.24804 0.03721-0.0992 0.09922-0.17364 0.07441-0.0744 0.18604-0.14882l3.6959-2.3688q0.04961-0.0372 0.12402-0.062 0.07441-0.0248 0.18604-0.0496 0.11162-0.0248 0.26045-0.0248 0.14883-0.0124 0.37207-0.0124 0.29766 0 0.49609 0.0248 0.19844 0.0248 0.31006 0.0744 0.11162 0.0372 0.14883 0.11162 0.03721 0.062 0.03721 0.13643v14.101h2.9021q0.09922 0 0.18604 0.062 0.08682 0.0496 0.13643 0.16123 0.06201 0.0992 0.08682 0.26045 0.03721 0.16123 0.03721 0.38447z"/>
</g>
<g fill="#00f000" stroke-width=".26458" aria-label="+ 1">
<path d="m14.768 295.05q0 0.23565-0.03721 0.40928-0.03721 0.16123-0.09922 0.27285t-0.14883 0.16123q-0.08682 0.0496-0.18604 0.0496h-4.068v4.5145q0 0.0992-0.04961 0.17363-0.04961 0.062-0.16123 0.11162-0.099219 0.0496-0.27285 0.0868-0.17363 0.0248-0.43408 0.0248-0.24805 0-0.43408-0.0248-0.17363-0.0372-0.28525-0.0868-0.099219-0.0496-0.14883-0.11162-0.049609-0.0744-0.049609-0.17363v-4.5145h-4.068q-0.11162 0-0.19844-0.0496-0.074414-0.0496-0.13643-0.16123-0.062012-0.11162-0.099219-0.27285-0.037207-0.17363-0.037207-0.40928 0-0.22324 0.037207-0.38447 0.037207-0.17363 0.099219-0.28525t0.13643-0.16123q0.086816-0.0496 0.18604-0.0496h4.0804v-4.5145q0-0.0992 0.049609-0.17363 0.049609-0.0868 0.14883-0.13642 0.11162-0.062 0.28525-0.0868 0.18604-0.0372 0.43408-0.0372 0.26045 0 0.43408 0.0372 0.17363 0.0248 0.27285 0.0868 0.11162 0.0496 0.16123 0.13642 0.04961 0.0744 0.04961 0.17363v4.5145h4.0804q0.09922 0 0.17363 0.0496 0.08682 0.0496 0.14883 0.16123 0.07441 0.11162 0.09922 0.28525 0.03721 0.16123 0.03721 0.38447z"/>
<path d="m30.242 301.35q0 0.23565-0.03721 0.39688t-0.09922 0.26045q-0.06201 0.0992-0.14883 0.14883-0.07441 0.0372-0.16123 0.0372h-8.384q-0.08682 0-0.16123-0.0372-0.07441-0.0496-0.14883-0.14883-0.06201-0.0992-0.09922-0.26045-0.03721-0.16123-0.03721-0.39688 0-0.22324 0.03721-0.38447t0.08682-0.26045q0.06201-0.11162 0.13643-0.16123 0.08682-0.062 0.18604-0.062h3.3486v-12.204l-3.1006 1.848q-0.23564 0.12403-0.38447 0.14883-0.13643 0.0248-0.22324-0.0496-0.08682-0.0868-0.12402-0.27285-0.02481-0.18603-0.02481-0.47129 0-0.21084 0.0124-0.35967 0.02481-0.14882 0.06201-0.24804 0.03721-0.0992 0.09922-0.17364 0.07441-0.0744 0.18604-0.14882l3.6959-2.3688q0.04961-0.0372 0.12402-0.062 0.07441-0.0248 0.18604-0.0496 0.11162-0.0248 0.26045-0.0248 0.14883-0.0124 0.37207-0.0124 0.29766 0 0.49609 0.0248 0.19844 0.0248 0.31006 0.0744 0.11162 0.0372 0.14883 0.11162 0.03721 0.062 0.03721 0.13643v14.101h2.9021q0.09922 0 0.18604 0.062 0.08682 0.0496 0.13643 0.16123 0.06201 0.0992 0.08682 0.26045 0.03721 0.16123 0.03721 0.38447z"/>
</g>
</g>
</svg>
