<svg width="113" height="77" version="1.1" viewBox="0 0 29.898 20.373" xmlns="http://www.w3.org/2000/svg">
<g transform="translate(-2.021 -284.12)">
<path d="m21.561 284.56c-0.53173 0-1.2083 0.19267-1.6797 0.66406l-0.01953 0.0176-0.01758 0.0195c-0.49648 0.52957-0.61523 1.18-0.61523 1.6934v6.5352c0 0.47755-0.03805 1.0382 0.57031 1.6973 0.51662 0.55968 1.1849 0.67188 1.6621 0.67188 0.39774 0 0.808-0.03 1.2324-0.0879 0.26649-0.0363 0.63558-0.0605 1.0879-0.0605 0.61262 0 1.0968 0.0605 1.4375 0.14844l0.01172 2e-3 0.01172 4e-3c0.33769 0.0817 0.5337 0.18907 0.64648 0.2793l0.01758 0.0137 0.01758 0.0117c0.11868 0.0897 0.16829 0.15655 0.22461 0.29883l0.0078 0.0195 0.0078 0.0176c0.06689 0.15719 0.12109 0.38854 0.12109 0.73047 0 0.4446-0.0715 0.73845-0.14844 0.91406-0.09848 0.21651-0.20578 0.35634-0.35547 0.48047l-0.0156 0.012c-0.14581 0.12394-0.32424 0.22657-0.59766 0.30469-0.30222 0.0863-0.66224 0.13671-1.0898 0.13671-0.49977 0-0.89519-0.0474-1.1719-0.11523-0.37343-0.0936-0.66906-0.18869-0.87891-0.26953-0.22878-0.0996-0.41295-0.1877-0.49805-0.23633l0.04883 0.0273c-0.26952-0.16684-0.4501-0.39843-1.2207-0.39843-0.36026 0-0.75432 0.12528-1.041 0.3164l-0.05859 0.0391-0.05273 0.043c-0.32425 0.25941-0.45767 0.51879-0.55469 0.73438-0.13068 0.27746-0.1813 0.50739-0.21094 0.71484l-0.0078 0.0508-0.0039 0.0508c-0.01233 0.16024-0.01758 0.32245-0.01758 0.49414 0 0.17822 5e-3 0.3425 0.01758 0.50586 0.01233 0.16024 0.03082 0.31836 0.07031 0.49609l0.02344 0.10937 0.03906 0.10352c0.04008 0.10687 0.08427 0.21346 0.14062 0.32617 0.13524 0.27049 0.28382 0.43616 0.42188 0.57422l0.03711 0.0371 0.04102 0.0352c0.3939 0.34466 0.55923 0.36812 0.83398 0.49023 0.30799 0.13688 0.64397 0.25708 1.0312 0.37695l0.01563 6e-3 0.01758 4e-3c0.42688 0.12197 0.88634 0.21508 1.3828 0.28906 0.53523 0.0882 1.0888 0.13086 1.6582 0.13086 1.0329 0 2.0125-0.13857 2.9219-0.4375l0.0059-2e-3c0.90804-0.29666 1.7366-0.74507 2.4355-1.3457l0.0039-4e-3 0.0059-4e-3c0.7067-0.61836 1.2643-1.3948 1.6406-2.2656 0.38752-0.89682 0.56445-1.8858 0.56445-2.9238 0-0.87381-0.15612-1.7218-0.48242-2.502-0.32033-0.78525-0.82531-1.4862-1.4668-2.0391-0.64145-0.56771-1.4155-0.97772-2.2676-1.2461-0.8828-0.28643-1.8462-0.41406-2.8906-0.41406-0.12919 0-0.22703 3e-3 -0.34766 4e-3v-1.2441h4.4043c0.73679 0 1.5126-0.61886 1.7656-1.125 0.25307-0.50614 0.29297-0.95965 0.29297-1.4043 0-0.21594-0.02148-0.43621-0.06445-0.66602-0.03699-0.24441-0.09864-0.50879-0.25976-0.79883-0.14938-0.26889-0.43162-0.53154-0.75-0.72265-0.28246-0.17222-0.63153-0.31836-0.98438-0.31836zm-12.25 3.0762c-0.22742 0-0.45423 0.0212-0.69141 0.0644-0.23131 0.0352-0.48555 0.10255-0.75781 0.2461-0.28004 0.14559-0.56278 0.40297-0.75391 0.71093-0.1918 0.31168-0.30078 0.68636-0.30078 1v2.9277h-2.4941c-0.33073 0-0.68859 0.0955-0.97266 0.25781l-0.048828 0.0273-0.044922 0.0312c-0.33749 0.225-0.51881 0.48815-0.64258 0.71094-0.14442 0.25996-0.21369 0.4941-0.26172 0.7168-0.057431 0.25656-0.074219 0.49127-0.074219 0.72265 0 0.24065 0.016632 0.48257 0.072266 0.74219l0.00195 0.0117 0.00195 0.0137c0.050207 0.21756 0.1263 0.44531 0.25977 0.68555 0.12377 0.22279 0.30508 0.48594 0.64258 0.71094l0.044922 0.0312 0.048828 0.0273c0.31234 0.17848 0.67673 0.25781 0.98633 0.25781h2.4805v2.9277c0 0.33073 0.1027 0.73413 0.31641 1.0547l0.037109 0.0566 0.042969 0.0547c0.22658 0.28322 0.47155 0.435 0.67969 0.53907l0.03125 0.0156 0.033203 0.0156c0.21898 0.0973 0.4087 0.14701 0.59766 0.1875l0.060547 0.0137 0.0625 8e-3c0.21564 0.0288 0.4243 0.0391 0.64258 0.0391 0.22403 0 0.43439-9e-3 0.66016-0.041l0.052735-8e-3 0.05469-0.0117c0.1829-0.0392 0.37485-0.094 0.60547-0.20313 0.2156-0.097 0.47691-0.23042 0.73633-0.55469l0.04297-0.0547 0.03711-0.0566c0.21371-0.32055 0.31641-0.72395 0.31641-1.0547v-2.9277h2.4805c0.33073 0 0.69054-0.0955 0.97461-0.25781 0.36182-0.20675 0.60246-0.50747 0.74805-0.76953 0.13347-0.24024 0.20761-0.46799 0.25781-0.68555l0.0039-0.0137 2e-3 -0.0117c0.05563-0.25962 0.07227-0.50154 0.07227-0.74219 0-0.20824-0.02388-0.42325-0.06836-0.65039-0.04077-0.25828-0.13336-0.54611-0.30859-0.83203-0.13879-0.23607-0.35478-0.491-0.66406-0.68359-0.31263-0.19391-0.69053-0.30078-1.0059-0.30078h-2.4922v-2.9277c0-0.31291-0.10794-0.68678-0.29883-0.99804-0.20804-0.33509-0.51424-0.56715-0.79297-0.70508-0.26226-0.13676-0.50684-0.22031-0.7168-0.25196-0.24459-0.0462-0.47084-0.0664-0.69727-0.0664zm16.68 5.1426 0.02344 6e-3c-0.0042-1e-3 -0.0095-8.8e-4 -0.01367-2e-3 -0.0035-8.4e-4 -0.0063-3e-3 -0.0098-4e-3zm1.8477 0.85937 0.03516 0.0254c-0.0074-6e-3 -0.01798-6e-3 -0.02539-0.0117-0.0045-3e-3 -0.0053-0.0103-0.0098-0.0137zm1.248 1.625 0.01562 0.0371c-0.0024-6e-3 -0.0093-0.01-0.01172-0.0156-0.0028-7e-3 -1e-3 -0.0147-0.0039-0.0215zm-1.2637 5.7988-0.01367 0.0117c0.0025-2e-3 0.0033-6e-3 0.0059-8e-3 0.0022-2e-3 0.0056-2e-3 0.0078-4e-3z" color="#000000" color-rendering="auto" dominant-baseline="auto" fill="#f0f0f0" image-rendering="auto" shape-rendering="auto" solid-color="#000000" style="font-feature-settings:normal;font-variant-alternates:normal;font-variant-caps:normal;font-variant-ligatures:normal;font-variant-numeric:normal;font-variant-position:normal;isolation:auto;mix-blend-mode:normal;shape-padding:0;text-decoration-color:#000000;text-decoration-line:none;text-decoration-style:solid;text-indent:0;text-orientation:mixed;text-transform:none;white-space:normal"/>
<g fill="#00f000" stroke-width=".26458" aria-label="+ 5">
<path d="m14.768 295.05q0 0.23565-0.03721 0.40928-0.03721 0.16123-0.09922 0.27285t-0.14883 0.16123q-0.08682 0.0496-0.18604 0.0496h-4.068v4.5145q0 0.0992-0.04961 0.17363-0.04961 0.062-0.16123 0.11162-0.099219 0.0496-0.27285 0.0868-0.17363 0.0248-0.43408 0.0248-0.24805 0-0.43408-0.0248-0.17363-0.0372-0.28525-0.0868-0.099219-0.0496-0.14883-0.11162-0.049609-0.0744-0.049609-0.17363v-4.5145h-4.068q-0.11162 0-0.19844-0.0496-0.074414-0.0496-0.13643-0.16123-0.062012-0.11162-0.099219-0.27285-0.037207-0.17363-0.037207-0.40928 0-0.22324 0.037207-0.38447 0.037207-0.17363 0.099219-0.28525t0.13643-0.16123q0.086816-0.0496 0.18604-0.0496h4.0804v-4.5145q0-0.0992 0.049609-0.17363 0.049609-0.0868 0.14883-0.13642 0.11162-0.062 0.28525-0.0868 0.18604-0.0372 0.43408-0.0372 0.26045 0 0.43408 0.0372 0.17363 0.0248 0.27285 0.0868 0.11162 0.0496 0.16123 0.13642 0.04961 0.0744 0.04961 0.17363v4.5145h4.0804q0.09922 0 0.17363 0.0496 0.08682 0.0496 0.14883 0.16123 0.07441 0.11162 0.09922 0.28525 0.03721 0.16123 0.03721 0.38447z"/>
<path d="m30.131 297.04q0 1.2898-0.43408 2.2944-0.43408 1.0046-1.2278 1.6991-0.79375 0.68213-1.8976 1.0418-1.0914 0.35967-2.4309 0.35967-0.74414 0-1.4139-0.11162-0.66973-0.0992-1.1906-0.24805-0.5209-0.16123-0.85576-0.31006-0.33486-0.14883-0.43408-0.23564-0.08682-0.0868-0.12402-0.16123-0.03721-0.0744-0.07441-0.17364-0.0248-0.11162-0.03721-0.27285-0.0124-0.16123-0.0124-0.38447 0-0.21084 0.0124-0.37207 0.02481-0.17363 0.07441-0.27285 0.04961-0.11162 0.11162-0.16123 0.07441-0.0496 0.16123-0.0496 0.12402 0 0.38447 0.16123 0.26045 0.14883 0.69453 0.33486 0.44648 0.17363 1.0914 0.33486 0.65732 0.16124 1.5503 0.16124 0.83096 0 1.5255-0.19844t1.1906-0.62012q0.5085-0.42168 0.79375-1.0542 0.28525-0.64492 0.28525-1.5627 0-0.76895-0.24805-1.3519-0.23564-0.59531-0.74414-0.97978-0.49609-0.39688-1.265-0.58291-0.76894-0.19844-1.8355-0.19844-0.75654 0-1.3022 0.0744-0.5457 0.0744-1.017 0.0744-0.34726 0-0.49609-0.16123t-0.14883-0.62012v-6.536q0-0.40927 0.18604-0.60771 0.19844-0.19844 0.5581-0.19844h7.1065q0.09922 0 0.18604 0.062 0.09922 0.0496 0.16123 0.16123 0.06201 0.11162 0.08682 0.28526 0.03721 0.17363 0.03721 0.40927 0 0.44649-0.12402 0.69454-0.12402 0.24804-0.34727 0.24804h-5.9903v4.502q0.43408-0.062 0.88057-0.0744 0.45889-0.0124 1.0542-0.0124 1.3767 0 2.4061 0.33486 1.0294 0.32246 1.7115 0.93018 0.69453 0.59531 1.0418 1.4511 0.35967 0.85576 0.35967 1.8976z"/>
</g>
</g>
</svg>
