<?xml version="1.0" encoding="UTF-8" standalone="no"?>
<svg
   xmlns:dc="http://purl.org/dc/elements/1.1/"
   xmlns:cc="http://creativecommons.org/ns#"
   xmlns:rdf="http://www.w3.org/1999/02/22-rdf-syntax-ns#"
   xmlns:svg="http://www.w3.org/2000/svg"
   xmlns="http://www.w3.org/2000/svg"
   xmlns:sodipodi="http://sodipodi.sourceforge.net/DTD/sodipodi-0.dtd"
   xmlns:inkscape="http://www.inkscape.org/namespaces/inkscape"
   viewbox="0 0 50 50"
   version="1.1"
   id="svg849"
   sodipodi:docname="sign_up_form.svg"
   width="50"
   height="50"
   inkscape:version="0.92.2 (5c3e80d, 2017-08-06)">
  <metadata
     id="metadata855">
    <rdf:RDF>
      <cc:Work
         rdf:about="">
        <dc:format>image/svg+xml</dc:format>
        <dc:type
           rdf:resource="http://purl.org/dc/dcmitype/StillImage" />
        <dc:title></dc:title>
      </cc:Work>
    </rdf:RDF>
  </metadata>
  <defs
     id="defs853" />
  <sodipodi:namedview
     pagecolor="#ffffff"
     bordercolor="#666666"
     borderopacity="1"
     objecttolerance="10"
     gridtolerance="10"
     guidetolerance="10"
     inkscape:pageopacity="0"
     inkscape:pageshadow="2"
     inkscape:window-width="1920"
     inkscape:window-height="1017"
     id="namedview851"
     showgrid="false"
     inkscape:pagecheckerboard="true"
     inkscape:zoom="8.5"
     inkscape:cx="30.882353"
     inkscape:cy="40.588235"
     inkscape:window-x="-8"
     inkscape:window-y="-8"
     inkscape:window-maximized="1"
     inkscape:current-layer="g847"
     showborder="false" />
  <g
     id="g847"
     transform="matrix(1.1540927,0,0,1.2352941,-4.8881108,-3.6470588)">
    <path
       d="M 31.81,31 H 11 a 1,1 0 0 0 -1,1 v 3 a 1,1 0 0 0 1,1 h 25 a 1,1 0 0 0 1,-1 v -1.806 l 5,-2.446 V 39 a 3,3 0 0 1 -3,3 H 8 A 3,3 0 0 1 5,39 V 8 A 3,3 0 0 1 8,5 h 31 a 3,3 0 0 1 3,3 V 22.767 Z M 10,25 a 1,1 0 0 0 1,1 h 10 a 1,1 0 0 0 1,-1 V 22 A 1,1 0 0 0 21,21 H 11 a 1,1 0 0 0 -1,1 z M 37,12 A 1,1 0 0 0 36,11 H 11 a 1,1 0 0 0 -1,1 v 3 a 1,1 0 0 0 1,1 h 25 a 1,1 0 0 0 1,-1 z m 0,10 A 1,1 0 0 0 36,21 H 26 a 1,1 0 0 0 -1,1 v 3 a 1,1 0 0 0 1,1 h 10 a 1,1 0 0 0 1,-1 z"
       id="path843"
       inkscape:connector-curvature="0"
       style="fill:#9900ff;fill-opacity:1" />
    <path
       d="M 34.956,32.365 46.1,21.205 a 3.06,3.06 0 0 0 0,-4.318 3.043,3.043 0 0 0 -4.31,0 l -11.143,11.16 a 2.445,2.445 0 0 0 -0.64,1.133 l -0.98,3.925 a 0.728,0.728 0 0 0 0.88,0.884 l 3.918,-0.984 a 2.4,2.4 0 0 0 1.13,-0.642 z"
       id="path845"
       inkscape:connector-curvature="0"
       style="fill:#663399;fill-opacity:1" />
  </g>
</svg>
